  0
SECTION
  2
HEADER
  9
$ACADVER
  1
AC1015
  9
$ACADMAINTVER
 70
     6
  9
$DWGCODEPAGE
  3
ANSI_1252
  9
$INSBASE
 10
0.0
 20
0.0
 30
0.0
  9
$EXTMIN
 10
-318.9438182752
 20
-118.4692467377
 30
0.0
  9
$EXTMAX
 10
318.9438182752
 20
716.2038319106
 30
0.0
  9
$LIMMIN
 10
0.0
 20
0.0
  9
$LIMMAX
 10
420.0
 20
297.0
  9
$ORTHOMODE
 70
     0
  9
$REGENMODE
 70
     1
  9
$FILLMODE
 70
     1
  9
$QTEXTMODE
 70
     0
  9
$MIRRTEXT
 70
     1
  9
$LTSCALE
 40
1.0
  9
$ATTMODE
 70
     1
  9
$TEXTSIZE
 40
3.5
  9
$TRACEWID
 40
1.0
  9
$TEXTSTYLE
  7
Standard
  9
$CLAYER
  8
0
  9
$CELTYPE
  6
ByLayer
  9
$CECOLOR
 62
   256
  9
$CELTSCALE
 40
1.0
  9
$DISPSILH
 70
     0
  9
$DIMSCALE
 40
1.0
  9
$DIMASZ
 40
3.302
  9
$DIMEXO
 40
0.0
  9
$DIMDLI
 40
3.75
  9
$DIMRND
 40
0.0
  9
$DIMDLE
 40
0.0
  9
$DIMEXE
 40
1.0
  9
$DIMTP
 40
0.0
  9
$DIMTM
 40
0.0
  9
$DIMTXT
 40
3.5
  9
$DIMCEN
 40
2.5
  9
$DIMTSZ
 40
0.0
  9
$DIMTOL
 70
     0
  9
$DIMLIM
 70
     0
  9
$DIMTIH
 70
     1
  9
$DIMTOH
 70
     1
  9
$DIMSE1
 70
     0
  9
$DIMSE2
 70
     0
  9
$DIMTAD
 70
     1
  9
$DIMZIN
 70
     1
  9
$DIMBLK
  1

  9
$DIMASO
 70
     1
  9
$DIMSHO
 70
     1
  9
$DIMPOST
  1

  9
$DIMAPOST
  1

  9
$DIMALT
 70
     0
  9
$DIMALTD
 70
     3
  9
$DIMALTF
 40
0.0393700787
  9
$DIMLFAC
 40
1.0
  9
$DIMTOFL
 70
     1
  9
$DIMTVP
 40
0.0
  9
$DIMTIX
 70
     0
  9
$DIMSOXD
 70
     0
  9
$DIMSAH
 70
     0
  9
$DIMBLK1
  1

  9
$DIMBLK2
  1

  9
$DIMSTYLE
  2
ISO-25
  9
$DIMCLRD
 70
     0
  9
$DIMCLRE
 70
     0
  9
$DIMCLRT
 70
     0
  9
$DIMTFAC
 40
1.0
  9
$DIMGAP
 40
1.524
  9
$DIMJUST
 70
     0
  9
$DIMSD1
 70
     0
  9
$DIMSD2
 70
     0
  9
$DIMTOLJ
 70
     0
  9
$DIMTZIN
 70
     1
  9
$DIMALTZ
 70
     0
  9
$DIMALTTZ
 70
     0
  9
$DIMUPT
 70
     0
  9
$DIMDEC
 70
     2
  9
$DIMTDEC
 70
     2
  9
$DIMALTU
 70
     2
  9
$DIMALTTD
 70
     3
  9
$DIMTXSTY
  7
Standard
  9
$DIMAUNIT
 70
     0
  9
$DIMADEC
 70
     2
  9
$DIMALTRND
 40
0.0
  9
$DIMAZIN
 70
     0
  9
$DIMDSEP
 70
    44
  9
$DIMATFIT
 70
     3
  9
$DIMFRAC
 70
     0
  9
$DIMLDRBLK
  1

  9
$DIMLUNIT
 70
     2
  9
$DIMLWD
 70
    -2
  9
$DIMLWE
 70
    -2
  9
$DIMTMOVE
 70
     0
  9
$LUNITS
 70
     2
  9
$LUPREC
 70
     2
  9
$SKETCHINC
 40
1.0
  9
$FILLETRAD
 40
0.0
  9
$AUNITS
 70
     0
  9
$AUPREC
 70
     2
  9
$MENU
  1
.
  9
$ELEVATION
 40
0.0
  9
$PELEVATION
 40
0.0
  9
$THICKNESS
 40
0.0
  9
$LIMCHECK
 70
     0
  9
$CHAMFERA
 40
0.0
  9
$CHAMFERB
 40
0.0
  9
$CHAMFERC
 40
0.0
  9
$CHAMFERD
 40
0.0
  9
$SKPOLY
 70
     0
  9
$TDCREATE
 40
2460665.96880941
  9
$TDUCREATE
 40
2460665.885476077
  9
$TDUPDATE
 40
2460665.968897257
  9
$TDUUPDATE
 40
2460665.885563924
  9
$TDINDWG
 40
0.0000000116
  9
$TDUSRTIMER
 40
0.0000000116
  9
$USRTIMER
 70
     1
  9
$ANGBASE
 50
0.0
  9
$ANGDIR
 70
     0
  9
$PDMODE
 70
     0
  9
$PDSIZE
 40
-1.0
  9
$PLINEWID
 40
0.0
  9
$SPLFRAME
 70
     0
  9
$SPLINETYPE
 70
     6
  9
$SPLINESEGS
 70
     8
  9
$HANDSEED
  5
372
  9
$SURFTAB1
 70
     6
  9
$SURFTAB2
 70
     6
  9
$SURFTYPE
 70
     6
  9
$SURFU
 70
     6
  9
$SURFV
 70
     6
  9
$UCSBASE
  2

  9
$UCSNAME
  2

  9
$UCSORG
 10
0.0
 20
0.0
 30
0.0
  9
$UCSXDIR
 10
1.0
 20
0.0
 30
0.0
  9
$UCSYDIR
 10
0.0
 20
1.0
 30
0.0
  9
$UCSORTHOREF
  2

  9
$UCSORTHOVIEW
 70
     0
  9
$UCSORGTOP
 10
0.0
 20
0.0
 30
0.0
  9
$UCSORGBOTTOM
 10
0.0
 20
0.0
 30
0.0
  9
$UCSORGLEFT
 10
0.0
 20
0.0
 30
0.0
  9
$UCSORGRIGHT
 10
0.0
 20
0.0
 30
0.0
  9
$UCSORGFRONT
 10
0.0
 20
0.0
 30
0.0
  9
$UCSORGBACK
 10
0.0
 20
0.0
 30
0.0
  9
$PUCSBASE
  2

  9
$PUCSNAME
  2

  9
$PUCSORG
 10
0.0
 20
0.0
 30
0.0
  9
$PUCSXDIR
 10
1.0
 20
0.0
 30
0.0
  9
$PUCSYDIR
 10
0.0
 20
1.0
 30
0.0
  9
$PUCSORTHOREF
  2

  9
$PUCSORTHOVIEW
 70
     0
  9
$PUCSORGTOP
 10
0.0
 20
0.0
 30
0.0
  9
$PUCSORGBOTTOM
 10
0.0
 20
0.0
 30
0.0
  9
$PUCSORGLEFT
 10
0.0
 20
0.0
 30
0.0
  9
$PUCSORGRIGHT
 10
0.0
 20
0.0
 30
0.0
  9
$PUCSORGFRONT
 10
0.0
 20
0.0
 30
0.0
  9
$PUCSORGBACK
 10
0.0
 20
0.0
 30
0.0
  9
$USERI1
 70
     0
  9
$USERI2
 70
     0
  9
$USERI3
 70
     0
  9
$USERI4
 70
     0
  9
$USERI5
 70
     0
  9
$USERR1
 40
0.0
  9
$USERR2
 40
0.0
  9
$USERR3
 40
0.0
  9
$USERR4
 40
0.0
  9
$USERR5
 40
0.0
  9
$WORLDVIEW
 70
     1
  9
$SHADEDGE
 70
     3
  9
$SHADEDIF
 70
    70
  9
$TILEMODE
 70
     1
  9
$MAXACTVP
 70
    64
  9
$PINSBASE
 10
0.0
 20
0.0
 30
0.0
  9
$PLIMCHECK
 70
     0
  9
$PEXTMIN
 10
1.0000000000E+20
 20
1.0000000000E+20
 30
1.0000000000E+20
  9
$PEXTMAX
 10
-1.0000000000E+20
 20
-1.0000000000E+20
 30
-1.0000000000E+20
  9
$PLIMMIN
 10
0.0
 20
0.0
  9
$PLIMMAX
 10
420.0
 20
297.0
  9
$UNITMODE
 70
     0
  9
$VISRETAIN
 70
     1
  9
$PLINEGEN
 70
     0
  9
$PSLTSCALE
 70
     1
  9
$TREEDEPTH
 70
  3020
  9
$CMLSTYLE
  2
Standard
  9
$CMLJUST
 70
     0
  9
$CMLSCALE
 40
20.0
  9
$PROXYGRAPHICS
 70
     1
  9
$MEASUREMENT
 70
     1
  9
$CELWEIGHT
370
    -1
  9
$ENDCAPS
280
     0
  9
$JOINSTYLE
280
     0
  9
$LWDISPLAY
290
     1
  9
$INSUNITS
 70
     4
  9
$HYPERLINKBASE
  1

  9
$STYLESHEET
  1

  9
$XEDIT
290
     1
  9
$CEPSNTYPE
380
     0
  9
$PSTYLEMODE
290
     1
  9
$FINGERPRINTGUID
  2
{34a3b705-671a-479f-8201-cdf1e5ccb53b}
  9
$VERSIONGUID
  2
{FAEB1C32-E019-11D5-929B-00C0DF256EC4}
  9
$EXTNAMES
290
     1
  9
$PSVPSCALE
 40
0.0
  9
$OLESTARTUP
290
     0
  0
ENDSEC
  0
SECTION
  2
CLASSES
  0
CLASS
  1
ACDBDICTIONARYWDFLT
  2
AcDbDictionaryWithDefault
  3
ObjectDBX Classes
 90
        0
280
     0
281
     0
  0
CLASS
  1
VISUALSTYLE
  2
AcDbVisualStyle
  3
ObjectDBX Classes
 90
     4095
280
     0
281
     0
  0
CLASS
  1
MATERIAL
  2
AcDbMaterial
  3
ObjectDBX Classes
 90
     1153
280
     0
281
     0
  0
CLASS
  1
SCALE
  2
AcDbScale
  3
ObjectDBX Classes
 90
     1153
280
     0
281
     0
  0
CLASS
  1
TABLESTYLE
  2
AcDbTableStyle
  3
ObjectDBX Classes
 90
     4095
280
     0
281
     0
  0
CLASS
  1
MLEADERSTYLE
  2
AcDbMLeaderStyle
  3
ACDB_MLEADERSTYLE_CLASS
 90
     4095
280
     0
281
     0
  0
CLASS
  1
SUN
  2
AcDbSun
  3
SCENEOE
 90
     1153
280
     0
281
     0
  0
CLASS
  1
ACDBPLACEHOLDER
  2
AcDbPlaceHolder
  3
ObjectDBX Classes
 90
        0
280
     0
281
     0
  0
CLASS
  1
LAYOUT
  2
AcDbLayout
  3
ObjectDBX Classes
 90
        0
280
     0
281
     0
  0
ENDSEC
  0
SECTION
  2
TABLES
  0
TABLE
  2
VPORT
  5
8
330
0
100
AcDbSymbolTable
 70
     1
  0
VPORT
  5
29
330
8
100
AcDbSymbolTableRecord
100
AcDbViewportTableRecord
  2
*Active
 70
     0
 10
0.0
 20
0.0
 11
1.0
 21
1.0
 12
0.0
 22
298.8672925865
 13
0.0
 23
0.0
 14
10.0
 24
10.0
 15
10.0
 25
10.0
 16
0.0
 26
0.0
 36
1.0
 17
0.0
 27
0.0
 37
0.0
 40
851.3665402213
 41
0.7642365051
 42
50.0
 43
0.0
 44
0.0
 50
0.0
 51
0.0
 71
     0
 72
   100
 73
     1
 74
     3
 75
     0
 76
     0
 77
     0
 78
     0
281
     0
 65
     1
110
0.0
120
0.0
130
0.0
111
1.0
121
0.0
131
0.0
112
0.0
122
1.0
132
0.0
 79
     0
146
0.0
  0
ENDTAB
  0
TABLE
  2
LTYPE
  5
5
330
0
100
AcDbSymbolTable
 70
     6
  0
LTYPE
  5
14
330
5
100
AcDbSymbolTableRecord
100
AcDbLinetypeTableRecord
  2
ByBlock
 70
     0
  3

 72
    65
 73
     0
 40
0.0
  0
LTYPE
  5
15
330
5
100
AcDbSymbolTableRecord
100
AcDbLinetypeTableRecord
  2
ByLayer
 70
     0
  3

 72
    65
 73
     0
 40
0.0
  0
LTYPE
  5
16
330
5
100
AcDbSymbolTableRecord
100
AcDbLinetypeTableRecord
  2
Continuous
 70
     0
  3
Solid line
 72
    65
 73
     0
 40
0.0
  0
LTYPE
  5
5E
330
5
100
AcDbSymbolTableRecord
100
AcDbLinetypeTableRecord
  2
HIDDEN
 70
     0
  3
Hidden __ __ __ __ __ __ __ __ __ __ __ __ __ __
 72
    65
 73
     2
 40
1.905
 49
1.27
 74
     0
 49
-0.635
 74
     0
  0
LTYPE
  5
5F
330
5
100
AcDbSymbolTableRecord
100
AcDbLinetypeTableRecord
  2
PHANTOM
 70
     0
  3
Phantom ______  __  __  ______  __  __  ______
 72
    65
 73
     6
 40
12.7
 49
6.35
 74
     0
 49
-1.27
 74
     0
 49
1.27
 74
     0
 49
-1.27
 74
     0
 49
1.27
 74
     0
 49
-1.27
 74
     0
  0
LTYPE
  5
60
330
5
100
AcDbSymbolTableRecord
100
AcDbLinetypeTableRecord
  2
CENTER
 70
     0
  3
Center ____ _ ____ _ ____ _ ____ _ ____ _ ____
 72
    65
 73
     4
 40
10.16
 49
6.35
 74
     0
 49
-1.27
 74
     0
 49
1.27
 74
     0
 49
-1.27
 74
     0
  0
LTYPE
  5
61
330
5
100
AcDbSymbolTableRecord
100
AcDbLinetypeTableRecord
  2
CENTERX2
 70
     0
  3
Center (2x) ________  __  ________  __  _____
 72
    65
 73
     4
 40
20.32
 49
12.7
 74
     0
 49
-2.54
 74
     0
 49
2.54
 74
     0
 49
-2.54
 74
     0
  0
LTYPE
  5
62
330
5
100
AcDbSymbolTableRecord
100
AcDbLinetypeTableRecord
  2
DOT2
 70
     0
  3
Dot (.5x) ........................................
 72
    65
 73
     2
 40
0.635
 49
0.0
 74
     0
 49
-0.635
 74
     0
  0
ENDTAB
  0
TABLE
  2
LAYER
  5
2
330
0
100
AcDbSymbolTable
 70
     1
  0
LAYER
  5
10
330
2
100
AcDbSymbolTableRecord
100
AcDbLayerTableRecord
  2
0
 70
     0
 62
     7
  6
Continuous
370
    -3
390
F
  0
ENDTAB
  0
TABLE
  2
STYLE
  5
3
330
0
100
AcDbSymbolTable
 70
     1
  0
STYLE
  5
11
330
3
100
AcDbSymbolTableRecord
100
AcDbTextStyleTableRecord
  2
Standard
 70
     0
 40
0.0
 41
1.0
 50
0.0
 71
     0
 42
3.5
  3
txt
  4

  0
ENDTAB
  0
TABLE
  2
VIEW
  5
6
330
0
100
AcDbSymbolTable
 70
     0
  0
ENDTAB
  0
TABLE
  2
UCS
  5
7
330
0
100
AcDbSymbolTable
 70
     0
  0
ENDTAB
  0
TABLE
  2
APPID
  5
9
330
0
100
AcDbSymbolTable
 70
     1
  0
APPID
  5
12
330
9
100
AcDbSymbolTableRecord
100
AcDbRegAppTableRecord
  2
ACAD
 70
     0
  0
ENDTAB
  0
TABLE
  2
DIMSTYLE
  5
A
330
0
100
AcDbSymbolTable
 70
     1
100
AcDbDimStyleTable
  0
DIMSTYLE
105
27
330
A
100
AcDbSymbolTableRecord
100
AcDbDimStyleTableRecord
  2
ISO-25
 70
     0
 41
2.5
 42
0.625
 43
3.75
 44
1.25
 73
     0
 74
     0
 77
     1
 78
     8
140
2.5
141
2.5
143
0.0393700787
147
0.625
171
     3
172
     1
178
     0
271
     2
272
     2
274
     3
278
    44
283
     0
284
     8
340
11
  0
ENDTAB
  0
TABLE
  2
BLOCK_RECORD
  5
1
330
0
100
AcDbSymbolTable
 70
     1
  0
BLOCK_RECORD
  5
1F
330
1
100
AcDbSymbolTableRecord
100
AcDbBlockTableRecord
  2
*Model_Space
340
22
  0
BLOCK_RECORD
  5
1B
330
1
100
AcDbSymbolTableRecord
100
AcDbBlockTableRecord
  2
*Paper_Space
340
1E
  0
BLOCK_RECORD
  5
23
330
1
100
AcDbSymbolTableRecord
100
AcDbBlockTableRecord
  2
*Paper_Space0
340
26
  0
ENDTAB
  0
ENDSEC
  0
SECTION
  2
BLOCKS
  0
BLOCK
  5
20
330
1F
100
AcDbEntity
  8
0
100
AcDbBlockBegin
  2
*Model_Space
 70
     0
 10
0.0
 20
0.0
 30
0.0
  3
*Model_Space
  1

  0
ENDBLK
  5
21
330
1F
100
AcDbEntity
  8
0
100
AcDbBlockEnd
  0
BLOCK
  5
1C
330
1B
100
AcDbEntity
 67
     1
  8
0
100
AcDbBlockBegin
  2
*Paper_Space
 70
     0
 10
0.0
 20
0.0
 30
0.0
  3
*Paper_Space
  1

  0
ENDBLK
  5
1D
330
1B
100
AcDbEntity
 67
     1
  8
0
100
AcDbBlockEnd
  0
BLOCK
  5
24
330
23
100
AcDbEntity
  8
0
100
AcDbBlockBegin
  2
*Paper_Space0
 70
     0
 10
0.0
 20
0.0
 30
0.0
  3
*Paper_Space0
  1

  0
ENDBLK
  5
25
330
23
100
AcDbEntity
  8
0
100
AcDbBlockEnd
  0
ENDSEC
  0
SECTION
  2
ENTITIES
  0
LINE
  5
63
330
1F
100
AcDbEntity
  8
0
  6
HIDDEN
 62
     7
100
AcDbLine
 10
-200.1629186462
 20
1.7577261108
 30
0.0
 11
-148.1663663602
 21
596.0810383032
 31
0.0
  0
LINE
  5
64
330
1F
100
AcDbEntity
  8
0
  6
HIDDEN
 62
     7
100
AcDbLine
 10
148.1663663602
 20
596.0810383032
 30
0.0
 11
200.1629186462
 21
1.7577261108
 31
0.0
  0
LINE
  5
65
330
1F
100
AcDbEntity
  8
0
  6
HIDDEN
 62
     7
100
AcDbLine
 10
-147.1970986284
 20
596.9692085418
 30
0.0
 11
147.1970986284
 21
596.9692085418
 31
0.0
  0
LINE
  5
66
330
1F
100
AcDbEntity
  8
0
  6
HIDDEN
 62
     7
100
AcDbLine
 10
199.2535978825
 20
0.7653766311
 30
0.0
 11
-199.2535978825
 21
0.7653766311
 31
0.0
  0
LINE
  5
67
330
1F
100
AcDbEntity
  8
0
  6
CENTERX2
 62
     7
100
AcDbLine
 10
-318.9438182752
 20
716.2038319106
 30
0.0
 11
-318.9438182752
 21
-118.4692467377
 31
0.0
  0
LINE
  5
68
330
1F
100
AcDbEntity
  8
0
  6
CENTERX2
 62
     7
100
AcDbLine
 10
318.9438182752
 20
716.2038319106
 30
0.0
 11
318.9438182752
 21
-118.4692467377
 31
0.0
  0
LINE
  5
69
330
1F
100
AcDbEntity
  8
0
  6
CENTERX2
 62
     7
100
AcDbLine
 10
-318.9438182752
 20
716.2038319106
 30
0.0
 11
318.9438182752
 21
716.2038319106
 31
0.0
  0
LINE
  5
6A
330
1F
100
AcDbEntity
  8
0
  6
CENTERX2
 62
     7
100
AcDbLine
 10
-318.9438182752
 20
-118.4692467377
 30
0.0
 11
318.9438182752
 21
-118.4692467377
 31
0.0
  0
CIRCLE
  5
1A6
330
1F
100
AcDbEntity
  8
0
  6
Continuous
 62
     7
370
    25
100
AcDbCircle
 10
223.6938281806
 20
543.0101388863
 30
0.0
 40
11.00000000000019
  0
CIRCLE
  5
1A7
330
1F
100
AcDbEntity
  8
0
  6
Continuous
 62
     7
370
    25
100
AcDbCircle
 10
199.4056979743
 20
460.5796158315
 30
0.0
 40
4.00000000000003
  0
CIRCLE
  5
1A8
330
1F
100
AcDbEntity
  8
0
  6
Continuous
 62
     7
370
    25
100
AcDbCircle
 10
286.8660559872
 20
149.3259440657
 30
0.0
 40
4.000000000000017
  0
CIRCLE
  5
1A9
330
1F
100
AcDbEntity
  8
0
  6
Continuous
 62
     7
370
    25
100
AcDbCircle
 10
227.0943741017
 20
144.0965995008
 30
0.0
 40
4.000000000000066
  0
CIRCLE
  5
1AA
330
1F
100
AcDbEntity
  8
0
  6
Continuous
 62
     7
370
    25
100
AcDbCircle
 10
259.1773798598
 20
465.8089603964
 30
0.0
 40
4.000000000000107
  0
CIRCLE
  5
1AB
330
1F
100
AcDbEntity
  8
0
  6
Continuous
 62
     7
370
    25
100
AcDbCircle
 10
265.3274231476
 20
67.1359708609
 30
0.0
 40
10.00000000000004
  0
CIRCLE
  5
1AC
330
1F
100
AcDbEntity
  8
0
  6
Continuous
 62
     7
370
    25
100
AcDbCircle
 10
234.4453875068
 20
64.4341428357
 30
0.0
 40
2.999999999999998
  0
CIRCLE
  5
1AD
330
1F
100
AcDbEntity
  8
0
  6
Continuous
 62
     7
370
    25
100
AcDbCircle
 10
282.7785686915
 20
95.7658838752
 30
0.0
 40
3.00000000000004
  0
CIRCLE
  5
1AE
330
1F
100
AcDbEntity
  8
0
  6
Continuous
 62
     7
370
    25
100
AcDbCircle
 10
287.4849787999
 20
41.9713701782
 30
0.0
 40
2.999999999999993
  0
CIRCLE
  5
1AF
330
1F
100
AcDbEntity
  8
0
  6
Continuous
 62
     7
370
    25
100
AcDbCircle
 10
254.5758638214
 20
545.7119669115
 30
0.0
 40
3.00000000000007
  0
CIRCLE
  5
1B0
330
1F
100
AcDbEntity
  8
0
  6
Continuous
 62
     7
370
    25
100
AcDbCircle
 10
206.2426826367
 20
514.380225872
 30
0.0
 40
2.999999999999981
  0
CIRCLE
  5
1B1
330
1F
100
AcDbEntity
  8
0
  6
Continuous
 62
     7
370
    25
100
AcDbCircle
 10
201.5362725283
 20
568.174739569
 30
0.0
 40
3.000000000000079
  0
CIRCLE
  5
1B2
330
1F
100
AcDbEntity
  8
0
  6
Continuous
 62
     7
370
    25
100
AcDbCircle
 10
-265.386304714
 20
66.462951478
 30
0.0
 40
11.0000000000001
  0
CIRCLE
  5
1B3
330
1F
100
AcDbEntity
  8
0
  6
Continuous
 62
     7
370
    25
100
AcDbCircle
 10
-223.6938281806
 20
543.0101388863
 30
0.0
 40
11.00000000000029
  0
CIRCLE
  5
1B4
330
1F
100
AcDbEntity
  8
0
  6
Continuous
 62
     7
370
    25
100
AcDbCircle
 10
-247.9353001412
 20
37.8330507971
 30
0.0
 40
3.000000000000004
  0
CIRCLE
  5
1B5
330
1F
100
AcDbEntity
  8
0
  6
Continuous
 62
     7
370
    25
100
AcDbCircle
 10
-296.2683403548
 20
69.1647795032
 30
0.0
 40
2.99999999999995
  0
CIRCLE
  5
1B6
330
1F
100
AcDbEntity
  8
0
  6
Continuous
 62
     7
370
    25
100
AcDbCircle
 10
-243.2288900329
 20
91.627564494
 30
0.0
 40
3.00000000000003
  0
CIRCLE
  5
1B7
330
1F
100
AcDbEntity
  8
0
  6
Continuous
 62
     7
370
    25
100
AcDbCircle
 10
-241.1448327533
 20
571.6400395672
 30
0.0
 40
3.000000000000203
  0
CIRCLE
  5
1B8
330
1F
100
AcDbEntity
  8
0
  6
Continuous
 62
     7
370
    25
100
AcDbCircle
 10
-245.8512428617
 20
517.8455258703
 30
0.0
 40
3.000000000000087
  0
CIRCLE
  5
1B9
330
1F
100
AcDbEntity
  8
0
  6
Continuous
 62
     7
370
    25
100
AcDbCircle
 10
-192.8117925397
 20
540.3083108611
 30
0.0
 40
3.000000000000092
  0
CIRCLE
  5
1BA
330
1F
100
AcDbEntity
  8
0
  6
Continuous
 62
     7
370
    25
100
AcDbCircle
 10
-227.153255668
 20
143.4235801179
 30
0.0
 40
3.999999999999943
  0
CIRCLE
  5
1BB
330
1F
100
AcDbEntity
  8
0
  6
Continuous
 62
     7
370
    25
100
AcDbCircle
 10
-259.1773798598
 20
465.8089603964
 30
0.0
 40
4.000000000000036
  0
CIRCLE
  5
1BC
330
1F
100
AcDbEntity
  8
0
  6
Continuous
 62
     7
370
    25
100
AcDbCircle
 10
-199.4056979743
 20
460.5796158315
 30
0.0
 40
4.000000000000045
  0
CIRCLE
  5
1BD
330
1F
100
AcDbEntity
  8
0
  6
Continuous
 62
     7
370
    25
100
AcDbCircle
 10
-286.9249375536
 20
148.6529246828
 30
0.0
 40
3.99999999999995
  0
LINE
  5
1FA
330
1F
100
AcDbEntity
  8
0
  6
Continuous
 62
     7
370
    25
100
AcDbLine
 10
30.7687068043
 20
-34.3209042186
 30
0.0
 11
44.3685165794
 21
-33.0558056348
 31
0.0
  0
LINE
  5
1FB
330
1F
100
AcDbEntity
  8
0
  6
Continuous
 62
     7
370
    25
100
AcDbLine
 10
41.2057701201
 20
-54.5624815583
 30
0.0
 11
30.7687068043
 21
-34.3209042186
 31
0.0
  0
LINE
  5
1FC
330
1F
100
AcDbEntity
  8
0
  6
Continuous
 62
     7
370
    25
100
AcDbLine
 10
31.0849814502
 20
-55.5113054961
 30
0.0
 11
41.2057701201
 21
-54.5624815583
 31
0.0
  0
LINE
  5
1FD
330
1F
100
AcDbEntity
  8
0
  6
Continuous
 62
     7
370
    25
100
AcDbLine
 10
58.6008756464
 20
-82.7109250464
 30
0.0
 11
31.0849814502
 21
-55.5113054961
 31
0.0
  0
LINE
  5
1FE
330
1F
100
AcDbEntity
  8
0
  6
Continuous
 62
     7
370
    25
100
AcDbLine
 10
51.32655879
 20
-62.7856223526
 30
0.0
 11
58.6008756464
 21
-82.7109250464
 31
0.0
  0
LINE
  5
1FF
330
1F
100
AcDbEntity
  8
0
  6
Continuous
 62
     7
370
    25
100
AcDbLine
 10
61.4473474599
 20
-61.5205237689
 30
0.0
 11
51.32655879
 21
-62.7856223526
 31
0.0
  0
LINE
  5
200
330
1F
100
AcDbEntity
  8
0
  6
Continuous
 62
     7
370
    25
100
AcDbLine
 10
44.3685165794
 20
-33.0558056348
 30
0.0
 11
61.4473474599
 21
-61.5205237689
 31
0.0
  0
LINE
  5
201
330
1F
100
AcDbEntity
  8
0
  6
Continuous
 62
     7
370
    25
100
AcDbLine
 10
16.0625709497
 20
-110.9051230843
 30
0.0
 11
16.0625709497
 21
-105.9051230843
 31
0.0
  0
LINE
  5
202
330
1F
100
AcDbEntity
  8
0
  6
Continuous
 62
     7
370
    25
100
AcDbLine
 10
-59.9343696625
 20
-105.9051230843
 30
0.0
 11
16.0625709497
 21
-105.9051230843
 31
0.0
  0
LINE
  5
203
330
1F
100
AcDbEntity
  8
0
  6
Continuous
 62
     7
370
    25
100
AcDbLine
 10
-59.9343696625
 20
-110.9051230843
 30
0.0
 11
-59.9343696625
 21
-105.9051230843
 31
0.0
  0
LINE
  5
204
330
1F
100
AcDbEntity
  8
0
  6
Continuous
 62
     7
370
    25
100
AcDbLine
 10
-59.9343696625
 20
-110.9051230843
 30
0.0
 11
16.0625709497
 21
-110.9051230843
 31
0.0
  0
LINE
  5
205
330
1F
100
AcDbEntity
  8
0
  6
Continuous
 62
     7
370
    25
100
AcDbLine
 10
20.7682638669
 20
-12.0333703911
 30
0.0
 11
20.7682638669
 21
-7.0333703911
 31
0.0
  0
LINE
  5
206
330
1F
100
AcDbEntity
  8
0
  6
Continuous
 62
     7
370
    25
100
AcDbLine
 10
-42.0527365773
 20
-7.0333703911
 30
0.0
 11
20.7682638669
 21
-7.0333703911
 31
0.0
  0
LINE
  5
207
330
1F
100
AcDbEntity
  8
0
  6
Continuous
 62
     7
370
    25
100
AcDbLine
 10
-42.0527365773
 20
-12.0333703911
 30
0.0
 11
-42.0527365773
 21
-7.0333703911
 31
0.0
  0
LINE
  5
208
330
1F
100
AcDbEntity
  8
0
  6
Continuous
 62
     7
370
    25
100
AcDbLine
 10
-42.0527365773
 20
-12.0333703911
 30
0.0
 11
20.7682638669
 21
-12.0333703911
 31
0.0
  0
LINE
  5
209
330
1F
100
AcDbEntity
  8
0
  6
Continuous
 62
     7
370
    25
100
AcDbLine
 10
-132.6948707546
 20
-50.3990222333
 30
0.0
 11
-127.6948707546
 21
-50.3990222333
 31
0.0
  0
LINE
  5
20A
330
1F
100
AcDbEntity
  8
0
  6
Continuous
 62
     7
370
    25
100
AcDbLine
 10
-127.6948707546
 20
-50.3990222333
 30
0.0
 11
-127.6948707546
 21
-17.0333703911
 31
0.0
  0
LINE
  5
20B
330
1F
100
AcDbEntity
  8
0
  6
Continuous
 62
     7
370
    25
100
AcDbLine
 10
-122.6948707546
 20
-12.0333703911
 30
0.0
 11
-86.2862499987
 21
-12.0333703911
 31
0.0
  0
LINE
  5
20C
330
1F
100
AcDbEntity
  8
0
  6
Continuous
 62
     7
370
    25
100
AcDbLine
 10
-86.2862499987
 20
-12.0333703911
 30
0.0
 11
-86.2862499987
 21
-7.0333703911
 31
0.0
  0
LINE
  5
20D
330
1F
100
AcDbEntity
  8
0
  6
Continuous
 62
     7
370
    25
100
AcDbLine
 10
-127.6948707546
 20
-7.0333703911
 30
0.0
 11
-86.2862499987
 21
-7.0333703911
 31
0.0
  0
LINE
  5
20E
330
1F
100
AcDbEntity
  8
0
  6
Continuous
 62
     7
370
    25
100
AcDbLine
 10
-132.6948707546
 20
-50.3990222333
 30
0.0
 11
-132.6948707546
 21
-12.0333703911
 31
0.0
  0
LINE
  5
20F
330
1F
100
AcDbEntity
  8
0
  6
Continuous
 62
     7
370
    25
100
AcDbLine
 10
49.4729906616
 20
-12.0333703911
 30
0.0
 11
49.4729906616
 21
-7.0333703911
 31
0.0
  0
LINE
  5
210
330
1F
100
AcDbEntity
  8
0
  6
Continuous
 62
     7
370
    25
100
AcDbLine
 10
49.4729906616
 20
-12.0333703911
 30
0.0
 11
79.4620257668
 21
-12.0333703911
 31
0.0
  0
LINE
  5
211
330
1F
100
AcDbEntity
  8
0
  6
Continuous
 62
     7
370
    25
100
AcDbLine
 10
84.4620257668
 20
-42.834277115
 30
0.0
 11
84.4620257668
 21
-17.0333703911
 31
0.0
  0
LINE
  5
212
330
1F
100
AcDbEntity
  8
0
  6
Continuous
 62
     7
370
    25
100
AcDbLine
 10
84.4620257668
 20
-42.834277115
 30
0.0
 11
89.4620257668
 21
-42.834277115
 31
0.0
  0
LINE
  5
213
330
1F
100
AcDbEntity
  8
0
  6
Continuous
 62
     7
370
    25
100
AcDbLine
 10
89.4620257668
 20
-42.834277115
 30
0.0
 11
89.4620257668
 21
-12.0333703911
 31
0.0
  0
LINE
  5
214
330
1F
100
AcDbEntity
  8
0
  6
Continuous
 62
     7
370
    25
100
AcDbLine
 10
49.4729906616
 20
-7.0333703911
 30
0.0
 11
84.4620257668
 21
-7.0333703911
 31
0.0
  0
LINE
  5
215
330
1F
100
AcDbEntity
  8
0
  6
Continuous
 62
     7
370
    25
100
AcDbLine
 10
94.714133359
 20
-100.3990222333
 30
0.0
 11
94.792742852
 21
-100.3990222333
 31
0.0
  0
LINE
  5
216
330
1F
100
AcDbEntity
  8
0
  6
Continuous
 62
     7
370
    25
100
AcDbLine
 10
99.792742852
 20
-95.3990222333
 30
0.0
 11
99.792742852
 21
-29.5773483167
 31
0.0
  0
LINE
  5
217
330
1F
100
AcDbEntity
  8
0
  6
Continuous
 62
     7
370
    25
100
AcDbLine
 10
94.714133359
 20
-24.5773483167
 30
0.0
 11
94.792742852
 21
-24.5773483167
 31
0.0
  0
LINE
  5
218
330
1F
100
AcDbEntity
  8
0
  6
Continuous
 62
     7
370
    25
100
AcDbLine
 10
94.714133359
 20
-100.3990222333
 30
0.0
 11
94.714133359
 21
-24.5773483167
 31
0.0
  0
LINE
  5
219
330
1F
100
AcDbEntity
  8
0
  6
Continuous
 62
     7
370
    25
100
AcDbLine
 10
5.6673924509
 20
-100.3990222333
 30
0.0
 11
-108.9828250483
 21
-100.3990222333
 31
0.0
  0
LINE
  5
21A
330
1F
100
AcDbEntity
  8
0
  6
Continuous
 62
     7
370
    25
100
AcDbLine
 10
5.6673924509
 20
-96.3990222333
 30
0.0
 11
-105.5862962299
 21
-96.3990222333
 31
0.0
  0
LINE
  5
21B
330
1F
100
AcDbEntity
  8
0
  6
Continuous
 62
     7
370
    25
100
AcDbLine
 10
-105.5857815668
 20
-96.3398918625
 30
0.0
 11
-105.5857815668
 21
-90.3990222333
 31
0.0
  0
LINE
  5
21C
330
1F
100
AcDbEntity
  8
0
  6
Continuous
 62
     7
370
    25
100
AcDbLine
 10
5.6673924509
 20
-90.3990222333
 30
0.0
 11
-105.5857815668
 21
-90.3990222333
 31
0.0
  0
LINE
  5
21D
330
1F
100
AcDbEntity
  8
0
  6
Continuous
 62
     7
370
    25
100
AcDbLine
 10
5.6673924509
 20
-86.3990222333
 30
0.0
 11
-105.5857815668
 21
-86.3990222333
 31
0.0
  0
LINE
  5
21E
330
1F
100
AcDbEntity
  8
0
  6
Continuous
 62
     7
370
    25
100
AcDbLine
 10
-105.5857815668
 20
-86.3990222333
 30
0.0
 11
-105.5857815668
 21
-80.3990222333
 31
0.0
  0
LINE
  5
21F
330
1F
100
AcDbEntity
  8
0
  6
Continuous
 62
     7
370
    25
100
AcDbLine
 10
5.6673924509
 20
-80.3990222333
 30
0.0
 11
-105.5857815668
 21
-80.3990222333
 31
0.0
  0
LINE
  5
220
330
1F
100
AcDbEntity
  8
0
  6
Continuous
 62
     7
370
    25
100
AcDbLine
 10
5.6673924509
 20
-76.3990222333
 30
0.0
 11
-105.5857815668
 21
-76.3990222333
 31
0.0
  0
LINE
  5
221
330
1F
100
AcDbEntity
  8
0
  6
Continuous
 62
     7
370
    25
100
AcDbLine
 10
-105.5857815668
 20
-76.3990222333
 30
0.0
 11
-105.5857815668
 21
-70.3990222333
 31
0.0
  0
LINE
  5
222
330
1F
100
AcDbEntity
  8
0
  6
Continuous
 62
     7
370
    25
100
AcDbLine
 10
5.6673924509
 20
-70.3990222333
 30
0.0
 11
-105.5857815668
 21
-70.3990222333
 31
0.0
  0
LINE
  5
223
330
1F
100
AcDbEntity
  8
0
  6
Continuous
 62
     7
370
    25
100
AcDbLine
 10
5.6673924509
 20
-66.3990222333
 30
0.0
 11
-105.5857815668
 21
-66.3990222333
 31
0.0
  0
LINE
  5
224
330
1F
100
AcDbEntity
  8
0
  6
Continuous
 62
     7
370
    25
100
AcDbLine
 10
-105.5857815668
 20
-66.3990222333
 30
0.0
 11
-105.5857815668
 21
-60.3990222333
 31
0.0
  0
LINE
  5
225
330
1F
100
AcDbEntity
  8
0
  6
Continuous
 62
     7
370
    25
100
AcDbLine
 10
5.6673924509
 20
-60.3990222333
 30
0.0
 11
-105.5857815668
 21
-60.3990222333
 31
0.0
  0
LINE
  5
226
330
1F
100
AcDbEntity
  8
0
  6
Continuous
 62
     7
370
    25
100
AcDbLine
 10
5.6673924509
 20
-56.3990222333
 30
0.0
 11
-105.5857815668
 21
-56.3990222333
 31
0.0
  0
LINE
  5
227
330
1F
100
AcDbEntity
  8
0
  6
Continuous
 62
     7
370
    25
100
AcDbLine
 10
-105.5857815668
 20
-56.3990222333
 30
0.0
 11
-105.5857815668
 21
-50.3990222333
 31
0.0
  0
LINE
  5
228
330
1F
100
AcDbEntity
  8
0
  6
Continuous
 62
     7
370
    25
100
AcDbLine
 10
5.6673924509
 20
-50.3990222333
 30
0.0
 11
-105.5857815668
 21
-50.3990222333
 31
0.0
  0
LINE
  5
229
330
1F
100
AcDbEntity
  8
0
  6
Continuous
 62
     7
370
    25
100
AcDbLine
 10
5.6673924509
 20
-46.3990222333
 30
0.0
 11
-105.5857815668
 21
-46.3990222333
 31
0.0
  0
LINE
  5
22A
330
1F
100
AcDbEntity
  8
0
  6
Continuous
 62
     7
370
    25
100
AcDbLine
 10
-105.5857815668
 20
-46.3990222333
 30
0.0
 11
-105.5857815668
 21
-40.3990222333
 31
0.0
  0
LINE
  5
22B
330
1F
100
AcDbEntity
  8
0
  6
Continuous
 62
     7
370
    25
100
AcDbLine
 10
5.6673924509
 20
-40.3990222333
 30
0.0
 11
-105.5857815668
 21
-40.3990222333
 31
0.0
  0
LINE
  5
22C
330
1F
100
AcDbEntity
  8
0
  6
Continuous
 62
     7
370
    25
100
AcDbLine
 10
5.6673924509
 20
-36.3990222333
 30
0.0
 11
-105.5857815668
 21
-36.3990222333
 31
0.0
  0
LINE
  5
22D
330
1F
100
AcDbEntity
  8
0
  6
Continuous
 62
     7
370
    25
100
AcDbLine
 10
-105.5857815668
 20
-36.3990222333
 30
0.0
 11
-105.5857815668
 21
-30.3990222333
 31
0.0
  0
LINE
  5
22E
330
1F
100
AcDbEntity
  8
0
  6
Continuous
 62
     7
370
    25
100
AcDbLine
 10
5.6673924509
 20
-30.3990222333
 30
0.0
 11
-105.5857815668
 21
-30.3990222333
 31
0.0
  0
LINE
  5
22F
330
1F
100
AcDbEntity
  8
0
  6
Continuous
 62
     7
370
    25
100
AcDbLine
 10
5.6673924509
 20
-26.3990222333
 30
0.0
 11
-105.5857815668
 21
-26.3990222333
 31
0.0
  0
LINE
  5
230
330
1F
100
AcDbEntity
  8
0
  6
Continuous
 62
     7
370
    25
100
AcDbLine
 10
-105.5857815668
 20
-26.3990222333
 30
0.0
 11
-105.5857815668
 21
-24.5773483167
 31
0.0
  0
LINE
  5
231
330
1F
100
AcDbEntity
  8
0
  6
Continuous
 62
     7
370
    25
100
AcDbLine
 10
-112.3798685297
 20
-96.3398918625
 30
0.0
 11
-112.3798685297
 21
-24.5773483167
 31
0.0
  0
LINE
  5
232
330
1F
100
AcDbEntity
  8
0
  6
Continuous
 62
     7
370
    25
100
AcDbLine
 10
107.5122292814
 20
-62.488185275
 30
0.0
 11
107.5122292814
 21
-55.5113054961
 31
0.0
  0
LINE
  5
233
330
1F
100
AcDbEntity
  8
0
  6
Continuous
 62
     7
370
    25
100
AcDbLine
 10
120.107180824
 20
-62.488185275
 30
0.0
 11
107.5122292814
 21
-62.488185275
 31
0.0
  0
LINE
  5
234
330
1F
100
AcDbEntity
  8
0
  6
Continuous
 62
     7
370
    25
100
AcDbLine
 10
120.107180824
 20
-62.488185275
 30
0.0
 11
120.107180824
 21
-60.5113054961
 31
0.0
  0
LINE
  5
235
330
1F
100
AcDbEntity
  8
0
  6
Continuous
 62
     7
370
    25
100
AcDbLine
 10
115.107180824
 20
-55.5113054961
 30
0.0
 11
107.5122292814
 21
-55.5113054961
 31
0.0
  0
LINE
  5
236
330
1F
100
AcDbEntity
  8
0
  6
Continuous
 62
     7
370
    25
100
AcDbLine
 10
-100.4033287502
 20
-110.9051230843
 30
0.0
 11
-100.4033287502
 21
-105.9051230843
 31
0.0
  0
LINE
  5
237
330
1F
100
AcDbEntity
  8
0
  6
Continuous
 62
     7
370
    25
100
AcDbLine
 10
-122.6948707546
 20
-105.9051230843
 30
0.0
 11
-100.4033287502
 21
-105.9051230843
 31
0.0
  0
LINE
  5
238
330
1F
100
AcDbEntity
  8
0
  6
Continuous
 62
     7
370
    25
100
AcDbLine
 10
-127.6948707546
 20
-100.9051230843
 30
0.0
 11
-127.6948707546
 21
-70.3990222333
 31
0.0
  0
LINE
  5
239
330
1F
100
AcDbEntity
  8
0
  6
Continuous
 62
     7
370
    25
100
AcDbLine
 10
-132.6948707546
 20
-70.3990222333
 30
0.0
 11
-127.6948707546
 21
-70.3990222333
 31
0.0
  0
LINE
  5
23A
330
1F
100
AcDbEntity
  8
0
  6
Continuous
 62
     7
370
    25
100
AcDbLine
 10
-132.6948707546
 20
-105.9051230843
 30
0.0
 11
-132.6948707546
 21
-70.3990222333
 31
0.0
  0
LINE
  5
23B
330
1F
100
AcDbEntity
  8
0
  6
Continuous
 62
     7
370
    25
100
AcDbLine
 10
-127.6948707546
 20
-110.9051230843
 30
0.0
 11
-100.4033287502
 21
-110.9051230843
 31
0.0
  0
LINE
  5
23C
330
1F
100
AcDbEntity
  8
0
  6
Continuous
 62
     7
370
    25
100
AcDbLine
 10
84.4620257668
 20
-66.3990222333
 30
0.0
 11
89.4620257668
 21
-66.3990222333
 31
0.0
  0
LINE
  5
23D
330
1F
100
AcDbEntity
  8
0
  6
Continuous
 62
     7
370
    25
100
AcDbLine
 10
84.4620257668
 20
-100.9051230843
 30
0.0
 11
84.4620257668
 21
-66.3990222333
 31
0.0
  0
LINE
  5
23E
330
1F
100
AcDbEntity
  8
0
  6
Continuous
 62
     7
370
    25
100
AcDbLine
 10
49.4729906616
 20
-105.9051230843
 30
0.0
 11
79.4620257668
 21
-105.9051230843
 31
0.0
  0
LINE
  5
23F
330
1F
100
AcDbEntity
  8
0
  6
Continuous
 62
     7
370
    25
100
AcDbLine
 10
49.4729906616
 20
-110.9051230843
 30
0.0
 11
49.4729906616
 21
-105.9051230843
 31
0.0
  0
LINE
  5
240
330
1F
100
AcDbEntity
  8
0
  6
Continuous
 62
     7
370
    25
100
AcDbLine
 10
49.4729906616
 20
-110.9051230843
 30
0.0
 11
84.4620257668
 21
-110.9051230843
 31
0.0
  0
LINE
  5
241
330
1F
100
AcDbEntity
  8
0
  6
Continuous
 62
     7
370
    25
100
AcDbLine
 10
89.4620257668
 20
-105.9051230843
 30
0.0
 11
89.4620257668
 21
-66.3990222333
 31
0.0
  0
LINE
  5
242
330
1F
100
AcDbEntity
  8
0
  6
Continuous
 62
     7
370
    25
100
AcDbLine
 10
194.2535978825
 20
-96.9692467377
 30
0.0
 11
174.2535978825
 21
-96.9692467377
 31
0.0
  0
LINE
  5
243
330
1F
100
AcDbEntity
  8
0
  6
Continuous
 62
     7
370
    25
100
AcDbLine
 10
174.2535978825
 20
-99.9692467377
 30
0.0
 11
194.2535978825
 21
-99.9692467377
 31
0.0
  0
LINE
  5
244
330
1F
100
AcDbEntity
  8
0
  6
Continuous
 62
     7
370
    25
100
AcDbLine
 10
194.2535978825
 20
-26.9692467377
 30
0.0
 11
174.2535978825
 21
-26.9692467377
 31
0.0
  0
LINE
  5
245
330
1F
100
AcDbEntity
  8
0
  6
Continuous
 62
     7
370
    25
100
AcDbLine
 10
174.2535978825
 20
-29.9692467377
 30
0.0
 11
194.2535978825
 21
-29.9692467377
 31
0.0
  0
LINE
  5
246
330
1F
100
AcDbEntity
  8
0
  6
Continuous
 62
     7
370
    25
100
AcDbLine
 10
-194.2535978825
 20
-29.9692467377
 30
0.0
 11
-174.2535978825
 21
-29.9692467377
 31
0.0
  0
LINE
  5
247
330
1F
100
AcDbEntity
  8
0
  6
Continuous
 62
     7
370
    25
100
AcDbLine
 10
-174.2535978825
 20
-26.9692467377
 30
0.0
 11
-194.2535978825
 21
-26.9692467377
 31
0.0
  0
LINE
  5
248
330
1F
100
AcDbEntity
  8
0
  6
Continuous
 62
     7
370
    25
100
AcDbLine
 10
-194.2535978825
 20
-99.9692467377
 30
0.0
 11
-174.2535978825
 21
-99.9692467377
 31
0.0
  0
LINE
  5
249
330
1F
100
AcDbEntity
  8
0
  6
Continuous
 62
     7
370
    25
100
AcDbLine
 10
-174.2535978825
 20
-96.9692467377
 30
0.0
 11
-194.2535978825
 21
-96.9692467377
 31
0.0
  0
LINE
  5
24A
330
1F
100
AcDbEntity
  8
0
  6
Continuous
 62
     7
370
    25
100
AcDbLine
 10
-24.7738716977
 20
636.6075271565
 30
0.0
 11
-26.2919237539
 21
638.1255792127
 31
0.0
  0
LINE
  5
24B
330
1F
100
AcDbEntity
  8
0
  6
Continuous
 62
     7
370
    25
100
AcDbLine
 10
-21.4341571739
 20
639.9472416802
 30
0.0
 11
-24.7738716977
 21
636.6075271565
 31
0.0
  0
LINE
  5
24C
330
1F
100
AcDbEntity
  8
0
  6
Continuous
 62
     7
370
    25
100
AcDbLine
 10
-22.9522092301
 20
641.4652937365
 30
0.0
 11
-21.4341571739
 21
639.9472416802
 31
0.0
  0
LINE
  5
24D
330
1F
100
AcDbEntity
  8
0
  6
Continuous
 62
     7
370
    25
100
AcDbLine
 10
-19.0954627401
 20
644.697840826
 30
0.0
 11
-21.2423125465
 21
644.697840826
 31
0.0
  0
LINE
  5
24E
330
1F
100
AcDbEntity
  8
0
  6
Continuous
 62
     7
370
    25
100
AcDbLine
 10
-19.0954627401
 20
649.4209104
 30
0.0
 11
-19.0954627401
 21
644.697840826
 31
0.0
  0
LINE
  5
24F
330
1F
100
AcDbEntity
  8
0
  6
Continuous
 62
     7
370
    25
100
AcDbLine
 10
-21.2423125465
 20
649.4209104
 30
0.0
 11
-19.0954627401
 21
649.4209104
 31
0.0
  0
LINE
  5
250
330
1F
100
AcDbEntity
  8
0
  6
Continuous
 62
     7
370
    25
100
AcDbLine
 10
-21.862107012
 20
649.8786145223
 30
0.0
 11
-26.3215772907
 21
648.2001601544
 31
0.0
  0
LINE
  5
251
330
1F
100
AcDbEntity
  8
0
  6
Continuous
 62
     7
370
    25
100
AcDbLine
 10
-29.1269339503
 20
642.733234164
 30
0.0
 11
-27.5010032941
 21
638.425660378
 31
0.0
  0
LINE
  5
252
330
1F
100
AcDbEntity
  8
0
  6
Continuous
 62
     7
370
    25
100
AcDbLine
 10
-42.6001425051
 20
640.5804619365
 30
0.0
 11
-41.0820904489
 21
642.0985139927
 31
0.0
  0
LINE
  5
253
330
1F
100
AcDbEntity
  8
0
  6
Continuous
 62
     7
370
    25
100
AcDbLine
 10
-39.2604279814
 20
637.2407474127
 30
0.0
 11
-42.6001425051
 21
640.5804619365
 31
0.0
  0
LINE
  5
254
330
1F
100
AcDbEntity
  8
0
  6
Continuous
 62
     7
370
    25
100
AcDbLine
 10
-37.7423759251
 20
638.758799469
 30
0.0
 11
-39.2604279814
 21
637.2407474127
 31
0.0
  0
LINE
  5
255
330
1F
100
AcDbEntity
  8
0
  6
Continuous
 62
     7
370
    25
100
AcDbLine
 10
-34.5098288355
 20
634.902052979
 30
0.0
 11
-34.5098288355
 21
637.0489027853
 31
0.0
  0
LINE
  5
256
330
1F
100
AcDbEntity
  8
0
  6
Continuous
 62
     7
370
    25
100
AcDbLine
 10
-29.7867592616
 20
634.902052979
 30
0.0
 11
-34.5098288355
 21
634.902052979
 31
0.0
  0
LINE
  5
257
330
1F
100
AcDbEntity
  8
0
  6
Continuous
 62
     7
370
    25
100
AcDbLine
 10
-29.7867592616
 20
637.0489027853
 30
0.0
 11
-29.7867592616
 21
634.902052979
 31
0.0
  0
LINE
  5
258
330
1F
100
AcDbEntity
  8
0
  6
Continuous
 62
     7
370
    25
100
AcDbLine
 10
-30.4777869405
 20
642.2233431214
 30
0.0
 11
-28.8912505872
 21
638.0201365579
 31
0.0
  0
LINE
  5
259
330
1F
100
AcDbEntity
  8
0
  6
Continuous
 62
     7
370
    25
100
AcDbLine
 10
-36.2015703488
 20
644.4815307058
 30
0.0
 11
-40.8466036686
 21
642.7332341644
 31
0.0
  0
LINE
  5
25A
330
1F
100
AcDbEntity
  8
0
  6
Continuous
 62
     7
370
    25
100
AcDbLine
 10
9.6442897385
 20
657.9653571151
 30
0.0
 11
9.6442897385
 21
660.1122069214
 31
0.0
  0
LINE
  5
25B
330
1F
100
AcDbEntity
  8
0
  6
Continuous
 62
     7
370
    25
100
AcDbLine
 10
9.6442897385
 20
660.1122069214
 30
0.0
 11
4.9212201645
 21
660.1122069214
 31
0.0
  0
LINE
  5
25C
330
1F
100
AcDbEntity
  8
0
  6
Continuous
 62
     7
370
    25
100
AcDbLine
 10
4.9212201645
 20
660.1122069214
 30
0.0
 11
4.9212201645
 21
657.9653571151
 31
0.0
  0
LINE
  5
25D
330
1F
100
AcDbEntity
  8
0
  6
Continuous
 62
     7
370
    25
100
AcDbLine
 10
1.688673075
 20
656.2554604314
 30
0.0
 11
0.1706210187
 21
657.7735124877
 31
0.0
  0
LINE
  5
25E
330
1F
100
AcDbEntity
  8
0
  6
Continuous
 62
     7
370
    25
100
AcDbLine
 10
0.1706210187
 20
657.7735124877
 30
0.0
 11
-3.1690935051
 21
654.4337979639
 31
0.0
  0
LINE
  5
25F
330
1F
100
AcDbEntity
  8
0
  6
Continuous
 62
     7
370
    25
100
AcDbLine
 10
-3.1690935051
 20
654.4337979639
 30
0.0
 11
-1.6510414488
 21
652.9157459077
 31
0.0
  0
LINE
  5
260
330
1F
100
AcDbEntity
  8
0
  6
Continuous
 62
     7
370
    25
100
AcDbLine
 10
-1.3509602835
 20
651.7066663675
 30
0.0
 11
2.9566135028
 21
650.0807357112
 31
0.0
  0
LINE
  5
261
330
1F
100
AcDbEntity
  8
0
  6
Continuous
 62
     7
370
    25
100
AcDbLine
 10
10.5397984129
 20
656.9941233426
 30
0.0
 11
8.9532620594
 21
652.7909167787
 31
0.0
  0
LINE
  5
262
330
1F
100
AcDbEntity
  8
0
  6
Continuous
 62
     7
370
    25
100
AcDbLine
 10
-35.9000761287
 20
665.2060685628
 30
0.0
 11
14.6571773024
 21
665.2060685628
 31
0.0
  0
LINE
  5
263
330
1F
100
AcDbEntity
  8
0
  6
Continuous
 62
     7
370
    25
100
AcDbLine
 10
14.6571773024
 20
669.4834964879
 30
0.0
 11
14.6571773024
 21
665.2060685628
 31
0.0
  0
LINE
  5
264
330
1F
100
AcDbEntity
  8
0
  6
Continuous
 62
     7
370
    25
100
AcDbLine
 10
14.6571773024
 20
669.4834964879
 30
0.0
 11
11.930045706
 21
669.4834964879
 31
0.0
  0
LINE
  5
265
330
1F
100
AcDbEntity
  8
0
  6
Continuous
 62
     7
370
    25
100
AcDbLine
 10
-35.9000761287
 20
669.4834964879
 30
0.0
 11
-33.6143201612
 21
669.4834964879
 31
0.0
  0
LINE
  5
266
330
1F
100
AcDbEntity
  8
0
  6
Continuous
 62
     7
370
    25
100
AcDbLine
 10
-35.9000761287
 20
669.4834964879
 30
0.0
 11
-35.9000761287
 21
665.2060685628
 31
0.0
  0
LINE
  5
267
330
1F
100
AcDbEntity
  8
0
  6
Continuous
 62
     7
370
    25
100
AcDbLine
 10
-20.8009369176
 20
654.4337979639
 30
0.0
 11
-22.3189889739
 21
652.9157459077
 31
0.0
  0
LINE
  5
268
330
1F
100
AcDbEntity
  8
0
  6
Continuous
 62
     7
370
    25
100
AcDbLine
 10
-24.1406514414
 20
657.7735124877
 30
0.0
 11
-20.8009369176
 21
654.4337979639
 31
0.0
  0
LINE
  5
269
330
1F
100
AcDbEntity
  8
0
  6
Continuous
 62
     7
370
    25
100
AcDbLine
 10
-25.6587034977
 20
656.2554604314
 30
0.0
 11
-24.1406514414
 21
657.7735124877
 31
0.0
  0
LINE
  5
26A
330
1F
100
AcDbEntity
  8
0
  6
Continuous
 62
     7
370
    25
100
AcDbLine
 10
-28.8912505872
 20
660.1122069214
 30
0.0
 11
-28.8912505872
 21
657.9653571151
 31
0.0
  0
LINE
  5
26B
330
1F
100
AcDbEntity
  8
0
  6
Continuous
 62
     7
370
    25
100
AcDbLine
 10
-33.6143201612
 20
660.1122069214
 30
0.0
 11
-28.8912505872
 21
660.1122069214
 31
0.0
  0
LINE
  5
26C
330
1F
100
AcDbEntity
  8
0
  6
Continuous
 62
     7
370
    25
100
AcDbLine
 10
-33.6143201612
 20
657.9653571151
 30
0.0
 11
-33.6143201612
 21
660.1122069214
 31
0.0
  0
LINE
  5
26D
330
1F
100
AcDbEntity
  8
0
  6
Continuous
 62
     7
370
    25
100
AcDbLine
 10
-34.5098288355
 20
656.9941233426
 30
0.0
 11
-32.9232924819
 21
652.7909167782
 31
0.0
  0
LINE
  5
26E
330
1F
100
AcDbEntity
  8
0
  6
Continuous
 62
     7
370
    25
100
AcDbLine
 10
-22.6190701392
 20
651.7066663675
 30
0.0
 11
-26.9266439257
 21
650.0807357111
 31
0.0
  0
LINE
  5
26F
330
1F
100
AcDbEntity
  8
0
  6
Continuous
 62
     7
370
    25
100
AcDbLine
 10
-35.9000761287
 20
656.5885995224
 30
0.0
 11
-34.2741454721
 21
652.2810257356
 31
0.0
  0
LINE
  5
270
330
1F
100
AcDbEntity
  8
0
  6
Continuous
 62
     7
370
    25
100
AcDbLine
 10
-38.6272077251
 20
658.406732744
 30
0.0
 11
-37.1091556688
 21
656.8886806877
 31
0.0
  0
LINE
  5
271
330
1F
100
AcDbEntity
  8
0
  6
Continuous
 62
     7
370
    25
100
AcDbLine
 10
-41.9669222489
 20
655.0670182202
 30
0.0
 11
-38.6272077251
 21
658.406732744
 31
0.0
  0
LINE
  5
272
330
1F
100
AcDbEntity
  8
0
  6
Continuous
 62
     7
370
    25
100
AcDbLine
 10
-40.4488701926
 20
653.5489661639
 30
0.0
 11
-41.9669222489
 21
655.0670182202
 31
0.0
  0
LINE
  5
273
330
1F
100
AcDbEntity
  8
0
  6
Continuous
 62
     7
370
    25
100
AcDbLine
 10
-44.3056166826
 20
650.3164190744
 30
0.0
 11
-42.1587668763
 21
650.3164190744
 31
0.0
  0
LINE
  5
274
330
1F
100
AcDbEntity
  8
0
  6
Continuous
 62
     7
370
    25
100
AcDbLine
 10
-44.3056166826
 20
645.5933495004
 30
0.0
 11
-44.3056166826
 21
650.3164190744
 31
0.0
  0
LINE
  5
275
330
1F
100
AcDbEntity
  8
0
  6
Continuous
 62
     7
370
    25
100
AcDbLine
 10
-42.1587668763
 20
645.5933495004
 30
0.0
 11
-44.3056166826
 21
645.5933495004
 31
0.0
  0
LINE
  5
276
330
1F
100
AcDbEntity
  8
0
  6
Continuous
 62
     7
370
    25
100
AcDbLine
 10
-36.9843265397
 20
646.2843771796
 30
0.0
 11
-41.1875331037
 21
644.697840826
 31
0.0
  0
LINE
  5
277
330
1F
100
AcDbEntity
  8
0
  6
Continuous
 62
     7
370
    25
100
AcDbLine
 10
-2.7277178762
 20
649.4209104
 30
0.0
 11
-4.8745676825
 21
649.4209104
 31
0.0
  0
LINE
  5
278
330
1F
100
AcDbEntity
  8
0
  6
Continuous
 62
     7
370
    25
100
AcDbLine
 10
-4.8745676825
 20
649.4209104
 30
0.0
 11
-4.8745676825
 21
644.697840826
 31
0.0
  0
LINE
  5
279
330
1F
100
AcDbEntity
  8
0
  6
Continuous
 62
     7
370
    25
100
AcDbLine
 10
-4.8745676825
 20
644.697840826
 30
0.0
 11
-2.7277178762
 21
644.697840826
 31
0.0
  0
LINE
  5
27A
330
1F
100
AcDbEntity
  8
0
  6
Continuous
 62
     7
370
    25
100
AcDbLine
 10
-1.0178211925
 20
641.4652937365
 30
0.0
 11
-2.5358732488
 21
639.9472416802
 31
0.0
  0
LINE
  5
27B
330
1F
100
AcDbEntity
  8
0
  6
Continuous
 62
     7
370
    25
100
AcDbLine
 10
-2.5358732488
 20
639.9472416802
 30
0.0
 11
0.803841275
 21
636.6075271565
 31
0.0
  0
LINE
  5
27C
330
1F
100
AcDbEntity
  8
0
  6
Continuous
 62
     7
370
    25
100
AcDbLine
 10
0.803841275
 20
636.6075271565
 30
0.0
 11
2.3218933312
 21
638.1255792127
 31
0.0
  0
LINE
  5
27D
330
1F
100
AcDbEntity
  8
0
  6
Continuous
 62
     7
370
    25
100
AcDbLine
 10
5.1569035277
 20
642.7332341643
 30
0.0
 11
3.5309728714
 21
638.425660378
 31
0.0
  0
LINE
  5
27E
330
1F
100
AcDbEntity
  8
0
  6
Continuous
 62
     7
370
    25
100
AcDbLine
 10
-2.1079234107
 20
649.8786145223
 30
0.0
 11
2.351546868
 21
648.2001601544
 31
0.0
  0
LINE
  5
27F
330
1F
100
AcDbEntity
  8
0
  6
Continuous
 62
     7
370
    25
100
AcDbLine
 10
-20.5947858009
 20
602.6105817294
 30
0.0
 11
-22.6149534202
 21
612.4269222306
 31
0.0
  0
LINE
  5
280
330
1F
100
AcDbEntity
  8
0
  6
Continuous
 62
     7
370
    25
100
AcDbLine
 10
-34.466110004
 20
618.8226014923
 30
0.0
 11
-41.4073109389
 21
611.8814005575
 31
0.0
  0
LINE
  5
281
330
1F
100
AcDbEntity
  8
0
  6
Continuous
 62
     7
370
    25
100
AcDbLine
 10
-41.4073109389
 20
611.8814005575
 30
0.0
 11
-47.6336665991
 21
618.1077562178
 31
0.0
  0
LINE
  5
282
330
1F
100
AcDbEntity
  8
0
  6
Continuous
 62
     7
370
    25
100
AcDbLine
 10
-47.6336665991
 20
618.1077562178
 30
0.0
 11
-49.416725665
 21
616.2845272397
 31
0.0
  0
LINE
  5
283
330
1F
100
AcDbEntity
  8
0
  6
Continuous
 62
     7
370
    25
100
AcDbLine
 10
-16.9748460979
 20
602.6105817294
 30
0.0
 11
-16.9748460979
 21
600.4653563828
 31
0.0
  0
LINE
  5
284
330
1F
100
AcDbEntity
  8
0
  6
Continuous
 62
     7
370
    25
100
AcDbLine
 10
-16.9748460979
 20
602.6105817294
 30
0.0
 11
-20.5947858009
 21
602.6105817294
 31
0.0
  0
LINE
  5
285
330
1F
100
AcDbEntity
  8
0
  6
Continuous
 62
     7
370
    25
100
AcDbLine
 10
18.1887364536
 20
645.5933495004
 30
0.0
 11
20.3355862599
 21
645.5933495004
 31
0.0
  0
LINE
  5
286
330
1F
100
AcDbEntity
  8
0
  6
Continuous
 62
     7
370
    25
100
AcDbLine
 10
20.3355862599
 20
645.5933495004
 30
0.0
 11
20.3355862599
 21
650.3164190744
 31
0.0
  0
LINE
  5
287
330
1F
100
AcDbEntity
  8
0
  6
Continuous
 62
     7
370
    25
100
AcDbLine
 10
20.3355862599
 20
650.3164190744
 30
0.0
 11
18.1887364536
 21
650.3164190744
 31
0.0
  0
LINE
  5
288
330
1F
100
AcDbEntity
  8
0
  6
Continuous
 62
     7
370
    25
100
AcDbLine
 10
16.4788397699
 20
653.5489661639
 30
0.0
 11
17.9968918262
 21
655.0670182202
 31
0.0
  0
LINE
  5
289
330
1F
100
AcDbEntity
  8
0
  6
Continuous
 62
     7
370
    25
100
AcDbLine
 10
17.9968918262
 20
655.0670182202
 30
0.0
 11
14.6571773024
 21
658.406732744
 31
0.0
  0
LINE
  5
28A
330
1F
100
AcDbEntity
  8
0
  6
Continuous
 62
     7
370
    25
100
AcDbLine
 10
14.6571773024
 20
658.406732744
 30
0.0
 11
13.1391252462
 21
656.8886806877
 31
0.0
  0
LINE
  5
28B
330
1F
100
AcDbEntity
  8
0
  6
Continuous
 62
     7
370
    25
100
AcDbLine
 10
11.930045706
 20
656.5885995224
 30
0.0
 11
10.3041150496
 21
652.281025736
 31
0.0
  0
LINE
  5
28C
330
1F
100
AcDbEntity
  8
0
  6
Continuous
 62
     7
370
    25
100
AcDbLine
 10
13.0142961172
 20
646.2843771795
 30
0.0
 11
17.2175026811
 21
644.697840826
 31
0.0
  0
LINE
  5
28D
330
1F
100
AcDbEntity
  8
0
  6
Continuous
 62
     7
370
    25
100
AcDbLine
 10
5.8167288389
 20
637.0489027853
 30
0.0
 11
5.8167288389
 21
634.902052979
 31
0.0
  0
LINE
  5
28E
330
1F
100
AcDbEntity
  8
0
  6
Continuous
 62
     7
370
    25
100
AcDbLine
 10
5.8167288389
 20
634.902052979
 30
0.0
 11
10.5397984129
 21
634.902052979
 31
0.0
  0
LINE
  5
28F
330
1F
100
AcDbEntity
  8
0
  6
Continuous
 62
     7
370
    25
100
AcDbLine
 10
10.5397984129
 20
634.902052979
 30
0.0
 11
10.5397984129
 21
637.0489027853
 31
0.0
  0
LINE
  5
290
330
1F
100
AcDbEntity
  8
0
  6
Continuous
 62
     7
370
    25
100
AcDbLine
 10
13.7723455024
 20
638.758799469
 30
0.0
 11
15.2903975587
 21
637.2407474127
 31
0.0
  0
LINE
  5
291
330
1F
100
AcDbEntity
  8
0
  6
Continuous
 62
     7
370
    25
100
AcDbLine
 10
15.2903975587
 20
637.2407474127
 30
0.0
 11
18.6301120824
 21
640.5804619365
 31
0.0
  0
LINE
  5
292
330
1F
100
AcDbEntity
  8
0
  6
Continuous
 62
     7
370
    25
100
AcDbLine
 10
18.6301120824
 20
640.5804619365
 30
0.0
 11
17.1120600262
 21
642.0985139928
 31
0.0
  0
LINE
  5
293
330
1F
100
AcDbEntity
  8
0
  6
Continuous
 62
     7
370
    25
100
AcDbLine
 10
12.2315399261
 20
644.4815307058
 30
0.0
 11
16.8765732459
 21
642.7332341644
 31
0.0
  0
LINE
  5
294
330
1F
100
AcDbEntity
  8
0
  6
Continuous
 62
     7
370
    25
100
AcDbLine
 10
6.507756518
 20
642.2233431217
 30
0.0
 11
4.9212201645
 21
638.0201365579
 31
0.0
  0
LINE
  5
295
330
1F
100
AcDbEntity
  8
0
  6
Continuous
 62
     7
370
    25
100
AcDbLine
 10
-62.0083421608
 20
645.5933495004
 30
0.0
 11
-62.0083421608
 21
652.2810257356
 31
0.0
  0
LINE
  5
296
330
1F
100
AcDbEntity
  8
0
  6
Continuous
 62
     7
370
    25
100
AcDbLine
 10
-66.4305044428
 20
652.2810257356
 30
0.0
 11
-62.0083421608
 21
652.2810257356
 31
0.0
  0
LINE
  5
297
330
1F
100
AcDbEntity
  8
0
  6
Continuous
 62
     7
370
    25
100
AcDbLine
 10
-51.4556985379
 20
621.9297881565
 30
0.0
 11
-53.1191287193
 21
620.266357975
 31
0.0
  0
LINE
  5
298
330
1F
100
AcDbEntity
  8
0
  6
Continuous
 62
     7
370
    25
100
AcDbLine
 10
-51.4556985379
 20
621.9297881565
 30
0.0
 11
-53.8471233626
 21
624.3212129813
 31
0.0
  0
LINE
  5
299
330
1F
100
AcDbEntity
  8
0
  6
Continuous
 62
     7
370
    25
100
AcDbLine
 10
-53.8471233626
 20
624.3212129813
 30
0.0
 11
-48.3343966505
 21
632.6908881389
 31
0.0
  0
LINE
  5
29A
330
1F
100
AcDbEntity
  8
0
  6
Continuous
 62
     7
370
    25
100
AcDbLine
 10
-52.1920016596
 20
645.5933495004
 30
0.0
 11
-62.0083421608
 21
645.5933495004
 31
0.0
  0
LINE
  5
29B
330
1F
100
AcDbEntity
  8
0
  6
Continuous
 62
     7
370
    25
100
AcDbLine
 10
-40.680664172
 20
694.4046995952
 30
0.0
 11
-44.3432591665
 21
692.9452238423
 31
0.0
  0
LINE
  5
29C
330
1F
100
AcDbEntity
  8
0
  6
Continuous
 62
     7
370
    25
100
AcDbLine
 10
-32.3653272826
 20
689.5207914677
 30
0.0
 11
-40.680664172
 21
694.4046995952
 31
0.0
  0
LINE
  5
29D
330
1F
100
AcDbEntity
  8
0
  6
Continuous
 62
     7
370
    25
100
AcDbLine
 10
-19.0954627401
 20
704.0332185113
 30
0.0
 11
-20.8009369176
 21
692.7186896615
 31
0.0
  0
LINE
  5
29E
330
1F
100
AcDbEntity
  8
0
  6
Continuous
 62
     7
370
    25
100
AcDbLine
 10
-12.3891055274
 20
704.0332185113
 30
0.0
 11
-19.0954627401
 21
704.0332185113
 31
0.0
  0
LINE
  5
29F
330
1F
100
AcDbEntity
  8
0
  6
Continuous
 62
     7
370
    25
100
AcDbLine
 10
-12.3891055274
 20
714.4222490483
 30
0.0
 11
-12.3891055274
 21
704.0332185113
 31
0.0
  0
LINE
  5
2A0
330
1F
100
AcDbEntity
  8
0
  6
Continuous
 62
     7
370
    25
100
AcDbLine
 10
-50.10340189
 20
697.492816156
 30
0.0
 11
-44.3432591665
 21
692.9452238423
 31
0.0
  0
LINE
  5
2A1
330
1F
100
AcDbEntity
  8
0
  6
Continuous
 62
     7
370
    25
100
AcDbLine
 10
-62.0083421608
 20
656.8886806877
 30
0.0
 11
-62.0083421608
 21
663.1859009435
 31
0.0
  0
LINE
  5
2A2
330
1F
100
AcDbEntity
  8
0
  6
Continuous
 62
     7
370
    25
100
AcDbLine
 10
-62.0083421608
 20
663.1859009435
 30
0.0
 11
-52.1920016596
 21
665.2060685628
 31
0.0
  0
LINE
  5
2A3
330
1F
100
AcDbEntity
  8
0
  6
Continuous
 62
     7
370
    25
100
AcDbLine
 10
-52.1920016596
 20
665.2060685628
 30
0.0
 11
-44.3056166826
 21
665.2060685628
 31
0.0
  0
LINE
  5
2A4
330
1F
100
AcDbEntity
  8
0
  6
Continuous
 62
     7
370
    25
100
AcDbLine
 10
-44.3056166826
 20
669.4834964879
 30
0.0
 11
-44.3056166826
 21
665.2060685628
 31
0.0
  0
LINE
  5
2A5
330
1F
100
AcDbEntity
  8
0
  6
Continuous
 62
     7
370
    25
100
AcDbLine
 10
-47.7470081829
 20
669.4834964879
 30
0.0
 11
-44.3056166826
 21
669.4834964879
 31
0.0
  0
LINE
  5
2A6
330
1F
100
AcDbEntity
  8
0
  6
Continuous
 62
     7
370
    25
100
AcDbLine
 10
-44.3056166826
 20
675.3428060708
 30
0.0
 11
-47.7470081829
 21
669.4834964879
 31
0.0
  0
LINE
  5
2A7
330
1F
100
AcDbEntity
  8
0
  6
Continuous
 62
     7
370
    25
100
AcDbLine
 10
-52.1920016596
 20
684.6368833403
 30
0.0
 11
-44.3056166826
 21
675.3428060708
 31
0.0
  0
LINE
  5
2A8
330
1F
100
AcDbEntity
  8
0
  6
Continuous
 62
     7
370
    25
100
AcDbLine
 10
-48.285833463
 20
687.9514185318
 30
0.0
 11
-52.1920016596
 21
684.6368833403
 31
0.0
  0
LINE
  5
2A9
330
1F
100
AcDbEntity
  8
0
  6
Continuous
 62
     7
370
    25
100
AcDbLine
 10
-54.3242292149
 20
692.7186896615
 30
0.0
 11
-48.285833463
 21
687.9514185318
 31
0.0
  0
LINE
  5
2AA
330
1F
100
AcDbEntity
  8
0
  6
Continuous
 62
     7
370
    25
100
AcDbLine
 10
-66.6447465719
 20
657.2301724837
 30
0.0
 11
-62.0083421608
 21
656.8886806877
 31
0.0
  0
LINE
  5
2AB
330
1F
100
AcDbEntity
  8
0
  6
Continuous
 62
     7
370
    25
100
AcDbLine
 10
25.1998753011
 20
687.488255825
 30
0.0
 11
27.6193754274
 21
684.6368833403
 31
0.0
  0
LINE
  5
2AC
330
1F
100
AcDbEntity
  8
0
  6
Continuous
 62
     7
370
    25
100
AcDbLine
 10
27.6193754274
 20
684.6368833403
 30
0.0
 11
22.160616496
 21
675.3428060708
 31
0.0
  0
LINE
  5
2AD
330
1F
100
AcDbEntity
  8
0
  6
Continuous
 62
     7
370
    25
100
AcDbLine
 10
22.160616496
 20
675.3428060708
 30
0.0
 11
24.9892487084
 21
669.4834964879
 31
0.0
  0
LINE
  5
2AE
330
1F
100
AcDbEntity
  8
0
  6
Continuous
 62
     7
370
    25
100
AcDbLine
 10
24.9892487084
 20
669.4834964879
 30
0.0
 11
22.160616496
 21
669.4834964879
 31
0.0
  0
LINE
  5
2AF
330
1F
100
AcDbEntity
  8
0
  6
Continuous
 62
     7
370
    25
100
AcDbLine
 10
22.160616496
 20
669.4834964879
 30
0.0
 11
22.160616496
 21
665.2060685628
 31
0.0
  0
LINE
  5
2B0
330
1F
100
AcDbEntity
  8
0
  6
Continuous
 62
     7
370
    25
100
AcDbLine
 10
22.160616496
 20
665.2060685628
 30
0.0
 11
31.1386535882
 21
665.2060685628
 31
0.0
  0
LINE
  5
2B1
330
1F
100
AcDbEntity
  8
0
  6
Continuous
 62
     7
370
    25
100
AcDbLine
 10
31.1386535882
 20
665.2060685628
 30
0.0
 11
39.9805334132
 21
661.6166895324
 31
0.0
  0
LINE
  5
2B2
330
1F
100
AcDbEntity
  8
0
  6
Continuous
 62
     7
370
    25
100
AcDbLine
 10
39.9805334132
 20
661.6166895324
 30
0.0
 11
39.9805334132
 21
657.4422632865
 31
0.0
  0
LINE
  5
2B3
330
1F
100
AcDbEntity
  8
0
  6
Continuous
 62
     7
370
    25
100
AcDbLine
 10
47.8979402407
 20
657.4422632865
 30
0.0
 11
39.9805334132
 21
657.4422632865
 31
0.0
  0
LINE
  5
2B4
330
1F
100
AcDbEntity
  8
0
  6
Continuous
 62
     7
370
    25
100
AcDbLine
 10
34.3306340891
 20
694.243731589
 30
0.0
 11
25.1998753011
 21
687.488255825
 31
0.0
  0
LINE
  5
2B5
330
1F
100
AcDbEntity
  8
0
  6
Continuous
 62
     7
370
    25
100
AcDbLine
 10
-3.1690935051
 20
704.0332185113
 30
0.0
 11
-6.1257056284
 21
704.0332185113
 31
0.0
  0
LINE
  5
2B6
330
1F
100
AcDbEntity
  8
0
  6
Continuous
 62
     7
370
    25
100
AcDbLine
 10
-1.6510414488
 20
692.7186896615
 30
0.0
 11
-3.1690935051
 21
704.0332185113
 31
0.0
  0
LINE
  5
2B7
330
1F
100
AcDbEntity
  8
0
  6
Continuous
 62
     7
370
    25
100
AcDbLine
 10
9.6442897385
 20
687.9514185318
 30
0.0
 11
18.4596472072
 21
695.4315911937
 31
0.0
  0
LINE
  5
2B8
330
1F
100
AcDbEntity
  8
0
  6
Continuous
 62
     7
370
    25
100
AcDbLine
 10
18.4596472072
 20
695.4315911937
 30
0.0
 11
22.160616496
 21
691.0700117575
 31
0.0
  0
LINE
  5
2B9
330
1F
100
AcDbEntity
  8
0
  6
Continuous
 62
     7
370
    25
100
AcDbLine
 10
31.1386535882
 20
697.712494972
 30
0.0
 11
22.160616496
 21
691.0700117575
 31
0.0
  0
LINE
  5
2BA
330
1F
100
AcDbEntity
  8
0
  6
Continuous
 62
     7
370
    25
100
AcDbLine
 10
-6.1257056284
 20
714.4095656506
 30
0.0
 11
-6.1257056284
 21
704.0332185113
 31
0.0
  0
LINE
  5
2BB
330
1F
100
AcDbEntity
  8
0
  6
Continuous
 62
     7
370
    25
100
AcDbLine
 10
21.4862016952
 20
613.9881000614
 30
0.0
 11
18.2699021613
 21
610.7718005276
 31
0.0
  0
LINE
  5
2BC
330
1F
100
AcDbEntity
  8
0
  6
Continuous
 62
     7
370
    25
100
AcDbLine
 10
18.2699021613
 20
610.7718005276
 30
0.0
 11
9.9002270037
 21
616.2845272397
 31
0.0
  0
LINE
  5
2BD
330
1F
100
AcDbEntity
  8
0
  6
Continuous
 62
     7
370
    25
100
AcDbLine
 10
-3.0022343578
 20
612.4269222306
 30
0.0
 11
-3.0022343578
 21
602.6105817294
 31
0.0
  0
LINE
  5
2BE
330
1F
100
AcDbEntity
  8
0
  6
Continuous
 62
     7
370
    25
100
AcDbLine
 10
-3.0022343578
 20
602.6105817294
 30
0.0
 11
-11.0139043738
 21
602.6105817294
 31
0.0
  0
LINE
  5
2BF
330
1F
100
AcDbEntity
  8
0
  6
Continuous
 62
     7
370
    25
100
AcDbLine
 10
-11.0139043738
 20
599.9821386454
 30
0.0
 11
-11.0139043738
 21
602.6105817294
 31
0.0
  0
LINE
  5
2C0
330
1F
100
AcDbEntity
  8
0
  6
Continuous
 62
     7
370
    25
100
AcDbLine
 10
25.1998753011
 20
611.5713150704
 30
0.0
 11
21.4862016952
 21
613.9881000614
 31
0.0
  0
LINE
  5
2C1
330
1F
100
AcDbEntity
  8
0
  6
Continuous
 62
     7
370
    25
100
AcDbLine
 10
39.9805334132
 20
650.3164190744
 30
0.0
 11
39.9805334132
 21
644.0241380893
 31
0.0
  0
LINE
  5
2C2
330
1F
100
AcDbEntity
  8
0
  6
Continuous
 62
     7
370
    25
100
AcDbLine
 10
39.9805334132
 20
644.0241380893
 30
0.0
 11
30.164192912
 21
642.00397047
 31
0.0
  0
LINE
  5
2C3
330
1F
100
AcDbEntity
  8
0
  6
Continuous
 62
     7
370
    25
100
AcDbLine
 10
23.7685136502
 20
630.1528138862
 30
0.0
 11
30.7097145851
 21
623.2116129514
 31
0.0
  0
LINE
  5
2C4
330
1F
100
AcDbEntity
  8
0
  6
Continuous
 62
     7
370
    25
100
AcDbLine
 10
30.7097145851
 20
623.2116129514
 30
0.0
 11
25.1998753011
 21
617.7017736674
 31
0.0
  0
LINE
  5
2C5
330
1F
100
AcDbEntity
  8
0
  6
Continuous
 62
     7
370
    25
100
AcDbLine
 10
29.1793268736
 20
614.8777060439
 30
0.0
 11
25.1998753011
 21
617.7017736674
 31
0.0
  0
LINE
  5
2C6
330
1F
100
AcDbEntity
  8
0
  6
Continuous
 62
     7
370
    25
100
AcDbLine
 10
47.4794912861
 20
650.3164190744
 30
0.0
 11
39.9805334132
 21
650.3164190744
 31
0.0
  0
LINE
  5
2C7
330
1F
100
AcDbEntity
  8
0
  6
Continuous
 62
     7
370
    25
100
AcDbLine
 10
-142.1954979735
 20
694.7038319106
 30
0.0
 11
-122.1954979735
 21
694.7038319106
 31
0.0
  0
LINE
  5
2C8
330
1F
100
AcDbEntity
  8
0
  6
Continuous
 62
     7
370
    25
100
AcDbLine
 10
-122.1954979735
 20
697.7038319106
 30
0.0
 11
-142.1954979735
 21
697.7038319106
 31
0.0
  0
LINE
  5
2C9
330
1F
100
AcDbEntity
  8
0
  6
Continuous
 62
     7
370
    25
100
AcDbLine
 10
-142.1954979735
 20
624.7038319106
 30
0.0
 11
-122.1954979735
 21
624.7038319106
 31
0.0
  0
LINE
  5
2CA
330
1F
100
AcDbEntity
  8
0
  6
Continuous
 62
     7
370
    25
100
AcDbLine
 10
-122.1954979735
 20
627.7038319106
 30
0.0
 11
-142.1954979735
 21
627.7038319106
 31
0.0
  0
LINE
  5
2CB
330
1F
100
AcDbEntity
  8
0
  6
Continuous
 62
     7
370
    25
100
AcDbLine
 10
142.1954979735
 20
627.7038319106
 30
0.0
 11
122.1954979735
 21
627.7038319106
 31
0.0
  0
LINE
  5
2CC
330
1F
100
AcDbEntity
  8
0
  6
Continuous
 62
     7
370
    25
100
AcDbLine
 10
122.1954979735
 20
624.7038319106
 30
0.0
 11
142.1954979735
 21
624.7038319106
 31
0.0
  0
LINE
  5
2CD
330
1F
100
AcDbEntity
  8
0
  6
Continuous
 62
     7
370
    25
100
AcDbLine
 10
142.1954979735
 20
697.7038319106
 30
0.0
 11
122.1954979735
 21
697.7038319106
 31
0.0
  0
LINE
  5
2CE
330
1F
100
AcDbEntity
  8
0
  6
Continuous
 62
     7
370
    25
100
AcDbLine
 10
122.1954979735
 20
694.7038319106
 30
0.0
 11
142.1954979735
 21
694.7038319106
 31
0.0
  0
LINE
  5
2CF
330
1F
100
AcDbEntity
  8
0
  6
Continuous
 62
     7
370
    25
100
AcDbLine
 10
249.0124638608
 20
599.205051786
 30
0.0
 11
250.7555787158
 21
579.2811578242
 31
0.0
  0
LINE
  5
2D0
330
1F
100
AcDbEntity
  8
0
  6
Continuous
 62
     7
370
    25
100
AcDbLine
 10
247.7669946215
 20
579.019690596
 30
0.0
 11
246.0238797666
 21
598.9435845578
 31
0.0
  0
LINE
  5
2D1
330
1F
100
AcDbEntity
  8
0
  6
Continuous
 62
     7
370
    25
100
AcDbLine
 10
179.2788349944
 20
593.1041497937
 30
0.0
 11
181.0219498494
 21
573.1802558319
 31
0.0
  0
LINE
  5
2D2
330
1F
100
AcDbEntity
  8
0
  6
Continuous
 62
     7
370
    25
100
AcDbLine
 10
178.0333657551
 20
572.9187886036
 30
0.0
 11
176.2902509001
 21
592.8426825655
 31
0.0
  0
LINE
  5
2D3
330
1F
100
AcDbEntity
  8
0
  6
Continuous
 62
     7
370
    25
100
AcDbLine
 10
227.3562246861
 20
9.1559313008
 30
0.0
 11
225.6131098311
 21
29.0798252626
 31
0.0
  0
LINE
  5
2D4
330
1F
100
AcDbEntity
  8
0
  6
Continuous
 62
     7
370
    25
100
AcDbLine
 10
228.6016939254
 20
29.3412924909
 30
0.0
 11
230.3448087804
 21
9.417398529
 31
0.0
  0
LINE
  5
2D5
330
1F
100
AcDbEntity
  8
0
  6
Continuous
 62
     7
370
    25
100
AcDbLine
 10
297.0898535525
 20
15.2568332931
 30
0.0
 11
295.3467386975
 21
35.180727255
 31
0.0
  0
LINE
  5
2D6
330
1F
100
AcDbEntity
  8
0
  6
Continuous
 62
     7
370
    25
100
AcDbLine
 10
298.3353227918
 20
35.4421944832
 30
0.0
 11
300.0784376468
 21
15.5183005214
 31
0.0
  0
LINE
  5
2D7
330
1F
100
AcDbEntity
  8
0
  6
Continuous
 62
     7
370
    25
100
AcDbLine
 10
-297.0898535525
 20
15.2568332931
 30
0.0
 11
-295.3467386975
 21
35.180727255
 31
0.0
  0
LINE
  5
2D8
330
1F
100
AcDbEntity
  8
0
  6
Continuous
 62
     7
370
    25
100
AcDbLine
 10
-298.3353227918
 20
35.4421944832
 30
0.0
 11
-300.0784376468
 21
15.5183005214
 31
0.0
  0
LINE
  5
2D9
330
1F
100
AcDbEntity
  8
0
  6
Continuous
 62
     7
370
    25
100
AcDbLine
 10
-227.3562246861
 20
9.1559313008
 30
0.0
 11
-225.6131098311
 21
29.0798252626
 31
0.0
  0
LINE
  5
2DA
330
1F
100
AcDbEntity
  8
0
  6
Continuous
 62
     7
370
    25
100
AcDbLine
 10
-228.6016939254
 20
29.3412924909
 30
0.0
 11
-230.3448087803
 21
9.417398529
 31
0.0
  0
LINE
  5
2DB
330
1F
100
AcDbEntity
  8
0
  6
Continuous
 62
     7
370
    25
100
AcDbLine
 10
-179.2788349944
 20
593.1041497937
 30
0.0
 11
-181.0219498494
 21
573.1802558319
 31
0.0
  0
LINE
  5
2DC
330
1F
100
AcDbEntity
  8
0
  6
Continuous
 62
     7
370
    25
100
AcDbLine
 10
-178.0333657551
 20
572.9187886036
 30
0.0
 11
-176.2902509001
 21
592.8426825655
 31
0.0
  0
LINE
  5
2DD
330
1F
100
AcDbEntity
  8
0
  6
Continuous
 62
     7
370
    25
100
AcDbLine
 10
-249.0124638608
 20
599.205051786
 30
0.0
 11
-250.7555787158
 21
579.2811578242
 31
0.0
  0
LINE
  5
2DE
330
1F
100
AcDbEntity
  8
0
  6
Continuous
 62
     7
370
    25
100
AcDbLine
 10
-247.7669946215
 20
579.019690596
 30
0.0
 11
-246.0238797666
 21
598.9435845578
 31
0.0
  0
LINE
  5
2DF
330
1F
100
AcDbEntity
  8
0
  6
Continuous
 62
     7
370
    25
100
AcDbLine
 10
-171.4873417941
 20
83.9526245842
 30
0.0
 11
-128.8483774049
 21
582.1312258065
 31
0.0
  0
LINE
  5
2E0
330
1F
100
AcDbEntity
  8
0
  6
Continuous
 62
     7
370
    25
100
AcDbLine
 10
-132.8338062147
 20
582.4723375216
 30
0.0
 11
-175.4727706038
 21
84.2937362993
 31
0.0
  0
LINE
  5
2E1
330
1F
100
AcDbEntity
  8
0
  6
Continuous
 62
     7
370
    25
100
AcDbLine
 10
175.4727706038
 20
84.2937362993
 30
0.0
 11
132.8338062147
 21
582.4723375216
 31
0.0
  0
LINE
  5
2E2
330
1F
100
AcDbEntity
  8
0
  6
Continuous
 62
     7
370
    25
100
AcDbLine
 10
128.8483774049
 20
582.1312258065
 30
0.0
 11
171.4873417941
 21
83.9526245842
 31
0.0
  0
LINE
  5
2E3
330
1F
100
AcDbEntity
  8
0
  6
Continuous
 62
     7
370
    25
100
AcDbLine
 10
-147.1954979735
 20
597.9404319106
 30
0.0
 11
-147.1954979735
 21
716.2038319106
 31
0.0
  0
LINE
  5
2E4
330
1F
100
AcDbEntity
  8
0
  6
Continuous
 62
     7
370
    25
100
AcDbLine
 10
-147.1954979735
 20
716.2038319106
 30
0.0
 11
147.1954979735
 21
716.2038319106
 31
0.0
  0
LINE
  5
2E5
330
1F
100
AcDbEntity
  8
0
  6
Continuous
 62
     7
370
    25
100
AcDbLine
 10
147.1954979735
 20
597.9404319106
 30
0.0
 11
147.1954979735
 21
716.2038319106
 31
0.0
  0
LINE
  5
2E6
330
1F
100
AcDbEntity
  8
0
  6
Continuous
 62
     7
370
    25
100
AcDbLine
 10
147.1986992832
 20
595.9979851729
 30
0.0
 11
147.1954979735
 21
597.9404319106
 31
0.0
  0
LINE
  5
2E7
330
1F
100
AcDbEntity
  8
0
  6
Continuous
 62
     7
370
    25
100
AcDbLine
 10
149.1340334372
 20
596.1640914334
 30
0.0
 11
147.1986992832
 21
595.9979851729
 31
0.0
  0
LINE
  5
2E8
330
1F
100
AcDbEntity
  8
0
  6
Continuous
 62
     7
370
    25
100
AcDbLine
 10
149.1340334372
 20
596.1640914334
 30
0.0
 11
266.9474054955
 21
606.4714259002
 31
0.0
  0
LINE
  5
2E9
330
1F
100
AcDbEntity
  8
0
  6
Continuous
 62
     7
370
    25
100
AcDbLine
 10
266.9474054955
 20
606.4714259002
 30
0.0
 11
278.2297163941
 21
477.5140222323
 31
0.0
  0
LINE
  5
2EA
330
1F
100
AcDbEntity
  8
0
  6
Continuous
 62
     7
370
    25
100
AcDbLine
 10
307.7203889429
 20
140.4340925568
 30
0.0
 11
318.9438182752
 21
12.1497082717
 31
0.0
  0
LINE
  5
2EB
330
1F
100
AcDbEntity
  8
0
  6
Continuous
 62
     7
370
    25
100
AcDbLine
 10
199.2535978825
 20
1.6781708525
 30
0.0
 11
318.9438182752
 21
12.1497082717
 31
0.0
  0
LINE
  5
2EC
330
1F
100
AcDbEntity
  8
0
  6
Continuous
 62
     7
370
    25
100
AcDbLine
 10
199.2535978825
 20
1.6781708525
 30
0.0
 11
199.2535978825
 21
-118.4692467377
 31
0.0
  0
LINE
  5
2ED
330
1F
100
AcDbEntity
  8
0
  6
Continuous
 62
     7
370
    25
100
AcDbLine
 10
199.2535978825
 20
-118.4692467377
 30
0.0
 11
-199.2535978825
 21
-118.4692467377
 31
0.0
  0
LINE
  5
2EE
330
1F
100
AcDbEntity
  8
0
  6
Continuous
 62
     7
370
    25
100
AcDbLine
 10
-199.2535978825
 20
1.6781708525
 30
0.0
 11
-199.2535978825
 21
-118.4692467377
 31
0.0
  0
LINE
  5
2EF
330
1F
100
AcDbEntity
  8
0
  6
Continuous
 62
     7
370
    25
100
AcDbLine
 10
-199.2535978825
 20
1.6781708525
 30
0.0
 11
-318.9438182752
 21
12.1497082717
 31
0.0
  0
LINE
  5
2F0
330
1F
100
AcDbEntity
  8
0
  6
Continuous
 62
     7
370
    25
100
AcDbLine
 10
-318.9438182752
 20
12.1497082717
 30
0.0
 11
-307.7203889429
 21
140.4340925568
 31
0.0
  0
LINE
  5
2F1
330
1F
100
AcDbEntity
  8
0
  6
Continuous
 62
     7
370
    25
100
AcDbLine
 10
-278.2297163941
 20
477.5140222323
 30
0.0
 11
-266.9474054955
 21
606.4714259002
 31
0.0
  0
LINE
  5
2F2
330
1F
100
AcDbEntity
  8
0
  6
Continuous
 62
     7
370
    25
100
AcDbLine
 10
-149.1340334372
 20
596.1640914334
 30
0.0
 11
-266.9474054955
 21
606.4714259002
 31
0.0
  0
LINE
  5
2F3
330
1F
100
AcDbEntity
  8
0
  6
Continuous
 62
     7
370
    25
100
AcDbLine
 10
-147.1986992832
 20
595.9979851729
 30
0.0
 11
-149.1340334372
 21
596.1640914334
 31
0.0
  0
LINE
  5
2F4
330
1F
100
AcDbEntity
  8
0
  6
Continuous
 62
     7
370
    25
100
AcDbLine
 10
-147.1954979735
 20
597.9404319106
 30
0.0
 11
-147.1986992832
 21
595.9979851729
 31
0.0
  0
ARC
  5
2F5
330
1F
100
AcDbEntity
  8
0
  6
Continuous
 62
     7
370
    25
100
AcDbCircle
 10
-122.6948707546
 20
-17.0333703911
 30
0.0
 40
5.000000000000057
100
AcDbArc
 50
90.0
 51
180.0
  0
ARC
  5
2F6
330
1F
100
AcDbEntity
  8
0
  6
Continuous
 62
     7
370
    25
100
AcDbCircle
 10
-127.6948707546
 20
-12.0333703911
 30
0.0
 40
5.000000000000082
100
AcDbArc
 50
90.0
 51
180.0
  0
ARC
  5
2F7
330
1F
100
AcDbEntity
  8
0
  6
Continuous
 62
     7
370
    25
100
AcDbCircle
 10
79.4620257668
 20
-17.0333703911
 30
0.0
 40
5.000000000000014
100
AcDbArc
 50
0.0
 51
90.0
  0
ARC
  5
2F8
330
1F
100
AcDbEntity
  8
0
  6
Continuous
 62
     7
370
    25
100
AcDbCircle
 10
84.4620257668
 20
-12.0333703911
 30
0.0
 40
5.000000000000021
100
AcDbArc
 50
0.0
 51
90.0
  0
ARC
  5
2F9
330
1F
100
AcDbEntity
  8
0
  6
Continuous
 62
     7
370
    25
100
AcDbCircle
 10
94.792742852
 20
-95.3990222333
 30
0.0
 40
4.999999999999972
100
AcDbArc
 50
270.0
 51
0.0
  0
ARC
  5
2FA
330
1F
100
AcDbEntity
  8
0
  6
Continuous
 62
     7
370
    25
100
AcDbCircle
 10
94.792742852
 20
-29.5773483167
 30
0.0
 40
5.0
100
AcDbArc
 50
360.0
 51
90.0
  0
ARC
  5
2FB
330
1F
100
AcDbEntity
  8
0
  6
Continuous
 62
     7
370
    25
100
AcDbCircle
 10
5.6673924509
 20
-98.3990222333
 30
0.0
 40
2.000000000000028
100
AcDbArc
 50
270.0
 51
90.0
  0
ARC
  5
2FC
330
1F
100
AcDbEntity
  8
0
  6
Continuous
 62
     7
370
    25
100
AcDbCircle
 10
-108.9828250484
 20
-96.3398918625
 30
0.0
 40
3.397043481596597
100
AcDbArc
 50
359.0026351405
 51
360.0
  0
ARC
  5
2FD
330
1F
100
AcDbEntity
  8
0
  6
Continuous
 62
     7
370
    25
100
AcDbCircle
 10
5.6673924509
 20
-88.3990222333
 30
0.0
 40
2.0
100
AcDbArc
 50
270.0
 51
90.0
  0
ARC
  5
2FE
330
1F
100
AcDbEntity
  8
0
  6
Continuous
 62
     7
370
    25
100
AcDbCircle
 10
5.6673924509
 20
-78.3990222333
 30
0.0
 40
2.0
100
AcDbArc
 50
270.0
 51
90.0
  0
ARC
  5
2FF
330
1F
100
AcDbEntity
  8
0
  6
Continuous
 62
     7
370
    25
100
AcDbCircle
 10
5.6673924509
 20
-68.3990222333
 30
0.0
 40
2.000000000000028
100
AcDbArc
 50
270.0
 51
90.0
  0
ARC
  5
300
330
1F
100
AcDbEntity
  8
0
  6
Continuous
 62
     7
370
    25
100
AcDbCircle
 10
5.6673924509
 20
-58.3990222333
 30
0.0
 40
2.000000000000007
100
AcDbArc
 50
270.0
 51
90.0
  0
ARC
  5
301
330
1F
100
AcDbEntity
  8
0
  6
Continuous
 62
     7
370
    25
100
AcDbCircle
 10
5.6673924509
 20
-48.3990222333
 30
0.0
 40
2.000000000000007
100
AcDbArc
 50
270.0
 51
90.0
  0
ARC
  5
302
330
1F
100
AcDbEntity
  8
0
  6
Continuous
 62
     7
370
    25
100
AcDbCircle
 10
5.6673924509
 20
-38.3990222333
 30
0.0
 40
2.0
100
AcDbArc
 50
270.0
 51
90.0
  0
ARC
  5
303
330
1F
100
AcDbEntity
  8
0
  6
Continuous
 62
     7
370
    25
100
AcDbCircle
 10
5.6673924509
 20
-28.3990222333
 30
0.0
 40
2.000000000000004
100
AcDbArc
 50
270.0
 51
90.0
  0
ARC
  5
304
330
1F
100
AcDbEntity
  8
0
  6
Continuous
 62
     7
370
    25
100
AcDbCircle
 10
-108.9828250483
 20
-24.5773483167
 30
0.0
 40
3.39704348145753
100
AcDbArc
 50
0.0
 51
180.0
  0
ARC
  5
305
330
1F
100
AcDbEntity
  8
0
  6
Continuous
 62
     7
370
    25
100
AcDbCircle
 10
-108.9828250483
 20
-96.3398918625
 30
0.0
 40
3.397043481457487
100
AcDbArc
 50
180.0
 51
237.3550900802
  0
ARC
  5
306
330
1F
100
AcDbEntity
  8
0
  6
Continuous
 62
     7
370
    25
100
AcDbCircle
 10
-108.9828250483
 20
-98.3990222333
 30
0.0
 40
2.000000000000057
100
AcDbArc
 50
203.6182438982
 51
270.0
  0
ARC
  5
307
330
1F
100
AcDbEntity
  8
0
  6
Continuous
 62
     7
370
    25
100
AcDbCircle
 10
115.107180824
 20
-60.5113054961
 30
0.0
 40
4.999999999999986
100
AcDbArc
 50
360.0
 51
90.0
  0
ARC
  5
308
330
1F
100
AcDbEntity
  8
0
  6
Continuous
 62
     7
370
    25
100
AcDbCircle
 10
-122.6948707546
 20
-100.9051230843
 30
0.0
 40
5.000000000000071
100
AcDbArc
 50
180.0
 51
270.0
  0
ARC
  5
309
330
1F
100
AcDbEntity
  8
0
  6
Continuous
 62
     7
370
    25
100
AcDbCircle
 10
-127.6948707546
 20
-105.9051230843
 30
0.0
 40
5.000000000000099
100
AcDbArc
 50
180.0
 51
270.0
  0
ARC
  5
30A
330
1F
100
AcDbEntity
  8
0
  6
Continuous
 62
     7
370
    25
100
AcDbCircle
 10
79.4620257668
 20
-100.9051230843
 30
0.0
 40
5.000000000000043
100
AcDbArc
 50
270.0
 51
0.0
  0
ARC
  5
30B
330
1F
100
AcDbEntity
  8
0
  6
Continuous
 62
     7
370
    25
100
AcDbCircle
 10
84.4620257668
 20
-105.9051230843
 30
0.0
 40
5.000000000000014
100
AcDbArc
 50
270.0
 51
0.0
  0
ARC
  5
30C
330
1F
100
AcDbEntity
  8
0
  6
Continuous
 62
     7
370
    25
100
AcDbCircle
 10
174.2535978825
 20
-98.4692467377
 30
0.0
 40
1.5
100
AcDbArc
 50
90.0
 51
270.0
  0
ARC
  5
30D
330
1F
100
AcDbEntity
  8
0
  6
Continuous
 62
     7
370
    25
100
AcDbCircle
 10
194.2535978825
 20
-98.4692467377
 30
0.0
 40
1.5
100
AcDbArc
 50
270.0
 51
90.0
  0
ARC
  5
30E
330
1F
100
AcDbEntity
  8
0
  6
Continuous
 62
     7
370
    25
100
AcDbCircle
 10
174.2535978825
 20
-28.4692467377
 30
0.0
 40
1.5
100
AcDbArc
 50
90.0
 51
270.0
  0
ARC
  5
30F
330
1F
100
AcDbEntity
  8
0
  6
Continuous
 62
     7
370
    25
100
AcDbCircle
 10
194.2535978825
 20
-28.4692467377
 30
0.0
 40
1.5
100
AcDbArc
 50
270.0
 51
90.0
  0
ARC
  5
310
330
1F
100
AcDbEntity
  8
0
  6
Continuous
 62
     7
370
    25
100
AcDbCircle
 10
-174.2535978825
 20
-28.4692467377
 30
0.0
 40
1.500000000000004
100
AcDbArc
 50
270.0
 51
90.0
  0
ARC
  5
311
330
1F
100
AcDbEntity
  8
0
  6
Continuous
 62
     7
370
    25
100
AcDbCircle
 10
-194.2535978825
 20
-28.4692467377
 30
0.0
 40
1.500000000000004
100
AcDbArc
 50
90.0
 51
270.0
  0
ARC
  5
312
330
1F
100
AcDbEntity
  8
0
  6
Continuous
 62
     7
370
    25
100
AcDbCircle
 10
-174.2535978825
 20
-98.4692467377
 30
0.0
 40
1.5
100
AcDbArc
 50
270.0
 51
90.0
  0
ARC
  5
313
330
1F
100
AcDbEntity
  8
0
  6
Continuous
 62
     7
370
    25
100
AcDbCircle
 10
-194.2535978825
 20
-98.4692467377
 30
0.0
 40
1.5
100
AcDbArc
 50
90.0
 51
270.0
  0
ARC
  5
314
330
1F
100
AcDbEntity
  8
0
  6
Continuous
 62
     7
370
    25
100
AcDbCircle
 10
-27.5010032941
 20
635.8398232452
 30
0.0
 40
2.585837132819165
100
AcDbArc
 50
62.1228316512
 51
90.0
  0
ARC
  5
315
330
1F
100
AcDbEntity
  8
0
  6
Continuous
 62
     7
370
    25
100
AcDbCircle
 10
-20.4809873435
 20
642.2266189394
 30
0.0
 40
2.585837132821037
100
AcDbArc
 50
107.1228316512
 51
197.1228316512
  0
ARC
  5
316
330
1F
100
AcDbEntity
  8
0
  6
Continuous
 62
     7
370
    25
100
AcDbCircle
 10
-20.0332330064
 20
651.7066663675
 30
0.0
 40
2.585837132823009
100
AcDbArc
 50
224.9871186007
 51
242.1228316512
  0
ARC
  5
317
330
1F
100
AcDbEntity
  8
0
  6
Continuous
 62
     7
370
    25
100
AcDbCircle
 10
-31.7005397112
 20
647.5071299498
 30
0.0
 40
5.423423972545555
100
AcDbArc
 50
298.3290934397
 51
7.3415930212
  0
ARC
  5
318
330
1F
100
AcDbEntity
  8
0
  6
Continuous
 62
     7
370
    25
100
AcDbCircle
 10
-43.3678464164
 20
643.3075935329
 30
0.0
 40
2.58583713282218
100
AcDbArc
 50
332.1228316512
 51
347.1665725972
  0
ARC
  5
319
330
1F
100
AcDbEntity
  8
0
  6
Continuous
 62
     7
370
    25
100
AcDbCircle
 10
-36.9810507221
 20
636.2875775824
 30
0.0
 40
2.585837132821275
100
AcDbArc
 50
17.1228316512
 51
107.1228316512
  0
ARC
  5
31A
330
1F
100
AcDbEntity
  8
0
  6
Continuous
 62
     7
370
    25
100
AcDbCircle
 10
-27.5010032941
 20
635.8398232452
 30
0.0
 40
2.585837132821091
100
AcDbArc
 50
122.5230701091
 51
152.1228316512
  0
ARC
  5
31B
330
1F
100
AcDbEntity
  8
0
  6
Continuous
 62
     7
370
    25
100
AcDbCircle
 10
-31.7005397112
 20
647.5071299498
 30
0.0
 40
5.423423972545139
100
AcDbArc
 50
213.9090508087
 51
283.0297948414
  0
ARC
  5
31C
330
1F
100
AcDbEntity
  8
0
  6
Continuous
 62
     7
370
    25
100
AcDbCircle
 10
2.4499982779
 20
658.726682318
 30
0.0
 40
2.585837132820886
100
AcDbArc
 50
252.8771683488
 51
342.8771683488
  0
ARC
  5
31D
330
1F
100
AcDbEntity
  8
0
  6
Continuous
 62
     7
370
    25
100
AcDbCircle
 10
-3.9367974163
 20
651.7066663675
 30
0.0
 40
2.585837132837563
100
AcDbArc
 50
0.0
 51
27.8771683488
  0
ARC
  5
31E
330
1F
100
AcDbEntity
  8
0
  6
Continuous
 62
     7
370
    25
100
AcDbCircle
 10
7.7305092887
 20
647.5071299502
 30
0.0
 40
5.423423972643044
100
AcDbArc
 50
76.9702051585
 51
151.6709065603
  0
ARC
  5
31F
330
1F
100
AcDbEntity
  8
0
  6
Continuous
 62
     7
370
    25
100
AcDbCircle
 10
11.930045706
 20
659.1744366552
 30
0.0
 40
2.585837132762498
100
AcDbArc
 50
207.8771683483
 51
237.4769298912
  0
ARC
  5
320
330
1F
100
AcDbEntity
  8
0
  6
Continuous
 62
     7
370
    25
100
AcDbCircle
 10
-10.8421372276
 20
657.1934971465
 30
0.0
 40
25.87694725763713
100
AcDbArc
 50
28.3554485662
 51
151.6445514338
  0
ARC
  5
321
330
1F
100
AcDbEntity
  8
0
  6
Continuous
 62
     7
370
    25
100
AcDbCircle
 10
-20.0332330064
 20
651.7066663675
 30
0.0
 40
2.585837132820707
100
AcDbArc
 50
152.1228316512
 51
180.0
  0
ARC
  5
322
330
1F
100
AcDbEntity
  8
0
  6
Continuous
 62
     7
370
    25
100
AcDbCircle
 10
-26.4200287006
 20
658.726682318
 30
0.0
 40
2.585837132820902
100
AcDbArc
 50
197.1228316512
 51
287.1228316512
  0
ARC
  5
323
330
1F
100
AcDbEntity
  8
0
  6
Continuous
 62
     7
370
    25
100
AcDbCircle
 10
-35.9000761287
 20
659.1744366552
 30
0.0
 40
2.585837132822527
100
AcDbArc
 50
302.5230701091
 51
332.1228316512
  0
ARC
  5
324
330
1F
100
AcDbEntity
  8
0
  6
Continuous
 62
     7
370
    25
100
AcDbCircle
 10
-31.7005397112
 20
647.5071299498
 30
0.0
 40
5.423423972545359
100
AcDbArc
 50
28.3290934444
 51
103.0297948414
  0
ARC
  5
325
330
1F
100
AcDbEntity
  8
0
  6
Continuous
 62
     7
370
    25
100
AcDbCircle
 10
-31.7005397112
 20
647.5071299498
 30
0.0
 40
5.423423972543548
100
AcDbArc
 50
118.3290934396
 51
193.0297948366
  0
ARC
  5
326
330
1F
100
AcDbEntity
  8
0
  6
Continuous
 62
     7
370
    25
100
AcDbCircle
 10
-35.9000761287
 20
659.1744366552
 30
0.0
 40
2.585837132818824
100
AcDbArc
 50
242.1228316512
 51
270.0
  0
ARC
  5
327
330
1F
100
AcDbEntity
  8
0
  6
Continuous
 62
     7
370
    25
100
AcDbCircle
 10
-42.9200920792
 20
652.787640961
 30
0.0
 40
2.58583713282112
100
AcDbArc
 50
287.1228316512
 51
17.1228316512
  0
ARC
  5
328
330
1F
100
AcDbEntity
  8
0
  6
Continuous
 62
     7
370
    25
100
AcDbCircle
 10
-43.3678464164
 20
643.3075935329
 30
0.0
 40
2.585837132822395
100
AcDbArc
 50
32.5230701091
 51
62.1228316512
  0
ARC
  5
329
330
1F
100
AcDbEntity
  8
0
  6
Continuous
 62
     7
370
    25
100
AcDbCircle
 10
-3.4890430791
 20
642.2266189394
 30
0.0
 40
2.585837132820974
100
AcDbArc
 50
342.8771683488
 51
72.8771683488
  0
ARC
  5
32A
330
1F
100
AcDbEntity
  8
0
  6
Continuous
 62
     7
370
    25
100
AcDbCircle
 10
3.5309728713
 20
635.8398232453
 30
0.0
 40
2.585837132726974
100
AcDbArc
 50
89.9999999993
 51
117.8771683491
  0
ARC
  5
32B
330
1F
100
AcDbEntity
  8
0
  6
Continuous
 62
     7
370
    25
100
AcDbCircle
 10
7.7305092887
 20
647.5071299502
 30
0.0
 40
5.423423972643058
100
AcDbArc
 50
172.6584069832
 51
241.6709065605
  0
ARC
  5
32C
330
1F
100
AcDbEntity
  8
0
  6
Continuous
 62
     7
370
    25
100
AcDbCircle
 10
-3.9367974162
 20
651.7066663674
 30
0.0
 40
2.585837132621331
100
AcDbArc
 50
297.8771683479
 51
315.0128813996
  0
ARC
  5
32D
330
1F
100
AcDbEntity
  8
0
  6
Continuous
 62
     7
370
    25
100
AcDbCircle
 10
-31.738371343
 20
609.6991835696
 30
0.0
 40
9.52246358858509
100
AcDbArc
 50
16.6457234729
 51
106.6457234729
  0
ARC
  5
32E
330
1F
100
AcDbEntity
  8
0
  6
Continuous
 62
     7
370
    25
100
AcDbCircle
 10
-9.3732068086
 20
657.2301724837
 30
0.0
 40
57.27153976325884
100
AcDbArc
 50
225.6381828682
 51
262.3726350981
  0
ARC
  5
32F
330
1F
100
AcDbEntity
  8
0
  6
Continuous
 62
     7
370
    25
100
AcDbCircle
 10
19.3978159938
 20
643.3075935328
 30
0.0
 40
2.585837132920076
100
AcDbArc
 50
117.8771683497
 51
147.4769298906
  0
ARC
  5
330
330
1F
100
AcDbEntity
  8
0
  6
Continuous
 62
     7
370
    25
100
AcDbCircle
 10
18.9500616565
 20
652.787640961
 30
0.0
 40
2.585837132821345
100
AcDbArc
 50
162.8771683488
 51
252.8771683488
  0
ARC
  5
331
330
1F
100
AcDbEntity
  8
0
  6
Continuous
 62
     7
370
    25
100
AcDbCircle
 10
11.930045706
 20
659.1744366553
 30
0.0
 40
2.5858371329165
100
AcDbArc
 50
270.0000000007
 51
297.8771683485
  0
ARC
  5
332
330
1F
100
AcDbEntity
  8
0
  6
Continuous
 62
     7
370
    25
100
AcDbCircle
 10
7.7305092887
 20
647.5071299502
 30
0.0
 40
5.423423972642901
100
AcDbArc
 50
346.9702051587
 51
61.6709065605
  0
ARC
  5
333
330
1F
100
AcDbEntity
  8
0
  6
Continuous
 62
     7
370
    25
100
AcDbCircle
 10
3.5309728713
 20
635.8398232451
 30
0.0
 40
2.585837132880058
100
AcDbArc
 50
27.8771683493
 51
57.4769298906
  0
ARC
  5
334
330
1F
100
AcDbEntity
  8
0
  6
Continuous
 62
     7
370
    25
100
AcDbCircle
 10
13.0110202995
 20
636.2875775824
 30
0.0
 40
2.585837132821296
100
AcDbArc
 50
72.8771683488
 51
162.8771683488
  0
ARC
  5
335
330
1F
100
AcDbEntity
  8
0
  6
Continuous
 62
     7
370
    25
100
AcDbCircle
 10
19.3978159935
 20
643.3075935328
 30
0.0
 40
2.585837132632917
100
AcDbArc
 50
192.8334274021
 51
207.8771683492
  0
ARC
  5
336
330
1F
100
AcDbEntity
  8
0
  6
Continuous
 62
     7
370
    25
100
AcDbCircle
 10
7.7305092887
 20
647.5071299502
 30
0.0
 40
5.423423972642757
100
AcDbArc
 50
256.9702051584
 51
326.0909491869
  0
ARC
  5
337
330
1F
100
AcDbEntity
  8
0
  6
Continuous
 62
     7
370
    25
100
AcDbCircle
 10
-9.3732068086
 20
657.2301724837
 30
0.0
 40
57.27153976325983
100
AcDbArc
 50
184.9574245801
 51
220.196671713
  0
ARC
  5
338
330
1F
100
AcDbEntity
  8
0
  6
Continuous
 62
     7
370
    25
100
AcDbCircle
 10
-67.2492650466
 20
634.0635891476
 30
0.0
 40
18.96461321773303
100
AcDbArc
 50
355.8491737826
 51
37.4422731632
  0
ARC
  5
339
330
1F
100
AcDbEntity
  8
0
  6
Continuous
 62
     7
370
    25
100
AcDbCircle
 10
-30.4972191004
 20
705.2740466903
 30
0.0
 40
15.86363382987948
100
AcDbArc
 50
263.2371323884
 51
307.678279988
  0
ARC
  5
33A
330
1F
100
AcDbEntity
  8
0
  6
Continuous
 62
     7
370
    25
100
AcDbCircle
 10
-9.3732068086
 20
657.2301724837
 30
0.0
 40
57.27153976325864
100
AcDbArc
 50
93.0185713751
 51
135.3307505366
  0
ARC
  5
33B
330
1F
100
AcDbEntity
  8
0
  6
Continuous
 62
     7
370
    25
100
AcDbCircle
 10
-9.3732068086
 20
657.2301724837
 30
0.0
 40
57.27153976326023
100
AcDbArc
 50
141.7091553121
 51
180.0
  0
ARC
  5
33C
330
1F
100
AcDbEntity
  8
0
  6
Continuous
 62
     7
370
    25
100
AcDbCircle
 10
-9.3732068086
 20
657.2301724837
 30
0.0
 40
57.27153976326002
100
AcDbArc
 50
0.2121810536
 51
40.2618555406
  0
ARC
  5
33D
330
1F
100
AcDbEntity
  8
0
  6
Continuous
 62
     7
370
    25
100
AcDbCircle
 10
10.4500075863
 20
705.6253745477
 30
0.0
 40
17.69231196030427
100
AcDbArc
 50
226.8451721972
 51
267.3898151825
  0
ARC
  5
33E
330
1F
100
AcDbEntity
  8
0
  6
Continuous
 62
     7
370
    25
100
AcDbCircle
 10
-9.3732068086
 20
657.2301724837
 30
0.0
 40
57.27153976326074
100
AcDbArc
 50
44.9791047041
 51
86.7493807994
  0
ARC
  5
33F
330
1F
100
AcDbEntity
  8
0
  6
Continuous
 62
     7
370
    25
100
AcDbCircle
 10
5.3777988275
 20
607.9044940544
 30
0.0
 40
9.5224635885832
100
AcDbArc
 50
61.6457234729
 51
151.6457234729
  0
ARC
  5
340
330
1F
100
AcDbEntity
  8
0
  6
Continuous
 62
     7
370
    25
100
AcDbCircle
 10
-9.3732068086
 20
657.2301724837
 30
0.0
 40
57.27153976325978
100
AcDbArc
 50
268.3583834265
 51
307.1331611888
  0
ARC
  5
341
330
1F
100
AcDbEntity
  8
0
  6
Continuous
 62
     7
370
    25
100
AcDbCircle
 10
32.891931573
 20
632.8805525472
 30
0.0
 40
9.522463588582506
100
AcDbArc
 50
106.6457234729
 51
196.6457234729
  0
ARC
  5
342
330
1F
100
AcDbEntity
  8
0
  6
Continuous
 62
     7
370
    25
100
AcDbCircle
 10
-9.3732068086
 20
657.2301724837
 30
0.0
 40
57.27153976325923
100
AcDbArc
 50
312.3109174284
 51
353.0664097582
  0
ARC
  5
343
330
1F
100
AcDbEntity
  8
0
  6
Continuous
 62
     7
370
    25
100
AcDbCircle
 10
-122.1954979735
 20
696.2038319106
 30
0.0
 40
1.5
100
AcDbArc
 50
270.0
 51
90.0
  0
ARC
  5
344
330
1F
100
AcDbEntity
  8
0
  6
Continuous
 62
     7
370
    25
100
AcDbCircle
 10
-142.1954979735
 20
696.2038319106
 30
0.0
 40
1.5
100
AcDbArc
 50
90.0
 51
270.0
  0
ARC
  5
345
330
1F
100
AcDbEntity
  8
0
  6
Continuous
 62
     7
370
    25
100
AcDbCircle
 10
-122.1954979735
 20
626.2038319106
 30
0.0
 40
1.500000000000114
100
AcDbArc
 50
270.0
 51
90.0
  0
ARC
  5
346
330
1F
100
AcDbEntity
  8
0
  6
Continuous
 62
     7
370
    25
100
AcDbCircle
 10
-142.1954979735
 20
626.2038319106
 30
0.0
 40
1.500000000000114
100
AcDbArc
 50
90.0
 51
270.0
  0
ARC
  5
347
330
1F
100
AcDbEntity
  8
0
  6
Continuous
 62
     7
370
    25
100
AcDbCircle
 10
122.1954979735
 20
626.2038319106
 30
0.0
 40
1.500000000000114
100
AcDbArc
 50
90.0
 51
270.0
  0
ARC
  5
348
330
1F
100
AcDbEntity
  8
0
  6
Continuous
 62
     7
370
    25
100
AcDbCircle
 10
142.1954979735
 20
626.2038319106
 30
0.0
 40
1.500000000000114
100
AcDbArc
 50
270.0
 51
90.0
  0
ARC
  5
349
330
1F
100
AcDbEntity
  8
0
  6
Continuous
 62
     7
370
    25
100
AcDbCircle
 10
122.1954979735
 20
696.2038319106
 30
0.0
 40
1.5
100
AcDbArc
 50
90.0
 51
270.0
  0
ARC
  5
34A
330
1F
100
AcDbEntity
  8
0
  6
Continuous
 62
     7
370
    25
100
AcDbCircle
 10
142.1954979735
 20
696.2038319106
 30
0.0
 40
1.5
100
AcDbArc
 50
270.0
 51
90.0
  0
ARC
  5
34B
330
1F
100
AcDbEntity
  8
0
  6
Continuous
 62
     7
370
    25
100
AcDbCircle
 10
249.2612866687
 20
579.1504242101
 30
0.0
 40
1.500000000000043
100
AcDbArc
 50
185.0
 51
5.0
  0
ARC
  5
34C
330
1F
100
AcDbEntity
  8
0
  6
Continuous
 62
     7
370
    25
100
AcDbCircle
 10
247.5181718137
 20
599.0743181719
 30
0.0
 40
1.500000000000025
100
AcDbArc
 50
5.0
 51
185.0
  0
ARC
  5
34D
330
1F
100
AcDbEntity
  8
0
  6
Continuous
 62
     7
370
    25
100
AcDbCircle
 10
179.5276578022
 20
573.0495222178
 30
0.0
 40
1.500000000000025
100
AcDbArc
 50
185.0
 51
5.0
  0
ARC
  5
34E
330
1F
100
AcDbEntity
  8
0
  6
Continuous
 62
     7
370
    25
100
AcDbCircle
 10
177.7845429473
 20
592.9734161796
 30
0.0
 40
1.499999999999987
100
AcDbArc
 50
5.0
 51
185.0
  0
ARC
  5
34F
330
1F
100
AcDbEntity
  8
0
  6
Continuous
 62
     7
370
    25
100
AcDbCircle
 10
227.1074018783
 20
29.2105588767
 30
0.0
 40
1.500000000000047
100
AcDbArc
 50
5.0
 51
185.0
  0
ARC
  5
350
330
1F
100
AcDbEntity
  8
0
  6
Continuous
 62
     7
370
    25
100
AcDbCircle
 10
228.8505167332
 20
9.2866649149
 30
0.0
 40
1.50000000000002
100
AcDbArc
 50
185.0
 51
5.0
  0
ARC
  5
351
330
1F
100
AcDbEntity
  8
0
  6
Continuous
 62
     7
370
    25
100
AcDbCircle
 10
296.8410307447
 20
35.3114608691
 30
0.0
 40
1.49999999999999
100
AcDbArc
 50
5.0
 51
185.0
  0
ARC
  5
352
330
1F
100
AcDbEntity
  8
0
  6
Continuous
 62
     7
370
    25
100
AcDbCircle
 10
298.5841455996
 20
15.3875669072
 30
0.0
 40
1.499999999999988
100
AcDbArc
 50
185.0
 51
5.0
  0
ARC
  5
353
330
1F
100
AcDbEntity
  8
0
  6
Continuous
 62
     7
370
    25
100
AcDbCircle
 10
-296.8410307447
 20
35.3114608691
 30
0.0
 40
1.500000000000042
100
AcDbArc
 50
355.0
 51
175.0
  0
ARC
  5
354
330
1F
100
AcDbEntity
  8
0
  6
Continuous
 62
     7
370
    25
100
AcDbCircle
 10
-298.5841455996
 20
15.3875669072
 30
0.0
 40
1.500000000000044
100
AcDbArc
 50
175.0
 51
355.0
  0
ARC
  5
355
330
1F
100
AcDbEntity
  8
0
  6
Continuous
 62
     7
370
    25
100
AcDbCircle
 10
-227.1074018783
 20
29.2105588767
 30
0.0
 40
1.500000000000014
100
AcDbArc
 50
355.0
 51
175.0
  0
ARC
  5
356
330
1F
100
AcDbEntity
  8
0
  6
Continuous
 62
     7
370
    25
100
AcDbCircle
 10
-228.8505167332
 20
9.2866649149
 30
0.0
 40
1.500000000000015
100
AcDbArc
 50
175.0
 51
355.0
  0
ARC
  5
357
330
1F
100
AcDbEntity
  8
0
  6
Continuous
 62
     7
370
    25
100
AcDbCircle
 10
-179.5276578022
 20
573.0495222178
 30
0.0
 40
1.500000000000025
100
AcDbArc
 50
175.0
 51
355.0
  0
ARC
  5
358
330
1F
100
AcDbEntity
  8
0
  6
Continuous
 62
     7
370
    25
100
AcDbCircle
 10
-177.7845429473
 20
592.9734161796
 30
0.0
 40
1.500000000000015
100
AcDbArc
 50
355.0
 51
175.0
  0
ARC
  5
359
330
1F
100
AcDbEntity
  8
0
  6
Continuous
 62
     7
370
    25
100
AcDbCircle
 10
-249.2612866687
 20
579.1504242101
 30
0.0
 40
1.500000000000043
100
AcDbArc
 50
175.0
 51
355.0
  0
ARC
  5
35A
330
1F
100
AcDbEntity
  8
0
  6
Continuous
 62
     7
370
    25
100
AcDbCircle
 10
-247.5181718137
 20
599.0743181719
 30
0.0
 40
1.500000000000015
100
AcDbArc
 50
355.0
 51
175.0
  0
ARC
  5
35B
330
1F
100
AcDbEntity
  8
0
  6
Continuous
 62
     7
370
    25
100
AcDbCircle
 10
2.7509523881
 20
595.8992532621
 30
0.0
 40
138.1441756964202
100
AcDbArc
 50
211.4911361124
 51
324.8284834573
  0
ARC
  5
35C
330
1F
100
AcDbEntity
  8
0
  6
Continuous
 62
     7
370
    25
100
AcDbCircle
 10
107.5000201026
 20
522.0848740541
 30
0.0
 40
9.99999999999999
100
AcDbArc
 50
324.8284834573
 51
144.8284834573
  0
ARC
  5
35D
330
1F
100
AcDbEntity
  8
0
  6
Continuous
 62
     7
370
    25
100
AcDbCircle
 10
2.7509523881
 20
595.8992532621
 30
0.0
 40
118.1441756964205
100
AcDbArc
 50
211.4911361124
 51
324.8284834573
  0
ARC
  5
35E
330
1F
100
AcDbEntity
  8
0
  6
Continuous
 62
     7
370
    25
100
AcDbCircle
 10
-106.520275562
 20
528.9610092815
 30
0.0
 40
10.00000000000002
100
AcDbArc
 50
31.4911361123
 51
211.4911361124
  0
ARC
  5
35F
330
1F
100
AcDbEntity
  8
0
  6
Continuous
 62
     7
370
    25
100
AcDbCircle
 10
-130.8410918098
 20
582.3017816641
 30
0.0
 40
2.000000000000065
100
AcDbArc
 50
355.1079929544
 51
175.1079929544
  0
ARC
  5
360
330
1F
100
AcDbEntity
  8
0
  6
Continuous
 62
     7
370
    25
100
AcDbCircle
 10
-173.4800561989
 20
84.1231804418
 30
0.0
 40
2.000000000000003
100
AcDbArc
 50
175.1079929544
 51
355.1079929544
  0
ARC
  5
361
330
1F
100
AcDbEntity
  8
0
  6
Continuous
 62
     7
370
    25
100
AcDbCircle
 10
130.8410918098
 20
582.3017816641
 30
0.0
 40
2.000000000000056
100
AcDbArc
 50
4.8920070456
 51
184.8920070456
  0
ARC
  5
362
330
1F
100
AcDbEntity
  8
0
  6
Continuous
 62
     7
370
    25
100
AcDbCircle
 10
173.4800561989
 20
84.1231804418
 30
0.0
 40
2.000000000000004
100
AcDbArc
 50
184.8920070456
 51
4.8920070456
  0
ARC
  5
363
330
1F
100
AcDbEntity
  8
0
  6
Continuous
 62
     7
370
    25
100
AcDbCircle
 10
-117.8532829635
 20
396.5644660648
 30
0.0
 40
10.00000000000003
100
AcDbArc
 50
32.7921212676
 51
212.7921212676
  0
ARC
  5
364
330
1F
100
AcDbEntity
  8
0
  6
Continuous
 62
     7
370
    25
100
AcDbCircle
 10
0.0
 20
472.4927894123
 30
0.0
 40
150.1945312472599
100
AcDbArc
 50
212.7921212676
 51
327.2078787324
  0
ARC
  5
365
330
1F
100
AcDbEntity
  8
0
  6
Continuous
 62
     7
370
    25
100
AcDbCircle
 10
117.8532829635
 20
396.5644660648
 30
0.0
 40
10.00000000000002
100
AcDbArc
 50
327.2078787324
 51
147.2078787324
  0
ARC
  5
366
330
1F
100
AcDbEntity
  8
0
  6
Continuous
 62
     7
370
    25
100
AcDbCircle
 10
0.0
 20
472.4927894123
 30
0.0
 40
130.1945312472597
100
AcDbArc
 50
212.7921212676
 51
327.2078787324
  0
ARC
  5
367
330
1F
100
AcDbEntity
  8
0
  6
Continuous
 62
     7
370
    25
100
AcDbCircle
 10
-128.6216671955
 20
272.5284451137
 30
0.0
 40
10.00000000000001
100
AcDbArc
 50
35.3330201679
 51
215.3330201679
  0
ARC
  5
368
330
1F
100
AcDbEntity
  8
0
  6
Continuous
 62
     7
370
    25
100
AcDbCircle
 10
5.7921544201
 20
367.815081652
 30
0.0
 40
174.7623092339114
100
AcDbArc
 50
215.3330201679
 51
319.1100976122
  0
ARC
  5
369
330
1F
100
AcDbEntity
  8
0
  6
Continuous
 62
     7
370
    25
100
AcDbCircle
 10
130.347327313
 20
259.9604227368
 30
0.0
 40
10.00000000000002
100
AcDbArc
 50
319.1100976122
 51
139.1100976122
  0
ARC
  5
36A
330
1F
100
AcDbEntity
  8
0
  6
Continuous
 62
     7
370
    25
100
AcDbCircle
 10
5.7921544201
 20
367.815081652
 30
0.0
 40
154.7623092339114
100
AcDbArc
 50
215.3330201679
 51
319.1100976122
  0
ARC
  5
36B
330
1F
100
AcDbEntity
  8
0
  6
Continuous
 62
     7
370
    25
100
AcDbCircle
 10
-136.5778745943
 20
160.8020456547
 30
0.0
 40
10.00000000000003
100
AcDbArc
 50
19.2682557555
 51
199.2682557555
  0
ARC
  5
36C
330
1F
100
AcDbEntity
  8
0
  6
Continuous
 62
     7
370
    25
100
AcDbCircle
 10
0.0
 20
208.5460038836
 30
0.0
 40
154.6824155731042
100
AcDbArc
 50
199.2682557555
 51
340.7317442445
  0
ARC
  5
36D
330
1F
100
AcDbEntity
  8
0
  6
Continuous
 62
     7
370
    25
100
AcDbCircle
 10
136.5778745943
 20
160.8020456547
 30
0.0
 40
10.00000000000001
100
AcDbArc
 50
340.7317442445
 51
160.7317442445
  0
ARC
  5
36E
330
1F
100
AcDbEntity
  8
0
  6
Continuous
 62
     7
370
    25
100
AcDbCircle
 10
0.0
 20
208.5460038836
 30
0.0
 40
134.6824155731042
100
AcDbArc
 50
199.2682557555
 51
340.7317442445
  0
ARC
  5
36F
330
1F
100
AcDbEntity
  8
0
  6
Continuous
 62
     7
370
    25
100
AcDbCircle
 10
557.0966226919
 20
332.0817005643
 30
0.0
 40
314.5112265307044
100
AcDbArc
 50
152.4574373
 51
217.5425627
  0
ARC
  5
370
330
1F
100
AcDbEntity
  8
0
  6
Continuous
 62
     7
370
    25
100
AcDbCircle
 10
-557.0966226919
 20
332.0817005643
 30
0.0
 40
314.5112265307041
100
AcDbArc
 50
322.4574373
 51
27.5425627
  0
ENDSEC
  0
SECTION
  2
OBJECTS
  0
DICTIONARY
  5
C
330
0
100
AcDbDictionary
281
     1
  3
ACAD_GROUP
350
D
  3
ACAD_LAYOUT
350
1A
  3
ACAD_MLINESTYLE
350
17
  3
ACAD_PLOTSETTINGS
350
19
  3
ACAD_PLOTSTYLENAME
350
E
  3
ACAD_SCALELIST
350
47
  3
DWGPROPS
350
371
  0
DICTIONARY
  5
D
102
{ACAD_REACTORS
330
C
102
}
330
C
100
AcDbDictionary
281
     1
  0
DICTIONARY
  5
1A
102
{ACAD_REACTORS
330
C
102
}
330
C
100
AcDbDictionary
281
     1
  3
Layout1
350
1E
  3
Layout2
350
26
  3
Model
350
22
  0
DICTIONARY
  5
17
102
{ACAD_REACTORS
330
C
102
}
330
C
100
AcDbDictionary
281
     1
  3
Standard
350
18
  0
DICTIONARY
  5
19
102
{ACAD_REACTORS
330
C
102
}
330
C
100
AcDbDictionary
281
     1
  0
ACDBDICTIONARYWDFLT
  5
E
102
{ACAD_REACTORS
330
C
102
}
330
C
100
AcDbDictionary
281
     1
  3
Normal
350
F
100
AcDbDictionaryWithDefault
340
F
  0
DICTIONARY
  5
47
102
{ACAD_REACTORS
330
C
102
}
330
C
100
AcDbDictionary
281
     1
  3
A0
350
48
  3
A1
350
49
  3
A2
350
4A
  3
A3
350
4B
  3
A4
350
4C
  3
A5
350
4D
  3
A6
350
4E
  3
A7
350
4F
  3
A8
350
50
  3
A9
350
51
  3
B0
350
52
  3
B1
350
53
  3
B2
350
54
  3
B3
350
55
  3
B4
350
56
  3
B5
350
57
  3
B6
350
58
  0
XRECORD
  5
371
102
{ACAD_REACTORS
330
C
102
}
330
C
100
AcDbXrecord
280
     1
  1
DWGPROPS COOKIE
  2

  3

  4

  6

  7

  8
Duniy
  9

300
=
301
=
302
=
303
=
304
=
305
=
306
=
307
=
308
=
309
=
 40
0.0
 41
2460665.885476077
 42
2460665.885563924
  1

 90
        0
  0
LAYOUT
  5
1E
102
{ACAD_REACTORS
330
1A
102
}
330
1A
100
AcDbPlotSettings
  1

  2
none_device
  4

  6

 40
0.0
 41
0.0
 42
0.0
 43
0.0
 44
0.0
 45
0.0
 46
0.0
 47
0.0
 48
0.0
 49
0.0
140
0.0
141
0.0
142
1.0
143
1.0
 70
   688
 72
     1
 73
     0
 74
     5
  7

 75
    16
147
1.0
148
0.0
149
0.0
100
AcDbLayout
  1
Layout1
 70
     1
 71
     1
 10
0.0
 20
0.0
 11
420.0
 21
297.0
 12
0.0
 22
0.0
 32
0.0
 14
1.0000000000E+20
 24
1.0000000000E+20
 34
1.0000000000E+20
 15
-1.0000000000E+20
 25
-1.0000000000E+20
 35
-1.0000000000E+20
146
0.0
 13
0.0
 23
0.0
 33
0.0
 16
1.0
 26
0.0
 36
0.0
 17
0.0
 27
1.0
 37
0.0
 76
     0
330
1B
  0
LAYOUT
  5
26
102
{ACAD_REACTORS
330
1A
102
}
330
1A
100
AcDbPlotSettings
  1

  2
none_device
  4

  6

 40
0.0
 41
0.0
 42
0.0
 43
0.0
 44
0.0
 45
0.0
 46
0.0
 47
0.0
 48
0.0
 49
0.0
140
0.0
141
0.0
142
1.0
143
1.0
 70
   688
 72
     1
 73
     0
 74
     5
  7

 75
    16
147
1.0
148
0.0
149
0.0
100
AcDbLayout
  1
Layout2
 70
     1
 71
     2
 10
0.0
 20
0.0
 11
0.0
 21
0.0
 12
0.0
 22
0.0
 32
0.0
 14
0.0
 24
0.0
 34
0.0
 15
0.0
 25
0.0
 35
0.0
146
0.0
 13
0.0
 23
0.0
 33
0.0
 16
1.0
 26
0.0
 36
0.0
 17
0.0
 27
1.0
 37
0.0
 76
     0
330
23
  0
LAYOUT
  5
22
102
{ACAD_REACTORS
330
1A
102
}
330
1A
100
AcDbPlotSettings
  1

  2
none_device
  4
ANSI_A_(11.00_x_8.50_Inches)
  6

 40
6.35
 41
19.05
 42
6.35000508
 43
19.05000254
 44
279.4
 45
215.9
 46
133.34999746
 47
12.3668079289
 48
0.0
 49
0.0
140
0.0
141
0.0
142
0.0100817916
143
1.0
 70
  1696
 72
     0
 73
     0
 74
     0
  7

 75
     0
147
0.0179189148
148
-1300.4909072572
149
0.0
100
AcDbLayout
  1
Model
 70
     1
 71
     0
 10
0.0
 20
0.0
 11
420.0
 21
297.0
 12
0.0
 22
0.0
 32
0.0
 14
-318.9438182752
 24
-118.4692467377
 34
0.0
 15
318.9438182752
 25
716.2038319106
 35
0.0
146
0.0
 13
0.0
 23
0.0
 33
0.0
 16
1.0
 26
0.0
 36
0.0
 17
0.0
 27
1.0
 37
0.0
 76
     0
330
1F
331
29
  0
MLINESTYLE
  5
18
102
{ACAD_REACTORS
330
17
102
}
330
17
100
AcDbMlineStyle
  2
Standard
 70
     0
  3

 62
   256
 51
90.0
 52
90.0
 71
     2
 49
0.5
 62
   256
  6
BYLAYER
 49
-0.5
 62
   256
  6
BYLAYER
  0
ACDBPLACEHOLDER
  5
F
102
{ACAD_REACTORS
330
E
102
}
330
E
  0
SCALE
  5
48
102
{ACAD_REACTORS
330
47
102
}
330
47
100
AcDbScale
 70
     0
300
1:1
140
1.0
141
1.0
290
     1
  0
SCALE
  5
49
102
{ACAD_REACTORS
330
47
102
}
330
47
100
AcDbScale
 70
     0
300
1:2
140
1.0
141
2.0
290
     0
  0
SCALE
  5
4A
102
{ACAD_REACTORS
330
47
102
}
330
47
100
AcDbScale
 70
     0
300
1:4
140
1.0
141
4.0
290
     0
  0
SCALE
  5
4B
102
{ACAD_REACTORS
330
47
102
}
330
47
100
AcDbScale
 70
     0
300
1:5
140
1.0
141
5.0
290
     0
  0
SCALE
  5
4C
102
{ACAD_REACTORS
330
47
102
}
330
47
100
AcDbScale
 70
     0
300
1:8
140
1.0
141
8.0
290
     0
  0
SCALE
  5
4D
102
{ACAD_REACTORS
330
47
102
}
330
47
100
AcDbScale
 70
     0
300
1:10
140
1.0
141
10.0
290
     0
  0
SCALE
  5
4E
102
{ACAD_REACTORS
330
47
102
}
330
47
100
AcDbScale
 70
     0
300
1:16
140
1.0
141
16.0
290
     0
  0
SCALE
  5
4F
102
{ACAD_REACTORS
330
47
102
}
330
47
100
AcDbScale
 70
     0
300
1:20
140
1.0
141
20.0
290
     0
  0
SCALE
  5
50
102
{ACAD_REACTORS
330
47
102
}
330
47
100
AcDbScale
 70
     0
300
1:30
140
1.0
141
30.0
290
     0
  0
SCALE
  5
51
102
{ACAD_REACTORS
330
47
102
}
330
47
100
AcDbScale
 70
     0
300
1:40
140
1.0
141
40.0
290
     0
  0
SCALE
  5
52
102
{ACAD_REACTORS
330
47
102
}
330
47
100
AcDbScale
 70
     0
300
1:50
140
1.0
141
50.0
290
     0
  0
SCALE
  5
53
102
{ACAD_REACTORS
330
47
102
}
330
47
100
AcDbScale
 70
     0
300
1:100
140
1.0
141
100.0
290
     0
  0
SCALE
  5
54
102
{ACAD_REACTORS
330
47
102
}
330
47
100
AcDbScale
 70
     0
300
2:1
140
2.0
141
1.0
290
     0
  0
SCALE
  5
55
102
{ACAD_REACTORS
330
47
102
}
330
47
100
AcDbScale
 70
     0
300
4:1
140
4.0
141
1.0
290
     0
  0
SCALE
  5
56
102
{ACAD_REACTORS
330
47
102
}
330
47
100
AcDbScale
 70
     0
300
8:1
140
8.0
141
1.0
290
     0
  0
SCALE
  5
57
102
{ACAD_REACTORS
330
47
102
}
330
47
100
AcDbScale
 70
     0
300
10:1
140
10.0
141
1.0
290
     0
  0
SCALE
  5
58
102
{ACAD_REACTORS
330
47
102
}
330
47
100
AcDbScale
 70
     0
300
100:1
140
100.0
141
1.0
290
     0
  0
ENDSEC
  0
EOF
