  0
SECTION
  2
HEADER
  9
$ACADVER
  1
AC1015
  9
$ACADMAINTVER
 70
     6
  9
$DWGCODEPAGE
  3
ANSI_1252
  9
$INSBASE
 10
0.0
 20
0.0
 30
0.0
  9
$EXTMIN
 10
-201.085
 20
-120.0
 30
0.0
  9
$EXTMAX
 10
201.085
 20
0.0
 30
0.0
  9
$LIMMIN
 10
0.0
 20
0.0
  9
$LIMMAX
 10
420.0
 20
297.0
  9
$ORTHOMODE
 70
     0
  9
$REGENMODE
 70
     1
  9
$FILLMODE
 70
     1
  9
$QTEXTMODE
 70
     0
  9
$MIRRTEXT
 70
     1
  9
$LTSCALE
 40
1.0
  9
$ATTMODE
 70
     1
  9
$TEXTSIZE
 40
3.5
  9
$TRACEWID
 40
1.0
  9
$TEXTSTYLE
  7
Standard
  9
$CLAYER
  8
0
  9
$CELTYPE
  6
ByLayer
  9
$CECOLOR
 62
   256
  9
$CELTSCALE
 40
1.0
  9
$DISPSILH
 70
     0
  9
$DIMSCALE
 40
1.0
  9
$DIMASZ
 40
3.302
  9
$DIMEXO
 40
0.0
  9
$DIMDLI
 40
3.75
  9
$DIMRND
 40
0.0
  9
$DIMDLE
 40
0.0
  9
$DIMEXE
 40
1.0
  9
$DIMTP
 40
0.0
  9
$DIMTM
 40
0.0
  9
$DIMTXT
 40
3.5
  9
$DIMCEN
 40
2.5
  9
$DIMTSZ
 40
0.0
  9
$DIMTOL
 70
     0
  9
$DIMLIM
 70
     0
  9
$DIMTIH
 70
     1
  9
$DIMTOH
 70
     1
  9
$DIMSE1
 70
     0
  9
$DIMSE2
 70
     0
  9
$DIMTAD
 70
     1
  9
$DIMZIN
 70
     1
  9
$DIMBLK
  1

  9
$DIMASO
 70
     1
  9
$DIMSHO
 70
     1
  9
$DIMPOST
  1

  9
$DIMAPOST
  1

  9
$DIMALT
 70
     0
  9
$DIMALTD
 70
     3
  9
$DIMALTF
 40
0.0393700787
  9
$DIMLFAC
 40
1.0
  9
$DIMTOFL
 70
     1
  9
$DIMTVP
 40
0.0
  9
$DIMTIX
 70
     0
  9
$DIMSOXD
 70
     0
  9
$DIMSAH
 70
     0
  9
$DIMBLK1
  1

  9
$DIMBLK2
  1

  9
$DIMSTYLE
  2
ISO-25
  9
$DIMCLRD
 70
     0
  9
$DIMCLRE
 70
     0
  9
$DIMCLRT
 70
     0
  9
$DIMTFAC
 40
1.0
  9
$DIMGAP
 40
1.524
  9
$DIMJUST
 70
     0
  9
$DIMSD1
 70
     0
  9
$DIMSD2
 70
     0
  9
$DIMTOLJ
 70
     0
  9
$DIMTZIN
 70
     1
  9
$DIMALTZ
 70
     0
  9
$DIMALTTZ
 70
     0
  9
$DIMUPT
 70
     0
  9
$DIMDEC
 70
     2
  9
$DIMTDEC
 70
     2
  9
$DIMALTU
 70
     2
  9
$DIMALTTD
 70
     3
  9
$DIMTXSTY
  7
Standard
  9
$DIMAUNIT
 70
     0
  9
$DIMADEC
 70
     2
  9
$DIMALTRND
 40
0.0
  9
$DIMAZIN
 70
     0
  9
$DIMDSEP
 70
    44
  9
$DIMATFIT
 70
     3
  9
$DIMFRAC
 70
     0
  9
$DIMLDRBLK
  1

  9
$DIMLUNIT
 70
     2
  9
$DIMLWD
 70
    -2
  9
$DIMLWE
 70
    -2
  9
$DIMTMOVE
 70
     0
  9
$LUNITS
 70
     2
  9
$LUPREC
 70
     2
  9
$SKETCHINC
 40
1.0
  9
$FILLETRAD
 40
0.0
  9
$AUNITS
 70
     0
  9
$AUPREC
 70
     2
  9
$MENU
  1
.
  9
$ELEVATION
 40
0.0
  9
$PELEVATION
 40
0.0
  9
$THICKNESS
 40
0.0
  9
$LIMCHECK
 70
     0
  9
$CHAMFERA
 40
0.0
  9
$CHAMFERB
 40
0.0
  9
$CHAMFERC
 40
0.0
  9
$CHAMFERD
 40
0.0
  9
$SKPOLY
 70
     0
  9
$TDCREATE
 40
2460701.912768623
  9
$TDUCREATE
 40
2460701.82943529
  9
$TDUPDATE
 40
2460701.912889317
  9
$TDUUPDATE
 40
2460701.829555984
  9
$TDINDWG
 40
0.0000000116
  9
$TDUSRTIMER
 40
0.0000000116
  9
$USRTIMER
 70
     1
  9
$ANGBASE
 50
0.0
  9
$ANGDIR
 70
     0
  9
$PDMODE
 70
     0
  9
$PDSIZE
 40
-1.0
  9
$PLINEWID
 40
0.0
  9
$SPLFRAME
 70
     0
  9
$SPLINETYPE
 70
     6
  9
$SPLINESEGS
 70
     8
  9
$HANDSEED
  5
328
  9
$SURFTAB1
 70
     6
  9
$SURFTAB2
 70
     6
  9
$SURFTYPE
 70
     6
  9
$SURFU
 70
     6
  9
$SURFV
 70
     6
  9
$UCSBASE
  2

  9
$UCSNAME
  2

  9
$UCSORG
 10
0.0
 20
0.0
 30
0.0
  9
$UCSXDIR
 10
1.0
 20
0.0
 30
0.0
  9
$UCSYDIR
 10
0.0
 20
1.0
 30
0.0
  9
$UCSORTHOREF
  2

  9
$UCSORTHOVIEW
 70
     0
  9
$UCSORGTOP
 10
0.0
 20
0.0
 30
0.0
  9
$UCSORGBOTTOM
 10
0.0
 20
0.0
 30
0.0
  9
$UCSORGLEFT
 10
0.0
 20
0.0
 30
0.0
  9
$UCSORGRIGHT
 10
0.0
 20
0.0
 30
0.0
  9
$UCSORGFRONT
 10
0.0
 20
0.0
 30
0.0
  9
$UCSORGBACK
 10
0.0
 20
0.0
 30
0.0
  9
$PUCSBASE
  2

  9
$PUCSNAME
  2

  9
$PUCSORG
 10
0.0
 20
0.0
 30
0.0
  9
$PUCSXDIR
 10
1.0
 20
0.0
 30
0.0
  9
$PUCSYDIR
 10
0.0
 20
1.0
 30
0.0
  9
$PUCSORTHOREF
  2

  9
$PUCSORTHOVIEW
 70
     0
  9
$PUCSORGTOP
 10
0.0
 20
0.0
 30
0.0
  9
$PUCSORGBOTTOM
 10
0.0
 20
0.0
 30
0.0
  9
$PUCSORGLEFT
 10
0.0
 20
0.0
 30
0.0
  9
$PUCSORGRIGHT
 10
0.0
 20
0.0
 30
0.0
  9
$PUCSORGFRONT
 10
0.0
 20
0.0
 30
0.0
  9
$PUCSORGBACK
 10
0.0
 20
0.0
 30
0.0
  9
$USERI1
 70
     0
  9
$USERI2
 70
     0
  9
$USERI3
 70
     0
  9
$USERI4
 70
     0
  9
$USERI5
 70
     0
  9
$USERR1
 40
0.0
  9
$USERR2
 40
0.0
  9
$USERR3
 40
0.0
  9
$USERR4
 40
0.0
  9
$USERR5
 40
0.0
  9
$WORLDVIEW
 70
     1
  9
$SHADEDGE
 70
     3
  9
$SHADEDIF
 70
    70
  9
$TILEMODE
 70
     1
  9
$MAXACTVP
 70
    64
  9
$PINSBASE
 10
0.0
 20
0.0
 30
0.0
  9
$PLIMCHECK
 70
     0
  9
$PEXTMIN
 10
1.0000000000E+20
 20
1.0000000000E+20
 30
1.0000000000E+20
  9
$PEXTMAX
 10
-1.0000000000E+20
 20
-1.0000000000E+20
 30
-1.0000000000E+20
  9
$PLIMMIN
 10
0.0
 20
0.0
  9
$PLIMMAX
 10
420.0
 20
297.0
  9
$UNITMODE
 70
     0
  9
$VISRETAIN
 70
     1
  9
$PLINEGEN
 70
     0
  9
$PSLTSCALE
 70
     1
  9
$TREEDEPTH
 70
  3020
  9
$CMLSTYLE
  2
Standard
  9
$CMLJUST
 70
     0
  9
$CMLSCALE
 40
20.0
  9
$PROXYGRAPHICS
 70
     1
  9
$MEASUREMENT
 70
     1
  9
$CELWEIGHT
370
    -1
  9
$ENDCAPS
280
     0
  9
$JOINSTYLE
280
     0
  9
$LWDISPLAY
290
     1
  9
$INSUNITS
 70
     4
  9
$HYPERLINKBASE
  1

  9
$STYLESHEET
  1

  9
$XEDIT
290
     1
  9
$CEPSNTYPE
380
     0
  9
$PSTYLEMODE
290
     1
  9
$FINGERPRINTGUID
  2
{faebdf39-1056-4861-ae87-3c7a50077646}
  9
$VERSIONGUID
  2
{FAEB1C32-E019-11D5-929B-00C0DF256EC4}
  9
$EXTNAMES
290
     1
  9
$PSVPSCALE
 40
0.0
  9
$OLESTARTUP
290
     0
  0
ENDSEC
  0
SECTION
  2
CLASSES
  0
CLASS
  1
ACDBDICTIONARYWDFLT
  2
AcDbDictionaryWithDefault
  3
ObjectDBX Classes
 90
        0
280
     0
281
     0
  0
CLASS
  1
VISUALSTYLE
  2
AcDbVisualStyle
  3
ObjectDBX Classes
 90
     4095
280
     0
281
     0
  0
CLASS
  1
MATERIAL
  2
AcDbMaterial
  3
ObjectDBX Classes
 90
     1153
280
     0
281
     0
  0
CLASS
  1
SCALE
  2
AcDbScale
  3
ObjectDBX Classes
 90
     1153
280
     0
281
     0
  0
CLASS
  1
TABLESTYLE
  2
AcDbTableStyle
  3
ObjectDBX Classes
 90
     4095
280
     0
281
     0
  0
CLASS
  1
MLEADERSTYLE
  2
AcDbMLeaderStyle
  3
ACDB_MLEADERSTYLE_CLASS
 90
     4095
280
     0
281
     0
  0
CLASS
  1
SUN
  2
AcDbSun
  3
SCENEOE
 90
     1153
280
     0
281
     0
  0
CLASS
  1
ACDBPLACEHOLDER
  2
AcDbPlaceHolder
  3
ObjectDBX Classes
 90
        0
280
     0
281
     0
  0
CLASS
  1
LAYOUT
  2
AcDbLayout
  3
ObjectDBX Classes
 90
        0
280
     0
281
     0
  0
ENDSEC
  0
SECTION
  2
TABLES
  0
TABLE
  2
VPORT
  5
8
330
0
100
AcDbSymbolTable
 70
     1
  0
VPORT
  5
29
330
8
100
AcDbSymbolTableRecord
100
AcDbViewportTableRecord
  2
*Active
 70
     0
 10
0.0
 20
0.0
 11
1.0
 21
1.0
 12
0.0
 22
-60.0
 13
0.0
 23
0.0
 14
10.0
 24
10.0
 15
10.0
 25
10.0
 16
0.0
 26
0.0
 36
1.0
 17
0.0
 27
0.0
 37
0.0
 40
122.4
 41
3.3514166667
 42
50.0
 43
0.0
 44
0.0
 50
0.0
 51
0.0
 71
     0
 72
   100
 73
     1
 74
     3
 75
     0
 76
     0
 77
     0
 78
     0
281
     0
 65
     1
110
0.0
120
0.0
130
0.0
111
1.0
121
0.0
131
0.0
112
0.0
122
1.0
132
0.0
 79
     0
146
0.0
  0
ENDTAB
  0
TABLE
  2
LTYPE
  5
5
330
0
100
AcDbSymbolTable
 70
     6
  0
LTYPE
  5
14
330
5
100
AcDbSymbolTableRecord
100
AcDbLinetypeTableRecord
  2
ByBlock
 70
     0
  3

 72
    65
 73
     0
 40
0.0
  0
LTYPE
  5
15
330
5
100
AcDbSymbolTableRecord
100
AcDbLinetypeTableRecord
  2
ByLayer
 70
     0
  3

 72
    65
 73
     0
 40
0.0
  0
LTYPE
  5
16
330
5
100
AcDbSymbolTableRecord
100
AcDbLinetypeTableRecord
  2
Continuous
 70
     0
  3
Solid line
 72
    65
 73
     0
 40
0.0
  0
LTYPE
  5
5E
330
5
100
AcDbSymbolTableRecord
100
AcDbLinetypeTableRecord
  2
HIDDEN
 70
     0
  3
Hidden __ __ __ __ __ __ __ __ __ __ __ __ __ __
 72
    65
 73
     2
 40
1.905
 49
1.27
 74
     0
 49
-0.635
 74
     0
  0
LTYPE
  5
5F
330
5
100
AcDbSymbolTableRecord
100
AcDbLinetypeTableRecord
  2
PHANTOM
 70
     0
  3
Phantom ______  __  __  ______  __  __  ______
 72
    65
 73
     6
 40
12.7
 49
6.35
 74
     0
 49
-1.27
 74
     0
 49
1.27
 74
     0
 49
-1.27
 74
     0
 49
1.27
 74
     0
 49
-1.27
 74
     0
  0
LTYPE
  5
60
330
5
100
AcDbSymbolTableRecord
100
AcDbLinetypeTableRecord
  2
CENTER
 70
     0
  3
Center ____ _ ____ _ ____ _ ____ _ ____ _ ____
 72
    65
 73
     4
 40
10.16
 49
6.35
 74
     0
 49
-1.27
 74
     0
 49
1.27
 74
     0
 49
-1.27
 74
     0
  0
LTYPE
  5
61
330
5
100
AcDbSymbolTableRecord
100
AcDbLinetypeTableRecord
  2
CENTERX2
 70
     0
  3
Center (2x) ________  __  ________  __  _____
 72
    65
 73
     4
 40
20.32
 49
12.7
 74
     0
 49
-2.54
 74
     0
 49
2.54
 74
     0
 49
-2.54
 74
     0
  0
LTYPE
  5
62
330
5
100
AcDbSymbolTableRecord
100
AcDbLinetypeTableRecord
  2
DOT2
 70
     0
  3
Dot (.5x) ........................................
 72
    65
 73
     2
 40
0.635
 49
0.0
 74
     0
 49
-0.635
 74
     0
  0
ENDTAB
  0
TABLE
  2
LAYER
  5
2
330
0
100
AcDbSymbolTable
 70
     1
  0
LAYER
  5
10
330
2
100
AcDbSymbolTableRecord
100
AcDbLayerTableRecord
  2
0
 70
     0
 62
     7
  6
Continuous
370
    -3
390
F
  0
ENDTAB
  0
TABLE
  2
STYLE
  5
3
330
0
100
AcDbSymbolTable
 70
     1
  0
STYLE
  5
11
330
3
100
AcDbSymbolTableRecord
100
AcDbTextStyleTableRecord
  2
Standard
 70
     0
 40
0.0
 41
1.0
 50
0.0
 71
     0
 42
3.5
  3
txt
  4

  0
ENDTAB
  0
TABLE
  2
VIEW
  5
6
330
0
100
AcDbSymbolTable
 70
     0
  0
ENDTAB
  0
TABLE
  2
UCS
  5
7
330
0
100
AcDbSymbolTable
 70
     0
  0
ENDTAB
  0
TABLE
  2
APPID
  5
9
330
0
100
AcDbSymbolTable
 70
     1
  0
APPID
  5
12
330
9
100
AcDbSymbolTableRecord
100
AcDbRegAppTableRecord
  2
ACAD
 70
     0
  0
ENDTAB
  0
TABLE
  2
DIMSTYLE
  5
A
330
0
100
AcDbSymbolTable
 70
     1
100
AcDbDimStyleTable
  0
DIMSTYLE
105
27
330
A
100
AcDbSymbolTableRecord
100
AcDbDimStyleTableRecord
  2
ISO-25
 70
     0
 41
2.5
 42
0.625
 43
3.75
 44
1.25
 73
     0
 74
     0
 77
     1
 78
     8
140
2.5
141
2.5
143
0.0393700787
147
0.625
171
     3
172
     1
178
     0
271
     2
272
     2
274
     3
278
    44
283
     0
284
     8
340
11
  0
ENDTAB
  0
TABLE
  2
BLOCK_RECORD
  5
1
330
0
100
AcDbSymbolTable
 70
     1
  0
BLOCK_RECORD
  5
1F
330
1
100
AcDbSymbolTableRecord
100
AcDbBlockTableRecord
  2
*Model_Space
340
22
  0
BLOCK_RECORD
  5
1B
330
1
100
AcDbSymbolTableRecord
100
AcDbBlockTableRecord
  2
*Paper_Space
340
1E
  0
BLOCK_RECORD
  5
23
330
1
100
AcDbSymbolTableRecord
100
AcDbBlockTableRecord
  2
*Paper_Space0
340
26
  0
ENDTAB
  0
ENDSEC
  0
SECTION
  2
BLOCKS
  0
BLOCK
  5
20
330
1F
100
AcDbEntity
  8
0
100
AcDbBlockBegin
  2
*Model_Space
 70
     0
 10
0.0
 20
0.0
 30
0.0
  3
*Model_Space
  1

  0
ENDBLK
  5
21
330
1F
100
AcDbEntity
  8
0
100
AcDbBlockEnd
  0
BLOCK
  5
1C
330
1B
100
AcDbEntity
 67
     1
  8
0
100
AcDbBlockBegin
  2
*Paper_Space
 70
     0
 10
0.0
 20
0.0
 30
0.0
  3
*Paper_Space
  1

  0
ENDBLK
  5
1D
330
1B
100
AcDbEntity
 67
     1
  8
0
100
AcDbBlockEnd
  0
BLOCK
  5
24
330
23
100
AcDbEntity
  8
0
100
AcDbBlockBegin
  2
*Paper_Space0
 70
     0
 10
0.0
 20
0.0
 30
0.0
  3
*Paper_Space0
  1

  0
ENDBLK
  5
25
330
23
100
AcDbEntity
  8
0
100
AcDbBlockEnd
  0
ENDSEC
  0
SECTION
  2
ENTITIES
  0
LINE
  5
63
330
1F
100
AcDbEntity
  8
0
  6
Continuous
 62
     7
100
AcDbLine
 10
201.085
 20
-1.0
 30
0.0
 11
-201.085
 21
-1.0
 31
0.0
  0
LINE
  5
64
330
1F
100
AcDbEntity
  8
0
  6
Continuous
 62
     7
100
AcDbLine
 10
-201.085
 20
-1.0
 30
0.0
 11
-201.085
 21
-120.0
 31
0.0
  0
LINE
  5
65
330
1F
100
AcDbEntity
  8
0
  6
Continuous
 62
     7
100
AcDbLine
 10
-201.085
 20
-120.0
 30
0.0
 11
201.085
 21
-120.0
 31
0.0
  0
LINE
  5
66
330
1F
100
AcDbEntity
  8
0
  6
Continuous
 62
     7
100
AcDbLine
 10
201.085
 20
-120.0
 30
0.0
 11
201.085
 21
-1.0
 31
0.0
  0
LINE
  5
67
330
1F
100
AcDbEntity
  8
0
  6
Continuous
 62
     7
100
AcDbLine
 10
-148.79
 20
-1.0
 30
0.0
 11
148.79
 21
-1.0
 31
0.0
  0
LINE
  5
68
330
1F
100
AcDbEntity
  8
0
  6
Continuous
 62
     7
100
AcDbLine
 10
148.79
 20
-1.0
 30
0.0
 11
148.79
 21
-120.0
 31
0.0
  0
LINE
  5
69
330
1F
100
AcDbEntity
  8
0
  6
Continuous
 62
     7
100
AcDbLine
 10
148.79
 20
-120.0
 30
0.0
 11
-148.79
 21
-120.0
 31
0.0
  0
LINE
  5
6A
330
1F
100
AcDbEntity
  8
0
  6
Continuous
 62
     7
100
AcDbLine
 10
-148.79
 20
-120.0
 30
0.0
 11
-148.79
 21
-1.0
 31
0.0
  0
LINE
  5
6B
330
1F
100
AcDbEntity
  8
0
  6
Continuous
 62
     7
100
AcDbLine
 10
148.79
 20
-1.0
 30
0.0
 11
201.085
 21
-1.0
 31
0.0
  0
LINE
  5
6C
330
1F
100
AcDbEntity
  8
0
  6
Continuous
 62
     7
100
AcDbLine
 10
201.085
 20
-1.0
 30
0.0
 11
201.085
 21
-120.0
 31
0.0
  0
LINE
  5
6D
330
1F
100
AcDbEntity
  8
0
  6
Continuous
 62
     7
100
AcDbLine
 10
201.085
 20
-120.0
 30
0.0
 11
148.79
 21
-120.0
 31
0.0
  0
LINE
  5
6E
330
1F
100
AcDbEntity
  8
0
  6
Continuous
 62
     7
100
AcDbLine
 10
148.79
 20
-120.0
 30
0.0
 11
148.79
 21
-1.0
 31
0.0
  0
LINE
  5
6F
330
1F
100
AcDbEntity
  8
0
  6
Continuous
 62
     7
100
AcDbLine
 10
-201.085
 20
-1.0
 30
0.0
 11
-148.79
 21
-1.0
 31
0.0
  0
LINE
  5
70
330
1F
100
AcDbEntity
  8
0
  6
Continuous
 62
     7
100
AcDbLine
 10
-148.79
 20
-1.0
 30
0.0
 11
-148.79
 21
-120.0
 31
0.0
  0
LINE
  5
71
330
1F
100
AcDbEntity
  8
0
  6
Continuous
 62
     7
100
AcDbLine
 10
-148.79
 20
-120.0
 30
0.0
 11
-201.085
 21
-120.0
 31
0.0
  0
LINE
  5
72
330
1F
100
AcDbEntity
  8
0
  6
Continuous
 62
     7
100
AcDbLine
 10
-201.085
 20
-120.0
 30
0.0
 11
-201.085
 21
-1.0
 31
0.0
  0
SPLINE
  5
133
330
1F
100
AcDbEntity
  8
0
  6
Continuous
 62
     7
370
    25
100
AcDbSpline
210
0.0
220
0.0
230
1.0
 70
     8
 71
     3
 72
    14
 73
    10
 74
     0
 42
0.00000001
 43
0.00000001
 40
0.0
 40
0.0
 40
0.0
 40
0.0
 40
0.25
 40
0.25
 40
0.5
 40
0.5
 40
0.75
 40
0.75
 40
1.0
 40
1.0
 40
1.0
 40
1.0
 10
147.1986992832015
 20
0.0
 30
0.0
 10
147.1984325073954
 20
0.0
 30
0.0
 10
147.1981657315893
 20
-0.0451990496978041
 30
0.0
 10
147.197632179977
 20
-0.2191825579839907
 30
0.0
 10
147.1973654041709
 20
-0.347898561491318
 30
0.0
 10
147.1968318525588
 20
-0.6693781660915554
 30
0.0
 10
147.1965650767527
 20
-0.862015278687886
 30
0.0
 10
147.1960315251405
 20
-1.282048624021655
 30
0.0
 10
147.1957647493344
 20
-1.50927959157398
 30
0.0
 10
147.1954979735282
 20
-1.736599999999977
 30
0.0
  0
SPLINE
  5
136
330
1F
100
AcDbEntity
  8
0
  6
Continuous
 62
     7
370
    25
100
AcDbSpline
210
0.0
220
0.0
230
1.0
 70
     8
 71
     3
 72
    14
 73
    10
 74
     0
 42
0.00000001
 43
0.00000001
 40
0.0
 40
0.0
 40
0.0
 40
0.0
 40
0.2500000000000001
 40
0.2500000000000001
 40
0.5000000000000001
 40
0.5000000000000001
 40
0.7500000000000001
 40
0.7500000000000001
 40
1.0
 40
1.0
 40
1.0
 40
1.0
 10
-147.1954979735279
 20
-1.736599999999977
 30
0.0
 10
-147.1957647493341
 20
-1.50927959157398
 30
0.0
 10
-147.1960315251401
 20
-1.282048624021655
 30
0.0
 10
-147.1965650767524
 20
-0.862015278687886
 30
0.0
 10
-147.1968318525584
 20
-0.6693781660915554
 30
0.0
 10
-147.1973654041706
 20
-0.347898561491318
 30
0.0
 10
-147.1976321799768
 20
-0.2191825579839907
 30
0.0
 10
-147.198165731589
 20
-0.0451990496978041
 30
0.0
 10
-147.1984325073951
 20
0.0
 30
0.0
 10
-147.1986992832012
 20
0.0
 30
0.0
  0
SPLINE
  5
138
330
1F
100
AcDbEntity
  8
0
  6
Continuous
 62
     7
370
    25
100
AcDbSpline
210
0.0
220
0.0
230
1.0
 70
     8
 71
     3
 72
    14
 73
    10
 74
     0
 42
0.00000001
 43
0.00000001
 40
0.0
 40
0.0
 40
0.0
 40
0.0
 40
0.25
 40
0.25
 40
0.5
 40
0.5
 40
0.75
 40
0.75
 40
1.0
 40
1.0
 40
1.0
 40
1.0
 10
-147.1986992831987
 20
-0.0000000000018943
 30
0.0
 10
-147.4251779198844
 20
-0.0000000000013045
 30
0.0
 10
-147.6515674560462
 20
-0.0451990496986229
 30
0.0
 10
-148.070048949777
 20
-0.2191825579841017
 30
0.0
 10
-148.261976271045
 20
-0.3478985614911931
 30
0.0
 10
-148.58227905078
 20
-0.6693781660912015
 30
0.0
 10
-148.7105285020774
 20
-0.8620152786875321
 30
0.0
 10
-148.8838964526749
 20
-1.282048624021439
 30
0.0
 10
-148.9289467573863
 20
-1.509279591573889
 30
0.0
 10
-148.9289700084298
 20
-1.736600000000019
 30
0.0
  0
SPLINE
  5
13A
330
1F
100
AcDbEntity
  8
0
  6
Continuous
 62
     7
370
    25
100
AcDbSpline
210
0.0
220
0.0
230
1.0
 70
     8
 71
     3
 72
    14
 73
    10
 74
     0
 42
0.00000001
 43
0.00000001
 40
0.0
 40
0.0
 40
0.0
 40
0.0
 40
0.2500000000000001
 40
0.2500000000000001
 40
0.5000000000000001
 40
0.5000000000000001
 40
0.7500000000000001
 40
0.7500000000000001
 40
1.0
 40
1.0
 40
1.0
 40
1.0
 10
-200.9253827881734
 20
-1.736599999999956
 30
0.0
 10
-200.9249196699711
 20
-1.509279591574583
 30
0.0
 10
-200.8794294981012
 20
-1.282048624022883
 30
0.0
 10
-200.7051818131872
 20
-0.8620152786901549
 30
0.0
 10
-200.5764924947319
 20
-0.6693781660942408
 30
0.0
 10
-200.2553099806812
 20
-0.3478985614944752
 30
0.0
 10
-200.0629427922555
 20
-0.2191825579872034
 30
0.0
 10
-199.6435815642091
 20
-0.0451990497006699
 30
0.0
 10
-199.4167521608896
 20
-0.0000000000024841
 30
0.0
 10
-199.1898336570459
 20
-0.0000000000018943
 30
0.0
  0
SPLINE
  5
13C
330
1F
100
AcDbEntity
  8
0
  6
Continuous
 62
     7
370
    25
100
AcDbSpline
210
0.0
220
0.0
230
1.0
 70
     8
 71
     3
 72
    10
 73
     6
 74
     0
 42
0.00000001
 43
0.00000001
 40
0.0
 40
0.0
 40
0.0
 40
0.0
 40
0.5
 40
0.5
 40
1.0
 40
1.0
 40
1.0
 40
1.0
 10
-147.1986992832013
 20
-1.000000000001895
 30
0.0
 10
-147.3908533944831
 20
-1.000000000001396
 30
0.0
 10
-147.5818245392444
 20
-1.079385662801982
 30
0.0
 10
-147.853598729777
 20
-1.352104627155335
 30
0.0
 10
-147.932728808251
 20
-1.54375857094733
 30
0.0
 10
-147.9327753103381
 20
-1.736600000000005
 30
0.0
  0
SPLINE
  5
13E
330
1F
100
AcDbEntity
  8
0
  6
Continuous
 62
     7
370
    25
100
AcDbSpline
210
0.0
220
0.0
230
1.0
 70
     8
 71
     3
 72
    14
 73
    10
 74
     0
 42
0.00000001
 43
0.00000001
 40
0.0
 40
0.0
 40
0.0
 40
0.0
 40
0.25
 40
0.25
 40
0.5
 40
0.5
 40
0.75
 40
0.75
 40
1.0
 40
1.0
 40
1.0
 40
1.0
 10
148.9289700084245
 20
-1.736600000000095
 30
0.0
 10
148.928946757381
 20
-1.509279591574993
 30
0.0
 10
148.88389645267
 20
-1.282048624023563
 30
0.0
 10
148.7105285020739
 20
-0.8620152786912791
 30
0.0
 10
148.5822790507777
 20
-0.6693781660955384
 30
0.0
 10
148.261976271045
 20
-0.3478985614959601
 30
0.0
 10
148.0700489497784
 20
-0.2191825579887022
 30
0.0
 10
147.6515674560502
 20
-0.045199049702016
 30
0.0
 10
147.4251779198899
 20
-0.0000000000036499
 30
0.0
 10
147.1986992832052
 20
-0.0000000000028033
 30
0.0
  0
SPLINE
  5
140
330
1F
100
AcDbEntity
  8
0
  6
Continuous
 62
     7
370
    25
100
AcDbSpline
210
0.0
220
0.0
230
1.0
 70
     8
 71
     3
 72
    10
 73
     6
 74
     0
 42
0.00000001
 43
0.00000001
 40
0.0
 40
0.0
 40
0.0
 40
0.0
 40
0.5
 40
0.5
 40
1.0
 40
1.0
 40
1.0
 40
1.0
 10
147.9327753103327
 20
-1.73660000000006
 30
0.0
 10
147.9327288082457
 20
-1.543758570948385
 30
0.0
 10
147.8535987297725
 20
-1.352104627157368
 30
0.0
 10
147.581824539242
 20
-1.079385662804563
 30
0.0
 10
147.3908533944823
 20
-1.000000000003526
 30
0.0
 10
147.1986992832015
 20
-1.000000000002804
 30
0.0
  0
SPLINE
  5
141
330
1F
100
AcDbEntity
  8
0
  6
Continuous
 62
     7
370
    25
100
AcDbSpline
210
0.0
220
0.0
230
1.0
 70
     8
 71
     3
 72
    14
 73
    10
 74
     0
 42
0.00000001
 43
0.00000001
 40
0.0
 40
0.0
 40
0.0
 40
0.0
 40
0.25
 40
0.25
 40
0.5
 40
0.5
 40
0.75
 40
0.75
 40
1.0
 40
1.0
 40
1.0
 40
1.0
 10
199.1898336570394
 20
-0.0000000000028033
 30
0.0
 10
199.4167521608839
 20
-0.000000000001936
 30
0.0
 10
199.6435815642045
 20
-0.0451990496990184
 30
0.0
 10
200.0629427922531
 20
-0.2191825579841503
 30
0.0
 10
200.2553099806802
 20
-0.3478985614911306
 30
0.0
 10
200.5764924947331
 20
-0.6693781660910072
 30
0.0
 10
200.7051818131893
 20
-0.8620152786873309
 30
0.0
 10
200.8794294981046
 20
-1.282048624021273
 30
0.0
 10
200.9249196699748
 20
-1.509279591573778
 30
0.0
 10
200.9253827881771
 20
-1.736599999999963
 30
0.0
  0
LWPOLYLINE
  5
14C
330
1F
100
AcDbEntity
  8
0
  6
Continuous
 62
     7
370
    25
100
AcDbPolyline
 90
       35
 70
   128
 43
0.0
 10
-160.2112809071
 20
-120.0
 10
-160.9913992128
 20
-114.496535494
 10
-161.7871047043
 20
-109.2951372687
 10
-162.5975092601
 20
-104.4016108303
 10
-163.4217083527
 20
-99.8214180561
 10
-164.2587820576
 20
-95.5596710979
 10
-165.1077960805
 20
-91.6211266765
 10
-165.9678028001
 20
-88.0101807722
 10
-166.8378423254
 20
-84.7308637185
 10
-167.7169435678
 20
-81.7868357034
 10
-168.604125324
 20
-79.1813826844
 10
-169.4983973721
 20
-76.9174127207
 10
-170.3987615761
 20
-74.9974527273
 10
-171.3042130006
 20
-73.423645655
 10
-172.2137410319
 20
-72.1977480981
 10
-173.1263305063
 20
-71.321128334
 10
-174.0409628431
 20
-70.7947647963
 10
-174.9566171815
 20
-70.6192449819
 10
-175.8722715198
 20
-70.7947647963
 10
-176.7869038566
 20
-71.321128334
 10
-177.699493331
 20
-72.1977480981
 10
-178.6090213623
 20
-73.423645655
 10
-179.5144727868
 20
-74.9974527273
 10
-180.4148369909
 20
-76.9174127207
 10
-181.309109039
 20
-79.1813826844
 10
-182.1962907952
 20
-81.7868357034
 10
-183.0753920375
 20
-84.7308637185
 10
-183.9454315629
 20
-88.0101807722
 10
-184.8054382824
 20
-91.6211266765
 10
-185.6544523054
 20
-95.5596710979
 10
-186.4915260103
 20
-99.8214180561
 10
-187.3157251028
 20
-104.4016108303
 10
-188.1261296587
 20
-109.2951372687
 10
-188.9218351502
 20
-114.496535494
 10
-189.7019534558
 20
-120.0
  0
LWPOLYLINE
  5
14E
330
1F
100
AcDbEntity
  8
0
  6
Continuous
 62
     7
370
    25
100
AcDbPolyline
 90
       36
 70
   128
 43
0.0
 10
-194.8441422779
 20
-71.38
 10
-194.859549193
 20
-69.4158741572
 10
-194.9052747473
 20
-67.5148769351
 10
-194.9798492838
 20
-65.7381079485
 10
-195.0808759156
 20
-64.1426740147
 10
-195.2051075636
 20
-62.7798536929
 10
-195.3485513205
 20
-61.6934491496
 10
-195.5065967858
 20
-60.9183783208
 10
-195.6741642483
 20
-60.4795526206
 10
-195.8458679519
 20
-60.391076268
 10
-196.0161891982
 20
-60.655792966
 10
-196.1796537222
 20
-61.2651945019
 10
-196.3310076397
 20
-62.1996942091
 10
-196.4653863112
 20
-63.4292564979
 10
-196.5784706956
 20
-64.9143622248
 10
-196.6666261678
 20
-66.6072788697
 10
-196.7270193383
 20
-68.4535946988
 10
-196.757709121
 20
-70.3939676021
 10
-196.757709121
 20
-72.3660323979
 10
-196.7270193383
 20
-74.3064053012
 10
-196.6666261678
 20
-76.1527211303
 10
-196.5784706956
 20
-77.8456377752
 10
-196.4653863112
 20
-79.3307435021
 10
-196.3310076397
 20
-80.5603057909
 10
-196.1796537222
 20
-81.4948054981
 10
-196.0161891982
 20
-82.104207034
 10
-195.8458679519
 20
-82.368923732
 10
-195.6741642483
 20
-82.2804473794
 10
-195.5065967858
 20
-81.8416216792
 10
-195.3485513205
 20
-81.0665508504
 10
-195.2051075636
 20
-79.9801463071
 10
-195.0808759156
 20
-78.6173259853
 10
-194.9798492838
 20
-77.0218920515
 10
-194.9052747473
 20
-75.2451230649
 10
-194.859549193
 20
-73.3441258428
 10
-194.8441422779
 20
-71.38
  0
LWPOLYLINE
  5
14F
330
1F
100
AcDbEntity
  8
0
  6
Continuous
 62
     7
370
    25
100
AcDbPolyline
 90
       36
 70
   128
 43
0.0
 10
-153.1516657446
 20
-71.38
 10
-153.1670726596
 20
-69.4158741572
 10
-153.2127982139
 20
-67.5148769351
 10
-153.2873727504
 20
-65.7381079485
 10
-153.3883993822
 20
-64.1426740147
 10
-153.5126310302
 20
-62.7798536929
 10
-153.6560747871
 20
-61.6934491496
 10
-153.8141202524
 20
-60.9183783208
 10
-153.981687715
 20
-60.4795526206
 10
-154.1533914185
 20
-60.391076268
 10
-154.3237126648
 20
-60.655792966
 10
-154.4871771889
 20
-61.2651945019
 10
-154.6385311063
 20
-62.1996942091
 10
-154.7729097778
 20
-63.4292564979
 10
-154.8859941622
 20
-64.9143622248
 10
-154.9741496344
 20
-66.6072788697
 10
-155.0345428049
 20
-68.4535946988
 10
-155.0652325876
 20
-70.3939676021
 10
-155.0652325876
 20
-72.3660323979
 10
-155.0345428049
 20
-74.3064053012
 10
-154.9741496344
 20
-76.1527211303
 10
-154.8859941622
 20
-77.8456377752
 10
-154.7729097778
 20
-79.3307435021
 10
-154.6385311063
 20
-80.5603057909
 10
-154.4871771889
 20
-81.4948054981
 10
-154.3237126648
 20
-82.104207034
 10
-154.1533914185
 20
-82.368923732
 10
-153.981687715
 20
-82.2804473794
 10
-153.8141202524
 20
-81.8416216792
 10
-153.6560747871
 20
-81.0665508504
 10
-153.5126310302
 20
-79.9801463071
 10
-153.3883993822
 20
-78.6173259853
 10
-153.2873727504
 20
-77.0218920515
 10
-153.2127982139
 20
-75.2451230649
 10
-153.1670726596
 20
-73.3441258428
 10
-153.1516657446
 20
-71.38
  0
LWPOLYLINE
  5
150
330
1F
100
AcDbEntity
  8
0
  6
Continuous
 62
     7
370
    25
100
AcDbPolyline
 90
       19
 70
   128
 43
0.0
 10
-197.8945932741
 20
-51.5001415096
 10
-197.9103616774
 20
-50.4740810797
 10
-197.9557649851
 20
-49.5717786806
 10
-198.0253268882
 20
-48.9020652983
 10
-198.1106571946
 20
-48.5457182506
 10
-198.2014638101
 20
-48.5457182506
 10
-198.2867941165
 20
-48.9020652983
 10
-198.3563560196
 20
-49.5717786806
 10
-198.4017593273
 20
-50.4740810797
 10
-198.4175277306
 20
-51.5001415096
 10
-198.4017593273
 20
-52.5262019396
 10
-198.3563560196
 20
-53.4285043387
 10
-198.2867941165
 20
-54.098217721
 10
-198.2014638101
 20
-54.4545647687
 10
-198.1106571946
 20
-54.4545647687
 10
-198.0253268882
 20
-54.098217721
 10
-197.9557649851
 20
-53.4285043387
 10
-197.9103616774
 20
-52.5262019396
 10
-197.8945932741
 20
-51.5001415096
  0
LWPOLYLINE
  5
151
330
1F
100
AcDbEntity
  8
0
  6
Continuous
 62
     7
370
    25
100
AcDbPolyline
 90
       19
 70
   128
 43
0.0
 10
-195.5413882199
 20
-102.38
 10
-195.5571566232
 20
-101.35393957
 10
-195.6025599309
 20
-100.4516371709
 10
-195.672121834
 20
-99.7819237886
 10
-195.7574521405
 20
-99.425576741
 10
-195.8482587559
 20
-99.425576741
 10
-195.9335890623
 20
-99.7819237886
 10
-196.0031509654
 20
-100.4516371709
 10
-196.0485542731
 20
-101.35393957
 10
-196.0643226764
 20
-102.38
 10
-196.0485542731
 20
-103.40606043
 10
-196.0031509654
 20
-104.3083628291
 10
-195.9335890623
 20
-104.9780762114
 10
-195.8482587559
 20
-105.334423259
 10
-195.7574521405
 20
-105.334423259
 10
-195.672121834
 20
-104.9780762114
 10
-195.6025599309
 20
-104.3083628291
 10
-195.5571566232
 20
-103.40606043
 10
-195.5413882199
 20
-102.38
  0
LWPOLYLINE
  5
152
330
1F
100
AcDbEntity
  8
0
  6
Continuous
 62
     7
370
    25
100
AcDbPolyline
 90
       19
 70
   128
 43
0.0
 10
-193.1881831657
 20
-51.5001415096
 10
-193.203951569
 20
-50.4740810797
 10
-193.2493548767
 20
-49.5717786806
 10
-193.3189167799
 20
-48.9020652983
 10
-193.4042470863
 20
-48.5457182506
 10
-193.4950537017
 20
-48.5457182506
 10
-193.5803840081
 20
-48.9020652983
 10
-193.6499459112
 20
-49.5717786806
 10
-193.6953492189
 20
-50.4740810797
 10
-193.7111176222
 20
-51.5001415096
 10
-193.6953492189
 20
-52.5262019396
 10
-193.6499459112
 20
-53.4285043387
 10
-193.5803840081
 20
-54.098217721
 10
-193.4950537017
 20
-54.4545647687
 10
-193.4042470863
 20
-54.4545647687
 10
-193.3189167799
 20
-54.098217721
 10
-193.2493548767
 20
-53.4285043387
 10
-193.203951569
 20
-52.5262019396
 10
-193.1881831657
 20
-51.5001415096
  0
LWPOLYLINE
  5
153
330
1F
100
AcDbEntity
  8
0
  6
Continuous
 62
     7
370
    25
100
AcDbPolyline
 90
       19
 70
   128
 43
0.0
 10
-151.4957066323
 20
-91.2598584904
 10
-151.5114750356
 20
-90.2337980604
 10
-151.5568783433
 20
-89.3314956613
 10
-151.6264402465
 20
-88.661782279
 10
-151.7117705529
 20
-88.3054352313
 10
-151.8025771683
 20
-88.3054352313
 10
-151.8879074747
 20
-88.661782279
 10
-151.9574693778
 20
-89.3314956613
 10
-152.0028726855
 20
-90.2337980604
 10
-152.0186410888
 20
-91.2598584904
 10
-152.0028726855
 20
-92.2859189203
 10
-151.9574693778
 20
-93.1882213194
 10
-151.8879074747
 20
-93.8579347017
 10
-151.8025771683
 20
-94.2142817494
 10
-151.7117705529
 20
-94.2142817494
 10
-151.6264402465
 20
-93.8579347017
 10
-151.5568783433
 20
-93.1882213194
 10
-151.5114750356
 20
-92.2859189203
 10
-151.4957066323
 20
-91.2598584904
  0
LWPOLYLINE
  5
154
330
1F
100
AcDbEntity
  8
0
  6
Continuous
 62
     7
370
    25
100
AcDbPolyline
 90
       19
 70
   128
 43
0.0
 10
-156.2021167407
 20
-91.2598584904
 10
-156.217885144
 20
-90.2337980604
 10
-156.2632884517
 20
-89.3314956613
 10
-156.3328503548
 20
-88.661782279
 10
-156.4181806613
 20
-88.3054352313
 10
-156.5089872767
 20
-88.3054352313
 10
-156.5943175831
 20
-88.661782279
 10
-156.6638794862
 20
-89.3314956613
 10
-156.7092827939
 20
-90.2337980604
 10
-156.7250511972
 20
-91.2598584904
 10
-156.7092827939
 20
-92.2859189203
 10
-156.6638794862
 20
-93.1882213194
 10
-156.5943175831
 20
-93.8579347017
 10
-156.5089872767
 20
-94.2142817494
 10
-156.4181806613
 20
-94.2142817494
 10
-156.3328503548
 20
-93.8579347017
 10
-156.2632884517
 20
-93.1882213194
 10
-156.217885144
 20
-92.2859189203
 10
-156.2021167407
 20
-91.2598584904
  0
LWPOLYLINE
  5
155
330
1F
100
AcDbEntity
  8
0
  6
Continuous
 62
     7
370
    25
100
AcDbPolyline
 90
       19
 70
   128
 43
0.0
 10
-153.8489116865
 20
-40.38
 10
-153.8646800898
 20
-39.35393957
 10
-153.9100833975
 20
-38.4516371709
 10
-153.9796453007
 20
-37.7819237886
 10
-154.0649756071
 20
-37.425576741
 10
-154.1557822225
 20
-37.425576741
 10
-154.2411125289
 20
-37.7819237886
 10
-154.310674432
 20
-38.4516371709
 10
-154.3560777397
 20
-39.35393957
 10
-154.371846143
 20
-40.38
 10
-154.3560777397
 20
-41.40606043
 10
-154.310674432
 20
-42.3083628291
 10
-154.2411125289
 20
-42.9780762114
 10
-154.1557822225
 20
-43.334423259
 10
-154.0649756071
 20
-43.334423259
 10
-153.9796453007
 20
-42.9780762114
 10
-153.9100833975
 20
-42.3083628291
 10
-153.8646800898
 20
-41.40606043
 10
-153.8489116865
 20
-40.38
  0
LWPOLYLINE
  5
156
330
1F
100
AcDbEntity
  8
0
  6
Continuous
 62
     7
370
    25
100
AcDbPolyline
 90
       22
 70
   128
 43
0.0
 10
-188.4817730574
 20
-40.0
 10
-188.4972613978
 20
-38.8209793024
 10
-188.5423502121
 20
-37.7467197677
 10
-188.6130331612
 20
-36.8726740701
 10
-188.703029755
 20
-36.2765050054
 10
-188.8043434011
 20
-36.0111848113
 10
-188.9079719375
 20
-36.1002883513
 10
-189.0047075138
 20
-36.5358983849
 10
-189.0859547498
 20
-37.2793090489
 10
-189.1444944719
 20
-38.2644650435
 10
-189.1751251688
 20
-39.4038309353
 10
-189.1751251688
 20
-40.5961690647
 10
-189.1444944719
 20
-41.7355349565
 10
-189.0859547498
 20
-42.7206909511
 10
-189.0047075138
 20
-43.4641016151
 10
-188.9079719375
 20
-43.8997116487
 10
-188.8043434011
 20
-43.9888151887
 10
-188.703029755
 20
-43.7234949946
 10
-188.6130331612
 20
-43.1273259299
 10
-188.5423502121
 20
-42.2532802323
 10
-188.4972613978
 20
-41.1790206976
 10
-188.4817730574
 20
-40.0
  0
LWPOLYLINE
  5
157
330
1F
100
AcDbEntity
  8
0
  6
Continuous
 62
     7
370
    25
100
AcDbPolyline
 90
       22
 70
   128
 43
0.0
 10
-160.7342153636
 20
-100.0
 10
-160.749703704
 20
-98.8209793024
 10
-160.7947925183
 20
-97.7467197677
 10
-160.8654754675
 20
-96.8726740701
 10
-160.9554720613
 20
-96.2765050054
 10
-161.0567857073
 20
-96.0111848113
 10
-161.1604142437
 20
-96.1002883513
 10
-161.2571498201
 20
-96.5358983849
 10
-161.338397056
 20
-97.2793090489
 10
-161.3969367781
 20
-98.2644650435
 10
-161.427567475
 20
-99.4038309353
 10
-161.427567475
 20
-100.5961690647
 10
-161.3969367781
 20
-101.7355349565
 10
-161.338397056
 20
-102.7206909511
 10
-161.2571498201
 20
-103.4641016151
 10
-161.1604142437
 20
-103.8997116487
 10
-161.0567857073
 20
-103.9888151887
 10
-160.9554720613
 20
-103.7234949946
 10
-160.8654754675
 20
-103.1273259299
 10
-160.7947925183
 20
-102.2532802323
 10
-160.749703704
 20
-101.1790206976
 10
-160.7342153636
 20
-100.0
  0
LWPOLYLINE
  5
158
330
1F
100
AcDbEntity
  8
0
  6
Continuous
 62
     7
370
    25
100
AcDbPolyline
 90
       22
 70
   128
 43
0.0
 10
-160.7342153636
 20
-40.0
 10
-160.749703704
 20
-38.8209793024
 10
-160.7947925183
 20
-37.7467197677
 10
-160.8654754675
 20
-36.8726740701
 10
-160.9554720613
 20
-36.2765050054
 10
-161.0567857073
 20
-36.0111848113
 10
-161.1604142437
 20
-36.1002883513
 10
-161.2571498201
 20
-36.5358983849
 10
-161.338397056
 20
-37.2793090489
 10
-161.3969367781
 20
-38.2644650435
 10
-161.427567475
 20
-39.4038309353
 10
-161.427567475
 20
-40.5961690647
 10
-161.3969367781
 20
-41.7355349565
 10
-161.338397056
 20
-42.7206909511
 10
-161.2571498201
 20
-43.4641016151
 10
-161.1604142437
 20
-43.8997116487
 10
-161.0567857073
 20
-43.9888151887
 10
-160.9554720613
 20
-43.7234949946
 10
-160.8654754675
 20
-43.1273259299
 10
-160.7947925183
 20
-42.2532802323
 10
-160.749703704
 20
-41.1790206976
 10
-160.7342153636
 20
-40.0
  0
LWPOLYLINE
  5
159
330
1F
100
AcDbEntity
  8
0
  6
Continuous
 62
     7
370
    25
100
AcDbPolyline
 90
       22
 70
   128
 43
0.0
 10
-188.4817730574
 20
-100.0
 10
-188.4972613978
 20
-98.8209793024
 10
-188.5423502121
 20
-97.7467197677
 10
-188.6130331612
 20
-96.8726740701
 10
-188.703029755
 20
-96.2765050054
 10
-188.8043434011
 20
-96.0111848113
 10
-188.9079719375
 20
-96.1002883513
 10
-189.0047075139
 20
-96.5358983849
 10
-189.0859547498
 20
-97.2793090489
 10
-189.1444944719
 20
-98.2644650435
 10
-189.1751251688
 20
-99.4038309353
 10
-189.1751251688
 20
-100.5961690647
 10
-189.1444944719
 20
-101.7355349565
 10
-189.0859547498
 20
-102.7206909511
 10
-189.0047075139
 20
-103.4641016151
 10
-188.9079719375
 20
-103.8997116487
 10
-188.8043434011
 20
-103.9888151887
 10
-188.703029755
 20
-103.7234949946
 10
-188.6130331612
 20
-103.1273259299
 10
-188.5423502121
 20
-102.2532802323
 10
-188.4972613978
 20
-101.1790206976
 10
-188.4817730574
 20
-100.0
  0
LWPOLYLINE
  5
172
330
1F
100
AcDbEntity
  8
0
  6
Continuous
 62
     7
370
    25
100
AcDbPolyline
 90
       36
 70
   128
 43
0.0
 10
155.069092085
 20
-71.38
 10
155.0536851699
 20
-69.4158741572
 10
155.0079596157
 20
-67.5148769351
 10
154.9333850792
 20
-65.7381079485
 10
154.8323584474
 20
-64.1426740147
 10
154.7081267993
 20
-62.7798536929
 10
154.5646830424
 20
-61.6934491496
 10
154.4066375771
 20
-60.9183783208
 10
154.2390701146
 20
-60.4795526206
 10
154.067366411
 20
-60.391076268
 10
153.8970451647
 20
-60.655792966
 10
153.7335806407
 20
-61.2651945019
 10
153.5822267232
 20
-62.1996942091
 10
153.4478480517
 20
-63.4292564979
 10
153.3347636673
 20
-64.9143622248
 10
153.2466081952
 20
-66.6072788697
 10
153.1862150246
 20
-68.4535946988
 10
153.1555252419
 20
-70.3939676021
 10
153.1555252419
 20
-72.3660323979
 10
153.1862150246
 20
-74.3064053012
 10
153.2466081952
 20
-76.1527211303
 10
153.3347636673
 20
-77.8456377752
 10
153.4478480517
 20
-79.3307435021
 10
153.5822267232
 20
-80.5603057909
 10
153.7335806407
 20
-81.4948054981
 10
153.8970451647
 20
-82.104207034
 10
154.067366411
 20
-82.368923732
 10
154.2390701146
 20
-82.2804473794
 10
154.4066375771
 20
-81.8416216792
 10
154.5646830424
 20
-81.0665508504
 10
154.7081267993
 20
-79.9801463071
 10
154.8323584474
 20
-78.6173259853
 10
154.9333850792
 20
-77.0218920515
 10
155.0079596157
 20
-75.2451230649
 10
155.0536851699
 20
-73.3441258428
 10
155.069092085
 20
-71.38
  0
LWPOLYLINE
  5
173
330
1F
100
AcDbEntity
  8
0
  6
Continuous
 62
     7
370
    25
100
AcDbPolyline
 90
       22
 70
   128
 43
0.0
 10
161.4314613056
 20
-40.0
 10
161.4159729651
 20
-38.8209793024
 10
161.3708841508
 20
-37.7467197677
 10
161.3002012017
 20
-36.8726740701
 10
161.2102046079
 20
-36.2765050054
 10
161.1088909618
 20
-36.0111848113
 10
161.0052624255
 20
-36.1002883513
 10
160.9085268491
 20
-36.5358983849
 10
160.8272796131
 20
-37.2793090489
 10
160.7687398911
 20
-38.2644650435
 10
160.7381091941
 20
-39.4038309353
 10
160.7381091941
 20
-40.5961690647
 10
160.7687398911
 20
-41.7355349565
 10
160.8272796131
 20
-42.7206909511
 10
160.9085268491
 20
-43.4641016151
 10
161.0052624255
 20
-43.8997116487
 10
161.1088909618
 20
-43.9888151887
 10
161.2102046079
 20
-43.7234949946
 10
161.3002012017
 20
-43.1273259299
 10
161.3708841508
 20
-42.2532802323
 10
161.4159729651
 20
-41.1790206976
 10
161.4314613056
 20
-40.0
  0
LWPOLYLINE
  5
174
330
1F
100
AcDbEntity
  8
0
  6
Continuous
 62
     7
370
    25
100
AcDbPolyline
 90
       22
 70
   128
 43
0.0
 10
189.120137433
 20
-100.0
 10
189.1046490926
 20
-98.8209793024
 10
189.0595602783
 20
-97.7467197677
 10
188.9888773291
 20
-96.8726740701
 10
188.8988807354
 20
-96.2765050054
 10
188.7975670893
 20
-96.0111848113
 10
188.6939385529
 20
-96.1002883513
 10
188.5972029765
 20
-96.5358983849
 10
188.5159557406
 20
-97.2793090489
 10
188.4574160185
 20
-98.2644650435
 10
188.4267853216
 20
-99.4038309353
 10
188.4267853216
 20
-100.5961690647
 10
188.4574160185
 20
-101.7355349565
 10
188.5159557406
 20
-102.7206909511
 10
188.5972029765
 20
-103.4641016151
 10
188.6939385529
 20
-103.8997116487
 10
188.7975670893
 20
-103.9888151887
 10
188.8988807354
 20
-103.7234949946
 10
188.9888773291
 20
-103.1273259299
 10
189.0595602783
 20
-102.2532802323
 10
189.1046490926
 20
-101.1790206976
 10
189.120137433
 20
-100.0
  0
LWPOLYLINE
  5
175
330
1F
100
AcDbEntity
  8
0
  6
Continuous
 62
     7
370
    25
100
AcDbPolyline
 90
       22
 70
   128
 43
0.0
 10
189.120137433
 20
-40.0
 10
189.1046490926
 20
-38.8209793024
 10
189.0595602783
 20
-37.7467197677
 10
188.9888773291
 20
-36.8726740701
 10
188.8988807354
 20
-36.2765050054
 10
188.7975670893
 20
-36.0111848113
 10
188.6939385529
 20
-36.1002883513
 10
188.5972029765
 20
-36.5358983849
 10
188.5159557406
 20
-37.2793090489
 10
188.4574160185
 20
-38.2644650435
 10
188.4267853216
 20
-39.4038309353
 10
188.4267853216
 20
-40.5961690647
 10
188.4574160185
 20
-41.7355349565
 10
188.5159557406
 20
-42.7206909511
 10
188.5972029765
 20
-43.4641016151
 10
188.6939385529
 20
-43.8997116487
 10
188.7975670893
 20
-43.9888151887
 10
188.8988807354
 20
-43.7234949946
 10
188.9888773291
 20
-43.1273259299
 10
189.0595602783
 20
-42.2532802323
 10
189.1046490926
 20
-41.1790206976
 10
189.120137433
 20
-40.0
  0
LWPOLYLINE
  5
176
330
1F
100
AcDbEntity
  8
0
  6
Continuous
 62
     7
370
    25
100
AcDbPolyline
 90
       22
 70
   128
 43
0.0
 10
161.4314613056
 20
-100.0
 10
161.4159729651
 20
-98.8209793024
 10
161.3708841508
 20
-97.7467197677
 10
161.3002012017
 20
-96.8726740701
 10
161.2102046079
 20
-96.2765050054
 10
161.1088909618
 20
-96.0111848113
 10
161.0052624255
 20
-96.1002883513
 10
160.9085268491
 20
-96.5358983849
 10
160.8272796131
 20
-97.2793090489
 10
160.7687398911
 20
-98.2644650435
 10
160.7381091941
 20
-99.4038309353
 10
160.7381091941
 20
-100.5961690647
 10
160.7687398911
 20
-101.7355349565
 10
160.8272796131
 20
-102.7206909511
 10
160.9085268491
 20
-103.4641016151
 10
161.0052624255
 20
-103.8997116487
 10
161.1088909618
 20
-103.9888151887
 10
161.2102046079
 20
-103.7234949946
 10
161.3002012017
 20
-103.1273259299
 10
161.3708841508
 20
-102.2532802323
 10
161.4159729651
 20
-101.1790206976
 10
161.4314613056
 20
-100.0
  0
LWPOLYLINE
  5
177
330
1F
100
AcDbEntity
  8
0
  6
Continuous
 62
     7
370
    25
100
AcDbPolyline
 90
       34
 70
   128
 43
0.0
 10
196.6155313093
 20
-71.38
 10
196.5997811312
 20
-69.4874875564
 10
196.5530998493
 20
-67.6633754434
 10
196.4771746468
 20
-65.9735918254
 10
196.3747496583
 20
-64.4792098852
 10
196.2495267897
 20
-63.2342404795
 10
196.1060319219
 20
-62.2836800465
 10
195.9494513332
 20
-61.6618843168
 10
195.785444254
 20
-61.3913266082
 10
195.6199383275
 20
-61.4817855812
 10
195.4589153691
 20
-61.9299918129
 10
195.3081951681
 20
-62.7197459622
 10
195.1732251452
 20
-63.8225042565
 10
195.0588834687
 20
-65.1984101378
 10
194.9693027447
 20
-66.7977347827
 10
194.9077206541
 20
-68.5626744316
 10
194.8763629339
 20
-70.429439567
 10
194.8763629339
 20
-72.330560433
 10
194.9077206541
 20
-74.1973255684
 10
194.9693027447
 20
-75.9622652173
 10
195.0588834687
 20
-77.5615898622
 10
195.1732251452
 20
-78.9374957435
 10
195.3081951681
 20
-80.0402540378
 10
195.4589153691
 20
-80.8300081871
 10
195.6199383275
 20
-81.2782144188
 10
195.785444254
 20
-81.3686733918
 10
195.9494513332
 20
-81.0981156832
 10
196.1060319219
 20
-80.4763199535
 10
196.2495267897
 20
-79.5257595205
 10
196.3747496583
 20
-78.2807901148
 10
196.4771746468
 20
-76.7864081746
 10
196.5530998493
 20
-75.0966245566
 10
196.5997811312
 20
-73.2725124436
 10
196.6155313093
 20
-71.38
  0
LWPOLYLINE
  5
178
330
1F
100
AcDbEntity
  8
0
  6
Continuous
 62
     7
370
    25
100
AcDbPolyline
 90
       19
 70
   128
 43
0.0
 10
196.0054411101
 20
-40.38
 10
195.9896727068
 20
-39.35393957
 10
195.9442693991
 20
-38.4516371709
 10
195.874707496
 20
-37.7819237886
 10
195.7893771895
 20
-37.425576741
 10
195.6985705741
 20
-37.425576741
 10
195.6132402677
 20
-37.7819237886
 10
195.5436783646
 20
-38.4516371709
 10
195.4982750569
 20
-39.35393957
 10
195.4825066536
 20
-40.38
 10
195.4982750569
 20
-41.40606043
 10
195.5436783646
 20
-42.3083628291
 10
195.6132402677
 20
-42.9780762114
 10
195.6985705741
 20
-43.334423259
 10
195.7893771895
 20
-43.334423259
 10
195.874707496
 20
-42.9780762114
 10
195.9442693991
 20
-42.3083628291
 10
195.9896727068
 20
-41.40606043
 10
196.0054411101
 20
-40.38
  0
LWPOLYLINE
  5
179
330
1F
100
AcDbEntity
  8
0
  6
Continuous
 62
     7
370
    25
100
AcDbPolyline
 90
       19
 70
   128
 43
0.0
 10
193.6522360559
 20
-91.26
 10
193.6364676526
 20
-90.23393957
 10
193.5910643449
 20
-89.3316371709
 10
193.5215024418
 20
-88.6619237886
 10
193.4361721353
 20
-88.305576741
 10
193.3453655199
 20
-88.305576741
 10
193.2600352135
 20
-88.6619237886
 10
193.1904733104
 20
-89.3316371709
 10
193.1450700027
 20
-90.23393957
 10
193.1293015994
 20
-91.26
 10
193.1450700027
 20
-92.28606043
 10
193.1904733104
 20
-93.1883628291
 10
193.2600352135
 20
-93.8580762114
 10
193.3453655199
 20
-94.214423259
 10
193.4361721353
 20
-94.214423259
 10
193.5215024418
 20
-93.8580762114
 10
193.5910643449
 20
-93.1883628291
 10
193.6364676526
 20
-92.28606043
 10
193.6522360559
 20
-91.26
  0
LWPOLYLINE
  5
17A
330
1F
100
AcDbEntity
  8
0
  6
Continuous
 62
     7
370
    25
100
AcDbPolyline
 90
       19
 70
   128
 43
0.0
 10
198.3586461643
 20
-91.26
 10
198.342877761
 20
-90.23393957
 10
198.2974744533
 20
-89.3316371709
 10
198.2279125501
 20
-88.6619237886
 10
198.1425822437
 20
-88.305576741
 10
198.0517756283
 20
-88.305576741
 10
197.9664453219
 20
-88.6619237886
 10
197.8968834188
 20
-89.3316371709
 10
197.8514801111
 20
-90.23393957
 10
197.8357117078
 20
-91.26
 10
197.8514801111
 20
-92.28606043
 10
197.8968834188
 20
-93.1883628291
 10
197.9664453219
 20
-93.8580762114
 10
198.0517756283
 20
-94.214423259
 10
198.1425822437
 20
-94.214423259
 10
198.2279125501
 20
-93.8580762114
 10
198.2974744533
 20
-93.1883628291
 10
198.342877761
 20
-92.28606043
 10
198.3586461643
 20
-91.26
  0
LWPOLYLINE
  5
17D
330
1F
100
AcDbEntity
  8
0
  6
Continuous
 62
     7
370
    25
100
AcDbPolyline
 90
       35
 70
   128
 43
0.0
 10
160.2112809071
 20
-120.0
 10
160.9913992128
 20
-114.496535494
 10
161.7871047043
 20
-109.2951372687
 10
162.5975092601
 20
-104.4016108303
 10
163.4217083527
 20
-99.8214180561
 10
164.2587820576
 20
-95.5596710979
 10
165.1077960805
 20
-91.6211266765
 10
165.9678028001
 20
-88.0101807722
 10
166.8378423254
 20
-84.7308637185
 10
167.7169435678
 20
-81.7868357034
 10
168.604125324
 20
-79.1813826844
 10
169.4983973721
 20
-76.9174127207
 10
170.3987615761
 20
-74.9974527273
 10
171.3042130006
 20
-73.423645655
 10
172.2137410319
 20
-72.1977480981
 10
173.1263305063
 20
-71.321128334
 10
174.0409628431
 20
-70.7947647963
 10
174.9566171815
 20
-70.6192449819
 10
175.8722715198
 20
-70.7947647963
 10
176.7869038566
 20
-71.321128334
 10
177.699493331
 20
-72.1977480981
 10
178.6090213623
 20
-73.423645655
 10
179.5144727868
 20
-74.9974527273
 10
180.4148369909
 20
-76.9174127207
 10
181.309109039
 20
-79.1813826844
 10
182.1962907952
 20
-81.7868357034
 10
183.0753920375
 20
-84.7308637185
 10
183.9454315629
 20
-88.0101807722
 10
184.8054382824
 20
-91.6211266765
 10
185.6544523054
 20
-95.5596710979
 10
186.4915260103
 20
-99.8214180561
 10
187.3157251028
 20
-104.4016108303
 10
188.1261296587
 20
-109.2951372687
 10
188.9218351502
 20
-114.496535494
 10
189.7019534558
 20
-120.0
  0
LWPOLYLINE
  5
186
330
1F
100
AcDbEntity
  8
0
  6
Continuous
 62
     7
370
    25
100
AcDbPolyline
 90
       19
 70
   128
 43
0.0
 10
154.371846143
 20
-102.38
 10
154.3560777397
 20
-101.35393957
 10
154.310674432
 20
-100.4516371709
 10
154.2411125289
 20
-99.7819237886
 10
154.1557822225
 20
-99.425576741
 10
154.0649756071
 20
-99.425576741
 10
153.9796453007
 20
-99.7819237886
 10
153.9100833975
 20
-100.4516371709
 10
153.8646800898
 20
-101.35393957
 10
153.8489116865
 20
-102.38
 10
153.8646800898
 20
-103.40606043
 10
153.9100833975
 20
-104.3083628291
 10
153.9796453007
 20
-104.9780762114
 10
154.0649756071
 20
-105.334423259
 10
154.1557822225
 20
-105.334423259
 10
154.2411125289
 20
-104.9780762114
 10
154.310674432
 20
-104.3083628291
 10
154.3560777397
 20
-103.40606043
 10
154.371846143
 20
-102.38
  0
LWPOLYLINE
  5
187
330
1F
100
AcDbEntity
  8
0
  6
Continuous
 62
     7
370
    25
100
AcDbPolyline
 90
       19
 70
   128
 43
0.0
 10
156.7250511972
 20
-51.5
 10
156.7092827939
 20
-50.47393957
 10
156.6638794862
 20
-49.5716371709
 10
156.5943175831
 20
-48.9019237886
 10
156.5089872767
 20
-48.545576741
 10
156.4181806613
 20
-48.545576741
 10
156.3328503548
 20
-48.9019237886
 10
156.2632884517
 20
-49.5716371709
 10
156.217885144
 20
-50.47393957
 10
156.2021167407
 20
-51.5
 10
156.217885144
 20
-52.52606043
 10
156.2632884517
 20
-53.4283628291
 10
156.3328503548
 20
-54.0980762114
 10
156.4181806613
 20
-54.454423259
 10
156.5089872767
 20
-54.454423259
 10
156.5943175831
 20
-54.0980762114
 10
156.6638794862
 20
-53.4283628291
 10
156.7092827939
 20
-52.52606043
 10
156.7250511972
 20
-51.5
  0
LWPOLYLINE
  5
188
330
1F
100
AcDbEntity
  8
0
  6
Continuous
 62
     7
370
    25
100
AcDbPolyline
 90
       19
 70
   128
 43
0.0
 10
152.0186410888
 20
-51.5
 10
152.0028726855
 20
-50.47393957
 10
151.9574693778
 20
-49.5716371709
 10
151.8879074747
 20
-48.9019237886
 10
151.8025771683
 20
-48.545576741
 10
151.7117705529
 20
-48.545576741
 10
151.6264402465
 20
-48.9019237886
 10
151.5568783433
 20
-49.5716371709
 10
151.5114750356
 20
-50.47393957
 10
151.4957066323
 20
-51.5
 10
151.5114750356
 20
-52.52606043
 10
151.5568783433
 20
-53.4283628291
 10
151.6264402465
 20
-54.0980762114
 10
151.7117705529
 20
-54.454423259
 10
151.8025771683
 20
-54.454423259
 10
151.8879074747
 20
-54.0980762114
 10
151.9574693778
 20
-53.4283628291
 10
152.0028726855
 20
-52.52606043
 10
152.0186410888
 20
-51.5
  0
LWPOLYLINE
  5
192
330
1F
100
AcDbEntity
  8
0
  6
Continuous
 62
     7
370
    25
100
AcDbPolyline
 90
       18
 70
   128
 43
0.0
 10
-188.7057587577
 20
-120.0
 10
-187.9256404521
 20
-114.496535494
 10
-187.1299349606
 20
-109.2951372687
 10
-186.3195304047
 20
-104.4016108303
 10
-185.4953313122
 20
-99.8214180561
 10
-184.6582576073
 20
-95.5596710979
 10
-183.8092435843
 20
-91.6211266765
 10
-182.9492368648
 20
-88.0101807722
 10
-182.0791973394
 20
-84.7308637185
 10
-181.2000960971
 20
-81.7868357034
 10
-180.3129143409
 20
-79.1813826844
 10
-179.4186422928
 20
-76.9174127207
 10
-178.5182780887
 20
-74.9974527273
 10
-177.6128266642
 20
-73.423645655
 10
-176.7032986329
 20
-72.1977480981
 10
-175.7907091585
 20
-71.321128334
 10
-174.8760768217
 20
-70.7947647963
 10
-174.4585198324
 20
-70.6711735265
  0
LWPOLYLINE
  5
194
330
1F
100
AcDbEntity
  8
0
  6
Continuous
 62
     7
370
    25
100
AcDbPolyline
 90
       18
 70
   128
 43
0.0
 10
174.4585198324
 20
-70.6711735265
 10
174.8760768217
 20
-70.7947647963
 10
175.7907091585
 20
-71.321128334
 10
176.7032986329
 20
-72.1977480981
 10
177.6128266642
 20
-73.423645655
 10
178.5182780887
 20
-74.9974527273
 10
179.4186422928
 20
-76.9174127207
 10
180.3129143409
 20
-79.1813826844
 10
181.2000960971
 20
-81.7868357034
 10
182.0791973394
 20
-84.7308637185
 10
182.9492368648
 20
-88.0101807722
 10
183.8092435843
 20
-91.6211266765
 10
184.6582576073
 20
-95.5596710979
 10
185.4953313122
 20
-99.8214180561
 10
186.3195304047
 20
-104.4016108303
 10
187.1299349606
 20
-109.2951372687
 10
187.9256404521
 20
-114.496535494
 10
188.7057587577
 20
-120.0
  0
LINE
  5
1E9
330
1F
100
AcDbEntity
  8
0
  6
Continuous
 62
     7
370
    25
100
AcDbLine
 10
-26.3215772907
 20
-51.9963282437
 30
0.0
 11
-21.862107012
 21
-53.6747826117
 31
0.0
  0
LINE
  5
1EA
330
1F
100
AcDbEntity
  8
0
  6
Continuous
 62
     7
370
    25
100
AcDbLine
 10
-19.0954627401
 20
-53.2170784894
 30
0.0
 11
-21.2423125465
 21
-53.2170784894
 31
0.0
  0
LINE
  5
1EB
330
1F
100
AcDbEntity
  8
0
  6
Continuous
 62
     7
370
    25
100
AcDbLine
 10
-19.0954627401
 20
-48.4940089154
 30
0.0
 11
-19.0954627401
 21
-53.2170784894
 31
0.0
  0
LINE
  5
1EC
330
1F
100
AcDbEntity
  8
0
  6
Continuous
 62
     7
370
    25
100
AcDbLine
 10
-21.2423125465
 20
-48.4940089154
 30
0.0
 11
-19.0954627401
 21
-48.4940089154
 31
0.0
  0
LINE
  5
1ED
330
1F
100
AcDbEntity
  8
0
  6
Continuous
 62
     7
370
    25
100
AcDbLine
 10
-21.4341571739
 20
-43.7434097696
 30
0.0
 11
-22.9522092301
 21
-45.2614618258
 31
0.0
  0
LINE
  5
1EE
330
1F
100
AcDbEntity
  8
0
  6
Continuous
 62
     7
370
    25
100
AcDbLine
 10
-24.7738716977
 20
-40.4036952458
 30
0.0
 11
-21.4341571739
 21
-43.7434097696
 31
0.0
  0
LINE
  5
1EF
330
1F
100
AcDbEntity
  8
0
  6
Continuous
 62
     7
370
    25
100
AcDbLine
 10
-26.2919237539
 20
-41.9217473021
 30
0.0
 11
-24.7738716977
 21
-40.4036952458
 31
0.0
  0
LINE
  5
1F0
330
1F
100
AcDbEntity
  8
0
  6
Continuous
 62
     7
370
    25
100
AcDbLine
 10
-27.5010032941
 20
-42.2218284674
 30
0.0
 11
-29.1269339503
 21
-46.5294022534
 31
0.0
  0
LINE
  5
1F1
330
1F
100
AcDbEntity
  8
0
  6
Continuous
 62
     7
370
    25
100
AcDbLine
 10
2.9566135028
 20
-53.8769038005
 30
0.0
 11
-1.3509602835
 21
-55.5028344569
 31
0.0
  0
LINE
  5
1F2
330
1F
100
AcDbEntity
  8
0
  6
Continuous
 62
     7
370
    25
100
AcDbLine
 10
-1.6510414488
 20
-56.711913997
 30
0.0
 11
-3.1690935051
 21
-58.2299660533
 31
0.0
  0
LINE
  5
1F3
330
1F
100
AcDbEntity
  8
0
  6
Continuous
 62
     7
370
    25
100
AcDbLine
 10
-3.1690935051
 20
-58.2299660533
 30
0.0
 11
0.1706210187
 21
-61.5696805771
 31
0.0
  0
LINE
  5
1F4
330
1F
100
AcDbEntity
  8
0
  6
Continuous
 62
     7
370
    25
100
AcDbLine
 10
0.1706210187
 20
-61.5696805771
 30
0.0
 11
1.688673075
 21
-60.0516285208
 31
0.0
  0
LINE
  5
1F5
330
1F
100
AcDbEntity
  8
0
  6
Continuous
 62
     7
370
    25
100
AcDbLine
 10
4.9212201645
 20
-61.7615252045
 30
0.0
 11
4.9212201645
 21
-63.9083750108
 31
0.0
  0
LINE
  5
1F6
330
1F
100
AcDbEntity
  8
0
  6
Continuous
 62
     7
370
    25
100
AcDbLine
 10
4.9212201645
 20
-63.9083750108
 30
0.0
 11
9.6442897385
 21
-63.9083750108
 31
0.0
  0
LINE
  5
1F7
330
1F
100
AcDbEntity
  8
0
  6
Continuous
 62
     7
370
    25
100
AcDbLine
 10
9.6442897385
 20
-63.9083750108
 30
0.0
 11
9.6442897385
 21
-61.7615252045
 31
0.0
  0
LINE
  5
1F8
330
1F
100
AcDbEntity
  8
0
  6
Continuous
 62
     7
370
    25
100
AcDbLine
 10
8.9532620594
 20
-56.587084868
 30
0.0
 11
10.5397984129
 21
-60.7902914319
 31
0.0
  0
LINE
  5
1F9
330
1F
100
AcDbEntity
  8
0
  6
Continuous
 62
     7
370
    25
100
AcDbLine
 10
-32.9232924819
 20
-56.5870848675
 30
0.0
 11
-34.5098288355
 21
-60.7902914319
 31
0.0
  0
LINE
  5
1FA
330
1F
100
AcDbEntity
  8
0
  6
Continuous
 62
     7
370
    25
100
AcDbLine
 10
-33.6143201612
 20
-63.9083750108
 30
0.0
 11
-33.6143201612
 21
-61.7615252044
 31
0.0
  0
LINE
  5
1FB
330
1F
100
AcDbEntity
  8
0
  6
Continuous
 62
     7
370
    25
100
AcDbLine
 10
-28.8912505872
 20
-63.9083750108
 30
0.0
 11
-33.6143201612
 21
-63.9083750108
 31
0.0
  0
LINE
  5
1FC
330
1F
100
AcDbEntity
  8
0
  6
Continuous
 62
     7
370
    25
100
AcDbLine
 10
-28.8912505872
 20
-61.7615252044
 30
0.0
 11
-28.8912505872
 21
-63.9083750108
 31
0.0
  0
LINE
  5
1FD
330
1F
100
AcDbEntity
  8
0
  6
Continuous
 62
     7
370
    25
100
AcDbLine
 10
-24.1406514414
 20
-61.5696805771
 30
0.0
 11
-25.6587034977
 21
-60.0516285208
 31
0.0
  0
LINE
  5
1FE
330
1F
100
AcDbEntity
  8
0
  6
Continuous
 62
     7
370
    25
100
AcDbLine
 10
-20.8009369176
 20
-58.2299660533
 30
0.0
 11
-24.1406514414
 21
-61.5696805771
 31
0.0
  0
LINE
  5
1FF
330
1F
100
AcDbEntity
  8
0
  6
Continuous
 62
     7
370
    25
100
AcDbLine
 10
-22.3189889739
 20
-56.711913997
 30
0.0
 11
-20.8009369176
 21
-58.2299660533
 31
0.0
  0
LINE
  5
200
330
1F
100
AcDbEntity
  8
0
  6
Continuous
 62
     7
370
    25
100
AcDbLine
 10
-26.9266439257
 20
-53.8769038005
 30
0.0
 11
-22.6190701392
 21
-55.5028344569
 31
0.0
  0
LINE
  5
201
330
1F
100
AcDbEntity
  8
0
  6
Continuous
 62
     7
370
    25
100
AcDbLine
 10
-48.3343966505
 20
-36.4870562282
 30
0.0
 11
-53.8471233626
 21
-28.1173810706
 31
0.0
  0
LINE
  5
202
330
1F
100
AcDbEntity
  8
0
  6
Continuous
 62
     7
370
    25
100
AcDbLine
 10
-53.8471233626
 20
-28.1173810706
 30
0.0
 11
-51.4556985379
 21
-25.7259562458
 31
0.0
  0
LINE
  5
203
330
1F
100
AcDbEntity
  8
0
  6
Continuous
 62
     7
370
    25
100
AcDbLine
 10
-53.1191287193
 20
-24.0625260643
 30
0.0
 11
-51.4556985379
 21
-25.7259562458
 31
0.0
  0
LINE
  5
204
330
1F
100
AcDbEntity
  8
0
  6
Continuous
 62
     7
370
    25
100
AcDbLine
 10
-62.0083421608
 20
-56.0771938249
 30
0.0
 11
-66.4305044428
 21
-56.0771938249
 31
0.0
  0
LINE
  5
205
330
1F
100
AcDbEntity
  8
0
  6
Continuous
 62
     7
370
    25
100
AcDbLine
 10
-62.0083421608
 20
-56.0771938249
 30
0.0
 11
-62.0083421608
 21
-49.3895175898
 31
0.0
  0
LINE
  5
206
330
1F
100
AcDbEntity
  8
0
  6
Continuous
 62
     7
370
    25
100
AcDbLine
 10
-62.0083421608
 20
-49.3895175898
 30
0.0
 11
-52.1920016596
 21
-49.3895175898
 31
0.0
  0
LINE
  5
207
330
1F
100
AcDbEntity
  8
0
  6
Continuous
 62
     7
370
    25
100
AcDbLine
 10
3.5309728714
 20
-42.2218284674
 30
0.0
 11
5.1569035277
 21
-46.5294022537
 31
0.0
  0
LINE
  5
208
330
1F
100
AcDbEntity
  8
0
  6
Continuous
 62
     7
370
    25
100
AcDbLine
 10
2.3218933312
 20
-41.9217473021
 30
0.0
 11
0.803841275
 21
-40.4036952458
 31
0.0
  0
LINE
  5
209
330
1F
100
AcDbEntity
  8
0
  6
Continuous
 62
     7
370
    25
100
AcDbLine
 10
0.803841275
 20
-40.4036952458
 30
0.0
 11
-2.5358732488
 21
-43.7434097696
 31
0.0
  0
LINE
  5
20A
330
1F
100
AcDbEntity
  8
0
  6
Continuous
 62
     7
370
    25
100
AcDbLine
 10
-2.5358732488
 20
-43.7434097696
 30
0.0
 11
-1.0178211925
 21
-45.2614618258
 31
0.0
  0
LINE
  5
20B
330
1F
100
AcDbEntity
  8
0
  6
Continuous
 62
     7
370
    25
100
AcDbLine
 10
-2.7277178762
 20
-48.4940089154
 30
0.0
 11
-4.8745676825
 21
-48.4940089154
 31
0.0
  0
LINE
  5
20C
330
1F
100
AcDbEntity
  8
0
  6
Continuous
 62
     7
370
    25
100
AcDbLine
 10
-4.8745676825
 20
-48.4940089154
 30
0.0
 11
-4.8745676825
 21
-53.2170784894
 31
0.0
  0
LINE
  5
20D
330
1F
100
AcDbEntity
  8
0
  6
Continuous
 62
     7
370
    25
100
AcDbLine
 10
-4.8745676825
 20
-53.2170784894
 30
0.0
 11
-2.7277178762
 21
-53.2170784894
 31
0.0
  0
LINE
  5
20E
330
1F
100
AcDbEntity
  8
0
  6
Continuous
 62
     7
370
    25
100
AcDbLine
 10
2.351546868
 20
-51.9963282437
 30
0.0
 11
-2.1079234107
 21
-53.6747826117
 31
0.0
  0
LINE
  5
20F
330
1F
100
AcDbEntity
  8
0
  6
Continuous
 62
     7
370
    25
100
AcDbLine
 10
16.8765732459
 20
-46.5294022537
 30
0.0
 11
12.2315399261
 21
-48.2776987951
 31
0.0
  0
LINE
  5
210
330
1F
100
AcDbEntity
  8
0
  6
Continuous
 62
     7
370
    25
100
AcDbLine
 10
17.1120600262
 20
-45.8946820821
 30
0.0
 11
18.6301120824
 21
-44.3766300259
 31
0.0
  0
LINE
  5
211
330
1F
100
AcDbEntity
  8
0
  6
Continuous
 62
     7
370
    25
100
AcDbLine
 10
18.6301120824
 20
-44.3766300259
 30
0.0
 11
15.2903975587
 21
-41.0369155021
 31
0.0
  0
LINE
  5
212
330
1F
100
AcDbEntity
  8
0
  6
Continuous
 62
     7
370
    25
100
AcDbLine
 10
15.2903975587
 20
-41.0369155021
 30
0.0
 11
13.7723455024
 21
-42.5549675583
 31
0.0
  0
LINE
  5
213
330
1F
100
AcDbEntity
  8
0
  6
Continuous
 62
     7
370
    25
100
AcDbLine
 10
10.5397984129
 20
-40.8450708747
 30
0.0
 11
10.5397984129
 21
-38.6982210683
 31
0.0
  0
LINE
  5
214
330
1F
100
AcDbEntity
  8
0
  6
Continuous
 62
     7
370
    25
100
AcDbLine
 10
10.5397984129
 20
-38.6982210683
 30
0.0
 11
5.8167288389
 21
-38.6982210683
 31
0.0
  0
LINE
  5
215
330
1F
100
AcDbEntity
  8
0
  6
Continuous
 62
     7
370
    25
100
AcDbLine
 10
5.8167288389
 20
-38.6982210683
 30
0.0
 11
5.8167288389
 21
-40.8450708747
 31
0.0
  0
LINE
  5
216
330
1F
100
AcDbEntity
  8
0
  6
Continuous
 62
     7
370
    25
100
AcDbLine
 10
4.9212201645
 20
-41.8163046472
 30
0.0
 11
6.507756518
 21
-46.0195112111
 31
0.0
  0
LINE
  5
217
330
1F
100
AcDbEntity
  8
0
  6
Continuous
 62
     7
370
    25
100
AcDbLine
 10
10.3041150496
 20
-56.0771938254
 30
0.0
 11
11.930045706
 21
-60.3847676118
 31
0.0
  0
LINE
  5
218
330
1F
100
AcDbEntity
  8
0
  6
Continuous
 62
     7
370
    25
100
AcDbLine
 10
13.1391252462
 20
-60.6848487771
 30
0.0
 11
14.6571773024
 21
-62.2029008333
 31
0.0
  0
LINE
  5
219
330
1F
100
AcDbEntity
  8
0
  6
Continuous
 62
     7
370
    25
100
AcDbLine
 10
14.6571773024
 20
-62.2029008333
 30
0.0
 11
17.9968918262
 21
-58.8631863096
 31
0.0
  0
LINE
  5
21A
330
1F
100
AcDbEntity
  8
0
  6
Continuous
 62
     7
370
    25
100
AcDbLine
 10
17.9968918262
 20
-58.8631863096
 30
0.0
 11
16.4788397699
 21
-57.3451342533
 31
0.0
  0
LINE
  5
21B
330
1F
100
AcDbEntity
  8
0
  6
Continuous
 62
     7
370
    25
100
AcDbLine
 10
18.1887364536
 20
-54.1125871637
 30
0.0
 11
20.3355862599
 21
-54.1125871637
 31
0.0
  0
LINE
  5
21C
330
1F
100
AcDbEntity
  8
0
  6
Continuous
 62
     7
370
    25
100
AcDbLine
 10
20.3355862599
 20
-54.1125871637
 30
0.0
 11
20.3355862599
 21
-49.3895175898
 31
0.0
  0
LINE
  5
21D
330
1F
100
AcDbEntity
  8
0
  6
Continuous
 62
     7
370
    25
100
AcDbLine
 10
20.3355862599
 20
-49.3895175898
 30
0.0
 11
18.1887364536
 21
-49.3895175898
 31
0.0
  0
LINE
  5
21E
330
1F
100
AcDbEntity
  8
0
  6
Continuous
 62
     7
370
    25
100
AcDbLine
 10
17.2175026811
 20
-48.4940089154
 30
0.0
 11
13.0142961172
 21
-50.0805452689
 31
0.0
  0
LINE
  5
21F
330
1F
100
AcDbEntity
  8
0
  6
Continuous
 62
     7
370
    25
100
AcDbLine
 10
-147.1954979735
 20
-1.7366
 30
0.0
 11
-147.1954979735
 21
-120.0
 31
0.0
  0
LINE
  5
220
330
1F
100
AcDbEntity
  8
0
  6
Continuous
 62
     7
370
    25
100
AcDbLine
 10
147.1954979735
 20
-1.7366
 30
0.0
 11
147.1954979735
 21
-120.0
 31
0.0
  0
LINE
  5
221
330
1F
100
AcDbEntity
  8
0
  6
Continuous
 62
     7
370
    25
100
AcDbLine
 10
-49.416725665
 20
-20.080695329
 30
0.0
 11
-47.6336665991
 21
-21.9039243071
 31
0.0
  0
LINE
  5
222
330
1F
100
AcDbEntity
  8
0
  6
Continuous
 62
     7
370
    25
100
AcDbLine
 10
-47.6336665991
 20
-21.9039243071
 30
0.0
 11
-41.4073109389
 21
-15.6775686468
 31
0.0
  0
LINE
  5
223
330
1F
100
AcDbEntity
  8
0
  6
Continuous
 62
     7
370
    25
100
AcDbLine
 10
-41.4073109389
 20
-15.6775686468
 30
0.0
 11
-34.466110004
 21
-22.6187695817
 31
0.0
  0
LINE
  5
224
330
1F
100
AcDbEntity
  8
0
  6
Continuous
 62
     7
370
    25
100
AcDbLine
 10
-22.6149534202
 20
-16.22309032
 30
0.0
 11
-20.5947858009
 21
-6.4067498188
 31
0.0
  0
LINE
  5
225
330
1F
100
AcDbEntity
  8
0
  6
Continuous
 62
     7
370
    25
100
AcDbLine
 10
-20.5947858009
 20
-6.4067498188
 30
0.0
 11
-16.9748460979
 21
-6.4067498188
 31
0.0
  0
LINE
  5
226
330
1F
100
AcDbEntity
  8
0
  6
Continuous
 62
     7
370
    25
100
AcDbLine
 10
-16.9748460979
 20
-4.2615244721
 30
0.0
 11
-16.9748460979
 21
-6.4067498188
 31
0.0
  0
LINE
  5
227
330
1F
100
AcDbEntity
  8
0
  6
Continuous
 62
     7
370
    25
100
AcDbLine
 10
-44.3056166826
 20
-49.3895175898
 30
0.0
 11
-42.1587668763
 21
-49.3895175898
 31
0.0
  0
LINE
  5
228
330
1F
100
AcDbEntity
  8
0
  6
Continuous
 62
     7
370
    25
100
AcDbLine
 10
-44.3056166826
 20
-54.1125871637
 30
0.0
 11
-44.3056166826
 21
-49.3895175898
 31
0.0
  0
LINE
  5
229
330
1F
100
AcDbEntity
  8
0
  6
Continuous
 62
     7
370
    25
100
AcDbLine
 10
-42.1587668763
 20
-54.1125871637
 30
0.0
 11
-44.3056166826
 21
-54.1125871637
 31
0.0
  0
LINE
  5
22A
330
1F
100
AcDbEntity
  8
0
  6
Continuous
 62
     7
370
    25
100
AcDbLine
 10
-41.9669222489
 20
-58.8631863095
 30
0.0
 11
-40.4488701926
 21
-57.3451342533
 31
0.0
  0
LINE
  5
22B
330
1F
100
AcDbEntity
  8
0
  6
Continuous
 62
     7
370
    25
100
AcDbLine
 10
-38.6272077251
 20
-62.2029008333
 30
0.0
 11
-41.9669222489
 21
-58.8631863095
 31
0.0
  0
LINE
  5
22C
330
1F
100
AcDbEntity
  8
0
  6
Continuous
 62
     7
370
    25
100
AcDbLine
 10
-37.1091556688
 20
-60.6848487771
 30
0.0
 11
-38.6272077251
 21
-62.2029008333
 31
0.0
  0
LINE
  5
22D
330
1F
100
AcDbEntity
  8
0
  6
Continuous
 62
     7
370
    25
100
AcDbLine
 10
-34.2741454721
 20
-56.0771938249
 30
0.0
 11
-35.9000761287
 21
-60.3847676118
 31
0.0
  0
LINE
  5
22E
330
1F
100
AcDbEntity
  8
0
  6
Continuous
 62
     7
370
    25
100
AcDbLine
 10
-41.1875331037
 20
-48.4940089154
 30
0.0
 11
-36.9843265397
 21
-50.0805452689
 31
0.0
  0
LINE
  5
22F
330
1F
100
AcDbEntity
  8
0
  6
Continuous
 62
     7
370
    25
100
AcDbLine
 10
11.930045706
 20
-73.2796645773
 30
0.0
 11
14.6571773024
 21
-73.2796645773
 31
0.0
  0
LINE
  5
230
330
1F
100
AcDbEntity
  8
0
  6
Continuous
 62
     7
370
    25
100
AcDbLine
 10
14.6571773024
 20
-69.0022366522
 30
0.0
 11
14.6571773024
 21
-73.2796645773
 31
0.0
  0
LINE
  5
231
330
1F
100
AcDbEntity
  8
0
  6
Continuous
 62
     7
370
    25
100
AcDbLine
 10
14.6571773024
 20
-69.0022366522
 30
0.0
 11
-35.9000761287
 21
-69.0022366522
 31
0.0
  0
LINE
  5
232
330
1F
100
AcDbEntity
  8
0
  6
Continuous
 62
     7
370
    25
100
AcDbLine
 10
-35.9000761287
 20
-69.0022366522
 30
0.0
 11
-35.9000761287
 21
-73.2796645773
 31
0.0
  0
LINE
  5
233
330
1F
100
AcDbEntity
  8
0
  6
Continuous
 62
     7
370
    25
100
AcDbLine
 10
-33.6143201612
 20
-73.2796645773
 30
0.0
 11
-35.9000761287
 21
-73.2796645773
 31
0.0
  0
LINE
  5
234
330
1F
100
AcDbEntity
  8
0
  6
Continuous
 62
     7
370
    25
100
AcDbLine
 10
-28.8912505872
 20
-41.8163046472
 30
0.0
 11
-30.4777869405
 21
-46.0195112108
 31
0.0
  0
LINE
  5
235
330
1F
100
AcDbEntity
  8
0
  6
Continuous
 62
     7
370
    25
100
AcDbLine
 10
-29.7867592616
 20
-38.6982210683
 30
0.0
 11
-29.7867592616
 21
-40.8450708747
 31
0.0
  0
LINE
  5
236
330
1F
100
AcDbEntity
  8
0
  6
Continuous
 62
     7
370
    25
100
AcDbLine
 10
-34.5098288355
 20
-38.6982210683
 30
0.0
 11
-29.7867592616
 21
-38.6982210683
 31
0.0
  0
LINE
  5
237
330
1F
100
AcDbEntity
  8
0
  6
Continuous
 62
     7
370
    25
100
AcDbLine
 10
-34.5098288355
 20
-40.8450708747
 30
0.0
 11
-34.5098288355
 21
-38.6982210683
 31
0.0
  0
LINE
  5
238
330
1F
100
AcDbEntity
  8
0
  6
Continuous
 62
     7
370
    25
100
AcDbLine
 10
-39.2604279814
 20
-41.0369155021
 30
0.0
 11
-37.7423759251
 21
-42.5549675583
 31
0.0
  0
LINE
  5
239
330
1F
100
AcDbEntity
  8
0
  6
Continuous
 62
     7
370
    25
100
AcDbLine
 10
-42.6001425051
 20
-44.3766300258
 30
0.0
 11
-39.2604279814
 21
-41.0369155021
 31
0.0
  0
LINE
  5
23A
330
1F
100
AcDbEntity
  8
0
  6
Continuous
 62
     7
370
    25
100
AcDbLine
 10
-41.0820904489
 20
-45.8946820821
 30
0.0
 11
-42.6001425051
 21
-44.3766300258
 31
0.0
  0
LINE
  5
23B
330
1F
100
AcDbEntity
  8
0
  6
Continuous
 62
     7
370
    25
100
AcDbLine
 10
-40.8466036686
 20
-46.5294022537
 30
0.0
 11
-36.2015703488
 21
-48.2776987951
 31
0.0
  0
LINE
  5
23C
330
1F
100
AcDbEntity
  8
0
  6
Continuous
 62
     7
370
    25
100
AcDbLine
 10
-12.3891055274
 20
-107.8293866006
 30
0.0
 11
-12.3891055274
 21
-118.2184171377
 31
0.0
  0
LINE
  5
23D
330
1F
100
AcDbEntity
  8
0
  6
Continuous
 62
     7
370
    25
100
AcDbLine
 10
-19.0954627401
 20
-107.8293866006
 30
0.0
 11
-12.3891055274
 21
-107.8293866006
 31
0.0
  0
LINE
  5
23E
330
1F
100
AcDbEntity
  8
0
  6
Continuous
 62
     7
370
    25
100
AcDbLine
 10
-20.8009369176
 20
-96.5148577509
 30
0.0
 11
-19.0954627401
 21
-107.8293866006
 31
0.0
  0
LINE
  5
23F
330
1F
100
AcDbEntity
  8
0
  6
Continuous
 62
     7
370
    25
100
AcDbLine
 10
-40.680664172
 20
-98.2008676845
 30
0.0
 11
-32.3653272826
 21
-93.3169595571
 31
0.0
  0
LINE
  5
240
330
1F
100
AcDbEntity
  8
0
  6
Continuous
 62
     7
370
    25
100
AcDbLine
 10
-44.3432591665
 20
-96.7413919316
 30
0.0
 11
-40.680664172
 21
-98.2008676845
 31
0.0
  0
LINE
  5
241
330
1F
100
AcDbEntity
  8
0
  6
Continuous
 62
     7
370
    25
100
AcDbLine
 10
-44.3432591665
 20
-96.7413919316
 30
0.0
 11
-50.10340189
 21
-101.2889842454
 31
0.0
  0
LINE
  5
242
330
1F
100
AcDbEntity
  8
0
  6
Continuous
 62
     7
370
    25
100
AcDbLine
 10
-48.285833463
 20
-91.7475866212
 30
0.0
 11
-54.3242292149
 21
-96.5148577509
 31
0.0
  0
LINE
  5
243
330
1F
100
AcDbEntity
  8
0
  6
Continuous
 62
     7
370
    25
100
AcDbLine
 10
-52.1920016596
 20
-88.4330514296
 30
0.0
 11
-48.285833463
 21
-91.7475866212
 31
0.0
  0
LINE
  5
244
330
1F
100
AcDbEntity
  8
0
  6
Continuous
 62
     7
370
    25
100
AcDbLine
 10
-44.3056166826
 20
-79.1389741602
 30
0.0
 11
-52.1920016596
 21
-88.4330514296
 31
0.0
  0
LINE
  5
245
330
1F
100
AcDbEntity
  8
0
  6
Continuous
 62
     7
370
    25
100
AcDbLine
 10
-47.7470081829
 20
-73.2796645773
 30
0.0
 11
-44.3056166826
 21
-79.1389741602
 31
0.0
  0
LINE
  5
246
330
1F
100
AcDbEntity
  8
0
  6
Continuous
 62
     7
370
    25
100
AcDbLine
 10
-44.3056166826
 20
-73.2796645773
 30
0.0
 11
-47.7470081829
 21
-73.2796645773
 31
0.0
  0
LINE
  5
247
330
1F
100
AcDbEntity
  8
0
  6
Continuous
 62
     7
370
    25
100
AcDbLine
 10
-44.3056166826
 20
-69.0022366522
 30
0.0
 11
-44.3056166826
 21
-73.2796645773
 31
0.0
  0
LINE
  5
248
330
1F
100
AcDbEntity
  8
0
  6
Continuous
 62
     7
370
    25
100
AcDbLine
 10
-44.3056166826
 20
-69.0022366522
 30
0.0
 11
-52.1920016596
 21
-69.0022366522
 31
0.0
  0
LINE
  5
249
330
1F
100
AcDbEntity
  8
0
  6
Continuous
 62
     7
370
    25
100
AcDbLine
 10
-52.1920016596
 20
-69.0022366522
 30
0.0
 11
-62.0083421608
 21
-66.9820690328
 31
0.0
  0
LINE
  5
24A
330
1F
100
AcDbEntity
  8
0
  6
Continuous
 62
     7
370
    25
100
AcDbLine
 10
-62.0083421608
 20
-66.9820690328
 30
0.0
 11
-62.0083421608
 21
-60.6848487771
 31
0.0
  0
LINE
  5
24B
330
1F
100
AcDbEntity
  8
0
  6
Continuous
 62
     7
370
    25
100
AcDbLine
 10
-62.0083421608
 20
-60.6848487771
 30
0.0
 11
-66.6447465719
 21
-61.0263405731
 31
0.0
  0
LINE
  5
24C
330
1F
100
AcDbEntity
  8
0
  6
Continuous
 62
     7
370
    25
100
AcDbLine
 10
39.9805334132
 20
-61.2384313758
 30
0.0
 11
47.8979402407
 21
-61.2384313758
 31
0.0
  0
LINE
  5
24D
330
1F
100
AcDbEntity
  8
0
  6
Continuous
 62
     7
370
    25
100
AcDbLine
 10
39.9805334132
 20
-61.2384313758
 30
0.0
 11
39.9805334132
 21
-65.4128576217
 31
0.0
  0
LINE
  5
24E
330
1F
100
AcDbEntity
  8
0
  6
Continuous
 62
     7
370
    25
100
AcDbLine
 10
39.9805334132
 20
-65.4128576217
 30
0.0
 11
31.1386535882
 21
-69.0022366522
 31
0.0
  0
LINE
  5
24F
330
1F
100
AcDbEntity
  8
0
  6
Continuous
 62
     7
370
    25
100
AcDbLine
 10
31.1386535882
 20
-69.0022366522
 30
0.0
 11
22.160616496
 21
-69.0022366522
 31
0.0
  0
LINE
  5
250
330
1F
100
AcDbEntity
  8
0
  6
Continuous
 62
     7
370
    25
100
AcDbLine
 10
22.160616496
 20
-69.0022366522
 30
0.0
 11
22.160616496
 21
-73.2796645773
 31
0.0
  0
LINE
  5
251
330
1F
100
AcDbEntity
  8
0
  6
Continuous
 62
     7
370
    25
100
AcDbLine
 10
22.160616496
 20
-73.2796645773
 30
0.0
 11
24.9892487084
 21
-73.2796645773
 31
0.0
  0
LINE
  5
252
330
1F
100
AcDbEntity
  8
0
  6
Continuous
 62
     7
370
    25
100
AcDbLine
 10
24.9892487084
 20
-73.2796645773
 30
0.0
 11
22.160616496
 21
-79.1389741602
 31
0.0
  0
LINE
  5
253
330
1F
100
AcDbEntity
  8
0
  6
Continuous
 62
     7
370
    25
100
AcDbLine
 10
22.160616496
 20
-79.1389741602
 30
0.0
 11
27.6193754274
 21
-88.4330514296
 31
0.0
  0
LINE
  5
254
330
1F
100
AcDbEntity
  8
0
  6
Continuous
 62
     7
370
    25
100
AcDbLine
 10
27.6193754274
 20
-88.4330514296
 30
0.0
 11
25.1998753011
 21
-91.2844239144
 31
0.0
  0
LINE
  5
255
330
1F
100
AcDbEntity
  8
0
  6
Continuous
 62
     7
370
    25
100
AcDbLine
 10
25.1998753011
 20
-91.2844239144
 30
0.0
 11
34.3306340891
 21
-98.0398996783
 31
0.0
  0
LINE
  5
256
330
1F
100
AcDbEntity
  8
0
  6
Continuous
 62
     7
370
    25
100
AcDbLine
 10
22.160616496
 20
-94.8661798468
 30
0.0
 11
31.1386535882
 21
-101.5086630613
 31
0.0
  0
LINE
  5
257
330
1F
100
AcDbEntity
  8
0
  6
Continuous
 62
     7
370
    25
100
AcDbLine
 10
22.160616496
 20
-94.8661798468
 30
0.0
 11
18.4596472072
 21
-99.227759283
 31
0.0
  0
LINE
  5
258
330
1F
100
AcDbEntity
  8
0
  6
Continuous
 62
     7
370
    25
100
AcDbLine
 10
18.4596472072
 20
-99.227759283
 30
0.0
 11
9.6442897385
 21
-91.7475866212
 31
0.0
  0
LINE
  5
259
330
1F
100
AcDbEntity
  8
0
  6
Continuous
 62
     7
370
    25
100
AcDbLine
 10
-3.1690935051
 20
-107.8293866006
 30
0.0
 11
-1.6510414488
 21
-96.5148577509
 31
0.0
  0
LINE
  5
25A
330
1F
100
AcDbEntity
  8
0
  6
Continuous
 62
     7
370
    25
100
AcDbLine
 10
-6.1257056284
 20
-107.8293866006
 30
0.0
 11
-3.1690935051
 21
-107.8293866006
 31
0.0
  0
LINE
  5
25B
330
1F
100
AcDbEntity
  8
0
  6
Continuous
 62
     7
370
    25
100
AcDbLine
 10
-6.1257056284
 20
-107.8293866006
 30
0.0
 11
-6.1257056284
 21
-118.20573374
 31
0.0
  0
LINE
  5
25C
330
1F
100
AcDbEntity
  8
0
  6
Continuous
 62
     7
370
    25
100
AcDbLine
 10
-11.0139043738
 20
-6.4067498188
 30
0.0
 11
-11.0139043738
 21
-3.7783067347
 31
0.0
  0
LINE
  5
25D
330
1F
100
AcDbEntity
  8
0
  6
Continuous
 62
     7
370
    25
100
AcDbLine
 10
-11.0139043738
 20
-6.4067498188
 30
0.0
 11
-3.0022343578
 21
-6.4067498188
 31
0.0
  0
LINE
  5
25E
330
1F
100
AcDbEntity
  8
0
  6
Continuous
 62
     7
370
    25
100
AcDbLine
 10
-3.0022343578
 20
-6.4067498188
 30
0.0
 11
-3.0022343578
 21
-16.22309032
 31
0.0
  0
LINE
  5
25F
330
1F
100
AcDbEntity
  8
0
  6
Continuous
 62
     7
370
    25
100
AcDbLine
 10
9.9002270037
 20
-20.080695329
 30
0.0
 11
18.2699021613
 21
-14.567968617
 31
0.0
  0
LINE
  5
260
330
1F
100
AcDbEntity
  8
0
  6
Continuous
 62
     7
370
    25
100
AcDbLine
 10
18.2699021613
 20
-14.567968617
 30
0.0
 11
21.4862016952
 21
-17.7842681508
 31
0.0
  0
LINE
  5
261
330
1F
100
AcDbEntity
  8
0
  6
Continuous
 62
     7
370
    25
100
AcDbLine
 10
21.4862016952
 20
-17.7842681508
 30
0.0
 11
25.1998753011
 21
-15.3674831598
 31
0.0
  0
LINE
  5
262
330
1F
100
AcDbEntity
  8
0
  6
Continuous
 62
     7
370
    25
100
AcDbLine
 10
25.1998753011
 20
-21.4979417567
 30
0.0
 11
29.1793268736
 21
-18.6738741333
 31
0.0
  0
LINE
  5
263
330
1F
100
AcDbEntity
  8
0
  6
Continuous
 62
     7
370
    25
100
AcDbLine
 10
25.1998753011
 20
-21.4979417567
 30
0.0
 11
30.7097145851
 21
-27.0077810407
 31
0.0
  0
LINE
  5
264
330
1F
100
AcDbEntity
  8
0
  6
Continuous
 62
     7
370
    25
100
AcDbLine
 10
30.7097145851
 20
-27.0077810407
 30
0.0
 11
23.7685136502
 21
-33.9489819756
 31
0.0
  0
LINE
  5
265
330
1F
100
AcDbEntity
  8
0
  6
Continuous
 62
     7
370
    25
100
AcDbLine
 10
30.164192912
 20
-45.8001385593
 30
0.0
 11
39.9805334132
 21
-47.8203061787
 31
0.0
  0
LINE
  5
266
330
1F
100
AcDbEntity
  8
0
  6
Continuous
 62
     7
370
    25
100
AcDbLine
 10
39.9805334132
 20
-47.8203061787
 30
0.0
 11
39.9805334132
 21
-54.1125871637
 31
0.0
  0
LINE
  5
267
330
1F
100
AcDbEntity
  8
0
  6
Continuous
 62
     7
370
    25
100
AcDbLine
 10
39.9805334132
 20
-54.1125871637
 30
0.0
 11
47.4794912861
 21
-54.1125871637
 31
0.0
  0
LINE
  5
268
330
1F
100
AcDbEntity
  8
0
  6
Continuous
 62
     7
370
    25
100
AcDbLine
 10
-122.1954979735
 20
-98.5
 30
0.0
 11
-142.1954979735
 21
-98.5
 31
0.0
  0
LINE
  5
269
330
1F
100
AcDbEntity
  8
0
  6
Continuous
 62
     7
370
    25
100
AcDbLine
 10
-142.1954979735
 20
-101.5
 30
0.0
 11
-122.1954979735
 21
-101.5
 31
0.0
  0
LINE
  5
26A
330
1F
100
AcDbEntity
  8
0
  6
Continuous
 62
     7
370
    25
100
AcDbLine
 10
-122.1954979735
 20
-28.5
 30
0.0
 11
-142.1954979735
 21
-28.5
 31
0.0
  0
LINE
  5
26B
330
1F
100
AcDbEntity
  8
0
  6
Continuous
 62
     7
370
    25
100
AcDbLine
 10
-142.1954979735
 20
-31.5
 30
0.0
 11
-122.1954979735
 21
-31.5
 31
0.0
  0
LINE
  5
26C
330
1F
100
AcDbEntity
  8
0
  6
Continuous
 62
     7
370
    25
100
AcDbLine
 10
122.1954979735
 20
-31.5
 30
0.0
 11
142.1954979735
 21
-31.5
 31
0.0
  0
LINE
  5
26D
330
1F
100
AcDbEntity
  8
0
  6
Continuous
 62
     7
370
    25
100
AcDbLine
 10
142.1954979735
 20
-28.5
 30
0.0
 11
122.1954979735
 21
-28.5
 31
0.0
  0
LINE
  5
26E
330
1F
100
AcDbEntity
  8
0
  6
Continuous
 62
     7
370
    25
100
AcDbLine
 10
122.1954979735
 20
-101.5
 30
0.0
 11
142.1954979735
 21
-101.5
 31
0.0
  0
LINE
  5
26F
330
1F
100
AcDbEntity
  8
0
  6
Continuous
 62
     7
370
    25
100
AcDbLine
 10
142.1954979735
 20
-98.5
 30
0.0
 11
122.1954979735
 21
-98.5
 31
0.0
  0
LINE
  5
270
330
1F
100
AcDbEntity
  8
0
  6
Continuous
 62
     7
370
    25
100
AcDbLine
 10
147.1986992832
 20
-1.0
 30
0.0
 11
147.1986992832
 21
0.0
 31
0.0
  0
LINE
  5
271
330
1F
100
AcDbEntity
  8
0
  6
Continuous
 62
     7
370
    25
100
AcDbLine
 10
-147.1986992832
 20
-1.0
 30
0.0
 11
-147.1986992832
 21
0.0
 31
0.0
  0
LINE
  5
272
330
1F
100
AcDbEntity
  8
0
  6
Continuous
 62
     7
370
    25
100
AcDbLine
 10
-199.189833657
 20
0.0
 30
0.0
 11
199.189833657
 21
0.0
 31
0.0
  0
LINE
  5
273
330
1F
100
AcDbEntity
  8
0
  6
Continuous
 62
     7
370
    25
100
AcDbLine
 10
-200.9253827882
 20
-1.7366
 30
0.0
 11
200.9253827882
 21
-1.7366
 31
0.0
  0
LINE
  5
274
330
1F
100
AcDbEntity
  8
0
  6
Continuous
 62
     7
370
    25
100
AcDbLine
 10
-147.9327753103
 20
-1.7366
 30
0.0
 11
-147.9327753103
 21
-120.0
 31
0.0
  0
LINE
  5
275
330
1F
100
AcDbEntity
  8
0
  6
Continuous
 62
     7
370
    25
100
AcDbLine
 10
-148.9289700084
 20
-1.7366
 30
0.0
 11
-148.9289700084
 21
-120.0
 31
0.0
  0
LINE
  5
276
330
1F
100
AcDbEntity
  8
0
  6
Continuous
 62
     7
370
    25
100
AcDbLine
 10
147.9327753103
 20
-1.7366
 30
0.0
 11
147.9327753103
 21
-120.0
 31
0.0
  0
LINE
  5
277
330
1F
100
AcDbEntity
  8
0
  6
Continuous
 62
     7
370
    25
100
AcDbLine
 10
148.9289700084
 20
-1.7366
 30
0.0
 11
148.9289700084
 21
-120.0
 31
0.0
  0
LINE
  5
278
330
1F
100
AcDbEntity
  8
0
  6
Continuous
 62
     7
370
    25
100
AcDbLine
 10
-200.9253827882
 20
-1.7366
 30
0.0
 11
-200.9253827882
 21
-120.0
 31
0.0
  0
LINE
  5
279
330
1F
100
AcDbEntity
  8
0
  6
Continuous
 62
     7
370
    25
100
AcDbLine
 10
-198.7464892195
 20
-98.5
 30
0.0
 11
-200.4896040744
 21
-98.5
 31
0.0
  0
LINE
  5
27A
330
1F
100
AcDbEntity
  8
0
  6
Continuous
 62
     7
370
    25
100
AcDbLine
 10
-200.4896040744
 20
-101.5
 30
0.0
 11
-198.7464892195
 21
-101.5
 31
0.0
  0
LINE
  5
27B
330
1F
100
AcDbEntity
  8
0
  6
Continuous
 62
     7
370
    25
100
AcDbLine
 10
-198.7464892195
 20
-28.5
 30
0.0
 11
-200.4896040744
 21
-28.5
 31
0.0
  0
LINE
  5
27C
330
1F
100
AcDbEntity
  8
0
  6
Continuous
 62
     7
370
    25
100
AcDbLine
 10
-200.4896040744
 20
-31.5
 30
0.0
 11
-198.7464892195
 21
-31.5
 31
0.0
  0
LINE
  5
27D
330
1F
100
AcDbEntity
  8
0
  6
Continuous
 62
     7
370
    25
100
AcDbLine
 10
-151.1667451435
 20
-31.5
 30
0.0
 11
-149.4236302885
 21
-31.5
 31
0.0
  0
LINE
  5
27E
330
1F
100
AcDbEntity
  8
0
  6
Continuous
 62
     7
370
    25
100
AcDbLine
 10
-149.4236302885
 20
-28.5
 30
0.0
 11
-151.1667451435
 21
-28.5
 31
0.0
  0
LINE
  5
27F
330
1F
100
AcDbEntity
  8
0
  6
Continuous
 62
     7
370
    25
100
AcDbLine
 10
-151.1667451435
 20
-101.5
 30
0.0
 11
-149.4236302885
 21
-101.5
 31
0.0
  0
LINE
  5
280
330
1F
100
AcDbEntity
  8
0
  6
Continuous
 62
     7
370
    25
100
AcDbLine
 10
-149.4236302885
 20
-98.5
 30
0.0
 11
-151.1667451435
 21
-98.5
 31
0.0
  0
LINE
  5
281
330
1F
100
AcDbEntity
  8
0
  6
Continuous
 62
     7
370
    25
100
AcDbLine
 10
151.1667451435
 20
-101.5
 30
0.0
 11
149.4236302885
 21
-101.5
 31
0.0
  0
LINE
  5
282
330
1F
100
AcDbEntity
  8
0
  6
Continuous
 62
     7
370
    25
100
AcDbLine
 10
149.4236302885
 20
-98.5
 30
0.0
 11
151.1667451435
 21
-98.5
 31
0.0
  0
LINE
  5
283
330
1F
100
AcDbEntity
  8
0
  6
Continuous
 62
     7
370
    25
100
AcDbLine
 10
198.7464892195
 20
-28.5
 30
0.0
 11
200.4896040744
 21
-28.5
 31
0.0
  0
LINE
  5
284
330
1F
100
AcDbEntity
  8
0
  6
Continuous
 62
     7
370
    25
100
AcDbLine
 10
200.4896040744
 20
-31.5
 30
0.0
 11
198.7464892195
 21
-31.5
 31
0.0
  0
LINE
  5
285
330
1F
100
AcDbEntity
  8
0
  6
Continuous
 62
     7
370
    25
100
AcDbLine
 10
200.9253827882
 20
-1.7366
 30
0.0
 11
200.9253827882
 21
-120.0
 31
0.0
  0
LINE
  5
286
330
1F
100
AcDbEntity
  8
0
  6
Continuous
 62
     7
370
    25
100
AcDbLine
 10
-200.9253827882
 20
-120.0
 30
0.0
 11
200.9253827882
 21
-120.0
 31
0.0
  0
LINE
  5
287
330
1F
100
AcDbEntity
  8
0
  6
Continuous
 62
     7
370
    25
100
AcDbLine
 10
198.7464892195
 20
-98.5
 30
0.0
 11
200.4896040744
 21
-98.5
 31
0.0
  0
LINE
  5
288
330
1F
100
AcDbEntity
  8
0
  6
Continuous
 62
     7
370
    25
100
AcDbLine
 10
200.4896040744
 20
-101.5
 30
0.0
 11
198.7464892195
 21
-101.5
 31
0.0
  0
LINE
  5
289
330
1F
100
AcDbEntity
  8
0
  6
Continuous
 62
     7
370
    25
100
AcDbLine
 10
151.1667451435
 20
-31.5
 30
0.0
 11
149.4236302885
 21
-31.5
 31
0.0
  0
LINE
  5
28A
330
1F
100
AcDbEntity
  8
0
  6
Continuous
 62
     7
370
    25
100
AcDbLine
 10
149.4236302885
 20
-28.5
 30
0.0
 11
151.1667451435
 21
-28.5
 31
0.0
  0
LINE
  5
28B
330
1F
100
AcDbEntity
  8
0
  6
Continuous
 62
     7
370
    25
100
AcDbLine
 10
30.7687068043
 20
-35.8516574809
 30
0.0
 11
41.564895698
 21
-34.8473608396
 31
0.0
  0
LINE
  5
28C
330
1F
100
AcDbEntity
  8
0
  6
Continuous
 62
     7
370
    25
100
AcDbLine
 10
40.184498672
 20
-54.1125871637
 30
0.0
 11
39.9805334132
 21
-53.7170181769
 31
0.0
  0
LINE
  5
28D
330
1F
100
AcDbEntity
  8
0
  6
Continuous
 62
     7
370
    25
100
AcDbLine
 10
36.5791026353
 20
-47.120303941
 30
0.0
 11
30.7687068043
 21
-35.8516574809
 31
0.0
  0
LINE
  5
28E
330
1F
100
AcDbEntity
  8
0
  6
Continuous
 62
     7
370
    25
100
AcDbLine
 10
46.7348044207
 20
-72.5119987062
 30
0.0
 11
39.6775444063
 21
-65.535856623
 31
0.0
  0
LINE
  5
28F
330
1F
100
AcDbEntity
  8
0
  6
Continuous
 62
     7
370
    25
100
AcDbLine
 10
16.0625709497
 20
-112.3395988664
 30
0.0
 11
16.0625709497
 21
-107.4358763466
 31
0.0
  0
LINE
  5
290
330
1F
100
AcDbEntity
  8
0
  6
Continuous
 62
     7
370
    25
100
AcDbLine
 10
-42.9318756759
 20
-107.4358763466
 30
0.0
 11
-19.1547777665
 21
-107.4358763466
 31
0.0
  0
LINE
  5
291
330
1F
100
AcDbEntity
  8
0
  6
Continuous
 62
     7
370
    25
100
AcDbLine
 10
-3.11629687
 20
-107.4358763466
 30
0.0
 11
16.0625709497
 21
-107.4358763466
 31
0.0
  0
LINE
  5
292
330
1F
100
AcDbEntity
  8
0
  6
Continuous
 62
     7
370
    25
100
AcDbLine
 10
-34.613826817
 20
-112.4358763466
 30
0.0
 11
-12.3891055274
 21
-112.4358763466
 31
0.0
  0
LINE
  5
293
330
1F
100
AcDbEntity
  8
0
  6
Continuous
 62
     7
370
    25
100
AcDbLine
 10
-6.1257056284
 20
-112.4358763466
 30
0.0
 11
15.8674131998
 21
-112.4358763466
 31
0.0
  0
LINE
  5
294
330
1F
100
AcDbEntity
  8
0
  6
Continuous
 62
     7
370
    25
100
AcDbLine
 10
20.7682638669
 20
-13.5641236534
 30
0.0
 11
20.7682638669
 21
-12.3280755899
 31
0.0
  0
LINE
  5
295
330
1F
100
AcDbEntity
  8
0
  6
Continuous
 62
     7
370
    25
100
AcDbLine
 10
-41.4257766265
 20
-13.5641236534
 30
0.0
 11
-22.06774763
 21
-13.5641236534
 31
0.0
  0
LINE
  5
296
330
1F
100
AcDbEntity
  8
0
  6
Continuous
 62
     7
370
    25
100
AcDbLine
 10
-3.0022343578
 20
-13.5641236534
 30
0.0
 11
20.7682638669
 21
-13.5641236534
 31
0.0
  0
LINE
  5
297
330
1F
100
AcDbEntity
  8
0
  6
Continuous
 62
     7
370
    25
100
AcDbLine
 10
-127.6948707546
 20
-31.5
 30
0.0
 11
-127.6948707546
 21
-28.5
 31
0.0
  0
LINE
  5
298
330
1F
100
AcDbEntity
  8
0
  6
Continuous
 62
     7
370
    25
100
AcDbLine
 10
-132.6948707546
 20
-31.5
 30
0.0
 11
-132.6948707546
 21
-28.5
 31
0.0
  0
LINE
  5
299
330
1F
100
AcDbEntity
  8
0
  6
Continuous
 62
     7
370
    25
100
AcDbLine
 10
199.2535978825
 20
-28.5
 30
0.0
 11
199.2535978825
 21
-31.5
 31
0.0
  0
LINE
  5
29A
330
1F
100
AcDbEntity
  8
0
  6
Continuous
 62
     7
370
    25
100
AcDbLine
 10
199.2535978825
 20
-98.5
 30
0.0
 11
199.2535978825
 21
-101.5
 31
0.0
  0
LINE
  5
29B
330
1F
100
AcDbEntity
  8
0
  6
Continuous
 62
     7
370
    25
100
AcDbLine
 10
-199.2535978825
 20
-28.5
 30
0.0
 11
-199.2535978825
 21
-31.5
 31
0.0
  0
LINE
  5
29C
330
1F
100
AcDbEntity
  8
0
  6
Continuous
 62
     7
370
    25
100
AcDbLine
 10
-199.2535978825
 20
-98.5
 30
0.0
 11
-199.2535978825
 21
-101.5
 31
0.0
  0
LINE
  5
29D
330
1F
100
AcDbEntity
  8
0
  6
Continuous
 62
     7
370
    25
100
AcDbLine
 10
5.6673924509
 20
-101.9297754956
 30
0.0
 11
-2.3775522144
 21
-101.9297754956
 31
0.0
  0
LINE
  5
29E
330
1F
100
AcDbEntity
  8
0
  6
Continuous
 62
     7
370
    25
100
AcDbLine
 10
-19.9847294989
 20
-101.9297754956
 30
0.0
 11
-49.459841469
 21
-101.9297754956
 31
0.0
  0
LINE
  5
29F
330
1F
100
AcDbEntity
  8
0
  6
Continuous
 62
     7
370
    25
100
AcDbLine
 10
5.6673924509
 20
-97.9297754956
 30
0.0
 11
-1.8408786767
 21
-97.9297754956
 31
0.0
  0
LINE
  5
2A0
330
1F
100
AcDbEntity
  8
0
  6
Continuous
 62
     7
370
    25
100
AcDbLine
 10
-20.5876619586
 20
-97.9297754956
 30
0.0
 11
-40.2191028936
 21
-97.9297754956
 31
0.0
  0
LINE
  5
2A1
330
1F
100
AcDbEntity
  8
0
  6
Continuous
 62
     7
370
    25
100
AcDbLine
 10
-41.3609775601
 20
-97.9297754956
 30
0.0
 11
-45.8485082008
 21
-97.9297754956
 31
0.0
  0
LINE
  5
2A2
330
1F
100
AcDbEntity
  8
0
  6
Continuous
 62
     7
370
    25
100
AcDbLine
 10
-48.5166003935
 20
-91.9297754956
 30
0.0
 11
-57.59153296
 21
-91.9297754956
 31
0.0
  0
LINE
  5
2A3
330
1F
100
AcDbEntity
  8
0
  6
Continuous
 62
     7
370
    25
100
AcDbLine
 10
-51.7649525131
 20
-87.9297754956
 30
0.0
 11
-59.9324241307
 21
-87.9297754956
 31
0.0
  0
LINE
  5
2A4
330
1F
100
AcDbEntity
  8
0
  6
Continuous
 62
     7
370
    25
100
AcDbLine
 10
4.3607632089
 20
-81.9297754956
 30
0.0
 11
-26.0450376641
 21
-81.9297754956
 31
0.0
  0
LINE
  5
2A5
330
1F
100
AcDbEntity
  8
0
  6
Continuous
 62
     7
370
    25
100
AcDbLine
 10
-46.6737198398
 20
-81.9297754956
 30
0.0
 11
-62.693706387
 21
-81.9297754956
 31
0.0
  0
LINE
  5
2A6
330
1F
100
AcDbEntity
  8
0
  6
Continuous
 62
     7
370
    25
100
AcDbLine
 10
5.6673924509
 20
-77.9297754956
 30
0.0
 11
-30.4035549615
 21
-77.9297754956
 31
0.0
  0
LINE
  5
2A7
330
1F
100
AcDbEntity
  8
0
  6
Continuous
 62
     7
370
    25
100
AcDbLine
 10
-45.0158242502
 20
-77.9297754956
 30
0.0
 11
-64.0934330022
 21
-77.9297754956
 31
0.0
  0
LINE
  5
2A8
330
1F
100
AcDbEntity
  8
0
  6
Continuous
 62
     7
370
    25
100
AcDbLine
 10
5.6673924509
 20
-71.9297754956
 30
0.0
 11
-35.9000761287
 21
-71.9297754956
 31
0.0
  0
LINE
  5
2A9
330
1F
100
AcDbEntity
  8
0
  6
Continuous
 62
     7
370
    25
100
AcDbLine
 10
-44.3056166826
 20
-71.9297754956
 30
0.0
 11
-65.5972619251
 21
-71.9297754956
 31
0.0
  0
LINE
  5
2AA
330
1F
100
AcDbEntity
  8
0
  6
Continuous
 62
     7
370
    25
100
AcDbLine
 10
-57.4032741235
 20
-67.9297754956
 30
0.0
 11
-66.2271587656
 21
-67.9297754956
 31
0.0
  0
LINE
  5
2AB
330
1F
100
AcDbEntity
  8
0
  6
Continuous
 62
     7
370
    25
100
AcDbLine
 10
5.6673924509
 20
-61.9297754956
 30
0.0
 11
4.9212201645
 21
-61.9297754956
 31
0.0
  0
LINE
  5
2AC
330
1F
100
AcDbEntity
  8
0
  6
Continuous
 62
     7
370
    25
100
AcDbLine
 10
-28.8912505872
 20
-61.9297754956
 30
0.0
 11
-33.6143201612
 21
-61.9297754956
 31
0.0
  0
LINE
  5
2AD
330
1F
100
AcDbEntity
  8
0
  6
Continuous
 62
     7
370
    25
100
AcDbLine
 10
-38.3540823874
 20
-61.9297754956
 30
0.0
 11
-38.9003330628
 21
-61.9297754956
 31
0.0
  0
LINE
  5
2AE
330
1F
100
AcDbEntity
  8
0
  6
Continuous
 62
     7
370
    25
100
AcDbLine
 10
-62.0083421608
 20
-61.9297754956
 30
0.0
 11
-66.6376204719
 21
-61.9297754956
 31
0.0
  0
LINE
  5
2AF
330
1F
100
AcDbEntity
  8
0
  6
Continuous
 62
     7
370
    25
100
AcDbLine
 10
5.6673924509
 20
-57.9297754956
 30
0.0
 11
-2.8689029474
 21
-57.9297754956
 31
0.0
  0
LINE
  5
2B0
330
1F
100
AcDbEntity
  8
0
  6
Continuous
 62
     7
370
    25
100
AcDbLine
 10
-21.1011274753
 20
-57.9297754956
 30
0.0
 11
-33.4301025709
 21
-57.9297754956
 31
0.0
  0
LINE
  5
2B1
330
1F
100
AcDbEntity
  8
0
  6
Continuous
 62
     7
370
    25
100
AcDbLine
 10
-34.9734183067
 20
-57.9297754956
 30
0.0
 11
-41.0335114349
 21
-57.9297754956
 31
0.0
  0
LINE
  5
2B2
330
1F
100
AcDbEntity
  8
0
  6
Continuous
 62
     7
370
    25
100
AcDbLine
 10
2.34339006
 20
-51.9297754956
 30
0.0
 11
-4.8745676825
 21
-51.9297754956
 31
0.0
  0
LINE
  5
2B3
330
1F
100
AcDbEntity
  8
0
  6
Continuous
 62
     7
370
    25
100
AcDbLine
 10
-19.0954627401
 20
-51.9297754956
 30
0.0
 11
-26.3134204827
 21
-51.9297754956
 31
0.0
  0
LINE
  5
2B4
330
1F
100
AcDbEntity
  8
0
  6
Continuous
 62
     7
370
    25
100
AcDbLine
 10
-37.0876589398
 20
-51.9297754956
 30
0.0
 11
-44.3056166826
 21
-51.9297754956
 31
0.0
  0
LINE
  5
2B5
330
1F
100
AcDbEntity
  8
0
  6
Continuous
 62
     7
370
    25
100
AcDbLine
 10
-62.0083421608
 20
-51.9297754956
 30
0.0
 11
-65.9177182191
 21
-51.9297754956
 31
0.0
  0
LINE
  5
2B6
330
1F
100
AcDbEntity
  8
0
  6
Continuous
 62
     7
370
    25
100
AcDbLine
 10
3.4839962212
 20
-47.9297754956
 30
0.0
 11
-1.7426328567
 21
-47.9297754956
 31
0.0
  0
LINE
  5
2B7
330
1F
100
AcDbEntity
  8
0
  6
Continuous
 62
     7
370
    25
100
AcDbLine
 10
-22.227397566
 20
-47.9297754956
 30
0.0
 11
-27.4540266435
 21
-47.9297754956
 31
0.0
  0
LINE
  5
2B8
330
1F
100
AcDbEntity
  8
0
  6
Continuous
 62
     7
370
    25
100
AcDbLine
 10
-35.9470527789
 20
-47.9297754956
 30
0.0
 11
-37.1259646268
 21
-47.9297754956
 31
0.0
  0
LINE
  5
2B9
330
1F
100
AcDbEntity
  8
0
  6
Continuous
 62
     7
370
    25
100
AcDbLine
 10
-51.1790663306
 20
-47.9297754956
 30
0.0
 11
-65.1272133913
 21
-47.9297754956
 31
0.0
  0
LINE
  5
2BA
330
1F
100
AcDbEntity
  8
0
  6
Continuous
 62
     7
370
    25
100
AcDbLine
 10
5.6673924509
 20
-41.9297754956
 30
0.0
 11
4.9640507091
 21
-41.9297754956
 31
0.0
  0
LINE
  5
2BB
330
1F
100
AcDbEntity
  8
0
  6
Continuous
 62
     7
370
    25
100
AcDbLine
 10
2.3371940393
 20
-41.9297754956
 30
0.0
 11
-0.7222389748
 21
-41.9297754956
 31
0.0
  0
LINE
  5
2BC
330
1F
100
AcDbEntity
  8
0
  6
Continuous
 62
     7
370
    25
100
AcDbLine
 10
-23.2477914479
 20
-41.9297754956
 30
0.0
 11
-26.307224462
 21
-41.9297754956
 31
0.0
  0
LINE
  5
2BD
330
1F
100
AcDbEntity
  8
0
  6
Continuous
 62
     7
370
    25
100
AcDbLine
 10
-28.9340811318
 20
-41.9297754956
 30
0.0
 11
-35.1703250204
 21
-41.9297754956
 31
0.0
  0
LINE
  5
2BE
330
1F
100
AcDbEntity
  8
0
  6
Continuous
 62
     7
370
    25
100
AcDbLine
 10
-38.3675679878
 20
-41.9297754956
 30
0.0
 11
-40.1532879749
 21
-41.9297754956
 31
0.0
  0
LINE
  5
2BF
330
1F
100
AcDbEntity
  8
0
  6
Continuous
 62
     7
370
    25
100
AcDbLine
 10
-48.7265356075
 20
-41.9297754956
 30
0.0
 11
-63.3671922986
 21
-41.9297754956
 31
0.0
  0
LINE
  5
2C0
330
1F
100
AcDbEntity
  8
0
  6
Continuous
 62
     7
370
    25
100
AcDbLine
 10
-48.2847810846
 20
-37.9297754956
 30
0.0
 11
-61.7810110793
 21
-37.9297754956
 31
0.0
  0
LINE
  5
2C1
330
1F
100
AcDbEntity
  8
0
  6
Continuous
 62
     7
370
    25
100
AcDbLine
 10
-51.3360714773
 20
-31.9297754956
 30
0.0
 11
-58.7029054449
 21
-31.9297754956
 31
0.0
  0
LINE
  5
2C2
330
1F
100
AcDbEntity
  8
0
  6
Continuous
 62
     7
370
    25
100
AcDbLine
 10
-53.6595177876
 20
-27.9297754956
 30
0.0
 11
-56.1134105622
 21
-27.9297754956
 31
0.0
  0
LINE
  5
2C3
330
1F
100
AcDbEntity
  8
0
  6
Continuous
 62
     7
370
    25
100
AcDbLine
 10
-127.6948707546
 20
-101.5
 30
0.0
 11
-127.6948707546
 21
-98.5
 31
0.0
  0
LINE
  5
2C4
330
1F
100
AcDbEntity
  8
0
  6
Continuous
 62
     7
370
    25
100
AcDbLine
 10
-132.6948707546
 20
-101.5
 30
0.0
 11
-132.6948707546
 21
-98.5
 31
0.0
  0
LINE
  5
2C5
330
1F
100
AcDbEntity
  8
0
  6
Continuous
 62
     7
370
    25
100
AcDbLine
 10
185.243737165
 20
-98.5
 30
0.0
 11
174.2535978825
 21
-98.5
 31
0.0
  0
LINE
  5
2C6
330
1F
100
AcDbEntity
  8
0
  6
Continuous
 62
     7
370
    25
100
AcDbLine
 10
174.2535978825
 20
-101.5
 30
0.0
 11
185.8056117113
 21
-101.5
 31
0.0
  0
LINE
  5
2C7
330
1F
100
AcDbEntity
  8
0
  6
Continuous
 62
     7
370
    25
100
AcDbLine
 10
-185.8056117113
 20
-101.5
 30
0.0
 11
-174.2535978825
 21
-101.5
 31
0.0
  0
LINE
  5
2C8
330
1F
100
AcDbEntity
  8
0
  6
Continuous
 62
     7
370
    25
100
AcDbLine
 10
-174.2535978825
 20
-98.5
 30
0.0
 11
-185.243737165
 21
-98.5
 31
0.0
  0
LINE
  5
2C9
330
1F
100
AcDbEntity
  8
0
  6
Continuous
 62
     7
370
    25
100
AcDbLine
 10
-32.3459093647
 20
-8.5641236534
 30
0.0
 11
-21.0387655878
 21
-8.5641236534
 31
0.0
  0
LINE
  5
2CA
330
1F
100
AcDbEntity
  8
0
  6
Continuous
 62
     7
370
    25
100
AcDbLine
 10
-3.0022343578
 20
-8.5641236534
 30
0.0
 11
13.5994957475
 21
-8.5641236534
 31
0.0
  0
ARC
  5
2CB
330
1F
100
AcDbEntity
  8
0
  6
Continuous
 62
     7
370
    25
100
AcDbCircle
 10
-20.0332330064
 20
-55.5028344569
 30
0.0
 40
2.585837132820722
100
AcDbArc
 50
117.8771683488
 51
135.0128813993
  0
ARC
  5
2CC
330
1F
100
AcDbEntity
  8
0
  6
Continuous
 62
     7
370
    25
100
AcDbCircle
 10
-20.4809873435
 20
-46.0227870288
 30
0.0
 40
2.585837132821008
100
AcDbArc
 50
162.8771683488
 51
252.8771683488
  0
ARC
  5
2CD
330
1F
100
AcDbEntity
  8
0
  6
Continuous
 62
     7
370
    25
100
AcDbCircle
 10
-27.5010032941
 20
-39.6359913345
 30
0.0
 40
2.585837132820576
100
AcDbArc
 50
270.0
 51
297.8771683488
  0
ARC
  5
2CE
330
1F
100
AcDbEntity
  8
0
  6
Continuous
 62
     7
370
    25
100
AcDbCircle
 10
-31.7005397112
 20
-51.3032980391
 30
0.0
 40
5.423423972545096
100
AcDbArc
 50
352.6584069788
 51
61.6709065603
  0
ARC
  5
2CF
330
1F
100
AcDbEntity
  8
0
  6
Continuous
 62
     7
370
    25
100
AcDbCircle
 10
7.7305092887
 20
-51.3032980395
 30
0.0
 40
5.423423972642908
100
AcDbArc
 50
208.3290934397
 51
283.0297948415
  0
ARC
  5
2D0
330
1F
100
AcDbEntity
  8
0
  6
Continuous
 62
     7
370
    25
100
AcDbCircle
 10
-3.9367974163
 20
-55.5028344569
 30
0.0
 40
2.585837132804931
100
AcDbArc
 50
332.122831651
 51
0.0000000002
  0
ARC
  5
2D1
330
1F
100
AcDbEntity
  8
0
  6
Continuous
 62
     7
370
    25
100
AcDbCircle
 10
2.4499982779
 20
-62.5228504074
 30
0.0
 40
2.58583713282097
100
AcDbArc
 50
17.1228316512
 51
107.1228316512
  0
ARC
  5
2D2
330
1F
100
AcDbEntity
  8
0
  6
Continuous
 62
     7
370
    25
100
AcDbCircle
 10
11.9300457061
 20
-62.9706047446
 30
0.0
 40
2.585837132884142
100
AcDbArc
 50
122.5230701095
 51
152.1228316509
  0
ARC
  5
2D3
330
1F
100
AcDbEntity
  8
0
  6
Continuous
 62
     7
370
    25
100
AcDbCircle
 10
-35.9000761287
 20
-62.9706047446
 30
0.0
 40
2.585837132821198
100
AcDbArc
 50
27.8771683488
 51
57.4769298909
  0
ARC
  5
2D4
330
1F
100
AcDbEntity
  8
0
  6
Continuous
 62
     7
370
    25
100
AcDbCircle
 10
-26.4200287006
 20
-62.5228504074
 30
0.0
 40
2.585837132820956
100
AcDbArc
 50
72.8771683488
 51
162.8771683488
  0
ARC
  5
2D5
330
1F
100
AcDbEntity
  8
0
  6
Continuous
 62
     7
370
    25
100
AcDbCircle
 10
-20.0332330064
 20
-55.5028344569
 30
0.0
 40
2.58583713282076
100
AcDbArc
 50
180.0
 51
207.8771683488
  0
ARC
  5
2D6
330
1F
100
AcDbEntity
  8
0
  6
Continuous
 62
     7
370
    25
100
AcDbCircle
 10
-31.7005397112
 20
-51.3032980391
 30
0.0
 40
5.4234239725453
100
AcDbArc
 50
256.9702051586
 51
331.6709065556
  0
ARC
  5
2D7
330
1F
100
AcDbEntity
  8
0
  6
Continuous
 62
     7
370
    25
100
AcDbCircle
 10
-9.3732068086
 20
-61.0263405731
 30
0.0
 40
57.27153976325994
100
AcDbArc
 50
139.803328287
 51
175.0425754199
  0
ARC
  5
2D8
330
1F
100
AcDbEntity
  8
0
  6
Continuous
 62
     7
370
    25
100
AcDbCircle
 10
-67.2492650466
 20
-37.859757237
 30
0.0
 40
18.96461321773323
100
AcDbArc
 50
322.5577268368
 51
4.1508262174
  0
ARC
  5
2D9
330
1F
100
AcDbEntity
  8
0
  6
Continuous
 62
     7
370
    25
100
AcDbCircle
 10
7.7305092887
 20
-51.3032980395
 30
0.0
 40
5.423423972642899
100
AcDbArc
 50
118.3290934395
 51
187.3415930168
  0
ARC
  5
2DA
330
1F
100
AcDbEntity
  8
0
  6
Continuous
 62
     7
370
    25
100
AcDbCircle
 10
3.5309728714
 20
-39.6359913345
 30
0.0
 40
2.585837132910981
100
AcDbArc
 50
242.1228316519
 51
269.9999999997
  0
ARC
  5
2DB
330
1F
100
AcDbEntity
  8
0
  6
Continuous
 62
     7
370
    25
100
AcDbCircle
 10
-3.4890430791
 20
-46.0227870288
 30
0.0
 40
2.585837132821003
100
AcDbArc
 50
287.1228316512
 51
17.1228316512
  0
ARC
  5
2DC
330
1F
100
AcDbEntity
  8
0
  6
Continuous
 62
     7
370
    25
100
AcDbCircle
 10
-3.9367974164
 20
-55.5028344571
 30
0.0
 40
2.585837133030882
100
AcDbArc
 50
44.9871186017
 51
62.1228316508
  0
ARC
  5
2DD
330
1F
100
AcDbEntity
  8
0
  6
Continuous
 62
     7
370
    25
100
AcDbCircle
 10
19.3978159939
 20
-47.1037616223
 30
0.0
 40
2.585837133005144
100
AcDbArc
 50
152.1228316519
 51
167.1665725968
  0
ARC
  5
2DE
330
1F
100
AcDbEntity
  8
0
  6
Continuous
 62
     7
370
    25
100
AcDbCircle
 10
13.0110202995
 20
-40.0837456717
 30
0.0
 40
2.585837132821313
100
AcDbArc
 50
197.1228316512
 51
287.1228316512
  0
ARC
  5
2DF
330
1F
100
AcDbEntity
  8
0
  6
Continuous
 62
     7
370
    25
100
AcDbCircle
 10
3.5309728714
 20
-39.6359913346
 30
0.0
 40
2.58583713275792
100
AcDbArc
 50
302.5230701086
 51
332.1228316514
  0
ARC
  5
2E0
330
1F
100
AcDbEntity
  8
0
  6
Continuous
 62
     7
370
    25
100
AcDbCircle
 10
7.7305092887
 20
-51.3032980395
 30
0.0
 40
5.423423972642885
100
AcDbArc
 50
33.9090508131
 51
103.0297948416
  0
ARC
  5
2E1
330
1F
100
AcDbEntity
  8
0
  6
Continuous
 62
     7
370
    25
100
AcDbCircle
 10
11.930045706
 20
-62.9706047445
 30
0.0
 40
2.58583713273088
100
AcDbArc
 50
62.1228316505
 51
90.0000000003
  0
ARC
  5
2E2
330
1F
100
AcDbEntity
  8
0
  6
Continuous
 62
     7
370
    25
100
AcDbCircle
 10
18.9500616565
 20
-56.5838090503
 30
0.0
 40
2.585837132821289
100
AcDbArc
 50
107.1228316512
 51
197.1228316512
  0
ARC
  5
2E3
330
1F
100
AcDbEntity
  8
0
  6
Continuous
 62
     7
370
    25
100
AcDbCircle
 10
19.3978159936
 20
-47.1037616223
 30
0.0
 40
2.585837132715511
100
AcDbArc
 50
212.5230701082
 51
242.1228316515
  0
ARC
  5
2E4
330
1F
100
AcDbEntity
  8
0
  6
Continuous
 62
     7
370
    25
100
AcDbCircle
 10
7.7305092887
 20
-51.3032980395
 30
0.0
 40
5.423423972642909
100
AcDbArc
 50
298.3290934395
 51
13.0297948413
  0
ARC
  5
2E5
330
1F
100
AcDbEntity
  8
0
  6
Continuous
 62
     7
370
    25
100
AcDbCircle
 10
-9.3732068086
 20
-61.0263405731
 30
0.0
 40
57.27153976326021
100
AcDbArc
 50
97.6273649019
 51
134.3618171318
  0
ARC
  5
2E6
330
1F
100
AcDbEntity
  8
0
  6
Continuous
 62
     7
370
    25
100
AcDbCircle
 10
-31.738371343
 20
-13.495351659
 30
0.0
 40
9.522463588580079
100
AcDbArc
 50
253.3542765271
 51
343.3542765271
  0
ARC
  5
2E7
330
1F
100
AcDbEntity
  8
0
  6
Continuous
 62
     7
370
    25
100
AcDbCircle
 10
-42.9200920792
 20
-56.5838090503
 30
0.0
 40
2.585837132820986
100
AcDbArc
 50
342.8771683488
 51
72.8771683488
  0
ARC
  5
2E8
330
1F
100
AcDbEntity
  8
0
  6
Continuous
 62
     7
370
    25
100
AcDbCircle
 10
-35.9000761287
 20
-62.9706047446
 30
0.0
 40
2.585837132821062
100
AcDbArc
 50
90.0
 51
117.8771683488
  0
ARC
  5
2E9
330
1F
100
AcDbEntity
  8
0
  6
Continuous
 62
     7
370
    25
100
AcDbCircle
 10
-31.7005397112
 20
-51.3032980391
 30
0.0
 40
5.423423972546419
100
AcDbArc
 50
166.9702051634
 51
241.6709065604
  0
ARC
  5
2EA
330
1F
100
AcDbEntity
  8
0
  6
Continuous
 62
     7
370
    25
100
AcDbCircle
 10
-43.3678464164
 20
-47.1037616222
 30
0.0
 40
2.585837132821093
100
AcDbArc
 50
297.8771683488
 51
327.4769298909
  0
ARC
  5
2EB
330
1F
100
AcDbEntity
  8
0
  6
Continuous
 62
     7
370
    25
100
AcDbCircle
 10
-10.8421372276
 20
-60.9896652358
 30
0.0
 40
25.87694725763711
100
AcDbArc
 50
208.3554485662
 51
331.6445514339
  0
ARC
  5
2EC
330
1F
100
AcDbEntity
  8
0
  6
Continuous
 62
     7
370
    25
100
AcDbCircle
 10
-27.5010032941
 20
-39.6359913345
 30
0.0
 40
2.585837132820767
100
AcDbArc
 50
207.8771683488
 51
237.4769298909
  0
ARC
  5
2ED
330
1F
100
AcDbEntity
  8
0
  6
Continuous
 62
     7
370
    25
100
AcDbCircle
 10
-36.9810507221
 20
-40.0837456717
 30
0.0
 40
2.585837132821297
100
AcDbArc
 50
252.8771683488
 51
342.8771683488
  0
ARC
  5
2EE
330
1F
100
AcDbEntity
  8
0
  6
Continuous
 62
     7
370
    25
100
AcDbCircle
 10
-43.3678464164
 20
-47.1037616222
 30
0.0
 40
2.585837132820903
100
AcDbArc
 50
12.8334274028
 51
27.8771683488
  0
ARC
  5
2EF
330
1F
100
AcDbEntity
  8
0
  6
Continuous
 62
     7
370
    25
100
AcDbCircle
 10
-31.7005397112
 20
-51.3032980391
 30
0.0
 40
5.423423972545327
100
AcDbArc
 50
76.9702051586
 51
146.0909491913
  0
ARC
  5
2F0
330
1F
100
AcDbEntity
  8
0
  6
Continuous
 62
     7
370
    25
100
AcDbCircle
 10
-30.4972191004
 20
-109.0702147797
 30
0.0
 40
15.86363382987961
100
AcDbArc
 50
52.321720012
 51
96.7628676116
  0
ARC
  5
2F1
330
1F
100
AcDbEntity
  8
0
  6
Continuous
 62
     7
370
    25
100
AcDbCircle
 10
-9.3732068086
 20
-61.0263405731
 30
0.0
 40
57.2715397632596
100
AcDbArc
 50
224.6692494634
 51
266.9814286249
  0
ARC
  5
2F2
330
1F
100
AcDbEntity
  8
0
  6
Continuous
 62
     7
370
    25
100
AcDbCircle
 10
-9.3732068086
 20
-61.0263405731
 30
0.0
 40
57.27153976326007
100
AcDbArc
 50
180.0
 51
218.2908446879
  0
ARC
  5
2F3
330
1F
100
AcDbEntity
  8
0
  6
Continuous
 62
     7
370
    25
100
AcDbCircle
 10
-9.3732068086
 20
-61.0263405731
 30
0.0
 40
57.27153976326014
100
AcDbArc
 50
319.7381444594
 51
359.7878189464
  0
ARC
  5
2F4
330
1F
100
AcDbEntity
  8
0
  6
Continuous
 62
     7
370
    25
100
AcDbCircle
 10
10.4500075863
 20
-109.4215426371
 30
0.0
 40
17.69231196030326
100
AcDbArc
 50
92.6101848175
 51
133.1548278028
  0
ARC
  5
2F5
330
1F
100
AcDbEntity
  8
0
  6
Continuous
 62
     7
370
    25
100
AcDbCircle
 10
5.3777988275
 20
-11.7006621437
 30
0.0
 40
9.522463588583577
100
AcDbArc
 50
208.3542765271
 51
298.3542765271
  0
ARC
  5
2F6
330
1F
100
AcDbEntity
  8
0
  6
Continuous
 62
     7
370
    25
100
AcDbCircle
 10
-9.3732068086
 20
-61.0263405731
 30
0.0
 40
57.27153976326016
100
AcDbArc
 50
52.8668388112
 51
91.6416165735
  0
ARC
  5
2F7
330
1F
100
AcDbEntity
  8
0
  6
Continuous
 62
     7
370
    25
100
AcDbCircle
 10
32.891931573
 20
-36.6767206366
 30
0.0
 40
9.522463588582466
100
AcDbArc
 50
163.3542765271
 51
253.3542765271
  0
ARC
  5
2F8
330
1F
100
AcDbEntity
  8
0
  6
Continuous
 62
     7
370
    25
100
AcDbCircle
 10
-9.3732068086
 20
-61.0263405731
 30
0.0
 40
57.2715397632603
100
AcDbArc
 50
6.9335902418
 51
47.6890825716
  0
ARC
  5
2F9
330
1F
100
AcDbEntity
  8
0
  6
Continuous
 62
     7
370
    25
100
AcDbCircle
 10
-122.1954979735
 20
-100.0
 30
0.0
 40
1.500000000000014
100
AcDbArc
 50
270.0
 51
90.0
  0
ARC
  5
2FA
330
1F
100
AcDbEntity
  8
0
  6
Continuous
 62
     7
370
    25
100
AcDbCircle
 10
-142.1954979735
 20
-100.0
 30
0.0
 40
1.500000000000014
100
AcDbArc
 50
90.0
 51
270.0
  0
ARC
  5
2FB
330
1F
100
AcDbEntity
  8
0
  6
Continuous
 62
     7
370
    25
100
AcDbCircle
 10
-122.1954979735
 20
-30.0
 30
0.0
 40
1.500000000000007
100
AcDbArc
 50
270.0
 51
90.0
  0
ARC
  5
2FC
330
1F
100
AcDbEntity
  8
0
  6
Continuous
 62
     7
370
    25
100
AcDbCircle
 10
-142.1954979735
 20
-30.0
 30
0.0
 40
1.500000000000007
100
AcDbArc
 50
90.0
 51
270.0
  0
ARC
  5
2FD
330
1F
100
AcDbEntity
  8
0
  6
Continuous
 62
     7
370
    25
100
AcDbCircle
 10
122.1954979735
 20
-30.0
 30
0.0
 40
1.500000000000007
100
AcDbArc
 50
90.0
 51
270.0
  0
ARC
  5
2FE
330
1F
100
AcDbEntity
  8
0
  6
Continuous
 62
     7
370
    25
100
AcDbCircle
 10
142.1954979735
 20
-30.0
 30
0.0
 40
1.500000000000007
100
AcDbArc
 50
270.0
 51
90.0
  0
ARC
  5
2FF
330
1F
100
AcDbEntity
  8
0
  6
Continuous
 62
     7
370
    25
100
AcDbCircle
 10
122.1954979735
 20
-100.0
 30
0.0
 40
1.500000000000014
100
AcDbArc
 50
90.0
 51
270.0
  0
ARC
  5
300
330
1F
100
AcDbEntity
  8
0
  6
Continuous
 62
     7
370
    25
100
AcDbCircle
 10
142.1954979735
 20
-100.0
 30
0.0
 40
1.500000000000014
100
AcDbArc
 50
270.0
 51
90.0
  0
ARC
  5
301
330
1F
100
AcDbEntity
  8
0
  6
Continuous
 62
     7
370
    25
100
AcDbCircle
 10
-9.3732068086
 20
-61.0263405731
 30
0.0
 40
57.2715397632601
100
AcDbArc
 50
273.2506192006
 51
315.0208952959
  0
ARC
  5
302
330
1F
100
AcDbEntity
  8
0
  6
Continuous
 62
     7
370
    25
100
AcDbCircle
 10
-205.6188846076
 20
-100.0
 30
0.0
 40
7.034189247526331
100
AcDbArc
 50
347.6874617538
 51
12.3125382462
  0
ARC
  5
303
330
1F
100
AcDbEntity
  8
0
  6
Continuous
 62
     7
370
    25
100
AcDbCircle
 10
-193.6172086864
 20
-100.0
 30
0.0
 40
7.034189247528165
100
AcDbArc
 50
167.6874617538
 51
192.3125382462
  0
ARC
  5
304
330
1F
100
AcDbEntity
  8
0
  6
Continuous
 62
     7
370
    25
100
AcDbCircle
 10
-205.6188846076
 20
-30.0
 30
0.0
 40
7.034189247526287
100
AcDbArc
 50
347.6874617538
 51
12.3125382462
  0
ARC
  5
305
330
1F
100
AcDbEntity
  8
0
  6
Continuous
 62
     7
370
    25
100
AcDbCircle
 10
-193.6172086864
 20
-30.0
 30
0.0
 40
7.034189247528514
100
AcDbArc
 50
167.6874617538
 51
192.3125382462
  0
ARC
  5
306
330
1F
100
AcDbEntity
  8
0
  6
Continuous
 62
     7
370
    25
100
AcDbCircle
 10
-144.2943497554
 20
-30.0
 30
0.0
 40
7.034189247528194
100
AcDbArc
 50
167.6874617538
 51
192.3125382462
  0
ARC
  5
307
330
1F
100
AcDbEntity
  8
0
  6
Continuous
 62
     7
370
    25
100
AcDbCircle
 10
-156.2960256766
 20
-30.0
 30
0.0
 40
7.034189247529076
100
AcDbArc
 50
347.6874617538
 51
12.3125382462
  0
ARC
  5
308
330
1F
100
AcDbEntity
  8
0
  6
Continuous
 62
     7
370
    25
100
AcDbCircle
 10
-144.2943497554
 20
-100.0
 30
0.0
 40
7.034189247526306
100
AcDbArc
 50
167.6874617538
 51
192.3125382462
  0
ARC
  5
309
330
1F
100
AcDbEntity
  8
0
  6
Continuous
 62
     7
370
    25
100
AcDbCircle
 10
-156.2960256766
 20
-100.0
 30
0.0
 40
7.03418924752998
100
AcDbArc
 50
347.6874617538
 51
12.3125382462
  0
ARC
  5
30A
330
1F
100
AcDbEntity
  8
0
  6
Continuous
 62
     7
370
    25
100
AcDbCircle
 10
144.2943497554
 20
-100.0
 30
0.0
 40
7.034189247526312
100
AcDbArc
 50
347.6874617538
 51
12.3125382462
  0
ARC
  5
30B
330
1F
100
AcDbEntity
  8
0
  6
Continuous
 62
     7
370
    25
100
AcDbCircle
 10
156.2960256766
 20
-100.0
 30
0.0
 40
7.03418924752261
100
AcDbArc
 50
167.6874617538
 51
192.3125382462
  0
ARC
  5
30C
330
1F
100
AcDbEntity
  8
0
  6
Continuous
 62
     7
370
    25
100
AcDbCircle
 10
205.6188846076
 20
-30.0
 30
0.0
 40
7.034189247526276
100
AcDbArc
 50
167.6874617538
 51
192.3125382462
  0
ARC
  5
30D
330
1F
100
AcDbEntity
  8
0
  6
Continuous
 62
     7
370
    25
100
AcDbCircle
 10
193.6172086864
 20
-30.0
 30
0.0
 40
7.034189247528523
100
AcDbArc
 50
347.6874617538
 51
12.3125382462
  0
ARC
  5
30E
330
1F
100
AcDbEntity
  8
0
  6
Continuous
 62
     7
370
    25
100
AcDbCircle
 10
205.6188846076
 20
-100.0
 30
0.0
 40
7.034189247526332
100
AcDbArc
 50
167.6874617538
 51
192.3125382462
  0
ARC
  5
30F
330
1F
100
AcDbEntity
  8
0
  6
Continuous
 62
     7
370
    25
100
AcDbCircle
 10
193.6172086864
 20
-100.0
 30
0.0
 40
7.034189247528234
100
AcDbArc
 50
347.6874617538
 51
12.3125382462
  0
ARC
  5
310
330
1F
100
AcDbEntity
  8
0
  6
Continuous
 62
     7
370
    25
100
AcDbCircle
 10
144.2943497554
 20
-30.0
 30
0.0
 40
7.034189247528201
100
AcDbArc
 50
347.6874617538
 51
12.3125382462
  0
ARC
  5
311
330
1F
100
AcDbEntity
  8
0
  6
Continuous
 62
     7
370
    25
100
AcDbCircle
 10
156.2960256766
 20
-30.0
 30
0.0
 40
7.03418924752171
100
AcDbArc
 50
167.6874617538
 51
192.3125382462
  0
ARC
  5
312
330
1F
100
AcDbEntity
  8
0
  6
Continuous
 62
     7
370
    25
100
AcDbCircle
 10
143.2981550573
 20
-100.0
 30
0.0
 40
7.034189247526339
100
AcDbArc
 50
347.6874617538
 51
12.3125382462
  0
ARC
  5
313
330
1F
100
AcDbEntity
  8
0
  6
Continuous
 62
     7
370
    25
100
AcDbCircle
 10
-143.2981550573
 20
-100.0
 30
0.0
 40
7.034189247525401
100
AcDbArc
 50
167.6874617538
 51
192.3125382462
  0
ARC
  5
314
330
1F
100
AcDbEntity
  8
0
  6
Continuous
 62
     7
370
    25
100
AcDbCircle
 10
-143.2981550573
 20
-30.0
 30
0.0
 40
7.034189247528166
100
AcDbArc
 50
167.6874617538
 51
192.3125382462
  0
ARC
  5
315
330
1F
100
AcDbEntity
  8
0
  6
Continuous
 62
     7
370
    25
100
AcDbCircle
 10
143.2981550573
 20
-30.0
 30
0.0
 40
7.034189247527215
100
AcDbArc
 50
347.6874617538
 51
12.3125382462
  0
ARC
  5
316
330
1F
100
AcDbEntity
  8
0
  6
Continuous
 62
     7
370
    25
100
AcDbCircle
 10
-79.561850133
 20
-72.4391028643
 30
0.0
 40
74.51857393798186
100
AcDbArc
 50
179.1856504477
 51
186.4257233499
  0
ARC
  5
317
330
1F
100
AcDbEntity
  8
0
  6
Continuous
 62
     7
370
    25
100
AcDbCircle
 10
-79.5618501357
 20
-70.3208971356
 30
0.0
 40
74.51857393525094
100
AcDbArc
 50
173.5742766497
 51
180.8143495524
  0
ARC
  5
318
330
1F
100
AcDbEntity
  8
0
  6
Continuous
 62
     7
370
    25
100
AcDbCircle
 10
66.0085952911
 20
-71.38
 30
0.0
 40
88.10643747758228
100
AcDbArc
 50
353.8762549866
 51
6.1237450131
  0
ARC
  5
319
330
1F
100
AcDbEntity
  8
0
  6
Continuous
 62
     7
370
    25
100
AcDbCircle
 10
-121.2543266733
 20
-72.4391028645
 30
0.0
 40
74.51857393103894
100
AcDbArc
 50
179.1856504475
 51
186.4257233509
  0
ARC
  5
31A
330
1F
100
AcDbEntity
  8
0
  6
Continuous
 62
     7
370
    25
100
AcDbCircle
 10
-121.2543266734
 20
-70.3208971355
 30
0.0
 40
74.5185739310322
100
AcDbArc
 50
173.5742766491
 51
180.8143495525
  0
ARC
  5
31B
330
1F
100
AcDbEntity
  8
0
  6
Continuous
 62
     7
370
    25
100
AcDbCircle
 10
111.5335205752
 20
-71.3799999999
 30
0.0
 40
84.11359590487093
100
AcDbArc
 50
354.4014004636
 51
5.598599536
  0
ARC
  5
31C
330
1F
100
AcDbEntity
  8
0
  6
Continuous
 62
     7
370
    25
100
AcDbCircle
 10
-192.6210139883
 20
-100.0
 30
0.0
 40
7.034189247529097
100
AcDbArc
 50
167.6874617538
 51
192.3125382462
  0
ARC
  5
31D
330
1F
100
AcDbEntity
  8
0
  6
Continuous
 62
     7
370
    25
100
AcDbCircle
 10
-192.6210139883
 20
-30.0
 30
0.0
 40
7.034189247530027
100
AcDbArc
 50
167.6874617538
 51
192.3125382462
  0
ARC
  5
31E
330
1F
100
AcDbEntity
  8
0
  6
Continuous
 62
     7
370
    25
100
AcDbCircle
 10
192.6210139883
 20
-30.0
 30
0.0
 40
7.034189247527619
100
AcDbArc
 50
347.6874617538
 51
12.3125382462
  0
ARC
  5
31F
330
1F
100
AcDbEntity
  8
0
  6
Continuous
 62
     7
370
    25
100
AcDbCircle
 10
192.6210139883
 20
-100.0
 30
0.0
 40
7.034189247527244
100
AcDbArc
 50
347.6874617538
 51
12.3125382462
  0
ARC
  5
320
330
1F
100
AcDbEntity
  8
0
  6
Continuous
 62
     7
370
    25
100
AcDbCircle
 10
5.6673924509
 20
-99.9297754956
 30
0.0
 40
2.000000000000014
100
AcDbArc
 50
270.0
 51
90.0
  0
ARC
  5
321
330
1F
100
AcDbEntity
  8
0
  6
Continuous
 62
     7
370
    25
100
AcDbCircle
 10
5.6673924509
 20
-79.9297754956
 30
0.0
 40
2.000000000000398
100
AcDbArc
 50
21.1078411686
 51
90.0
  0
ARC
  5
322
330
1F
100
AcDbEntity
  8
0
  6
Continuous
 62
     7
370
    25
100
AcDbCircle
 10
5.6673924509
 20
-69.9297754956
 30
0.0
 40
2.000000000000008
100
AcDbArc
 50
270.0
 51
27.6306101712
  0
ARC
  5
323
330
1F
100
AcDbEntity
  8
0
  6
Continuous
 62
     7
370
    25
100
AcDbCircle
 10
5.6673924509
 20
-59.9297754956
 30
0.0
 40
1.999999999999993
100
AcDbArc
 50
270.0
 51
90.0
  0
ARC
  5
324
330
1F
100
AcDbEntity
  8
0
  6
Continuous
 62
     7
370
    25
100
AcDbCircle
 10
5.6673924509
 20
-39.9297754956
 30
0.0
 40
2.0
100
AcDbArc
 50
270.0
 51
38.0084157441
  0
ARC
  5
325
330
1F
100
AcDbEntity
  8
0
  6
Continuous
 62
     7
370
    25
100
AcDbCircle
 10
174.2535978825
 20
-100.0
 30
0.0
 40
1.5
100
AcDbArc
 50
90.0
 51
270.0
  0
ARC
  5
326
330
1F
100
AcDbEntity
  8
0
  6
Continuous
 62
     7
370
    25
100
AcDbCircle
 10
-174.2535978825
 20
-100.0
 30
0.0
 40
1.5
100
AcDbArc
 50
270.0
 51
90.0
  0
ENDSEC
  0
SECTION
  2
OBJECTS
  0
DICTIONARY
  5
C
330
0
100
AcDbDictionary
281
     1
  3
ACAD_GROUP
350
D
  3
ACAD_LAYOUT
350
1A
  3
ACAD_MLINESTYLE
350
17
  3
ACAD_PLOTSETTINGS
350
19
  3
ACAD_PLOTSTYLENAME
350
E
  3
ACAD_SCALELIST
350
47
  3
DWGPROPS
350
327
  0
DICTIONARY
  5
D
102
{ACAD_REACTORS
330
C
102
}
330
C
100
AcDbDictionary
281
     1
  0
DICTIONARY
  5
1A
102
{ACAD_REACTORS
330
C
102
}
330
C
100
AcDbDictionary
281
     1
  3
Layout1
350
1E
  3
Layout2
350
26
  3
Model
350
22
  0
DICTIONARY
  5
17
102
{ACAD_REACTORS
330
C
102
}
330
C
100
AcDbDictionary
281
     1
  3
Standard
350
18
  0
DICTIONARY
  5
19
102
{ACAD_REACTORS
330
C
102
}
330
C
100
AcDbDictionary
281
     1
  0
ACDBDICTIONARYWDFLT
  5
E
102
{ACAD_REACTORS
330
C
102
}
330
C
100
AcDbDictionary
281
     1
  3
Normal
350
F
100
AcDbDictionaryWithDefault
340
F
  0
DICTIONARY
  5
47
102
{ACAD_REACTORS
330
C
102
}
330
C
100
AcDbDictionary
281
     1
  3
A0
350
48
  3
A1
350
49
  3
A2
350
4A
  3
A3
350
4B
  3
A4
350
4C
  3
A5
350
4D
  3
A6
350
4E
  3
A7
350
4F
  3
A8
350
50
  3
A9
350
51
  3
B0
350
52
  3
B1
350
53
  3
B2
350
54
  3
B3
350
55
  3
B4
350
56
  3
B5
350
57
  3
B6
350
58
  0
XRECORD
  5
327
102
{ACAD_REACTORS
330
C
102
}
330
C
100
AcDbXrecord
280
     1
  1
DWGPROPS COOKIE
  2

  3

  4

  6

  7

  8
momos
  9

300
=
301
=
302
=
303
=
304
=
305
=
306
=
307
=
308
=
309
=
 40
0.0
 41
2460701.82943529
 42
2460701.829555984
  1

 90
        0
  0
LAYOUT
  5
1E
102
{ACAD_REACTORS
330
1A
102
}
330
1A
100
AcDbPlotSettings
  1

  2
none_device
  4

  6

 40
0.0
 41
0.0
 42
0.0
 43
0.0
 44
0.0
 45
0.0
 46
0.0
 47
0.0
 48
0.0
 49
0.0
140
0.0
141
0.0
142
1.0
143
1.0
 70
   688
 72
     1
 73
     0
 74
     5
  7

 75
    16
147
1.0
148
0.0
149
0.0
100
AcDbLayout
  1
Layout1
 70
     1
 71
     1
 10
0.0
 20
0.0
 11
420.0
 21
297.0
 12
0.0
 22
0.0
 32
0.0
 14
1.0000000000E+20
 24
1.0000000000E+20
 34
1.0000000000E+20
 15
-1.0000000000E+20
 25
-1.0000000000E+20
 35
-1.0000000000E+20
146
0.0
 13
0.0
 23
0.0
 33
0.0
 16
1.0
 26
0.0
 36
0.0
 17
0.0
 27
1.0
 37
0.0
 76
     0
330
1B
  0
LAYOUT
  5
26
102
{ACAD_REACTORS
330
1A
102
}
330
1A
100
AcDbPlotSettings
  1

  2
none_device
  4

  6

 40
0.0
 41
0.0
 42
0.0
 43
0.0
 44
0.0
 45
0.0
 46
0.0
 47
0.0
 48
0.0
 49
0.0
140
0.0
141
0.0
142
1.0
143
1.0
 70
   688
 72
     1
 73
     0
 74
     5
  7

 75
    16
147
1.0
148
0.0
149
0.0
100
AcDbLayout
  1
Layout2
 70
     1
 71
     2
 10
0.0
 20
0.0
 11
0.0
 21
0.0
 12
0.0
 22
0.0
 32
0.0
 14
0.0
 24
0.0
 34
0.0
 15
0.0
 25
0.0
 35
0.0
146
0.0
 13
0.0
 23
0.0
 33
0.0
 16
1.0
 26
0.0
 36
0.0
 17
0.0
 27
1.0
 37
0.0
 76
     0
330
23
  0
LAYOUT
  5
22
102
{ACAD_REACTORS
330
1A
102
}
330
1A
100
AcDbPlotSettings
  1

  2
none_device
  4
ANSI_A_(11.00_x_8.50_Inches)
  6

 40
6.35
 41
19.05
 42
6.35000508
 43
19.05000254
 44
279.4
 45
215.9
 46
133.34999746
 47
130.1670251119
 48
0.0
 49
0.0
140
0.0
141
0.0
142
0.0270781013
143
1.0
 70
  1696
 72
     0
 73
     0
 74
     0
  7

 75
     0
147
0.0179189148
148
-1300.4909072572
149
0.0
100
AcDbLayout
  1
Model
 70
     1
 71
     0
 10
0.0
 20
0.0
 11
420.0
 21
297.0
 12
0.0
 22
0.0
 32
0.0
 14
-201.085
 24
-120.0
 34
0.0
 15
201.085
 25
0.0
 35
0.0
146
0.0
 13
0.0
 23
0.0
 33
0.0
 16
1.0
 26
0.0
 36
0.0
 17
0.0
 27
1.0
 37
0.0
 76
     0
330
1F
331
29
  0
MLINESTYLE
  5
18
102
{ACAD_REACTORS
330
17
102
}
330
17
100
AcDbMlineStyle
  2
Standard
 70
     0
  3

 62
   256
 51
90.0
 52
90.0
 71
     2
 49
0.5
 62
   256
  6
BYLAYER
 49
-0.5
 62
   256
  6
BYLAYER
  0
ACDBPLACEHOLDER
  5
F
102
{ACAD_REACTORS
330
E
102
}
330
E
  0
SCALE
  5
48
102
{ACAD_REACTORS
330
47
102
}
330
47
100
AcDbScale
 70
     0
300
1:1
140
1.0
141
1.0
290
     1
  0
SCALE
  5
49
102
{ACAD_REACTORS
330
47
102
}
330
47
100
AcDbScale
 70
     0
300
1:2
140
1.0
141
2.0
290
     0
  0
SCALE
  5
4A
102
{ACAD_REACTORS
330
47
102
}
330
47
100
AcDbScale
 70
     0
300
1:4
140
1.0
141
4.0
290
     0
  0
SCALE
  5
4B
102
{ACAD_REACTORS
330
47
102
}
330
47
100
AcDbScale
 70
     0
300
1:5
140
1.0
141
5.0
290
     0
  0
SCALE
  5
4C
102
{ACAD_REACTORS
330
47
102
}
330
47
100
AcDbScale
 70
     0
300
1:8
140
1.0
141
8.0
290
     0
  0
SCALE
  5
4D
102
{ACAD_REACTORS
330
47
102
}
330
47
100
AcDbScale
 70
     0
300
1:10
140
1.0
141
10.0
290
     0
  0
SCALE
  5
4E
102
{ACAD_REACTORS
330
47
102
}
330
47
100
AcDbScale
 70
     0
300
1:16
140
1.0
141
16.0
290
     0
  0
SCALE
  5
4F
102
{ACAD_REACTORS
330
47
102
}
330
47
100
AcDbScale
 70
     0
300
1:20
140
1.0
141
20.0
290
     0
  0
SCALE
  5
50
102
{ACAD_REACTORS
330
47
102
}
330
47
100
AcDbScale
 70
     0
300
1:30
140
1.0
141
30.0
290
     0
  0
SCALE
  5
51
102
{ACAD_REACTORS
330
47
102
}
330
47
100
AcDbScale
 70
     0
300
1:40
140
1.0
141
40.0
290
     0
  0
SCALE
  5
52
102
{ACAD_REACTORS
330
47
102
}
330
47
100
AcDbScale
 70
     0
300
1:50
140
1.0
141
50.0
290
     0
  0
SCALE
  5
53
102
{ACAD_REACTORS
330
47
102
}
330
47
100
AcDbScale
 70
     0
300
1:100
140
1.0
141
100.0
290
     0
  0
SCALE
  5
54
102
{ACAD_REACTORS
330
47
102
}
330
47
100
AcDbScale
 70
     0
300
2:1
140
2.0
141
1.0
290
     0
  0
SCALE
  5
55
102
{ACAD_REACTORS
330
47
102
}
330
47
100
AcDbScale
 70
     0
300
4:1
140
4.0
141
1.0
290
     0
  0
SCALE
  5
56
102
{ACAD_REACTORS
330
47
102
}
330
47
100
AcDbScale
 70
     0
300
8:1
140
8.0
141
1.0
290
     0
  0
SCALE
  5
57
102
{ACAD_REACTORS
330
47
102
}
330
47
100
AcDbScale
 70
     0
300
10:1
140
10.0
141
1.0
290
     0
  0
SCALE
  5
58
102
{ACAD_REACTORS
330
47
102
}
330
47
100
AcDbScale
 70
     0
300
100:1
140
100.0
141
1.0
290
     0
  0
ENDSEC
  0
EOF
