  0
SECTION
  2
HEADER
  9
$ACADVER
  1
AC1015
  9
$ACADMAINTVER
 70
     6
  9
$DWGCODEPAGE
  3
ANSI_1252
  9
$INSBASE
 10
0.0
 20
0.0
 30
0.0
  9
$EXTMIN
 10
-17.5257125304
 20
-120.0
 30
0.0
  9
$EXTMAX
 10
608.4279275788
 20
0.0
 30
0.0
  9
$LIMMIN
 10
0.0
 20
0.0
  9
$LIMMAX
 10
420.0
 20
297.0
  9
$ORTHOMODE
 70
     0
  9
$REGENMODE
 70
     1
  9
$FILLMODE
 70
     1
  9
$QTEXTMODE
 70
     0
  9
$MIRRTEXT
 70
     1
  9
$LTSCALE
 40
1.0
  9
$ATTMODE
 70
     1
  9
$TEXTSIZE
 40
3.5
  9
$TRACEWID
 40
1.0
  9
$TEXTSTYLE
  7
Standard
  9
$CLAYER
  8
0
  9
$CELTYPE
  6
ByLayer
  9
$CECOLOR
 62
   256
  9
$CELTSCALE
 40
1.0
  9
$DISPSILH
 70
     0
  9
$DIMSCALE
 40
1.0
  9
$DIMASZ
 40
3.302
  9
$DIMEXO
 40
0.0
  9
$DIMDLI
 40
3.75
  9
$DIMRND
 40
0.0
  9
$DIMDLE
 40
0.0
  9
$DIMEXE
 40
1.0
  9
$DIMTP
 40
0.0
  9
$DIMTM
 40
0.0
  9
$DIMTXT
 40
3.5
  9
$DIMCEN
 40
2.5
  9
$DIMTSZ
 40
0.0
  9
$DIMTOL
 70
     0
  9
$DIMLIM
 70
     0
  9
$DIMTIH
 70
     1
  9
$DIMTOH
 70
     1
  9
$DIMSE1
 70
     0
  9
$DIMSE2
 70
     0
  9
$DIMTAD
 70
     1
  9
$DIMZIN
 70
     1
  9
$DIMBLK
  1

  9
$DIMASO
 70
     1
  9
$DIMSHO
 70
     1
  9
$DIMPOST
  1

  9
$DIMAPOST
  1

  9
$DIMALT
 70
     0
  9
$DIMALTD
 70
     3
  9
$DIMALTF
 40
0.0393700787
  9
$DIMLFAC
 40
1.0
  9
$DIMTOFL
 70
     1
  9
$DIMTVP
 40
0.0
  9
$DIMTIX
 70
     0
  9
$DIMSOXD
 70
     0
  9
$DIMSAH
 70
     0
  9
$DIMBLK1
  1

  9
$DIMBLK2
  1

  9
$DIMSTYLE
  2
ISO-25
  9
$DIMCLRD
 70
     0
  9
$DIMCLRE
 70
     0
  9
$DIMCLRT
 70
     0
  9
$DIMTFAC
 40
1.0
  9
$DIMGAP
 40
1.524
  9
$DIMJUST
 70
     0
  9
$DIMSD1
 70
     0
  9
$DIMSD2
 70
     0
  9
$DIMTOLJ
 70
     0
  9
$DIMTZIN
 70
     1
  9
$DIMALTZ
 70
     0
  9
$DIMALTTZ
 70
     0
  9
$DIMUPT
 70
     0
  9
$DIMDEC
 70
     2
  9
$DIMTDEC
 70
     2
  9
$DIMALTU
 70
     2
  9
$DIMALTTD
 70
     3
  9
$DIMTXSTY
  7
Standard
  9
$DIMAUNIT
 70
     0
  9
$DIMADEC
 70
     2
  9
$DIMALTRND
 40
0.0
  9
$DIMAZIN
 70
     0
  9
$DIMDSEP
 70
    44
  9
$DIMATFIT
 70
     3
  9
$DIMFRAC
 70
     0
  9
$DIMLDRBLK
  1

  9
$DIMLUNIT
 70
     2
  9
$DIMLWD
 70
    -2
  9
$DIMLWE
 70
    -2
  9
$DIMTMOVE
 70
     0
  9
$LUNITS
 70
     2
  9
$LUPREC
 70
     2
  9
$SKETCHINC
 40
1.0
  9
$FILLETRAD
 40
0.0
  9
$AUNITS
 70
     0
  9
$AUPREC
 70
     2
  9
$MENU
  1
.
  9
$ELEVATION
 40
0.0
  9
$PELEVATION
 40
0.0
  9
$THICKNESS
 40
0.0
  9
$LIMCHECK
 70
     0
  9
$CHAMFERA
 40
0.0
  9
$CHAMFERB
 40
0.0
  9
$CHAMFERC
 40
0.0
  9
$CHAMFERD
 40
0.0
  9
$SKPOLY
 70
     0
  9
$TDCREATE
 40
2460701.913888276
  9
$TDUCREATE
 40
2460701.830554942
  9
$TDUPDATE
 40
2460701.91409191
  9
$TDUUPDATE
 40
2460701.830758577
  9
$TDINDWG
 40
0.0000000116
  9
$TDUSRTIMER
 40
0.0000000116
  9
$USRTIMER
 70
     1
  9
$ANGBASE
 50
0.0
  9
$ANGDIR
 70
     0
  9
$PDMODE
 70
     0
  9
$PDSIZE
 40
-1.0
  9
$PLINEWID
 40
0.0
  9
$SPLFRAME
 70
     0
  9
$SPLINETYPE
 70
     6
  9
$SPLINESEGS
 70
     8
  9
$HANDSEED
  5
34F
  9
$SURFTAB1
 70
     6
  9
$SURFTAB2
 70
     6
  9
$SURFTYPE
 70
     6
  9
$SURFU
 70
     6
  9
$SURFV
 70
     6
  9
$UCSBASE
  2

  9
$UCSNAME
  2

  9
$UCSORG
 10
0.0
 20
0.0
 30
0.0
  9
$UCSXDIR
 10
1.0
 20
0.0
 30
0.0
  9
$UCSYDIR
 10
0.0
 20
1.0
 30
0.0
  9
$UCSORTHOREF
  2

  9
$UCSORTHOVIEW
 70
     0
  9
$UCSORGTOP
 10
0.0
 20
0.0
 30
0.0
  9
$UCSORGBOTTOM
 10
0.0
 20
0.0
 30
0.0
  9
$UCSORGLEFT
 10
0.0
 20
0.0
 30
0.0
  9
$UCSORGRIGHT
 10
0.0
 20
0.0
 30
0.0
  9
$UCSORGFRONT
 10
0.0
 20
0.0
 30
0.0
  9
$UCSORGBACK
 10
0.0
 20
0.0
 30
0.0
  9
$PUCSBASE
  2

  9
$PUCSNAME
  2

  9
$PUCSORG
 10
0.0
 20
0.0
 30
0.0
  9
$PUCSXDIR
 10
1.0
 20
0.0
 30
0.0
  9
$PUCSYDIR
 10
0.0
 20
1.0
 30
0.0
  9
$PUCSORTHOREF
  2

  9
$PUCSORTHOVIEW
 70
     0
  9
$PUCSORGTOP
 10
0.0
 20
0.0
 30
0.0
  9
$PUCSORGBOTTOM
 10
0.0
 20
0.0
 30
0.0
  9
$PUCSORGLEFT
 10
0.0
 20
0.0
 30
0.0
  9
$PUCSORGRIGHT
 10
0.0
 20
0.0
 30
0.0
  9
$PUCSORGFRONT
 10
0.0
 20
0.0
 30
0.0
  9
$PUCSORGBACK
 10
0.0
 20
0.0
 30
0.0
  9
$USERI1
 70
     0
  9
$USERI2
 70
     0
  9
$USERI3
 70
     0
  9
$USERI4
 70
     0
  9
$USERI5
 70
     0
  9
$USERR1
 40
0.0
  9
$USERR2
 40
0.0
  9
$USERR3
 40
0.0
  9
$USERR4
 40
0.0
  9
$USERR5
 40
0.0
  9
$WORLDVIEW
 70
     1
  9
$SHADEDGE
 70
     3
  9
$SHADEDIF
 70
    70
  9
$TILEMODE
 70
     1
  9
$MAXACTVP
 70
    64
  9
$PINSBASE
 10
0.0
 20
0.0
 30
0.0
  9
$PLIMCHECK
 70
     0
  9
$PEXTMIN
 10
1.0000000000E+20
 20
1.0000000000E+20
 30
1.0000000000E+20
  9
$PEXTMAX
 10
-1.0000000000E+20
 20
-1.0000000000E+20
 30
-1.0000000000E+20
  9
$PLIMMIN
 10
0.0
 20
0.0
  9
$PLIMMAX
 10
420.0
 20
297.0
  9
$UNITMODE
 70
     0
  9
$VISRETAIN
 70
     1
  9
$PLINEGEN
 70
     0
  9
$PSLTSCALE
 70
     1
  9
$TREEDEPTH
 70
  3020
  9
$CMLSTYLE
  2
Standard
  9
$CMLJUST
 70
     0
  9
$CMLSCALE
 40
20.0
  9
$PROXYGRAPHICS
 70
     1
  9
$MEASUREMENT
 70
     1
  9
$CELWEIGHT
370
    -1
  9
$ENDCAPS
280
     0
  9
$JOINSTYLE
280
     0
  9
$LWDISPLAY
290
     1
  9
$INSUNITS
 70
     4
  9
$HYPERLINKBASE
  1

  9
$STYLESHEET
  1

  9
$XEDIT
290
     1
  9
$CEPSNTYPE
380
     0
  9
$PSTYLEMODE
290
     1
  9
$FINGERPRINTGUID
  2
{1aac0d9f-45f9-459a-8903-665e790de7c8}
  9
$VERSIONGUID
  2
{FAEB1C32-E019-11D5-929B-00C0DF256EC4}
  9
$EXTNAMES
290
     1
  9
$PSVPSCALE
 40
0.0
  9
$OLESTARTUP
290
     0
  0
ENDSEC
  0
SECTION
  2
CLASSES
  0
CLASS
  1
ACDBDICTIONARYWDFLT
  2
AcDbDictionaryWithDefault
  3
ObjectDBX Classes
 90
        0
280
     0
281
     0
  0
CLASS
  1
VISUALSTYLE
  2
AcDbVisualStyle
  3
ObjectDBX Classes
 90
     4095
280
     0
281
     0
  0
CLASS
  1
MATERIAL
  2
AcDbMaterial
  3
ObjectDBX Classes
 90
     1153
280
     0
281
     0
  0
CLASS
  1
SCALE
  2
AcDbScale
  3
ObjectDBX Classes
 90
     1153
280
     0
281
     0
  0
CLASS
  1
TABLESTYLE
  2
AcDbTableStyle
  3
ObjectDBX Classes
 90
     4095
280
     0
281
     0
  0
CLASS
  1
MLEADERSTYLE
  2
AcDbMLeaderStyle
  3
ACDB_MLEADERSTYLE_CLASS
 90
     4095
280
     0
281
     0
  0
CLASS
  1
SUN
  2
AcDbSun
  3
SCENEOE
 90
     1153
280
     0
281
     0
  0
CLASS
  1
ACDBPLACEHOLDER
  2
AcDbPlaceHolder
  3
ObjectDBX Classes
 90
        0
280
     0
281
     0
  0
CLASS
  1
LAYOUT
  2
AcDbLayout
  3
ObjectDBX Classes
 90
        0
280
     0
281
     0
  0
ENDSEC
  0
SECTION
  2
TABLES
  0
TABLE
  2
VPORT
  5
8
330
0
100
AcDbSymbolTable
 70
     1
  0
VPORT
  5
29
330
8
100
AcDbSymbolTableRecord
100
AcDbViewportTableRecord
  2
*Active
 70
     0
 10
0.0
 20
0.0
 11
1.0
 21
1.0
 12
295.4511075242
 22
-60.0
 13
0.0
 23
0.0
 14
10.0
 24
10.0
 15
10.0
 25
10.0
 16
0.0
 26
0.0
 36
1.0
 17
0.0
 27
0.0
 37
0.0
 40
122.4
 41
5.2162803342
 42
50.0
 43
0.0
 44
0.0
 50
0.0
 51
0.0
 71
     0
 72
   100
 73
     1
 74
     3
 75
     0
 76
     0
 77
     0
 78
     0
281
     0
 65
     1
110
0.0
120
0.0
130
0.0
111
1.0
121
0.0
131
0.0
112
0.0
122
1.0
132
0.0
 79
     0
146
0.0
  0
ENDTAB
  0
TABLE
  2
LTYPE
  5
5
330
0
100
AcDbSymbolTable
 70
     6
  0
LTYPE
  5
14
330
5
100
AcDbSymbolTableRecord
100
AcDbLinetypeTableRecord
  2
ByBlock
 70
     0
  3

 72
    65
 73
     0
 40
0.0
  0
LTYPE
  5
15
330
5
100
AcDbSymbolTableRecord
100
AcDbLinetypeTableRecord
  2
ByLayer
 70
     0
  3

 72
    65
 73
     0
 40
0.0
  0
LTYPE
  5
16
330
5
100
AcDbSymbolTableRecord
100
AcDbLinetypeTableRecord
  2
Continuous
 70
     0
  3
Solid line
 72
    65
 73
     0
 40
0.0
  0
LTYPE
  5
5E
330
5
100
AcDbSymbolTableRecord
100
AcDbLinetypeTableRecord
  2
HIDDEN
 70
     0
  3
Hidden __ __ __ __ __ __ __ __ __ __ __ __ __ __
 72
    65
 73
     2
 40
1.905
 49
1.27
 74
     0
 49
-0.635
 74
     0
  0
LTYPE
  5
5F
330
5
100
AcDbSymbolTableRecord
100
AcDbLinetypeTableRecord
  2
PHANTOM
 70
     0
  3
Phantom ______  __  __  ______  __  __  ______
 72
    65
 73
     6
 40
12.7
 49
6.35
 74
     0
 49
-1.27
 74
     0
 49
1.27
 74
     0
 49
-1.27
 74
     0
 49
1.27
 74
     0
 49
-1.27
 74
     0
  0
LTYPE
  5
60
330
5
100
AcDbSymbolTableRecord
100
AcDbLinetypeTableRecord
  2
CENTER
 70
     0
  3
Center ____ _ ____ _ ____ _ ____ _ ____ _ ____
 72
    65
 73
     4
 40
10.16
 49
6.35
 74
     0
 49
-1.27
 74
     0
 49
1.27
 74
     0
 49
-1.27
 74
     0
  0
LTYPE
  5
61
330
5
100
AcDbSymbolTableRecord
100
AcDbLinetypeTableRecord
  2
CENTERX2
 70
     0
  3
Center (2x) ________  __  ________  __  _____
 72
    65
 73
     4
 40
20.32
 49
12.7
 74
     0
 49
-2.54
 74
     0
 49
2.54
 74
     0
 49
-2.54
 74
     0
  0
LTYPE
  5
62
330
5
100
AcDbSymbolTableRecord
100
AcDbLinetypeTableRecord
  2
DOT2
 70
     0
  3
Dot (.5x) ........................................
 72
    65
 73
     2
 40
0.635
 49
0.0
 74
     0
 49
-0.635
 74
     0
  0
ENDTAB
  0
TABLE
  2
LAYER
  5
2
330
0
100
AcDbSymbolTable
 70
     1
  0
LAYER
  5
10
330
2
100
AcDbSymbolTableRecord
100
AcDbLayerTableRecord
  2
0
 70
     0
 62
     7
  6
Continuous
370
    -3
390
F
  0
ENDTAB
  0
TABLE
  2
STYLE
  5
3
330
0
100
AcDbSymbolTable
 70
     1
  0
STYLE
  5
11
330
3
100
AcDbSymbolTableRecord
100
AcDbTextStyleTableRecord
  2
Standard
 70
     0
 40
0.0
 41
1.0
 50
0.0
 71
     0
 42
3.5
  3
txt
  4

  0
ENDTAB
  0
TABLE
  2
VIEW
  5
6
330
0
100
AcDbSymbolTable
 70
     0
  0
ENDTAB
  0
TABLE
  2
UCS
  5
7
330
0
100
AcDbSymbolTable
 70
     0
  0
ENDTAB
  0
TABLE
  2
APPID
  5
9
330
0
100
AcDbSymbolTable
 70
     1
  0
APPID
  5
12
330
9
100
AcDbSymbolTableRecord
100
AcDbRegAppTableRecord
  2
ACAD
 70
     0
  0
ENDTAB
  0
TABLE
  2
DIMSTYLE
  5
A
330
0
100
AcDbSymbolTable
 70
     1
100
AcDbDimStyleTable
  0
DIMSTYLE
105
27
330
A
100
AcDbSymbolTableRecord
100
AcDbDimStyleTableRecord
  2
ISO-25
 70
     0
 41
2.5
 42
0.625
 43
3.75
 44
1.25
 73
     0
 74
     0
 77
     1
 78
     8
140
2.5
141
2.5
143
0.0393700787
147
0.625
171
     3
172
     1
178
     0
271
     2
272
     2
274
     3
278
    44
283
     0
284
     8
340
11
  0
ENDTAB
  0
TABLE
  2
BLOCK_RECORD
  5
1
330
0
100
AcDbSymbolTable
 70
     1
  0
BLOCK_RECORD
  5
1F
330
1
100
AcDbSymbolTableRecord
100
AcDbBlockTableRecord
  2
*Model_Space
340
22
  0
BLOCK_RECORD
  5
1B
330
1
100
AcDbSymbolTableRecord
100
AcDbBlockTableRecord
  2
*Paper_Space
340
1E
  0
BLOCK_RECORD
  5
23
330
1
100
AcDbSymbolTableRecord
100
AcDbBlockTableRecord
  2
*Paper_Space0
340
26
  0
ENDTAB
  0
ENDSEC
  0
SECTION
  2
BLOCKS
  0
BLOCK
  5
20
330
1F
100
AcDbEntity
  8
0
100
AcDbBlockBegin
  2
*Model_Space
 70
     0
 10
0.0
 20
0.0
 30
0.0
  3
*Model_Space
  1

  0
ENDBLK
  5
21
330
1F
100
AcDbEntity
  8
0
100
AcDbBlockEnd
  0
BLOCK
  5
1C
330
1B
100
AcDbEntity
 67
     1
  8
0
100
AcDbBlockBegin
  2
*Paper_Space
 70
     0
 10
0.0
 20
0.0
 30
0.0
  3
*Paper_Space
  1

  0
ENDBLK
  5
1D
330
1B
100
AcDbEntity
 67
     1
  8
0
100
AcDbBlockEnd
  0
BLOCK
  5
24
330
23
100
AcDbEntity
  8
0
100
AcDbBlockBegin
  2
*Paper_Space0
 70
     0
 10
0.0
 20
0.0
 30
0.0
  3
*Paper_Space0
  1

  0
ENDBLK
  5
25
330
23
100
AcDbEntity
  8
0
100
AcDbBlockEnd
  0
ENDSEC
  0
SECTION
  2
ENTITIES
  0
LINE
  5
63
330
1F
100
AcDbEntity
  8
0
  6
Continuous
 62
     7
100
AcDbLine
 10
17.5257125304
 20
-1.0
 30
0.0
 11
-17.5257125304
 21
-1.0
 31
0.0
  0
LINE
  5
64
330
1F
100
AcDbEntity
  8
0
  6
Continuous
 62
     7
100
AcDbLine
 10
-17.5257125304
 20
-1.0
 30
0.0
 11
-17.5257125304
 21
-120.0
 31
0.0
  0
LINE
  5
65
330
1F
100
AcDbEntity
  8
0
  6
Continuous
 62
     7
100
AcDbLine
 10
-17.5257125304
 20
-120.0
 30
0.0
 11
17.5257125304
 21
-120.0
 31
0.0
  0
LINE
  5
66
330
1F
100
AcDbEntity
  8
0
  6
Continuous
 62
     7
100
AcDbLine
 10
17.5257125304
 20
-120.0
 30
0.0
 11
17.5257125304
 21
-1.0
 31
0.0
  0
LINE
  5
67
330
1F
100
AcDbEntity
  8
0
  6
Continuous
 62
     7
100
AcDbLine
 10
582.4921216519
 20
-1.0
 30
0.0
 11
608.4279275788
 21
-1.0
 31
0.0
  0
LINE
  5
68
330
1F
100
AcDbEntity
  8
0
  6
Continuous
 62
     7
100
AcDbLine
 10
608.4279275788
 20
-1.0
 30
0.0
 11
608.4279275788
 21
-120.0
 31
0.0
  0
LINE
  5
69
330
1F
100
AcDbEntity
  8
0
  6
Continuous
 62
     7
100
AcDbLine
 10
608.4279275788
 20
-120.0
 30
0.0
 11
582.4921216519
 21
-120.0
 31
0.0
  0
LINE
  5
6A
330
1F
100
AcDbEntity
  8
0
  6
Continuous
 62
     7
100
AcDbLine
 10
582.4921216519
 20
-120.0
 30
0.0
 11
582.4921216519
 21
-1.0
 31
0.0
  0
LINE
  5
6B
330
1F
100
AcDbEntity
  8
0
  6
Continuous
 62
     7
100
AcDbLine
 10
608.4279275788
 20
-1.0
 30
0.0
 11
17.5257125304
 21
-1.0
 31
0.0
  0
LINE
  5
6C
330
1F
100
AcDbEntity
  8
0
  6
Continuous
 62
     7
100
AcDbLine
 10
17.5257125304
 20
-1.0
 30
0.0
 11
17.5257125304
 21
-120.0
 31
0.0
  0
LINE
  5
6D
330
1F
100
AcDbEntity
  8
0
  6
Continuous
 62
     7
100
AcDbLine
 10
17.5257125304
 20
-120.0
 30
0.0
 11
608.4279275788
 21
-120.0
 31
0.0
  0
LINE
  5
6E
330
1F
100
AcDbEntity
  8
0
  6
Continuous
 62
     7
100
AcDbLine
 10
608.4279275788
 20
-120.0
 30
0.0
 11
608.4279275788
 21
-1.0
 31
0.0
  0
LINE
  5
6F
330
1F
100
AcDbEntity
  8
0
  6
Continuous
 62
     7
100
AcDbLine
 10
-17.5257125304
 20
-1.0
 30
0.0
 11
582.4921216519
 21
-1.0
 31
0.0
  0
LINE
  5
70
330
1F
100
AcDbEntity
  8
0
  6
Continuous
 62
     7
100
AcDbLine
 10
582.4921216519
 20
-1.0
 30
0.0
 11
582.4921216519
 21
-120.0
 31
0.0
  0
LINE
  5
71
330
1F
100
AcDbEntity
  8
0
  6
Continuous
 62
     7
100
AcDbLine
 10
582.4921216519
 20
-120.0
 30
0.0
 11
-17.5257125304
 21
-120.0
 31
0.0
  0
LINE
  5
72
330
1F
100
AcDbEntity
  8
0
  6
Continuous
 62
     7
100
AcDbLine
 10
-17.5257125304
 20
-120.0
 30
0.0
 11
-17.5257125304
 21
-1.0
 31
0.0
  0
SPLINE
  5
7B
330
1F
100
AcDbEntity
  8
0
  6
Continuous
 62
     7
370
    25
100
AcDbSpline
210
0.0
220
0.0
230
1.0
 70
     8
 71
     3
 72
    14
 73
    10
 74
     0
 42
0.00000001
 43
0.00000001
 40
0.0
 40
0.0
 40
0.0
 40
0.0
 40
0.25
 40
0.25
 40
0.5
 40
0.5
 40
0.75
 40
0.75
 40
1.0
 40
1.0
 40
1.0
 40
1.0
 10
580.9008209351193
 20
-0.0000000000018943
 30
0.0
 10
580.9005541593133
 20
-0.0000000000013045
 30
0.0
 10
580.900287383507
 20
-0.0451990496986229
 30
0.0
 10
580.8997538318948
 20
-0.2191825579841017
 30
0.0
 10
580.8994870560888
 20
-0.3478985614911931
 30
0.0
 10
580.8989535044766
 20
-0.6693781660912015
 30
0.0
 10
580.8986867286703
 20
-0.8620152786875321
 30
0.0
 10
580.8981531770581
 20
-1.282048624021439
 30
0.0
 10
580.897886401252
 20
-1.509279591573889
 30
0.0
 10
580.8976196254458
 20
-1.736600000000019
 30
0.0
  0
SPLINE
  5
7D
330
1F
100
AcDbEntity
  8
0
  6
Continuous
 62
     7
370
    25
100
AcDbSpline
210
0.0
220
0.0
230
1.0
 70
     8
 71
     3
 72
    14
 73
    10
 74
     0
 42
0.00000001
 43
0.00000001
 40
0.0
 40
0.0
 40
0.0
 40
0.0
 40
0.2500000000000001
 40
0.2500000000000001
 40
0.5000000000000001
 40
0.5000000000000001
 40
0.7500000000000001
 40
0.7500000000000001
 40
1.0
 40
1.0
 40
1.0
 40
1.0
 10
-15.69431041288177
 20
-1.736599999999956
 30
0.0
 10
-15.68899672742957
 20
-1.509279591574583
 30
0.0
 10
-15.68368304197737
 20
-1.282048624022883
 30
0.0
 10
-15.67305567107297
 20
-0.8620152786901549
 30
0.0
 10
-15.66774198562076
 20
-0.6693781660942408
 30
0.0
 10
-15.65711461471636
 20
-0.3478985614944752
 30
0.0
 10
-15.65180092926416
 20
-0.2191825579872034
 30
0.0
 10
-15.64117355835976
 20
-0.0451990497006699
 30
0.0
 10
-15.63585987290755
 20
-0.0000000000024841
 30
0.0
 10
-15.63054618745535
 20
-0.0000000000018943
 30
0.0
  0
CIRCLE
  5
84
330
1F
100
AcDbEntity
  8
0
  6
Continuous
 62
     7
370
    25
100
AcDbCircle
 10
43.0800993795
 20
-71.38
 30
0.0
 40
10.99999999999996
  0
CIRCLE
  5
85
330
1F
100
AcDbEntity
  8
0
  6
Continuous
 62
     7
370
    25
100
AcDbCircle
 10
521.4476196254
 20
-71.38
 30
0.0
 40
11.00000000000011
  0
CIRCLE
  5
86
330
1F
100
AcDbEntity
  8
0
  6
Continuous
 62
     7
370
    25
100
AcDbCircle
 10
16.0800993795
 20
-51.5001415096
 30
0.0
 40
2.999999999999989
  0
CIRCLE
  5
87
330
1F
100
AcDbEntity
  8
0
  6
Continuous
 62
     7
370
    25
100
AcDbCircle
 10
43.0800993795
 20
-102.38
 30
0.0
 40
3.000000000000007
  0
CIRCLE
  5
88
330
1F
100
AcDbEntity
  8
0
  6
Continuous
 62
     7
370
    25
100
AcDbCircle
 10
70.0800993795
 20
-51.5001415096
 30
0.0
 40
3.000000000000014
  0
CIRCLE
  5
89
330
1F
100
AcDbEntity
  8
0
  6
Continuous
 62
     7
370
    25
100
AcDbCircle
 10
548.4476196254
 20
-91.2598584904
 30
0.0
 40
3.000000000000114
  0
CIRCLE
  5
8A
330
1F
100
AcDbEntity
  8
0
  6
Continuous
 62
     7
370
    25
100
AcDbCircle
 10
494.4476196254
 20
-91.2598584904
 30
0.0
 40
3.000000000000227
  0
CIRCLE
  5
8B
330
1F
100
AcDbEntity
  8
0
  6
Continuous
 62
     7
370
    25
100
AcDbCircle
 10
521.4476196254
 20
-40.38
 30
0.0
 40
3.0
  0
CIRCLE
  5
8C
330
1F
100
AcDbEntity
  8
0
  6
Continuous
 62
     7
370
    25
100
AcDbCircle
 10
123.0800993795
 20
-40.0
 30
0.0
 40
3.999999999999986
  0
CIRCLE
  5
8D
330
1F
100
AcDbEntity
  8
0
  6
Continuous
 62
     7
370
    25
100
AcDbCircle
 10
441.4476196254
 20
-100.0
 30
0.0
 40
4.0
  0
CIRCLE
  5
8E
330
1F
100
AcDbEntity
  8
0
  6
Continuous
 62
     7
370
    25
100
AcDbCircle
 10
441.4476196254
 20
-40.0
 30
0.0
 40
3.999999999999943
  0
CIRCLE
  5
8F
330
1F
100
AcDbEntity
  8
0
  6
Continuous
 62
     7
370
    25
100
AcDbCircle
 10
123.0800993795
 20
-100.0
 30
0.0
 40
4.000000000000014
  0
SPLINE
  5
A1
330
1F
100
AcDbEntity
  8
0
  6
Continuous
 62
     7
370
    25
100
AcDbSpline
210
0.0
220
0.0
230
1.0
 70
     8
 71
     3
 72
    14
 73
    10
 74
     0
 42
0.00000001
 43
0.00000001
 40
0.0
 40
0.0
 40
0.0
 40
0.0
 40
0.2500000000000001
 40
0.2500000000000001
 40
0.5000000000000001
 40
0.5000000000000001
 40
0.7500000000000001
 40
0.7500000000000001
 40
1.0
 40
1.0
 40
1.0
 40
1.0
 10
582.6310916603476
 20
-1.736599999999977
 30
0.0
 10
582.6310684093039
 20
-1.50927959157398
 30
0.0
 10
582.5860181045925
 20
-1.282048624021655
 30
0.0
 10
582.4126501539955
 20
-0.862015278687886
 30
0.0
 10
582.2844007026985
 20
-0.6693781660915554
 30
0.0
 10
581.964097922964
 20
-0.347898561491318
 30
0.0
 10
581.7721706016964
 20
-0.2191825579839907
 30
0.0
 10
581.3536891079663
 20
-0.0451990496978041
 30
0.0
 10
581.1272995718048
 20
0.0
 30
0.0
 10
580.9008209351192
 20
0.0
 30
0.0
  0
SPLINE
  5
A3
330
1F
100
AcDbEntity
  8
0
  6
Continuous
 62
     7
370
    25
100
AcDbSpline
210
0.0
220
0.0
230
1.0
 70
     8
 71
     3
 72
    10
 73
     6
 74
     0
 42
0.00000001
 43
0.00000001
 40
0.0
 40
0.0
 40
0.0
 40
0.0
 40
0.5
 40
0.5
 40
1.0
 40
1.0
 40
1.0
 40
1.0
 10
581.6348969622558
 20
-1.736599999999977
 30
0.0
 10
581.6348504601686
 20
-1.543758570947129
 30
0.0
 10
581.5557203816949
 20
-1.352104627154953
 30
0.0
 10
581.2839461911622
 20
-1.079385662801011
 30
0.0
 10
581.0929750464012
 20
-1.000000000000001
 30
0.0
 10
580.9008209351192
 20
-1.000000000000001
 30
0.0
  0
SPLINE
  5
A4
330
1F
100
AcDbEntity
  8
0
  6
Continuous
 62
     7
370
    25
100
AcDbSpline
210
0.0
220
0.0
230
1.0
 70
     8
 71
     3
 72
    14
 73
    10
 74
     0
 42
0.00000001
 43
0.00000001
 40
0.0
 40
0.0
 40
0.0
 40
0.0
 40
0.25
 40
0.25
 40
0.5
 40
0.5
 40
0.75
 40
0.75
 40
1.0
 40
1.0
 40
1.0
 40
1.0
 10
606.5592448701514
 20
0.0
 30
0.0
 10
606.7856770047499
 20
0.0
 30
0.0
 10
607.0120200388243
 20
-0.0451990496978041
 30
0.0
 10
607.4304085283801
 20
-0.2191825579839907
 30
0.0
 10
607.6222893475611
 20
-0.347898561491318
 30
0.0
 10
607.9424991231213
 20
-0.6693781660915554
 30
0.0
 10
608.0707020723316
 20
-0.862015278687886
 30
0.0
 10
608.2439770187544
 20
-1.282048624021655
 30
0.0
 10
608.2889808213786
 20
-1.50927959157398
 30
0.0
 10
608.2889575703351
 20
-1.736599999999977
 30
0.0
  0
LWPOLYLINE
  5
B3
330
1F
100
AcDbEntity
  8
0
  6
Continuous
 62
     7
370
    25
100
AcDbPolyline
 90
        9
 70
   128
 43
0.0
 10
596.2403528201
 20
-56.587084868
 10
596.1642220338
 20
-56.7154650781
 10
596.087284579
 20
-56.7004173122
 10
596.0115793772
 20
-56.5423403515
 10
595.939112694
 20
-56.2454233975
 10
595.8718049707
 20
-55.817535054
 10
595.8114399309
 20
-55.2700148009
 10
595.7596173102
 20
-54.6173724862
 10
595.7177104612
 20
-53.8769038005
  0
LWPOLYLINE
  5
B9
330
1F
100
AcDbEntity
  8
0
  6
Continuous
 62
     7
370
    25
100
AcDbPolyline
 90
        9
 70
   128
 43
0.0
 10
595.6072021714
 20
-60.0516285208
 10
595.6504959259
 20
-59.9505851774
 10
595.6946758674
 20
-59.9483925443
 10
595.7380441856
 20
-60.045134883
 10
595.7789342603
 20
-60.2370944399
 10
595.815774709
 20
-60.5168943167
 10
595.8471497737
 20
-60.8737819611
 10
595.8718537284
 20
-61.2940423811
 10
595.888937214
 20
-61.7615252045
  0
LWPOLYLINE
  5
C4
330
1F
100
AcDbEntity
  8
0
  6
Continuous
 62
     7
370
    25
100
AcDbPolyline
 90
        9
 70
   128
 43
0.0
 10
593.2237212541
 20
-60.0516285208
 10
593.1804274996
 20
-59.9505851774
 10
593.1362475581
 20
-59.9483925443
 10
593.0928792399
 20
-60.045134883
 10
593.0519891652
 20
-60.2370944399
 10
593.0151487165
 20
-60.5168943167
 10
592.9837736518
 20
-60.8737819611
 10
592.9590696971
 20
-61.2940423811
 10
592.9419862115
 20
-61.7615252044
  0
LWPOLYLINE
  5
CA
330
1F
100
AcDbEntity
  8
0
  6
Continuous
 62
     7
370
    25
100
AcDbPolyline
 90
        9
 70
   128
 43
0.0
 10
592.5905706054
 20
-56.5870848675
 10
592.6667013918
 20
-56.7154650776
 10
592.7436388465
 20
-56.7004173117
 10
592.8193440483
 20
-56.542340351
 10
592.8918107315
 20
-56.2454233971
 10
592.9591184548
 20
-55.8175350537
 10
593.0194834946
 20
-55.2700148007
 10
593.0713061152
 20
-54.6173724861
 10
593.1132129643
 20
-53.8769038005
  0
LWPOLYLINE
  5
E4
330
1F
100
AcDbEntity
  8
0
  6
Continuous
 62
     7
370
    25
100
AcDbPolyline
 90
        9
 70
   128
 43
0.0
 10
596.660363617
 20
-42.5549675583
 10
596.6170698625
 20
-42.6560109017
 10
596.572889921
 20
-42.6582035349
 10
596.5295216028
 20
-42.5614611961
 10
596.4886315281
 20
-42.3695016393
 10
596.4517910795
 20
-42.0897017625
 10
596.4204160147
 20
-41.732814118
 10
596.39571206
 20
-41.312553698
 10
596.3786285744
 20
-40.8450708747
  0
LWPOLYLINE
  5
EA
330
1F
100
AcDbEntity
  8
0
  6
Continuous
 62
     7
370
    25
100
AcDbPolyline
 90
        9
 70
   128
 43
0.0
 10
596.0272129683
 20
-46.0195112111
 10
596.0976038574
 20
-45.8957835436
 10
596.1688159021
 20
-45.894790223
 10
596.2392328027
 20
-46.0165537948
 10
596.3072563069
 20
-46.2583105913
 10
596.3713424853
 20
-46.6145734589
 10
596.4300367741
 20
-47.0772563001
 10
596.4820069892
 20
-47.6358576031
 10
596.5260735626
 20
-48.2776987951
  0
LWPOLYLINE
  5
FA
330
1F
100
AcDbEntity
  8
0
  6
Continuous
 62
     7
370
    25
100
AcDbPolyline
 90
        9
 70
   128
 43
0.0
 10
593.9805692957
 20
-4.2615244721
 10
593.5866264671
 20
-5.0522801365
 10
593.1994654599
 20
-6.2023515473
 10
592.8215715866
 20
-7.7043560213
 10
592.4553706713
 20
-9.5486517018
 10
592.1032134771
 20
-11.7233994536
 10
591.7673606159
 20
-14.2146388616
 10
591.4499680367
 20
-17.0063778477
 10
591.1530731858
 20
-20.080695329
  0
LWPOLYLINE
  5
FE
330
1F
100
AcDbEntity
  8
0
  6
Continuous
 62
     7
370
    25
100
AcDbPolyline
 90
        9
 70
   128
 43
0.0
 10
592.4561051983
 20
-22.6187695817
 10
592.6158009511
 20
-22.9756210783
 10
592.7784958271
 20
-22.9681511377
 10
592.9379375535
 20
-22.5966468256
 10
593.0879988741
 20
-21.8753848442
 10
593.2229130165
 20
-20.8320828872
 10
593.337495306
 20
-19.5068344635
 10
593.4273424093
 20
-17.9505681269
 10
593.4890015528
 20
-16.22309032
  0
LWPOLYLINE
  5
10E
330
1F
100
AcDbEntity
  8
0
  6
Continuous
 62
     7
370
    25
100
AcDbPolyline
 90
       19
 70
   128
 43
0.0
 10
592.5303435747
 20
-73.2796645773
 10
592.6722530336
 20
-75.9077612151
 10
592.84046663
 20
-78.3229188379
 10
593.0325833044
 20
-80.4906637914
 10
593.2458608078
 20
-82.3800539582
 10
593.4772548439
 20
-83.9641204221
 10
593.7234625235
 20
-85.2202524188
 10
593.9809695095
 20
-86.1305200791
 10
594.2461001797
 20
-86.6819303575
 10
594.5150700923
 20
-86.8666124934
 10
594.7840400049
 20
-86.6819303575
 10
595.0491706751
 20
-86.1305200791
 10
595.3066776611
 20
-85.2202524188
 10
595.5528853407
 20
-83.9641204221
 10
595.7842793768
 20
-82.3800539582
 10
595.9975568802
 20
-80.4906637914
 10
596.1896735546
 20
-78.3229188379
 10
596.357887151
 20
-75.9077612151
 10
596.4997966099
 20
-73.2796645773
  0
LWPOLYLINE
  5
119
330
1F
100
AcDbEntity
  8
0
  6
Continuous
 62
     7
370
    25
100
AcDbPolyline
 90
        9
 70
   128
 43
0.0
 10
592.1705598085
 20
-42.5549675583
 10
592.213853563
 20
-42.6560109017
 10
592.2580335045
 20
-42.6582035349
 10
592.3014018227
 20
-42.5614611961
 10
592.3422918974
 20
-42.3695016393
 10
592.3791323461
 20
-42.0897017625
 10
592.4105074108
 20
-41.732814118
 10
592.4352113655
 20
-41.312553698
 10
592.4522948511
 20
-40.8450708747
  0
LWPOLYLINE
  5
11F
330
1F
100
AcDbEntity
  8
0
  6
Continuous
 62
     7
370
    25
100
AcDbPolyline
 90
        9
 70
   128
 43
0.0
 10
592.8037104572
 20
-46.0195112108
 10
592.7333195681
 20
-45.8957835433
 10
592.6621075234
 20
-45.8947902228
 10
592.5916906228
 20
-46.0165537945
 10
592.5236671186
 20
-46.2583105911
 10
592.4595809402
 20
-46.6145734588
 10
592.4008866514
 20
-47.0772563
 10
592.3489164363
 20
-47.635857603
 10
592.304849863
 20
-48.2776987951
  0
LWPOLYLINE
  5
123
330
1F
100
AcDbEntity
  8
0
  6
Continuous
 62
     7
370
    25
100
AcDbPolyline
 90
        9
 70
   128
 43
0.0
 10
592.6392004768
 20
-93.3169595571
 10
592.7728753501
 20
-93.2101050386
 10
592.9068239498
 20
-93.2522247819
 10
593.0397880946
 20
-93.4429231554
 10
593.1705188502
 20
-93.7804089265
 10
593.2977882606
 20
-94.2615120858
 10
593.420400882
 20
-94.8817136238
 10
593.5372050123
 20
-95.6351879777
 10
593.6471035084
 20
-96.5148577509
  0
LWPOLYLINE
  5
127
330
1F
100
AcDbEntity
  8
0
  6
Continuous
 62
     7
370
    25
100
AcDbPolyline
 90
       10
 70
   128
 43
0.0
 10
591.0932254094
 20
-101.2889842454
 10
591.3927838325
 20
-104.4918488104
 10
591.7142139216
 20
-107.4022297349
 10
592.0553527424
 20
-110.0005427819
 10
592.4139047385
 20
-112.2693036497
 10
592.7874571785
 20
-114.1932456255
 10
593.1734963918
 20
-115.7594223161
 10
593.5694246828
 20
-116.9572947661
 10
593.9725778115
 20
-117.7788023748
 10
594.3802429211
 20
-118.2184171377
  0
LWPOLYLINE
  5
145
330
1F
100
AcDbEntity
  8
0
  6
Continuous
 62
     7
370
    25
100
AcDbPolyline
 90
       10
 70
   128
 43
0.0
 10
594.9261341914
 20
-118.20573374
 10
595.3284452879
 20
-117.7554740243
 10
595.7262619089
 20
-116.9331884948
 10
596.1169752001
 20
-115.7442696441
 10
596.4980228901
 20
-114.1965143216
 10
596.866906094
 20
-112.3000726018
 10
597.2212057007
 20
-110.0673812211
 10
597.5585982375
 20
-107.5130820182
 10
597.8768711069
 20
-104.6539259142
 10
598.173937097
 20
-101.5086630613
  0
LWPOLYLINE
  5
149
330
1F
100
AcDbEntity
  8
0
  6
Continuous
 62
     7
370
    25
100
AcDbPolyline
 90
        9
 70
   128
 43
0.0
 10
595.19836265
 20
-16.22309032
 10
595.289292407
 20
-17.7710565033
 10
595.4047954177
 20
-19.0857408357
 10
595.5404329661
 20
-20.1166207356
 10
595.6909925775
 20
-20.8240800665
 10
595.8506883303
 20
-21.1809315631
 10
596.0133832062
 20
-21.1734616225
 10
596.1728249326
 20
-20.8019573104
 10
596.3228862532
 20
-20.080695329
  0
LWPOLYLINE
  5
14D
330
1F
100
AcDbEntity
  8
0
  6
Continuous
 62
     7
370
    25
100
AcDbPolyline
 90
        9
 70
   128
 43
0.0
 10
597.6563384644
 20
-15.3674831598
 10
597.3093309649
 20
-12.6095851933
 10
596.9432551273
 20
-10.1979534073
 10
596.560729047
 20
-8.1498352715
 10
596.1644884678
 20
-6.4798784847
 10
595.7573672169
 20
-5.2000262172
 10
595.3422769374
 20
-4.3194316961
 10
594.9221862656
 20
-3.8443927433
 10
594.5000995991
 20
-3.7783067347
  0
SPLINE
  5
168
330
1F
100
AcDbEntity
  8
0
  6
Continuous
 62
     7
370
    25
100
AcDbSpline
210
0.0
220
0.0
230
1.0
 70
     8
 71
     3
 72
    14
 73
    10
 74
     0
 42
0.00000001
 43
0.00000001
 40
0.0
 40
0.0
 40
0.0
 40
0.0
 40
0.25
 40
0.25
 40
0.5
 40
0.5
 40
0.75
 40
0.75
 40
1.0
 40
1.0
 40
1.0
 40
1.0
 10
-15.6305461874553
 20
0.0
 30
0.0
 10
-15.85746469129962
 20
0.0
 30
0.0
 10
-16.08429409461981
 20
-0.0451990496978041
 30
0.0
 10
-16.50365532266768
 20
-0.2191825579839976
 30
0.0
 10
-16.6960225110942
 20
-0.347898561491318
 30
0.0
 10
-17.0172050251462
 20
-0.6693781660915623
 30
0.0
 10
-17.14589434360209
 20
-0.862015278687893
 30
0.0
 10
-17.32014202851678
 20
-1.282048624021669
 30
0.0
 10
-17.36563220038689
 20
-1.509279591573993
 30
0.0
 10
-17.36609531858918
 20
-1.736599999999991
 30
0.0
  0
SPLINE
  5
169
330
1F
100
AcDbEntity
  8
0
  6
Continuous
 62
     7
370
    25
100
AcDbSpline
210
0.0
220
0.0
230
1.0
 70
     8
 71
     3
 72
    10
 73
     6
 74
     0
 42
0.00000001
 43
0.00000001
 40
0.0
 40
0.0
 40
0.0
 40
0.0
 40
0.5
 40
0.5
 40
1.0
 40
1.0
 40
1.0
 40
1.0
 10
-15.6305461874553
 20
-1.000000000000001
 30
0.0
 10
-15.82358003305479
 20
-1.000000000000001
 30
0.0
 10
-16.01543091213359
 20
-1.079385662801018
 30
0.0
 10
-16.2889645713013
 20
-1.352104627154967
 30
0.0
 10
-16.36897438409279
 20
-1.543758570947143
 30
0.0
 10
-16.36990062049743
 20
-1.736599999999998
 30
0.0
  0
LWPOLYLINE
  5
1BB
330
1F
100
AcDbEntity
  8
0
  6
Continuous
 62
     7
370
    25
100
AcDbPolyline
 90
        3
 70
   128
 43
0.0
 10
594.5000995991
 20
-4.5976439668
 10
594.7611725188
 20
-5.2000262172
 10
595.1482320183
 20
-6.4067498188
  0
LWPOLYLINE
  5
1F3
330
1F
100
AcDbEntity
  8
0
  6
Continuous
 62
     7
370
    25
100
AcDbPolyline
 90
        3
 70
   128
 43
0.0
 10
445.3290539563
 20
-100.9666786101
 10
442.9247282863
 20
-99.8214180561
 10
438.2110572881
 20
-97.6495395693
  0
LWPOLYLINE
  5
1F9
330
1F
100
AcDbEntity
  8
0
  6
Continuous
 62
     7
370
    25
100
AcDbPolyline
 90
        3
 70
   128
 43
0.0
 10
581.5721293213
 20
-28.5
 10
581.0068249046
 20
-28.6141807012
 10
580.8976196254
 20
-28.6654996019
  0
LWPOLYLINE
  5
1FA
330
1F
100
AcDbEntity
  8
0
  6
Continuous
 62
     7
370
    25
100
AcDbPolyline
 90
        3
 70
   128
 43
0.0
 10
580.8976196254
 20
-31.3345003981
 10
581.0068249046
 20
-31.3858192988
 10
581.5721293213
 20
-31.5
  0
LWPOLYLINE
  5
1FB
330
1F
100
AcDbEntity
  8
0
  6
Continuous
 62
     7
370
    25
100
AcDbPolyline
 90
        3
 70
   128
 43
0.0
 10
581.5721293213
 20
-98.5
 10
581.0068249046
 20
-98.6141807012
 10
580.8976196254
 20
-98.6654996019
  0
LWPOLYLINE
  5
1FC
330
1F
100
AcDbEntity
  8
0
  6
Continuous
 62
     7
370
    25
100
AcDbPolyline
 90
        3
 70
   128
 43
0.0
 10
580.8976196254
 20
-101.3345003981
 10
581.0068249046
 20
-101.3858192988
 10
581.5721293213
 20
-101.5
  0
LWPOLYLINE
  5
1FF
330
1F
100
AcDbEntity
  8
0
  6
Continuous
 62
     7
370
    25
100
AcDbPolyline
 90
        3
 70
   128
 43
0.0
 10
152.7215016801
 20
-100.0
 10
152.8965106614
 20
-98.8209793024
 10
153.0567521299
 20
-98.3852274051
  0
LINE
  5
201
330
1F
100
AcDbEntity
  8
0
  6
Continuous
 62
     7
370
    25
100
AcDbLine
 10
591.8959565226
 20
-42.6695828046
 30
0.0
 11
592.2369136721
 21
-42.6695828046
 31
0.0
  0
LINE
  5
202
330
1F
100
AcDbEntity
  8
0
  6
Continuous
 62
     7
370
    25
100
AcDbLine
 10
592.6971405313
 20
-45.8798740666
 30
0.0
 11
591.8781939051
 21
-45.8798740666
 31
0.0
  0
LINE
  5
203
330
1F
100
AcDbEntity
  8
0
  6
Continuous
 62
     7
370
    25
100
AcDbLine
 10
592.585976867
 20
-56.7267220117
 30
0.0
 11
592.6971405313
 21
-56.7267220117
 31
0.0
  0
LINE
  5
204
330
1F
100
AcDbEntity
  8
0
  6
Continuous
 62
     7
370
    25
100
AcDbLine
 10
593.1573673905
 20
-59.9370132746
 30
0.0
 11
592.4803657248
 21
-59.9370132746
 31
0.0
  0
LINE
  5
205
330
1F
100
AcDbEntity
  8
0
  6
Continuous
 62
     7
370
    25
100
AcDbLine
 10
595.673556035
 20
-59.9370132746
 30
0.0
 11
595.3325988855
 21
-59.9370132746
 31
0.0
  0
LINE
  5
206
330
1F
100
AcDbEntity
  8
0
  6
Continuous
 62
     7
370
    25
100
AcDbLine
 10
595.314836268
 20
-56.7267220122
 30
0.0
 11
596.1337828942
 21
-56.7267220122
 31
0.0
  0
LINE
  5
207
330
1F
100
AcDbEntity
  8
0
  6
Continuous
 62
     7
370
    25
100
AcDbLine
 10
596.1337828942
 20
-45.8798740669
 30
0.0
 11
596.0226192299
 21
-45.8798740669
 31
0.0
  0
LINE
  5
208
330
1F
100
AcDbEntity
  8
0
  6
Continuous
 62
     7
370
    25
100
AcDbLine
 10
595.9170080878
 20
-42.6695828046
 30
0.0
 11
596.5940097534
 21
-42.6695828046
 31
0.0
  0
LINE
  5
209
330
1F
100
AcDbEntity
  8
0
  6
Continuous
 62
     7
370
    25
100
AcDbLine
 10
-15.6305461875
 20
0.0
 30
0.0
 11
606.5592448702
 21
0.0
 31
0.0
  0
LINE
  5
20A
330
1F
100
AcDbEntity
  8
0
  6
Continuous
 62
     7
370
    25
100
AcDbLine
 10
-15.6943104129
 20
-1.7366
 30
0.0
 11
-15.6943104129
 21
-120.0
 31
0.0
  0
LINE
  5
20B
330
1F
100
AcDbEntity
  8
0
  6
Continuous
 62
     7
370
    25
100
AcDbLine
 10
580.8976196254
 20
-1.7366
 30
0.0
 11
580.8976196254
 21
-120.0
 31
0.0
  0
LINE
  5
20C
330
1F
100
AcDbEntity
  8
0
  6
Continuous
 62
     7
370
    25
100
AcDbLine
 10
9.3056895871
 20
-98.5
 30
0.0
 11
-10.6943104129
 21
-98.5
 31
0.0
  0
LINE
  5
20D
330
1F
100
AcDbEntity
  8
0
  6
Continuous
 62
     7
370
    25
100
AcDbLine
 10
-10.6943104129
 20
-101.5
 30
0.0
 11
9.3056895871
 21
-101.5
 31
0.0
  0
LINE
  5
20E
330
1F
100
AcDbEntity
  8
0
  6
Continuous
 62
     7
370
    25
100
AcDbLine
 10
9.3056895871
 20
-28.5
 30
0.0
 11
-10.6943104129
 21
-28.5
 31
0.0
  0
LINE
  5
20F
330
1F
100
AcDbEntity
  8
0
  6
Continuous
 62
     7
370
    25
100
AcDbLine
 10
-10.6943104129
 20
-31.5
 30
0.0
 11
9.3056895871
 21
-31.5
 31
0.0
  0
LINE
  5
210
330
1F
100
AcDbEntity
  8
0
  6
Continuous
 62
     7
370
    25
100
AcDbLine
 10
555.2220294178
 20
-31.5
 30
0.0
 11
575.2220294178
 21
-31.5
 31
0.0
  0
LINE
  5
211
330
1F
100
AcDbEntity
  8
0
  6
Continuous
 62
     7
370
    25
100
AcDbLine
 10
575.2220294178
 20
-28.5
 30
0.0
 11
555.2220294178
 21
-28.5
 31
0.0
  0
LINE
  5
212
330
1F
100
AcDbEntity
  8
0
  6
Continuous
 62
     7
370
    25
100
AcDbLine
 10
555.2220294178
 20
-101.5
 30
0.0
 11
575.2220294178
 21
-101.5
 31
0.0
  0
LINE
  5
213
330
1F
100
AcDbEntity
  8
0
  6
Continuous
 62
     7
370
    25
100
AcDbLine
 10
575.2220294178
 20
-98.5
 30
0.0
 11
555.2220294178
 21
-98.5
 31
0.0
  0
LINE
  5
214
330
1F
100
AcDbEntity
  8
0
  6
Continuous
 62
     7
370
    25
100
AcDbLine
 10
580.9008209351
 20
-1.0
 30
0.0
 11
580.9008209351
 21
0.0
 31
0.0
  0
LINE
  5
215
330
1F
100
AcDbEntity
  8
0
  6
Continuous
 62
     7
370
    25
100
AcDbLine
 10
593.1659479963
 20
-51.9963282437
 30
0.0
 11
593.5546164407
 21
-53.6747826117
 31
0.0
  0
LINE
  5
216
330
1F
100
AcDbEntity
  8
0
  6
Continuous
 62
     7
370
    25
100
AcDbLine
 10
593.7957453771
 20
-53.2170784894
 30
0.0
 11
593.4486289604
 21
-53.2170784894
 31
0.0
  0
LINE
  5
217
330
1F
100
AcDbEntity
  8
0
  6
Continuous
 62
     7
370
    25
100
AcDbLine
 10
593.7957453771
 20
-48.4940089154
 30
0.0
 11
593.7957453771
 21
-53.2170784894
 31
0.0
  0
LINE
  5
218
330
1F
100
AcDbEntity
  8
0
  6
Continuous
 62
     7
370
    25
100
AcDbLine
 10
593.1014663663
 20
-48.4940089154
 30
0.0
 11
593.7957453771
 21
-48.4940089154
 31
0.0
  0
LINE
  5
219
330
1F
100
AcDbEntity
  8
0
  6
Continuous
 62
     7
370
    25
100
AcDbLine
 10
593.5919147267
 20
-43.7434097696
 30
0.0
 11
593.4596077722
 21
-45.2614618258
 31
0.0
  0
LINE
  5
21A
330
1F
100
AcDbEntity
  8
0
  6
Continuous
 62
     7
370
    25
100
AcDbLine
 10
593.3008394268
 20
-40.4036952458
 30
0.0
 11
593.5919147267
 21
-43.7434097696
 31
0.0
  0
LINE
  5
21B
330
1F
100
AcDbEntity
  8
0
  6
Continuous
 62
     7
370
    25
100
AcDbLine
 10
593.1685324723
 20
-41.9217473021
 30
0.0
 11
593.3008394268
 21
-40.4036952458
 31
0.0
  0
LINE
  5
21C
330
1F
100
AcDbEntity
  8
0
  6
Continuous
 62
     7
370
    25
100
AcDbLine
 10
593.0631542469
 20
-42.2218284674
 30
0.0
 11
592.9214450529
 21
-46.5294022534
 31
0.0
  0
LINE
  5
21D
330
1F
100
AcDbEntity
  8
0
  6
Continuous
 62
     7
370
    25
100
AcDbLine
 10
595.7177104612
 20
-53.8769038005
 30
0.0
 11
595.3422806684
 21
-55.5028344569
 31
0.0
  0
LINE
  5
21E
330
1F
100
AcDbEntity
  8
0
  6
Continuous
 62
     7
370
    25
100
AcDbLine
 10
595.3161268716
 20
-56.711913997
 30
0.0
 11
595.1838199171
 21
-58.2299660533
 31
0.0
  0
LINE
  5
21F
330
1F
100
AcDbEntity
  8
0
  6
Continuous
 62
     7
370
    25
100
AcDbLine
 10
595.1838199171
 20
-58.2299660533
 30
0.0
 11
595.474895217
 21
-61.5696805771
 31
0.0
  0
LINE
  5
220
330
1F
100
AcDbEntity
  8
0
  6
Continuous
 62
     7
370
    25
100
AcDbLine
 10
595.474895217
 20
-61.5696805771
 30
0.0
 11
595.6072021714
 21
-60.0516285208
 31
0.0
  0
LINE
  5
221
330
1F
100
AcDbEntity
  8
0
  6
Continuous
 62
     7
370
    25
100
AcDbLine
 10
595.888937214
 20
-61.7615252045
 30
0.0
 11
595.888937214
 21
-63.9083750108
 31
0.0
  0
LINE
  5
222
330
1F
100
AcDbEntity
  8
0
  6
Continuous
 62
     7
370
    25
100
AcDbLine
 10
595.888937214
 20
-63.9083750108
 30
0.0
 11
596.3005798508
 21
-63.9083750108
 31
0.0
  0
LINE
  5
223
330
1F
100
AcDbEntity
  8
0
  6
Continuous
 62
     7
370
    25
100
AcDbLine
 10
596.3005798508
 20
-63.9083750108
 30
0.0
 11
596.3005798508
 21
-61.7615252045
 31
0.0
  0
LINE
  5
224
330
1F
100
AcDbEntity
  8
0
  6
Continuous
 62
     7
370
    25
100
AcDbLine
 10
596.2403528201
 20
-56.587084868
 30
0.0
 11
596.3786285744
 21
-60.7902914319
 31
0.0
  0
LINE
  5
225
330
1F
100
AcDbEntity
  8
0
  6
Continuous
 62
     7
370
    25
100
AcDbLine
 10
592.5905706054
 20
-56.5870848675
 30
0.0
 11
592.4522948511
 21
-60.7902914319
 31
0.0
  0
LINE
  5
226
330
1F
100
AcDbEntity
  8
0
  6
Continuous
 62
     7
370
    25
100
AcDbLine
 10
592.5303435747
 20
-63.9083750108
 30
0.0
 11
592.5303435747
 21
-61.7615252044
 31
0.0
  0
LINE
  5
227
330
1F
100
AcDbEntity
  8
0
  6
Continuous
 62
     7
370
    25
100
AcDbLine
 10
592.9419862115
 20
-63.9083750108
 30
0.0
 11
592.5303435747
 21
-63.9083750108
 31
0.0
  0
LINE
  5
228
330
1F
100
AcDbEntity
  8
0
  6
Continuous
 62
     7
370
    25
100
AcDbLine
 10
592.9419862115
 20
-61.7615252044
 30
0.0
 11
592.9419862115
 21
-63.9083750108
 31
0.0
  0
LINE
  5
229
330
1F
100
AcDbEntity
  8
0
  6
Continuous
 62
     7
370
    25
100
AcDbLine
 10
593.3560282086
 20
-61.5696805771
 30
0.0
 11
593.2237212541
 21
-60.0516285208
 31
0.0
  0
LINE
  5
22A
330
1F
100
AcDbEntity
  8
0
  6
Continuous
 62
     7
370
    25
100
AcDbLine
 10
593.6471035084
 20
-58.2299660533
 30
0.0
 11
593.3560282086
 21
-61.5696805771
 31
0.0
  0
LINE
  5
22B
330
1F
100
AcDbEntity
  8
0
  6
Continuous
 62
     7
370
    25
100
AcDbLine
 10
593.5147965539
 20
-56.711913997
 30
0.0
 11
593.6471035084
 21
-58.2299660533
 31
0.0
  0
LINE
  5
22C
330
1F
100
AcDbEntity
  8
0
  6
Continuous
 62
     7
370
    25
100
AcDbLine
 10
593.1132129643
 20
-53.8769038005
 30
0.0
 11
593.4886427571
 21
-55.5028344569
 31
0.0
  0
LINE
  5
22D
330
1F
100
AcDbEntity
  8
0
  6
Continuous
 62
     7
370
    25
100
AcDbLine
 10
591.247404375
 20
-36.4870562282
 30
0.0
 11
590.7669385838
 21
-28.1173810706
 31
0.0
  0
LINE
  5
22E
330
1F
100
AcDbEntity
  8
0
  6
Continuous
 62
     7
370
    25
100
AcDbLine
 10
590.7669385838
 20
-28.1173810706
 30
0.0
 11
590.9753649907
 21
-25.7259562458
 31
0.0
  0
LINE
  5
22F
330
1F
100
AcDbEntity
  8
0
  6
Continuous
 62
     7
370
    25
100
AcDbLine
 10
590.8303874977
 20
-24.0625260643
 30
0.0
 11
590.9753649907
 21
-25.7259562458
 31
0.0
  0
LINE
  5
230
330
1F
100
AcDbEntity
  8
0
  6
Continuous
 62
     7
370
    25
100
AcDbLine
 10
590.0556414978
 20
-56.0771938249
 30
0.0
 11
589.6702246595
 21
-56.0771938249
 31
0.0
  0
LINE
  5
231
330
1F
100
AcDbEntity
  8
0
  6
Continuous
 62
     7
370
    25
100
AcDbLine
 10
590.0556414978
 20
-56.0771938249
 30
0.0
 11
590.0556414978
 21
-49.3895175898
 31
0.0
  0
LINE
  5
232
330
1F
100
AcDbEntity
  8
0
  6
Continuous
 62
     7
370
    25
100
AcDbLine
 10
589.7556759036
 20
-49.3895175898
 30
0.0
 11
590.9111919452
 21
-49.3895175898
 31
0.0
  0
LINE
  5
233
330
1F
100
AcDbEntity
  8
0
  6
Continuous
 62
     7
370
    25
100
AcDbLine
 10
595.7677691786
 20
-42.2218284674
 30
0.0
 11
595.9094783726
 21
-46.5294022537
 31
0.0
  0
LINE
  5
234
330
1F
100
AcDbEntity
  8
0
  6
Continuous
 62
     7
370
    25
100
AcDbLine
 10
595.6623909532
 20
-41.9217473021
 30
0.0
 11
595.5300839987
 21
-40.4036952458
 31
0.0
  0
LINE
  5
235
330
1F
100
AcDbEntity
  8
0
  6
Continuous
 62
     7
370
    25
100
AcDbLine
 10
595.5300839987
 20
-40.4036952458
 30
0.0
 11
595.2390086988
 21
-43.7434097696
 31
0.0
  0
LINE
  5
236
330
1F
100
AcDbEntity
  8
0
  6
Continuous
 62
     7
370
    25
100
AcDbLine
 10
595.2390086988
 20
-43.7434097696
 30
0.0
 11
595.3713156533
 21
-45.2614618258
 31
0.0
  0
LINE
  5
237
330
1F
100
AcDbEntity
  8
0
  6
Continuous
 62
     7
370
    25
100
AcDbLine
 10
595.2222883378
 20
-48.4940089154
 30
0.0
 11
595.0351780484
 21
-48.4940089154
 31
0.0
  0
LINE
  5
238
330
1F
100
AcDbEntity
  8
0
  6
Continuous
 62
     7
370
    25
100
AcDbLine
 10
595.0351780484
 20
-48.4940089154
 30
0.0
 11
595.0351780484
 21
-53.2170784894
 31
0.0
  0
LINE
  5
239
330
1F
100
AcDbEntity
  8
0
  6
Continuous
 62
     7
370
    25
100
AcDbLine
 10
595.0351780484
 20
-53.2170784894
 30
0.0
 11
595.2222883378
 21
-53.2170784894
 31
0.0
  0
LINE
  5
23A
330
1F
100
AcDbEntity
  8
0
  6
Continuous
 62
     7
370
    25
100
AcDbLine
 10
595.6649754292
 20
-51.9963282437
 30
0.0
 11
595.2763069848
 21
-53.6747826117
 31
0.0
  0
LINE
  5
23B
330
1F
100
AcDbEntity
  8
0
  6
Continuous
 62
     7
370
    25
100
AcDbLine
 10
596.9309148916
 20
-46.5294022537
 30
0.0
 11
596.5260735626
 21
-48.2776987951
 31
0.0
  0
LINE
  5
23C
330
1F
100
AcDbEntity
  8
0
  6
Continuous
 62
     7
370
    25
100
AcDbLine
 10
596.9514389169
 20
-45.8946820821
 30
0.0
 11
597.0837458714
 21
-44.3766300259
 31
0.0
  0
LINE
  5
23D
330
1F
100
AcDbEntity
  8
0
  6
Continuous
 62
     7
370
    25
100
AcDbLine
 10
597.0837458714
 20
-44.3766300259
 30
0.0
 11
596.7926705715
 21
-41.0369155021
 31
0.0
  0
LINE
  5
23E
330
1F
100
AcDbEntity
  8
0
  6
Continuous
 62
     7
370
    25
100
AcDbLine
 10
596.7926705715
 20
-41.0369155021
 30
0.0
 11
596.660363617
 21
-42.5549675583
 31
0.0
  0
LINE
  5
23F
330
1F
100
AcDbEntity
  8
0
  6
Continuous
 62
     7
370
    25
100
AcDbLine
 10
596.3786285744
 20
-40.8450708747
 30
0.0
 11
596.3786285744
 21
-38.6982210683
 31
0.0
  0
LINE
  5
240
330
1F
100
AcDbEntity
  8
0
  6
Continuous
 62
     7
370
    25
100
AcDbLine
 10
596.3786285744
 20
-38.6982210683
 30
0.0
 11
595.9669859377
 21
-38.6982210683
 31
0.0
  0
LINE
  5
241
330
1F
100
AcDbEntity
  8
0
  6
Continuous
 62
     7
370
    25
100
AcDbLine
 10
595.9669859377
 20
-38.6982210683
 30
0.0
 11
595.9669859377
 21
-40.8450708747
 31
0.0
  0
LINE
  5
242
330
1F
100
AcDbEntity
  8
0
  6
Continuous
 62
     7
370
    25
100
AcDbLine
 10
595.888937214
 20
-41.8163046472
 30
0.0
 11
596.0272129683
 21
-46.0195112111
 31
0.0
  0
LINE
  5
243
330
1F
100
AcDbEntity
  8
0
  6
Continuous
 62
     7
370
    25
100
AcDbLine
 10
596.3580874159
 20
-56.0771938254
 30
0.0
 11
596.4997966099
 21
-60.3847676118
 31
0.0
  0
LINE
  5
244
330
1F
100
AcDbEntity
  8
0
  6
Continuous
 62
     7
370
    25
100
AcDbLine
 10
596.6051748352
 20
-60.6848487771
 30
0.0
 11
596.7374817897
 21
-62.2029008333
 31
0.0
  0
LINE
  5
245
330
1F
100
AcDbEntity
  8
0
  6
Continuous
 62
     7
370
    25
100
AcDbLine
 10
596.7374817897
 20
-62.2029008333
 30
0.0
 11
597.0285570896
 21
-58.8631863096
 31
0.0
  0
LINE
  5
246
330
1F
100
AcDbEntity
  8
0
  6
Continuous
 62
     7
370
    25
100
AcDbLine
 10
597.0285570896
 20
-58.8631863096
 30
0.0
 11
596.8962501351
 21
-57.3451342533
 31
0.0
  0
LINE
  5
247
330
1F
100
AcDbEntity
  8
0
  6
Continuous
 62
     7
370
    25
100
AcDbLine
 10
596.5381087292
 20
-54.1125871637
 30
0.0
 11
597.23238774
 21
-54.1125871637
 31
0.0
  0
LINE
  5
248
330
1F
100
AcDbEntity
  8
0
  6
Continuous
 62
     7
370
    25
100
AcDbLine
 10
597.23238774
 20
-54.1125871637
 30
0.0
 11
597.23238774
 21
-49.3895175898
 31
0.0
  0
LINE
  5
249
330
1F
100
AcDbEntity
  8
0
  6
Continuous
 62
     7
370
    25
100
AcDbLine
 10
596.7538545727
 20
-49.3895175898
 30
0.0
 11
597.23238774
 21
-49.3895175898
 31
0.0
  0
LINE
  5
24A
330
1F
100
AcDbEntity
  8
0
  6
Continuous
 62
     7
370
    25
100
AcDbLine
 10
596.9606288498
 20
-48.4940089154
 30
0.0
 11
596.5942952598
 21
-50.0805452689
 31
0.0
  0
LINE
  5
24B
330
1F
100
AcDbEntity
  8
0
  6
Continuous
 62
     7
370
    25
100
AcDbLine
 10
451.4476196254
 20
-120.0
 30
0.0
 11
608.2889575703
 21
-120.0
 31
0.0
  0
LINE
  5
24C
330
1F
100
AcDbEntity
  8
0
  6
Continuous
 62
     7
370
    25
100
AcDbLine
 10
582.6310916603
 20
-1.7366
 30
0.0
 11
582.6310916603
 21
-120.0
 31
0.0
  0
LINE
  5
24D
330
1F
100
AcDbEntity
  8
0
  6
Continuous
 62
     7
370
    25
100
AcDbLine
 10
608.2889575703
 20
-1.7366
 30
0.0
 11
608.2889575703
 21
-120.0
 31
0.0
  0
LINE
  5
24E
330
1F
100
AcDbEntity
  8
0
  6
Continuous
 62
     7
370
    25
100
AcDbLine
 10
591.1530731858
 20
-20.080695329
 30
0.0
 11
591.3084770231
 21
-21.9039243071
 31
0.0
  0
LINE
  5
24F
330
1F
100
AcDbEntity
  8
0
  6
Continuous
 62
     7
370
    25
100
AcDbLine
 10
591.3084770231
 20
-21.9039243071
 30
0.0
 11
591.8511396753
 21
-15.6775686468
 31
0.0
  0
LINE
  5
250
330
1F
100
AcDbEntity
  8
0
  6
Continuous
 62
     7
370
    25
100
AcDbLine
 10
591.8511396753
 20
-15.6775686468
 30
0.0
 11
592.4561051983
 21
-22.6187695817
 31
0.0
  0
LINE
  5
251
330
1F
100
AcDbEntity
  8
0
  6
Continuous
 62
     7
370
    25
100
AcDbLine
 10
593.4890015528
 20
-16.22309032
 30
0.0
 11
593.6650707621
 21
-6.4067498188
 31
0.0
  0
LINE
  5
252
330
1F
100
AcDbEntity
  8
0
  6
Continuous
 62
     7
370
    25
100
AcDbLine
 10
593.1417649116
 20
-6.4067498188
 30
0.0
 11
593.9805692957
 21
-6.4067498188
 31
0.0
  0
LINE
  5
253
330
1F
100
AcDbEntity
  8
0
  6
Continuous
 62
     7
370
    25
100
AcDbLine
 10
593.9805692957
 20
-4.2615244721
 30
0.0
 11
593.9805692957
 21
-6.4067498188
 31
0.0
  0
LINE
  5
254
330
1F
100
AcDbEntity
  8
0
  6
Continuous
 62
     7
370
    25
100
AcDbLine
 10
591.5985356855
 20
-49.3895175898
 30
0.0
 11
591.7856459749
 21
-49.3895175898
 31
0.0
  0
LINE
  5
255
330
1F
100
AcDbEntity
  8
0
  6
Continuous
 62
     7
370
    25
100
AcDbLine
 10
591.5985356855
 20
-54.1125871637
 30
0.0
 11
591.5985356855
 21
-49.3895175898
 31
0.0
  0
LINE
  5
256
330
1F
100
AcDbEntity
  8
0
  6
Continuous
 62
     7
370
    25
100
AcDbLine
 10
591.7856459749
 20
-54.1125871637
 30
0.0
 11
591.5985356855
 21
-54.1125871637
 31
0.0
  0
LINE
  5
257
330
1F
100
AcDbEntity
  8
0
  6
Continuous
 62
     7
370
    25
100
AcDbLine
 10
591.8023663359
 20
-58.8631863095
 30
0.0
 11
591.9346732904
 21
-57.3451342533
 31
0.0
  0
LINE
  5
258
330
1F
100
AcDbEntity
  8
0
  6
Continuous
 62
     7
370
    25
100
AcDbLine
 10
592.0934416358
 20
-62.2029008333
 30
0.0
 11
591.8023663359
 21
-58.8631863095
 31
0.0
  0
LINE
  5
259
330
1F
100
AcDbEntity
  8
0
  6
Continuous
 62
     7
370
    25
100
AcDbLine
 10
592.2257485903
 20
-60.6848487771
 30
0.0
 11
592.0934416358
 21
-62.2029008333
 31
0.0
  0
LINE
  5
25A
330
1F
100
AcDbEntity
  8
0
  6
Continuous
 62
     7
370
    25
100
AcDbLine
 10
592.4728360097
 20
-56.0771938249
 30
0.0
 11
592.3311268156
 21
-60.3847676118
 31
0.0
  0
LINE
  5
25B
330
1F
100
AcDbEntity
  8
0
  6
Continuous
 62
     7
370
    25
100
AcDbLine
 10
591.8702945757
 20
-48.4940089154
 30
0.0
 11
592.2366281658
 21
-50.0805452689
 31
0.0
  0
LINE
  5
25C
330
1F
100
AcDbEntity
  8
0
  6
Continuous
 62
     7
370
    25
100
AcDbLine
 10
595.5036019118
 20
-73.2796645773
 30
0.0
 11
596.7374817897
 21
-73.2796645773
 31
0.0
  0
LINE
  5
25D
330
1F
100
AcDbEntity
  8
0
  6
Continuous
 62
     7
370
    25
100
AcDbLine
 10
596.7374817897
 20
-69.0022366522
 30
0.0
 11
596.7374817897
 21
-73.2796645773
 31
0.0
  0
LINE
  5
25E
330
1F
100
AcDbEntity
  8
0
  6
Continuous
 62
     7
370
    25
100
AcDbLine
 10
596.7374817897
 20
-69.0022366522
 30
0.0
 11
592.3311268156
 21
-69.0022366522
 31
0.0
  0
LINE
  5
25F
330
1F
100
AcDbEntity
  8
0
  6
Continuous
 62
     7
370
    25
100
AcDbLine
 10
592.3311268156
 20
-69.0022366522
 30
0.0
 11
592.3311268156
 21
-73.2796645773
 31
0.0
  0
LINE
  5
260
330
1F
100
AcDbEntity
  8
0
  6
Continuous
 62
     7
370
    25
100
AcDbLine
 10
592.5303435747
 20
-73.2796645773
 30
0.0
 11
592.3311268156
 21
-73.2796645773
 31
0.0
  0
LINE
  5
261
330
1F
100
AcDbEntity
  8
0
  6
Continuous
 62
     7
370
    25
100
AcDbLine
 10
592.9419862115
 20
-41.8163046472
 30
0.0
 11
592.8037104572
 21
-46.0195112108
 31
0.0
  0
LINE
  5
262
330
1F
100
AcDbEntity
  8
0
  6
Continuous
 62
     7
370
    25
100
AcDbLine
 10
592.8639374879
 20
-38.6982210683
 30
0.0
 11
592.8639374879
 21
-40.8450708747
 31
0.0
  0
LINE
  5
263
330
1F
100
AcDbEntity
  8
0
  6
Continuous
 62
     7
370
    25
100
AcDbLine
 10
592.4522948511
 20
-38.6982210683
 30
0.0
 11
592.8639374879
 21
-38.6982210683
 31
0.0
  0
LINE
  5
264
330
1F
100
AcDbEntity
  8
0
  6
Continuous
 62
     7
370
    25
100
AcDbLine
 10
592.4522948511
 20
-40.8450708747
 30
0.0
 11
592.4522948511
 21
-38.6982210683
 31
0.0
  0
LINE
  5
265
330
1F
100
AcDbEntity
  8
0
  6
Continuous
 62
     7
370
    25
100
AcDbLine
 10
592.038252854
 20
-41.0369155021
 30
0.0
 11
592.1705598085
 21
-42.5549675583
 31
0.0
  0
LINE
  5
266
330
1F
100
AcDbEntity
  8
0
  6
Continuous
 62
     7
370
    25
100
AcDbLine
 10
591.7471775542
 20
-44.3766300258
 30
0.0
 11
592.038252854
 21
-41.0369155021
 31
0.0
  0
LINE
  5
267
330
1F
100
AcDbEntity
  8
0
  6
Continuous
 62
     7
370
    25
100
AcDbLine
 10
591.8794845086
 20
-45.8946820821
 30
0.0
 11
591.7471775542
 21
-44.3766300258
 31
0.0
  0
LINE
  5
268
330
1F
100
AcDbEntity
  8
0
  6
Continuous
 62
     7
370
    25
100
AcDbLine
 10
591.9000085339
 20
-46.5294022537
 30
0.0
 11
592.304849863
 21
-48.2776987951
 31
0.0
  0
LINE
  5
269
330
1F
100
AcDbEntity
  8
0
  6
Continuous
 62
     7
370
    25
100
AcDbLine
 10
594.3802429211
 20
-107.8293866006
 30
0.0
 11
594.3802429211
 21
-118.2184171377
 31
0.0
  0
LINE
  5
26A
330
1F
100
AcDbEntity
  8
0
  6
Continuous
 62
     7
370
    25
100
AcDbLine
 10
592.799550679
 20
-107.8293866006
 30
0.0
 11
594.3802429211
 21
-107.8293866006
 31
0.0
  0
LINE
  5
26B
330
1F
100
AcDbEntity
  8
0
  6
Continuous
 62
     7
370
    25
100
AcDbLine
 10
593.6471035084
 20
-96.5148577509
 30
0.0
 11
593.7957453771
 21
-107.8293866006
 31
0.0
  0
LINE
  5
26C
330
1F
100
AcDbEntity
  8
0
  6
Continuous
 62
     7
370
    25
100
AcDbLine
 10
591.914471114
 20
-98.2008676845
 30
0.0
 11
592.6392004768
 21
-93.3169595571
 31
0.0
  0
LINE
  5
26D
330
1F
100
AcDbEntity
  8
0
  6
Continuous
 62
     7
370
    25
100
AcDbLine
 10
591.5952549268
 20
-96.7413919316
 30
0.0
 11
591.914471114
 21
-98.2008676845
 31
0.0
  0
LINE
  5
26E
330
1F
100
AcDbEntity
  8
0
  6
Continuous
 62
     7
370
    25
100
AcDbLine
 10
591.5952549268
 20
-96.7413919316
 30
0.0
 11
591.0932254094
 21
-101.2889842454
 31
0.0
  0
LINE
  5
26F
330
1F
100
AcDbEntity
  8
0
  6
Continuous
 62
     7
370
    25
100
AcDbLine
 10
591.2516369357
 20
-91.7475866212
 30
0.0
 11
590.7253560689
 21
-96.5148577509
 31
0.0
  0
LINE
  5
270
330
1F
100
AcDbEntity
  8
0
  6
Continuous
 62
     7
370
    25
100
AcDbLine
 10
590.9111919452
 20
-88.4330514296
 30
0.0
 11
591.2516369357
 21
-91.7475866212
 31
0.0
  0
LINE
  5
271
330
1F
100
AcDbEntity
  8
0
  6
Continuous
 62
     7
370
    25
100
AcDbLine
 10
591.5985356855
 20
-79.1389741602
 30
0.0
 11
590.9111919452
 21
-88.4330514296
 31
0.0
  0
LINE
  5
272
330
1F
100
AcDbEntity
  8
0
  6
Continuous
 62
     7
370
    25
100
AcDbLine
 10
591.2985986532
 20
-73.2796645773
 30
0.0
 11
591.5985356855
 21
-79.1389741602
 31
0.0
  0
LINE
  5
273
330
1F
100
AcDbEntity
  8
0
  6
Continuous
 62
     7
370
    25
100
AcDbLine
 10
590.3024039551
 20
-73.2796645773
 30
0.0
 11
591.5985356855
 21
-73.2796645773
 31
0.0
  0
LINE
  5
274
330
1F
100
AcDbEntity
  8
0
  6
Continuous
 62
     7
370
    25
100
AcDbLine
 10
591.5985356855
 20
-69.0022366522
 30
0.0
 11
591.5985356855
 21
-73.2796645773
 31
0.0
  0
LINE
  5
275
330
1F
100
AcDbEntity
  8
0
  6
Continuous
 62
     7
370
    25
100
AcDbLine
 10
589.9149972471
 20
-69.0022366522
 30
0.0
 11
591.5985356855
 21
-69.0022366522
 31
0.0
  0
LINE
  5
276
330
1F
100
AcDbEntity
  8
0
  6
Continuous
 62
     7
370
    25
100
AcDbLine
 10
590.9111919452
 20
-69.0022366522
 30
0.0
 11
590.0556414978
 21
-66.9820690328
 31
0.0
  0
LINE
  5
277
330
1F
100
AcDbEntity
  8
0
  6
Continuous
 62
     7
370
    25
100
AcDbLine
 10
590.0556414978
 20
-66.9820690328
 30
0.0
 11
590.0556414978
 21
-60.6848487771
 31
0.0
  0
LINE
  5
278
330
1F
100
AcDbEntity
  8
0
  6
Continuous
 62
     7
370
    25
100
AcDbLine
 10
590.0556414978
 20
-60.6848487771
 30
0.0
 11
589.6515522276
 21
-61.0263405731
 31
0.0
  0
LINE
  5
279
330
1F
100
AcDbEntity
  8
0
  6
Continuous
 62
     7
370
    25
100
AcDbLine
 10
598.9445577004
 20
-61.2384313758
 30
0.0
 11
599.6346051731
 21
-61.2384313758
 31
0.0
  0
LINE
  5
27A
330
1F
100
AcDbEntity
  8
0
  6
Continuous
 62
     7
370
    25
100
AcDbLine
 10
598.9445577004
 20
-61.2384313758
 30
0.0
 11
598.9445577004
 21
-65.4128576217
 31
0.0
  0
LINE
  5
27B
330
1F
100
AcDbEntity
  8
0
  6
Continuous
 62
     7
370
    25
100
AcDbLine
 10
598.9445577004
 20
-65.4128576217
 30
0.0
 11
598.173937097
 21
-69.0022366522
 31
0.0
  0
LINE
  5
27C
330
1F
100
AcDbEntity
  8
0
  6
Continuous
 62
     7
370
    25
100
AcDbLine
 10
598.173937097
 20
-69.0022366522
 30
0.0
 11
597.3914496058
 21
-69.0022366522
 31
0.0
  0
LINE
  5
27D
330
1F
100
AcDbEntity
  8
0
  6
Continuous
 62
     7
370
    25
100
AcDbLine
 10
597.3914496058
 20
-69.0022366522
 30
0.0
 11
597.3914496058
 21
-73.2796645773
 31
0.0
  0
LINE
  5
27E
330
1F
100
AcDbEntity
  8
0
  6
Continuous
 62
     7
370
    25
100
AcDbLine
 10
597.3914496058
 20
-73.2796645773
 30
0.0
 11
597.6379811472
 21
-73.2796645773
 31
0.0
  0
LINE
  5
27F
330
1F
100
AcDbEntity
  8
0
  6
Continuous
 62
     7
370
    25
100
AcDbLine
 10
597.6379811472
 20
-73.2796645773
 30
0.0
 11
597.3914496058
 21
-79.1389741602
 31
0.0
  0
LINE
  5
280
330
1F
100
AcDbEntity
  8
0
  6
Continuous
 62
     7
370
    25
100
AcDbLine
 10
597.3914496058
 20
-79.1389741602
 30
0.0
 11
597.8672117949
 21
-88.4330514296
 31
0.0
  0
LINE
  5
281
330
1F
100
AcDbEntity
  8
0
  6
Continuous
 62
     7
370
    25
100
AcDbLine
 10
597.8672117949
 20
-88.4330514296
 30
0.0
 11
597.6563384644
 21
-91.2844239144
 31
0.0
  0
LINE
  5
282
330
1F
100
AcDbEntity
  8
0
  6
Continuous
 62
     7
370
    25
100
AcDbLine
 10
597.6563384644
 20
-91.2844239144
 30
0.0
 11
598.4521365284
 21
-98.0398996783
 31
0.0
  0
LINE
  5
283
330
1F
100
AcDbEntity
  8
0
  6
Continuous
 62
     7
370
    25
100
AcDbLine
 10
597.3914496058
 20
-94.8661798468
 30
0.0
 11
598.173937097
 21
-101.5086630613
 31
0.0
  0
LINE
  5
284
330
1F
100
AcDbEntity
  8
0
  6
Continuous
 62
     7
370
    25
100
AcDbLine
 10
597.3914496058
 20
-94.8661798468
 30
0.0
 11
597.0688888785
 21
-99.227759283
 31
0.0
  0
LINE
  5
285
330
1F
100
AcDbEntity
  8
0
  6
Continuous
 62
     7
370
    25
100
AcDbLine
 10
597.0688888785
 20
-99.227759283
 30
0.0
 11
596.3005798508
 21
-91.7475866212
 31
0.0
  0
LINE
  5
286
330
1F
100
AcDbEntity
  8
0
  6
Continuous
 62
     7
370
    25
100
AcDbLine
 10
595.1838199171
 20
-107.8293866006
 30
0.0
 11
595.3161268716
 21
-96.5148577509
 31
0.0
  0
LINE
  5
287
330
1F
100
AcDbEntity
  8
0
  6
Continuous
 62
     7
370
    25
100
AcDbLine
 10
594.9261341914
 20
-107.8293866006
 30
0.0
 11
595.1838199171
 21
-107.8293866006
 31
0.0
  0
LINE
  5
288
330
1F
100
AcDbEntity
  8
0
  6
Continuous
 62
     7
370
    25
100
AcDbLine
 10
594.9261341914
 20
-107.8293866006
 30
0.0
 11
594.9261341914
 21
-118.20573374
 31
0.0
  0
LINE
  5
289
330
1F
100
AcDbEntity
  8
0
  6
Continuous
 62
     7
370
    25
100
AcDbLine
 10
594.5000995991
 20
-6.4067498188
 30
0.0
 11
594.5000995991
 21
-3.7783067347
 31
0.0
  0
LINE
  5
28A
330
1F
100
AcDbEntity
  8
0
  6
Continuous
 62
     7
370
    25
100
AcDbLine
 10
594.5000995991
 20
-6.4067498188
 30
0.0
 11
595.19836265
 21
-6.4067498188
 31
0.0
  0
LINE
  5
28B
330
1F
100
AcDbEntity
  8
0
  6
Continuous
 62
     7
370
    25
100
AcDbLine
 10
595.19836265
 20
-6.4067498188
 30
0.0
 11
595.19836265
 21
-16.22309032
 31
0.0
  0
LINE
  5
28C
330
1F
100
AcDbEntity
  8
0
  6
Continuous
 62
     7
370
    25
100
AcDbLine
 10
596.3228862532
 20
-20.080695329
 30
0.0
 11
597.0523515081
 21
-14.567968617
 31
0.0
  0
LINE
  5
28D
330
1F
100
AcDbEntity
  8
0
  6
Continuous
 62
     7
370
    25
100
AcDbLine
 10
597.0523515081
 20
-14.567968617
 30
0.0
 11
597.3326704829
 21
-17.7842681508
 31
0.0
  0
LINE
  5
28E
330
1F
100
AcDbEntity
  8
0
  6
Continuous
 62
     7
370
    25
100
AcDbLine
 10
597.3326704829
 20
-17.7842681508
 30
0.0
 11
597.6563384644
 21
-15.3674831598
 31
0.0
  0
LINE
  5
28F
330
1F
100
AcDbEntity
  8
0
  6
Continuous
 62
     7
370
    25
100
AcDbLine
 10
597.6563384644
 20
-21.4979417567
 30
0.0
 11
598.0031705219
 21
-18.6738741333
 31
0.0
  0
LINE
  5
290
330
1F
100
AcDbEntity
  8
0
  6
Continuous
 62
     7
370
    25
100
AcDbLine
 10
597.6563384644
 20
-21.4979417567
 30
0.0
 11
598.1365525996
 21
-27.0077810407
 31
0.0
  0
LINE
  5
291
330
1F
100
AcDbEntity
  8
0
  6
Continuous
 62
     7
370
    25
100
AcDbLine
 10
598.1365525996
 20
-27.0077810407
 30
0.0
 11
597.5315870765
 21
-33.9489819756
 31
0.0
  0
LINE
  5
292
330
1F
100
AcDbEntity
  8
0
  6
Continuous
 62
     7
370
    25
100
AcDbLine
 10
598.089007253
 20
-45.8001385593
 30
0.0
 11
598.9445577004
 21
-47.8203061787
 31
0.0
  0
LINE
  5
293
330
1F
100
AcDbEntity
  8
0
  6
Continuous
 62
     7
370
    25
100
AcDbLine
 10
598.9445577004
 20
-47.8203061787
 30
0.0
 11
598.9445577004
 21
-54.1125871637
 31
0.0
  0
LINE
  5
294
330
1F
100
AcDbEntity
  8
0
  6
Continuous
 62
     7
370
    25
100
AcDbLine
 10
598.9445577004
 20
-54.1125871637
 30
0.0
 11
599.5981349437
 21
-54.1125871637
 31
0.0
  0
LINE
  5
295
330
1F
100
AcDbEntity
  8
0
  6
Continuous
 62
     7
370
    25
100
AcDbLine
 10
584.809985229
 20
-98.5
 30
0.0
 11
583.0668703741
 21
-98.5
 31
0.0
  0
LINE
  5
296
330
1F
100
AcDbEntity
  8
0
  6
Continuous
 62
     7
370
    25
100
AcDbLine
 10
583.0668703741
 20
-101.5
 30
0.0
 11
584.809985229
 21
-101.5
 31
0.0
  0
LINE
  5
297
330
1F
100
AcDbEntity
  8
0
  6
Continuous
 62
     7
370
    25
100
AcDbLine
 10
584.809985229
 20
-28.5
 30
0.0
 11
583.0668703741
 21
-28.5
 31
0.0
  0
LINE
  5
298
330
1F
100
AcDbEntity
  8
0
  6
Continuous
 62
     7
370
    25
100
AcDbLine
 10
583.0668703741
 20
-31.5
 30
0.0
 11
584.809985229
 21
-31.5
 31
0.0
  0
LINE
  5
299
330
1F
100
AcDbEntity
  8
0
  6
Continuous
 62
     7
370
    25
100
AcDbLine
 10
606.1100640016
 20
-31.5
 30
0.0
 11
607.8531788566
 21
-31.5
 31
0.0
  0
LINE
  5
29A
330
1F
100
AcDbEntity
  8
0
  6
Continuous
 62
     7
370
    25
100
AcDbLine
 10
607.8531788566
 20
-28.5
 30
0.0
 11
606.1100640016
 21
-28.5
 31
0.0
  0
LINE
  5
29B
330
1F
100
AcDbEntity
  8
0
  6
Continuous
 62
     7
370
    25
100
AcDbLine
 10
606.1100640016
 20
-101.5
 30
0.0
 11
607.8531788566
 21
-101.5
 31
0.0
  0
LINE
  5
29C
330
1F
100
AcDbEntity
  8
0
  6
Continuous
 62
     7
370
    25
100
AcDbLine
 10
607.8531788566
 20
-98.5
 30
0.0
 11
606.1100640016
 21
-98.5
 31
0.0
  0
LINE
  5
29D
330
1F
100
AcDbEntity
  8
0
  6
Continuous
 62
     7
370
    25
100
AcDbLine
 10
581.6348969623
 20
-1.7366
 30
0.0
 11
581.6348969623
 21
-120.0
 31
0.0
  0
LINE
  5
29E
330
1F
100
AcDbEntity
  8
0
  6
Continuous
 62
     7
370
    25
100
AcDbLine
 10
-17.3660953186
 20
-1.7366
 30
0.0
 11
608.2889575703
 21
-1.7366
 31
0.0
  0
LINE
  5
29F
330
1F
100
AcDbEntity
  8
0
  6
Continuous
 62
     7
370
    25
100
AcDbLine
 10
-16.3699006205
 20
-1.7366
 30
0.0
 11
-16.3699006205
 21
-120.0
 31
0.0
  0
LINE
  5
2A0
330
1F
100
AcDbEntity
  8
0
  6
Continuous
 62
     7
370
    25
100
AcDbLine
 10
-17.3660953186
 20
-120.0
 30
0.0
 11
146.1473286878
 21
-120.0
 31
0.0
  0
LINE
  5
2A1
330
1F
100
AcDbEntity
  8
0
  6
Continuous
 62
     7
370
    25
100
AcDbLine
 10
-17.3660953186
 20
-1.7366
 30
0.0
 11
-17.3660953186
 21
-120.0
 31
0.0
  0
LINE
  5
2A2
330
1F
100
AcDbEntity
  8
0
  6
Continuous
 62
     7
370
    25
100
AcDbLine
 10
-10.1331466076
 20
-31.5
 30
0.0
 11
-10.1331466076
 21
-28.5
 31
0.0
  0
LINE
  5
2A3
330
1F
100
AcDbEntity
  8
0
  6
Continuous
 62
     7
370
    25
100
AcDbLine
 10
-10.5689253213
 20
-31.5
 30
0.0
 11
-10.5689253213
 21
-28.5
 31
0.0
  0
LINE
  5
2A4
330
1F
100
AcDbEntity
  8
0
  6
Continuous
 62
     7
370
    25
100
AcDbLine
 10
8.3575452878
 20
-31.5
 30
0.0
 11
8.3575452878
 21
-28.5
 31
0.0
  0
LINE
  5
2A5
330
1F
100
AcDbEntity
  8
0
  6
Continuous
 62
     7
370
    25
100
AcDbLine
 10
8.7933240015
 20
-31.5
 30
0.0
 11
8.7933240015
 21
-28.5
 31
0.0
  0
LINE
  5
2A6
330
1F
100
AcDbEntity
  8
0
  6
Continuous
 62
     7
370
    25
100
AcDbLine
 10
9.6937053222
 20
-31.448945751
 30
0.0
 11
9.6937053222
 21
-31.108101579
 31
0.0
  0
LINE
  5
2A7
330
1F
100
AcDbEntity
  8
0
  6
Continuous
 62
     7
370
    25
100
AcDbLine
 10
9.2510753397
 20
-101.5
 30
0.0
 11
9.2510753397
 21
-98.5
 31
0.0
  0
LINE
  5
2A8
330
1F
100
AcDbEntity
  8
0
  6
Continuous
 62
     7
370
    25
100
AcDbLine
 10
9.2510753397
 20
-31.5
 30
0.0
 11
9.2510753397
 21
-28.5
 31
0.0
  0
LINE
  5
2A9
330
1F
100
AcDbEntity
  8
0
  6
Continuous
 62
     7
370
    25
100
AcDbLine
 10
18.3622900167
 20
-49.5529368733
 30
0.0
 11
18.3622900167
 21
-53.4473461459
 31
0.0
  0
LINE
  5
2AA
330
1F
100
AcDbEntity
  8
0
  6
Continuous
 62
     7
370
    25
100
AcDbLine
 10
-8.7983562135
 20
-31.5
 30
0.0
 11
-8.7983562135
 21
-28.5
 31
0.0
  0
LINE
  5
2AB
330
1F
100
AcDbEntity
  8
0
  6
Continuous
 62
     7
370
    25
100
AcDbLine
 10
-10.1331466076
 20
-101.5
 30
0.0
 11
-10.1331466076
 21
-98.5
 31
0.0
  0
LINE
  5
2AC
330
1F
100
AcDbEntity
  8
0
  6
Continuous
 62
     7
370
    25
100
AcDbLine
 10
-10.5689253213
 20
-101.5
 30
0.0
 11
-10.5689253213
 21
-98.5
 31
0.0
  0
LINE
  5
2AD
330
1F
100
AcDbEntity
  8
0
  6
Continuous
 62
     7
370
    25
100
AcDbLine
 10
8.3575452878
 20
-101.5
 30
0.0
 11
8.3575452878
 21
-98.5
 31
0.0
  0
LINE
  5
2AE
330
1F
100
AcDbEntity
  8
0
  6
Continuous
 62
     7
370
    25
100
AcDbLine
 10
8.7933240015
 20
-101.5
 30
0.0
 11
8.7933240015
 21
-98.5
 31
0.0
  0
LINE
  5
2AF
330
1F
100
AcDbEntity
  8
0
  6
Continuous
 62
     7
370
    25
100
AcDbLine
 10
-15.9341219068
 20
-31.5
 30
0.0
 11
-15.6943104129
 21
-31.5
 31
0.0
  0
LINE
  5
2B0
330
1F
100
AcDbEntity
  8
0
  6
Continuous
 62
     7
370
    25
100
AcDbLine
 10
-15.6943104129
 20
-28.5
 30
0.0
 11
-15.9341219068
 21
-28.5
 31
0.0
  0
LINE
  5
2B1
330
1F
100
AcDbEntity
  8
0
  6
Continuous
 62
     7
370
    25
100
AcDbLine
 10
-15.9341219068
 20
-101.5
 30
0.0
 11
-15.6943104129
 21
-101.5
 31
0.0
  0
LINE
  5
2B2
330
1F
100
AcDbEntity
  8
0
  6
Continuous
 62
     7
370
    25
100
AcDbLine
 10
-15.6943104129
 20
-98.5
 30
0.0
 11
-15.9341219068
 21
-98.5
 31
0.0
  0
LINE
  5
2B3
330
1F
100
AcDbEntity
  8
0
  6
Continuous
 62
     7
370
    25
100
AcDbLine
 10
589.6786152223
 20
-66.9820690328
 30
0.0
 11
590.0556414978
 21
-66.9820690328
 31
0.0
  0
LINE
  5
2B4
330
1F
100
AcDbEntity
  8
0
  6
Continuous
 62
     7
370
    25
100
AcDbLine
 10
589.6940110306
 20
-68.4804331743
 30
0.0
 11
589.9149972471
 21
-69.0022366522
 31
0.0
  0
LINE
  5
2B5
330
1F
100
AcDbEntity
  8
0
  6
Continuous
 62
     7
370
    25
100
AcDbLine
 10
590.4304571736
 20
-91.7475866212
 30
0.0
 11
591.2516369357
 21
-91.7475866212
 31
0.0
  0
LINE
  5
2B6
330
1F
100
AcDbEntity
  8
0
  6
Continuous
 62
     7
370
    25
100
AcDbLine
 10
590.712466381
 20
-25.7259562458
 30
0.0
 11
590.9753649907
 21
-25.7259562458
 31
0.0
  0
LINE
  5
2B7
330
1F
100
AcDbEntity
  8
0
  6
Continuous
 62
     7
370
    25
100
AcDbLine
 10
590.5578897542
 20
-28.1173810706
 30
0.0
 11
590.7669385838
 21
-28.1173810706
 31
0.0
  0
LINE
  5
2B8
330
1F
100
AcDbEntity
  8
0
  6
Continuous
 62
     7
370
    25
100
AcDbLine
 10
590.2512096769
 20
-36.4870562282
 30
0.0
 11
591.247404375
 21
-36.4870562282
 31
0.0
  0
LINE
  5
2B9
330
1F
100
AcDbEntity
  8
0
  6
Continuous
 62
     7
370
    25
100
AcDbLine
 10
590.1833083949
 20
-35.3042213963
 30
0.0
 11
590.2512096769
 21
-36.4870562282
 31
0.0
  0
LINE
  5
2BA
330
1F
100
AcDbEntity
  8
0
  6
Continuous
 62
     7
370
    25
100
AcDbLine
 10
590.6023409874
 20
-79.1389741602
 30
0.0
 11
591.5985356855
 21
-79.1389741602
 31
0.0
  0
LINE
  5
2BB
330
1F
100
AcDbEntity
  8
0
  6
Continuous
 62
     7
370
    25
100
AcDbLine
 10
590.2601917714
 20
-88.4330514296
 30
0.0
 11
590.9111919452
 21
-88.4330514296
 31
0.0
  0
LINE
  5
2BC
330
1F
100
AcDbEntity
  8
0
  6
Continuous
 62
     7
370
    25
100
AcDbLine
 10
590.1308475506
 20
-85.5143816552
 30
0.0
 11
590.6023409874
 21
-79.1389741602
 31
0.0
  0
LINE
  5
2BD
330
1F
100
AcDbEntity
  8
0
  6
Continuous
 62
     7
370
    25
100
AcDbLine
 10
590.6023409874
 20
-79.1389741602
 30
0.0
 11
590.3024039551
 21
-73.2796645773
 31
0.0
  0
LINE
  5
2BE
330
1F
100
AcDbEntity
  8
0
  6
Continuous
 62
     7
370
    25
100
AcDbLine
 10
591.5944903989
 20
-15.6775686468
 30
0.0
 11
591.8511396753
 21
-15.6775686468
 31
0.0
  0
LINE
  5
2BF
330
1F
100
AcDbEntity
  8
0
  6
Continuous
 62
     7
370
    25
100
AcDbLine
 10
591.4341367224
 20
-98.2008676845
 30
0.0
 11
591.914471114
 21
-98.2008676845
 31
0.0
  0
LINE
  5
2C0
330
1F
100
AcDbEntity
  8
0
  6
Continuous
 62
     7
370
    25
100
AcDbLine
 10
590.6023409874
 20
-73.2796645773
 30
0.0
 11
590.6023409874
 21
-69.0022366522
 31
0.0
  0
LINE
  5
2C1
330
1F
100
AcDbEntity
  8
0
  6
Continuous
 62
     7
370
    25
100
AcDbLine
 10
591.5985356855
 20
-50.0805452689
 30
0.0
 11
592.2366281658
 21
-50.0805452689
 31
0.0
  0
LINE
  5
2C2
330
1F
100
AcDbEntity
  8
0
  6
Continuous
 62
     7
370
    25
100
AcDbLine
 10
591.9059458995
 20
-42.5549675583
 30
0.0
 11
592.1705598085
 21
-42.5549675583
 31
0.0
  0
LINE
  5
2C3
330
1F
100
AcDbEntity
  8
0
  6
Continuous
 62
     7
370
    25
100
AcDbLine
 10
591.9611346813
 20
-60.6848487771
 30
0.0
 11
592.2257485903
 21
-60.6848487771
 31
0.0
  0
LINE
  5
2C4
330
1F
100
AcDbEntity
  8
0
  6
Continuous
 62
     7
370
    25
100
AcDbLine
 10
591.940294994
 20
-56.0771938249
 30
0.0
 11
592.4728360097
 21
-56.0771938249
 31
0.0
  0
LINE
  5
2C5
330
1F
100
AcDbEntity
  8
0
  6
Continuous
 62
     7
370
    25
100
AcDbLine
 10
591.9349808845
 20
-60.3847676118
 30
0.0
 11
592.3311268156
 21
-60.3847676118
 31
0.0
  0
LINE
  5
2C6
330
1F
100
AcDbEntity
  8
0
  6
Continuous
 62
     7
370
    25
100
AcDbLine
 10
592.4928068547
 20
-16.22309032
 30
0.0
 11
593.4890015528
 21
-16.22309032
 31
0.0
  0
LINE
  5
2C7
330
1F
100
AcDbEntity
  8
0
  6
Continuous
 62
     7
370
    25
100
AcDbLine
 10
592.6509088103
 20
-96.5148577509
 30
0.0
 11
593.6471035084
 21
-96.5148577509
 31
0.0
  0
LINE
  5
2C8
330
1F
100
AcDbEntity
  8
0
  6
Continuous
 62
     7
370
    25
100
AcDbLine
 10
592.4042162221
 20
-41.8163046472
 30
0.0
 11
592.9419862115
 21
-41.8163046472
 31
0.0
  0
LINE
  5
2C9
330
1F
100
AcDbEntity
  8
0
  6
Continuous
 62
     7
370
    25
100
AcDbLine
 10
591.8302183007
 20
-45.3294157397
 30
0.0
 11
591.9177206397
 21
-42.6695828046
 31
0.0
  0
LINE
  5
2CA
330
1F
100
AcDbEntity
  8
0
  6
Continuous
 62
     7
370
    25
100
AcDbLine
 10
592.4522948511
 20
-40.8450708747
 30
0.0
 11
592.8639374879
 21
-40.8450708747
 31
0.0
  0
LINE
  5
2CB
330
1F
100
AcDbEntity
  8
0
  6
Continuous
 62
     7
370
    25
100
AcDbLine
 10
592.5303435747
 20
-61.7615252044
 30
0.0
 11
592.9419862115
 21
-61.7615252044
 31
0.0
  0
LINE
  5
2CC
330
1F
100
AcDbEntity
  8
0
  6
Continuous
 62
     7
370
    25
100
AcDbLine
 10
592.9962437708
 20
-55.5028344569
 30
0.0
 11
593.4886427571
 21
-55.5028344569
 31
0.0
  0
LINE
  5
2CD
330
1F
100
AcDbEntity
  8
0
  6
Continuous
 62
     7
370
    25
100
AcDbLine
 10
593.0130977486
 20
-43.7434097696
 30
0.0
 11
593.5919147267
 21
-43.7434097696
 31
0.0
  0
LINE
  5
2CE
330
1F
100
AcDbEntity
  8
0
  6
Continuous
 62
     7
370
    25
100
AcDbLine
 10
592.6509088103
 20
-58.2299660533
 30
0.0
 11
593.6471035084
 21
-58.2299660533
 31
0.0
  0
LINE
  5
2CF
330
1F
100
AcDbEntity
  8
0
  6
Continuous
 62
     7
370
    25
100
AcDbLine
 10
592.5021298419
 20
-59.9370132746
 30
0.0
 11
592.6509088103
 21
-58.2299660533
 31
0.0
  0
LINE
  5
2D0
330
1F
100
AcDbEntity
  8
0
  6
Continuous
 62
     7
370
    25
100
AcDbLine
 10
592.9631573543
 20
-45.2614618258
 30
0.0
 11
593.4596077722
 21
-45.2614618258
 31
0.0
  0
LINE
  5
2D1
330
1F
100
AcDbEntity
  8
0
  6
Continuous
 62
     7
370
    25
100
AcDbLine
 10
592.7320464886
 20
-56.711913997
 30
0.0
 11
593.5147965539
 21
-56.711913997
 31
0.0
  0
LINE
  5
2D2
330
1F
100
AcDbEntity
  8
0
  6
Continuous
 62
     7
370
    25
100
AcDbLine
 10
592.6291156319
 20
-8.6235027772
 30
0.0
 11
592.4928068547
 21
-16.22309032
 31
0.0
  0
LINE
  5
2D3
330
1F
100
AcDbEntity
  8
0
  6
Continuous
 62
     7
370
    25
100
AcDbLine
 10
592.6509088103
 20
-58.2299660533
 30
0.0
 11
592.5678680638
 21
-57.2771803394
 31
0.0
  0
LINE
  5
2D4
330
1F
100
AcDbEntity
  8
0
  6
Continuous
 62
     7
370
    25
100
AcDbLine
 10
592.799550679
 20
-107.8293866006
 30
0.0
 11
592.6509088103
 21
-96.5148577509
 31
0.0
  0
LINE
  5
2D5
330
1F
100
AcDbEntity
  8
0
  6
Continuous
 62
     7
370
    25
100
AcDbLine
 10
593.384048223
 20
-116.4460461473
 30
0.0
 11
593.384048223
 21
-107.8293866006
 31
0.0
  0
LINE
  5
2D6
330
1F
100
AcDbEntity
  8
0
  6
Continuous
 62
     7
370
    25
100
AcDbLine
 10
597.122033792
 20
-15.3674831598
 30
0.0
 11
597.6563384644
 21
-15.3674831598
 31
0.0
  0
LINE
  5
2D7
330
1F
100
AcDbEntity
  8
0
  6
Continuous
 62
     7
370
    25
100
AcDbLine
 10
597.1777423989
 20
-101.5086630613
 30
0.0
 11
598.173937097
 21
-101.5086630613
 31
0.0
  0
LINE
  5
2D8
330
1F
100
AcDbEntity
  8
0
  6
Continuous
 62
     7
370
    25
100
AcDbLine
 10
595.5345750798
 20
-20.080695329
 30
0.0
 11
596.3228862532
 21
-20.080695329
 31
0.0
  0
LINE
  5
2D9
330
1F
100
AcDbEntity
  8
0
  6
Continuous
 62
     7
370
    25
100
AcDbLine
 10
595.0351780484
 20
-51.9963282437
 30
0.0
 11
595.6649754292
 21
-51.9963282437
 31
0.0
  0
LINE
  5
2DA
330
1F
100
AcDbEntity
  8
0
  6
Continuous
 62
     7
370
    25
100
AcDbLine
 10
595.3425882625
 20
-60.0516285208
 30
0.0
 11
595.6072021714
 21
-60.0516285208
 31
0.0
  0
LINE
  5
2DB
330
1F
100
AcDbEntity
  8
0
  6
Continuous
 62
     7
370
    25
100
AcDbLine
 10
595.3977770442
 20
-41.9217473021
 30
0.0
 11
595.6623909532
 21
-41.9217473021
 31
0.0
  0
LINE
  5
2DC
330
1F
100
AcDbEntity
  8
0
  6
Continuous
 62
     7
370
    25
100
AcDbLine
 10
595.3769373569
 20
-46.5294022537
 30
0.0
 11
595.9094783726
 21
-46.5294022537
 31
0.0
  0
LINE
  5
2DD
330
1F
100
AcDbEntity
  8
0
  6
Continuous
 62
     7
370
    25
100
AcDbLine
 10
595.3716232474
 20
-42.2218284674
 30
0.0
 11
595.7677691786
 21
-42.2218284674
 31
0.0
  0
LINE
  5
2DE
330
1F
100
AcDbEntity
  8
0
  6
Continuous
 62
     7
370
    25
100
AcDbLine
 10
595.840858585
 20
-60.7902914319
 30
0.0
 11
596.3786285744
 21
-60.7902914319
 31
0.0
  0
LINE
  5
2DF
330
1F
100
AcDbEntity
  8
0
  6
Continuous
 62
     7
370
    25
100
AcDbLine
 10
595.3543630026
 20
-59.9370132746
 30
0.0
 11
595.2668606636
 21
-57.2771803394
 31
0.0
  0
LINE
  5
2E0
330
1F
100
AcDbEntity
  8
0
  6
Continuous
 62
     7
370
    25
100
AcDbLine
 10
595.888937214
 20
-61.7615252045
 30
0.0
 11
596.3005798508
 21
-61.7615252045
 31
0.0
  0
LINE
  5
2E1
330
1F
100
AcDbEntity
  8
0
  6
Continuous
 62
     7
370
    25
100
AcDbLine
 10
596.0726941805
 20
-99.227759283
 30
0.0
 11
597.0688888785
 21
-99.227759283
 31
0.0
  0
LINE
  5
2E2
330
1F
100
AcDbEntity
  8
0
  6
Continuous
 62
     7
370
    25
100
AcDbLine
 10
595.5681215733
 20
-94.3152955671
 30
0.0
 11
596.0726941805
 21
-99.227759283
 31
0.0
  0
LINE
  5
2E3
330
1F
100
AcDbEntity
  8
0
  6
Continuous
 62
     7
370
    25
100
AcDbLine
 10
596.05615681
 20
-14.567968617
 30
0.0
 11
597.0523515081
 21
-14.567968617
 31
0.0
  0
LINE
  5
2E4
330
1F
100
AcDbEntity
  8
0
  6
Continuous
 62
     7
370
    25
100
AcDbLine
 10
596.05615681
 20
-14.567968617
 30
0.0
 11
595.4292562935
 21
-19.305591417
 31
0.0
  0
LINE
  5
2E5
330
1F
100
AcDbEntity
  8
0
  6
Continuous
 62
     7
370
    25
100
AcDbLine
 10
595.9669859377
 20
-40.8450708747
 30
0.0
 11
596.3786285744
 21
-40.8450708747
 31
0.0
  0
LINE
  5
2E6
330
1F
100
AcDbEntity
  8
0
  6
Continuous
 62
     7
370
    25
100
AcDbLine
 10
596.3580874159
 20
-46.5294022537
 30
0.0
 11
596.9309148916
 21
-46.5294022537
 31
0.0
  0
LINE
  5
2E7
330
1F
100
AcDbEntity
  8
0
  6
Continuous
 62
     7
370
    25
100
AcDbLine
 10
596.4497401116
 20
-58.8631863096
 30
0.0
 11
597.0285570896
 21
-58.8631863096
 31
0.0
  0
LINE
  5
2E8
330
1F
100
AcDbEntity
  8
0
  6
Continuous
 62
     7
370
    25
100
AcDbLine
 10
595.7412870916
 20
-73.2796645773
 30
0.0
 11
595.7412870916
 21
-69.0022366522
 31
0.0
  0
LINE
  5
2E9
330
1F
100
AcDbEntity
  8
0
  6
Continuous
 62
     7
370
    25
100
AcDbLine
 10
596.0875511733
 20
-44.3766300259
 30
0.0
 11
597.0837458714
 21
-44.3766300259
 31
0.0
  0
LINE
  5
2EA
330
1F
100
AcDbEntity
  8
0
  6
Continuous
 62
     7
370
    25
100
AcDbLine
 10
595.9387722048
 20
-42.6695828046
 30
0.0
 11
596.0875511733
 21
-44.3766300259
 31
0.0
  0
LINE
  5
2EB
330
1F
100
AcDbEntity
  8
0
  6
Continuous
 62
     7
370
    25
100
AcDbLine
 10
596.3997997173
 20
-57.3451342533
 30
0.0
 11
596.8962501351
 21
-57.3451342533
 31
0.0
  0
LINE
  5
2EC
330
1F
100
AcDbEntity
  8
0
  6
Continuous
 62
     7
370
    25
100
AcDbLine
 10
596.1686888521
 20
-45.8946820821
 30
0.0
 11
596.9514389169
 21
-45.8946820821
 31
0.0
  0
LINE
  5
2ED
330
1F
100
AcDbEntity
  8
0
  6
Continuous
 62
     7
370
    25
100
AcDbLine
 10
596.0875511733
 20
-44.3766300259
 30
0.0
 11
596.0045104267
 21
-45.3294157397
 31
0.0
  0
LINE
  5
2EE
330
1F
100
AcDbEntity
  8
0
  6
Continuous
 62
     7
370
    25
100
AcDbLine
 10
597.1777423989
 20
-101.5086630613
 30
0.0
 11
596.9090509145
 21
-99.227759283
 31
0.0
  0
LINE
  5
2EF
330
1F
100
AcDbEntity
  8
0
  6
Continuous
 62
     7
370
    25
100
AcDbLine
 10
9.6937053222
 20
-31.108101579
 30
0.0
 11
9.2510753397
 21
-31.108101579
 31
0.0
  0
LINE
  5
2F0
330
1F
100
AcDbEntity
  8
0
  6
Continuous
 62
     7
370
    25
100
AcDbLine
 10
606.6840014432
 20
-28.5
 30
0.0
 11
606.6840014432
 21
-31.5
 31
0.0
  0
LINE
  5
2F1
330
1F
100
AcDbEntity
  8
0
  6
Continuous
 62
     7
370
    25
100
AcDbLine
 10
606.6840014432
 20
-98.5
 30
0.0
 11
606.6840014432
 21
-101.5
 31
0.0
  0
LINE
  5
2F2
330
1F
100
AcDbEntity
  8
0
  6
Continuous
 62
     7
370
    25
100
AcDbLine
 10
606.8576496209
 20
-28.5000194329
 30
0.0
 11
606.8576496209
 21
-31.4999805671
 31
0.0
  0
LINE
  5
2F3
330
1F
100
AcDbEntity
  8
0
  6
Continuous
 62
     7
370
    25
100
AcDbLine
 10
606.8576496209
 20
-98.5000194329
 30
0.0
 11
606.8576496209
 21
-101.4999805671
 31
0.0
  0
LINE
  5
2F4
330
1F
100
AcDbEntity
  8
0
  6
Continuous
 62
     7
370
    25
100
AcDbLine
 10
581.3984811436
 20
-101.5
 30
0.0
 11
580.8976196254
 21
-101.4111478058
 31
0.0
  0
LINE
  5
2F5
330
1F
100
AcDbEntity
  8
0
  6
Continuous
 62
     7
370
    25
100
AcDbLine
 10
580.8976196254
 20
-98.5888521942
 30
0.0
 11
581.3984811436
 21
-98.5
 31
0.0
  0
LINE
  5
2F6
330
1F
100
AcDbEntity
  8
0
  6
Continuous
 62
     7
370
    25
100
AcDbLine
 10
597.1767218864
 20
-101.5
 30
0.0
 11
595.2578328854
 21
-101.5
 31
0.0
  0
LINE
  5
2F7
330
1F
100
AcDbEntity
  8
0
  6
Continuous
 62
     7
370
    25
100
AcDbLine
 10
592.7163999032
 20
-101.5
 30
0.0
 11
591.1115002073
 21
-101.5
 31
0.0
  0
LINE
  5
2F8
330
1F
100
AcDbEntity
  8
0
  6
Continuous
 62
     7
370
    25
100
AcDbLine
 10
581.6348969623
 20
-101.5
 30
0.0
 11
581.3984811436
 21
-101.5
 31
0.0
  0
LINE
  5
2F9
330
1F
100
AcDbEntity
  8
0
  6
Continuous
 62
     7
370
    25
100
AcDbLine
 10
581.3984811436
 20
-98.5
 30
0.0
 11
581.6348969623
 21
-98.5
 31
0.0
  0
LINE
  5
2FA
330
1F
100
AcDbEntity
  8
0
  6
Continuous
 62
     7
370
    25
100
AcDbLine
 10
591.4011141378
 20
-98.5
 30
0.0
 11
592.6769881334
 21
-98.5
 31
0.0
  0
LINE
  5
2FB
330
1F
100
AcDbEntity
  8
0
  6
Continuous
 62
     7
370
    25
100
AcDbLine
 10
595.292913521
 20
-98.5
 30
0.0
 11
595.9979440306
 21
-98.5
 31
0.0
  0
LINE
  5
2FC
330
1F
100
AcDbEntity
  8
0
  6
Continuous
 62
     7
370
    25
100
AcDbLine
 10
581.3984811436
 20
-31.5
 30
0.0
 11
580.8976196254
 21
-31.4111478058
 31
0.0
  0
LINE
  5
2FD
330
1F
100
AcDbEntity
  8
0
  6
Continuous
 62
     7
370
    25
100
AcDbLine
 10
580.8976196254
 20
-28.5888521942
 30
0.0
 11
581.3984811436
 21
-28.5
 31
0.0
  0
LINE
  5
2FE
330
1F
100
AcDbEntity
  8
0
  6
Continuous
 62
     7
370
    25
100
AcDbLine
 10
597.9239527342
 20
-31.5
 30
0.0
 11
597.7450299196
 21
-31.5
 31
0.0
  0
LINE
  5
2FF
330
1F
100
AcDbEntity
  8
0
  6
Continuous
 62
     7
370
    25
100
AcDbLine
 10
581.6348969623
 20
-31.5
 30
0.0
 11
581.3984811436
 21
-31.5
 31
0.0
  0
LINE
  5
300
330
1F
100
AcDbEntity
  8
0
  6
Continuous
 62
     7
370
    25
100
AcDbLine
 10
581.3984811436
 20
-28.5
 30
0.0
 11
581.6348969623
 21
-28.5
 31
0.0
  0
LINE
  5
301
330
1F
100
AcDbEntity
  8
0
  6
Continuous
 62
     7
370
    25
100
AcDbLine
 10
43.7758371823
 20
-101.5
 30
0.0
 11
40.2120686963
 21
-101.5
 31
0.0
  0
ARC
  5
302
330
1F
100
AcDbEntity
  8
0
  6
Continuous
 62
     7
370
    25
100
AcDbCircle
 10
282.2638595025
 20
-385.1304715126
 30
0.0
 40
314.5112265307034
100
AcDbArc
 50
57.4574373
 51
122.5425627
  0
ARC
  5
303
330
1F
100
AcDbEntity
  8
0
  6
Continuous
 62
     7
370
    25
100
AcDbCircle
 10
9.3056895871
 20
-100.0
 30
0.0
 40
1.500000000000043
100
AcDbArc
 50
270.0
 51
90.0
  0
ARC
  5
304
330
1F
100
AcDbEntity
  8
0
  6
Continuous
 62
     7
370
    25
100
AcDbCircle
 10
-10.6943104129
 20
-100.0
 30
0.0
 40
1.500000000000043
100
AcDbArc
 50
90.0
 51
270.0
  0
ARC
  5
305
330
1F
100
AcDbEntity
  8
0
  6
Continuous
 62
     7
370
    25
100
AcDbCircle
 10
9.3056895871
 20
-30.0
 30
0.0
 40
1.5
100
AcDbArc
 50
270.0
 51
90.0
  0
ARC
  5
306
330
1F
100
AcDbEntity
  8
0
  6
Continuous
 62
     7
370
    25
100
AcDbCircle
 10
-10.6943104129
 20
-30.0
 30
0.0
 40
1.500000000000011
100
AcDbArc
 50
90.0
 51
270.0
  0
ARC
  5
307
330
1F
100
AcDbEntity
  8
0
  6
Continuous
 62
     7
370
    25
100
AcDbCircle
 10
555.2220294178
 20
-30.0
 30
0.0
 40
1.500000000000007
100
AcDbArc
 50
90.0
 51
270.0
  0
ARC
  5
308
330
1F
100
AcDbEntity
  8
0
  6
Continuous
 62
     7
370
    25
100
AcDbCircle
 10
575.2220294178
 20
-30.0
 30
0.0
 40
1.500000000000007
100
AcDbArc
 50
270.0
 51
90.0
  0
ARC
  5
309
330
1F
100
AcDbEntity
  8
0
  6
Continuous
 62
     7
370
    25
100
AcDbCircle
 10
555.2220294178
 20
-100.0
 30
0.0
 40
1.5
100
AcDbArc
 50
90.0
 51
270.0
  0
ARC
  5
30A
330
1F
100
AcDbEntity
  8
0
  6
Continuous
 62
     7
370
    25
100
AcDbCircle
 10
575.2220294178
 20
-100.0
 30
0.0
 40
1.500000000000014
100
AcDbArc
 50
270.0
 51
90.0
  0
ARC
  5
30B
330
1F
100
AcDbEntity
  8
0
  6
Continuous
 62
     7
370
    25
100
AcDbCircle
 10
599.7937657068
 20
-54.1790928235
 30
0.0
 40
6.259497771802641
100
AcDbArc
 50
171.1592445269
 51
175.378830829
  0
ARC
  5
30C
330
1F
100
AcDbEntity
  8
0
  6
Continuous
 62
     7
370
    25
100
AcDbCircle
 10
609.8284709022
 20
-46.1265311059
 30
0.0
 40
16.39170598290445
100
AcDbArc
 50
176.9748203447
 51
188.3043569218
  0
ARC
  5
30D
330
1F
100
AcDbEntity
  8
0
  6
Continuous
 62
     7
370
    25
100
AcDbCircle
 10
592.7406007832
 20
-41.9400155466
 30
0.0
 40
0.4283214438728439
100
AcDbArc
 50
318.8564934897
 51
2.4444512936
  0
ARC
  5
30E
330
1F
100
AcDbEntity
  8
0
  6
Continuous
 62
     7
370
    25
100
AcDbCircle
 10
554.520381526
 20
-50.9857830128
 30
0.0
 40
38.65877661639555
100
AcDbArc
 50
358.5021105752
 51
6.619472381
  0
ARC
  5
30F
330
1F
100
AcDbEntity
  8
0
  6
Continuous
 62
     7
370
    25
100
AcDbCircle
 10
568.6811969927
 20
-55.5309468436
 30
0.0
 40
26.66109849703049
100
AcDbArc
 50
357.461223118
 51
0.0604146678
  0
ARC
  5
310
330
1F
100
AcDbEntity
  8
0
  6
Continuous
 62
     7
370
    25
100
AcDbCircle
 10
607.8358468873
 20
-62.1997508502
 30
0.0
 40
11.54358814759684
100
AcDbArc
 50
172.9867483969
 51
177.8243753605
  0
ARC
  5
311
330
1F
100
AcDbEntity
  8
0
  6
Continuous
 62
     7
370
    25
100
AcDbCircle
 10
580.9950765385
 20
-62.1997508502
 30
0.0
 40
11.54358814726435
100
AcDbArc
 50
2.1756246395
 51
7.0132516032
  0
ARC
  5
312
330
1F
100
AcDbEntity
  8
0
  6
Continuous
 62
     7
370
    25
100
AcDbCircle
 10
620.1497264331
 20
-55.5309468436
 30
0.0
 40
26.66109849731698
100
AcDbArc
 50
179.9395853322
 51
182.538776882
  0
ARC
  5
313
330
1F
100
AcDbEntity
  8
0
  6
Continuous
 62
     7
370
    25
100
AcDbCircle
 10
1092.2422109582
 20
-58.2612826219
 30
0.0
 40
502.5767321076779
100
AcDbArc
 50
176.098188378
 51
179.7510042625
  0
ARC
  5
314
330
1F
100
AcDbEntity
  8
0
  6
Continuous
 62
     7
370
    25
100
AcDbCircle
 10
407.3695877661
 20
-38.1511779709
 30
0.0
 40
183.8853467300463
100
AcDbArc
 50
356.4961267051
 51
0.518521218
  0
ARC
  5
315
330
1F
100
AcDbEntity
  8
0
  6
Continuous
 62
     7
370
    25
100
AcDbCircle
 10
634.3105418985
 20
-50.985783013
 30
0.0
 40
38.65877661534328
100
AcDbArc
 50
173.3805276189
 51
181.4978894245
  0
ARC
  5
316
330
1F
100
AcDbEntity
  8
0
  6
Continuous
 62
     7
370
    25
100
AcDbCircle
 10
596.0903226423
 20
-41.9400155466
 30
0.0
 40
0.428321443874801
100
AcDbArc
 50
177.5555487071
 51
221.1435065101
  0
ARC
  5
317
330
1F
100
AcDbEntity
  8
0
  6
Continuous
 62
     7
370
    25
100
AcDbCircle
 10
579.0024525233
 20
-46.1265311059
 30
0.0
 40
16.39170598290698
100
AcDbArc
 50
351.6956430782
 51
3.0251796553
  0
ARC
  5
318
330
1F
100
AcDbEntity
  8
0
  6
Continuous
 62
     7
370
    25
100
AcDbCircle
 10
589.0371577181
 20
-54.1790928235
 30
0.0
 40
6.259497772398984
100
AcDbArc
 50
4.6211691713
 51
8.840755473
  0
ARC
  5
319
330
1F
100
AcDbEntity
  8
0
  6
Continuous
 62
     7
370
    25
100
AcDbCircle
 10
621.2819587828
 20
-46.9991147142
 30
0.0
 40
24.35557366162414
100
AcDbArc
 50
177.4009630736
 51
178.8949465732
  0
ARC
  5
31A
330
1F
100
AcDbEntity
  8
0
  6
Continuous
 62
     7
370
    25
100
AcDbCircle
 10
584.4317189017
 20
-40.406845229
 30
0.0
 40
11.54358814695979
100
AcDbArc
 50
352.9867483968
 51
357.8243753606
  0
ARC
  5
31B
330
1F
100
AcDbEntity
  8
0
  6
Continuous
 62
     7
370
    25
100
AcDbCircle
 10
596.1772431461
 20
-60.6665805325
 30
0.0
 40
0.4283214438711345
100
AcDbArc
 50
357.5555487057
 51
41.1435065104
  0
ARC
  5
31C
330
1F
100
AcDbEntity
  8
0
  6
Continuous
 62
     7
370
    25
100
AcDbCircle
 10
613.2651132652
 20
-56.4800649732
 30
0.0
 40
16.39170598291251
100
AcDbArc
 50
171.6956430782
 51
183.0251796553
  0
ARC
  5
31D
330
1F
100
AcDbEntity
  8
0
  6
Continuous
 62
     7
370
    25
100
AcDbCircle
 10
605.9952122147
 20
-48.091763504
 30
0.0
 40
9.043533488003748
100
AcDbArc
 50
182.5492878877
 51
188.2504721556
  0
ARC
  5
31E
330
1F
100
AcDbEntity
  8
0
  6
Continuous
 62
     7
370
    25
100
AcDbCircle
 10
555.8270990411
 20
-51.477702769
 30
0.0
 40
40.79113061211889
100
AcDbArc
 50
353.5257230802
 51
1.9628504374
  0
ARC
  5
31F
330
1F
100
AcDbEntity
  8
0
  6
Continuous
 62
     7
370
    25
100
AcDbCircle
 10
575.5658101603
 20
-56.4800649732
 30
0.0
 40
16.39170598290369
100
AcDbArc
 50
356.9748203447
 51
8.3043569218
  0
ARC
  5
320
330
1F
100
AcDbEntity
  8
0
  6
Continuous
 62
     7
370
    25
100
AcDbCircle
 10
592.6536802794
 20
-60.6665805325
 30
0.0
 40
0.4283214438723831
100
AcDbArc
 50
138.8564934897
 51
182.4444512937
  0
ARC
  5
321
330
1F
100
AcDbEntity
  8
0
  6
Continuous
 62
     7
370
    25
100
AcDbCircle
 10
633.0038243822
 20
-51.4777027687
 30
0.0
 40
40.79113060989576
100
AcDbArc
 50
178.037149563
 51
186.4742769199
  0
ARC
  5
322
330
1F
100
AcDbEntity
  8
0
  6
Continuous
 62
     7
370
    25
100
AcDbCircle
 10
582.8357112107
 20
-48.091763504
 30
0.0
 40
9.043533488138536
100
AcDbArc
 50
351.7495278444
 51
357.4507121122
  0
ARC
  5
323
330
1F
100
AcDbEntity
  8
0
  6
Continuous
 62
     7
370
    25
100
AcDbCircle
 10
604.3992045241
 20
-40.406845229
 30
0.0
 40
11.54358814732727
100
AcDbArc
 50
182.1756246395
 51
187.0132516032
  0
ARC
  5
324
330
1F
100
AcDbEntity
  8
0
  6
Continuous
 62
     7
370
    25
100
AcDbCircle
 10
567.5489646441
 20
-46.9991147142
 30
0.0
 40
24.35557366020741
100
AcDbArc
 50
1.1050534268
 51
2.5990369265
  0
ARC
  5
325
330
1F
100
AcDbEntity
  8
0
  6
Continuous
 62
     7
370
    25
100
AcDbCircle
 10
1125.1531854109
 20
-62.5837525687
 30
0.0
 40
535.5038979074556
100
AcDbArc
 50
179.8333658066
 51
183.6328631282
  0
ARC
  5
326
330
1F
100
AcDbEntity
  8
0
  6
Continuous
 62
     7
370
    25
100
AcDbCircle
 10
76.8419066693
 20
-62.8603008212
 30
0.0
 40
522.7952142755563
100
AcDbArc
 50
356.1415736541
 51
0.1777491849
  0
ARC
  5
327
330
1F
100
AcDbEntity
  8
0
  6
Continuous
 62
     7
370
    25
100
AcDbCircle
 10
606.0729657012
 20
-96.2508893759
 30
0.0
 40
10.7600771795067
100
AcDbArc
 50
155.2588437155
 51
181.4057325994
  0
ARC
  5
328
330
1F
100
AcDbEntity
  8
0
  6
Continuous
 62
     7
370
    25
100
AcDbCircle
 10
656.9216114695
 20
-37.0942544791
 30
0.0
 40
59.47325227798622
100
AcDbArc
 50
176.9684699689
 51
188.4173845684
  0
ARC
  5
329
330
1F
100
AcDbEntity
  8
0
  6
Continuous
 62
     7
370
    25
100
AcDbCircle
 10
160.6557739182
 20
-56.1124990286
 30
0.0
 40
438.9469170071731
100
AcDbArc
 50
0.261049574
 51
4.892811558
  0
ARC
  5
32A
330
1F
100
AcDbEntity
  8
0
  6
Continuous
 62
     7
370
    25
100
AcDbCircle
 10
577.937589841
 20
-100.0
 30
0.0
 40
7.034189247526392
100
AcDbArc
 50
347.6874617538
 51
12.3125382462
  0
ARC
  5
32B
330
1F
100
AcDbEntity
  8
0
  6
Continuous
 62
     7
370
    25
100
AcDbCircle
 10
589.9392657621
 20
-100.0
 30
0.0
 40
7.034189247515358
100
AcDbArc
 50
167.6874617538
 51
192.3125382462
  0
ARC
  5
32C
330
1F
100
AcDbEntity
  8
0
  6
Continuous
 62
     7
370
    25
100
AcDbCircle
 10
577.937589841
 20
-30.0
 30
0.0
 40
7.034189247526279
100
AcDbArc
 50
347.6874617538
 51
12.3125382462
  0
ARC
  5
32D
330
1F
100
AcDbEntity
  8
0
  6
Continuous
 62
     7
370
    25
100
AcDbCircle
 10
589.9392657622
 20
-30.0
 30
0.0
 40
7.034189247522689
100
AcDbArc
 50
167.6874617538
 51
192.3125382462
  0
ARC
  5
32E
330
1F
100
AcDbEntity
  8
0
  6
Continuous
 62
     7
370
    25
100
AcDbCircle
 10
612.9824593897
 20
-30.0
 30
0.0
 40
7.034189247526187
100
AcDbArc
 50
167.6874617538
 51
192.3125382462
  0
ARC
  5
32F
330
1F
100
AcDbEntity
  8
0
  6
Continuous
 62
     7
370
    25
100
AcDbCircle
 10
600.9807834685
 20
-30.0
 30
0.0
 40
7.034189247529999
100
AcDbArc
 50
347.6874617538
 51
12.3125382462
  0
ARC
  5
330
330
1F
100
AcDbEntity
  8
0
  6
Continuous
 62
     7
370
    25
100
AcDbCircle
 10
612.9824593897
 20
-100.0
 30
0.0
 40
7.03418924752641
100
AcDbArc
 50
167.6874617538
 51
192.3125382462
  0
ARC
  5
331
330
1F
100
AcDbEntity
  8
0
  6
Continuous
 62
     7
370
    25
100
AcDbCircle
 10
600.9807834685
 20
-100.0
 30
0.0
 40
7.034189247537329
100
AcDbArc
 50
347.6874617538
 51
12.3125382462
  0
ARC
  5
332
330
1F
100
AcDbEntity
  8
0
  6
Continuous
 62
     7
370
    25
100
AcDbCircle
 10
-13.6258118678
 20
-98.1763464421
 30
0.0
 40
23.29906906858686
100
AcDbArc
 50
351.8127219815
 51
359.0933937489
  0
ARC
  5
333
330
1F
100
AcDbEntity
  8
0
  6
Continuous
 62
     7
370
    25
100
AcDbCircle
 10
-40.243355579
 20
-31.0266206045
 30
0.0
 40
49.9371273763407
100
AcDbArc
 50
359.9065120831
 51
2.859007384
  0
ARC
  5
334
330
1F
100
AcDbEntity
  8
0
  6
Continuous
 62
     7
370
    25
100
AcDbCircle
 10
-15.1542530354
 20
-99.9222088278
 30
0.0
 40
16.82649066728402
100
AcDbArc
 50
354.6195687208
 51
4.8485391994
  0
ARC
  5
335
330
1F
100
AcDbEntity
  8
0
  6
Continuous
 62
     7
370
    25
100
AcDbCircle
 10
-15.1542530355
 20
-29.9222088278
 30
0.0
 40
16.82649066731395
100
AcDbArc
 50
354.6195687208
 51
4.8485391994
  0
ARC
  5
336
330
1F
100
AcDbEntity
  8
0
  6
Continuous
 62
     7
370
    25
100
AcDbCircle
 10
11.6211719487
 20
-98.4185646485
 30
0.0
 40
20.41456514351678
100
AcDbArc
 50
180.2285581048
 51
186.5042316911
  0
ARC
  5
337
330
1F
100
AcDbEntity
  8
0
  6
Continuous
 62
     7
370
    25
100
AcDbCircle
 10
2.1180117877
 20
-100.3917750154
 30
0.0
 40
10.78534431010569
100
AcDbArc
 50
181.8026905715
 51
185.8977146427
  0
ARC
  5
338
330
1F
100
AcDbEntity
  8
0
  6
Continuous
 62
     7
370
    25
100
AcDbCircle
 10
-9.0617265187
 20
-30.0
 30
0.0
 40
7.034189247526561
100
AcDbArc
 50
167.6874617538
 51
192.3125382462
  0
ARC
  5
339
330
1F
100
AcDbEntity
  8
0
  6
Continuous
 62
     7
370
    25
100
AcDbCircle
 10
-9.0617265187
 20
-100.0
 30
0.0
 40
7.034189247528497
100
AcDbArc
 50
167.6874617538
 51
192.3125382462
  0
ARC
  5
33A
330
1F
100
AcDbEntity
  8
0
  6
Continuous
 62
     7
370
    25
100
AcDbCircle
 10
576.9413951429
 20
-30.0
 30
0.0
 40
7.034189247523724
100
AcDbArc
 50
347.6874617538
 51
12.3125382462
  0
ARC
  5
33B
330
1F
100
AcDbEntity
  8
0
  6
Continuous
 62
     7
370
    25
100
AcDbCircle
 10
576.9413951429
 20
-100.0
 30
0.0
 40
7.034189247523837
100
AcDbArc
 50
347.6874617538
 51
12.3125382462
  0
ARC
  5
33C
330
1F
100
AcDbEntity
  8
0
  6
Continuous
 62
     7
370
    25
100
AcDbCircle
 10
406.3733930678
 20
-38.1511779709
 30
0.0
 40
183.8853467302684
100
AcDbArc
 50
356.4961267051
 51
0.518521218
  0
ARC
  5
33D
330
1F
100
AcDbEntity
  8
0
  6
Continuous
 62
     7
370
    25
100
AcDbCircle
 10
527.9459731395
 20
-14.8586507149
 30
0.0
 40
64.56125338078868
100
AcDbArc
 50
355.0441181417
 51
358.7890189949
  0
ARC
  5
33E
330
1F
100
AcDbEntity
  8
0
  6
Continuous
 62
     7
370
    25
100
AcDbCircle
 10
540.2283334246
 20
-73.4925253179
 30
0.0
 40
55.2756783406981
100
AcDbArc
 50
346.6798156756
 51
0.2206404801
  0
ARC
  5
33F
330
1F
100
AcDbEntity
  8
0
  6
Continuous
 62
     7
370
    25
100
AcDbCircle
 10
567.2429464885
 20
-99.2118904056
 30
0.0
 40
25.55070516616873
100
AcDbArc
 50
6.0592064925
 51
9.8779286626
  0
ARC
  5
340
330
1F
100
AcDbEntity
  8
0
  6
Continuous
 62
     7
370
    25
100
AcDbCircle
 10
533.4757645726
 20
-21.2785676886
 30
0.0
 40
63.44595588337936
100
AcDbArc
 50
6.071458993
 51
13.3847839568
  0
ARC
  5
341
330
1F
100
AcDbEntity
  8
0
  6
Continuous
 62
     7
370
    25
100
AcDbCircle
 10
525.8197745584
 20
-98.3170334608
 30
0.0
 40
71.42930822733494
100
AcDbArc
 50
345.347785735
 51
357.4390370773
  0
ARC
  5
342
330
1F
100
AcDbEntity
  8
0
  6
Continuous
 62
     7
370
    25
100
AcDbCircle
 10
89.8114592307
 20
-57.7373355567
 30
0.0
 40
508.7880453151587
100
AcDbArc
 50
1.2403265985
 51
3.0989020973
  0
ARC
  5
343
330
1F
100
AcDbEntity
  8
0
  6
Continuous
 62
     7
370
    25
100
AcDbCircle
 10
62.5081454395
 20
-63.061480921
 30
0.0
 40
536.1176046068798
100
AcDbArc
 50
356.8415239387
 51
359.582933043
  0
ARC
  5
344
330
1F
100
AcDbEntity
  8
0
  6
Continuous
 62
     7
370
    25
100
AcDbCircle
 10
-16.1504477336
 20
-99.9222088278
 30
0.0
 40
16.82649066733264
100
AcDbArc
 50
354.6195687208
 51
4.8485391994
  0
ARC
  5
345
330
1F
100
AcDbEntity
  8
0
  6
Continuous
 62
     7
370
    25
100
AcDbCircle
 10
-16.1504477336
 20
-29.9222088278
 30
0.0
 40
16.82649066730755
100
AcDbArc
 50
354.6195687208
 51
4.8485391994
  0
ARC
  5
346
330
1F
100
AcDbEntity
  8
0
  6
Continuous
 62
     7
370
    25
100
AcDbCircle
 10
599.9845887704
 20
-30.0
 30
0.0
 40
7.034189247523835
100
AcDbArc
 50
347.6874617538
 51
12.3125382462
  0
ARC
  5
347
330
1F
100
AcDbEntity
  8
0
  6
Continuous
 62
     7
370
    25
100
AcDbCircle
 10
599.9845887704
 20
-100.0
 30
0.0
 40
7.034189247523948
100
AcDbArc
 50
347.6874617538
 51
12.3125382462
  0
ARC
  5
348
330
1F
100
AcDbEntity
  8
0
  6
Continuous
 62
     7
370
    25
100
AcDbCircle
 10
43.7658820527
 20
-100.0150215631
 30
0.0
 40
1.48501180560233
100
AcDbArc
 50
270.384098754
 51
349.5682189164
  0
ARC
  5
349
330
1F
100
AcDbEntity
  8
0
  6
Continuous
 62
     7
370
    25
100
AcDbCircle
 10
312.8079321708
 20
-377.0796693472
 30
0.0
 40
306.4696133694702
100
AcDbArc
 50
92.8552938691
 51
122.981931542
  0
ARC
  5
34A
330
1F
100
AcDbEntity
  8
0
  6
Continuous
 62
     7
370
    25
100
AcDbCircle
 10
156.4379069934
 20
-99.9770470495
 30
0.0
 40
3.988474578786135
100
AcDbArc
 50
359.6702713219
 51
68.7677064222
  0
ARC
  5
34B
330
1F
100
AcDbEntity
  8
0
  6
Continuous
 62
     7
370
    25
100
AcDbCircle
 10
156.4770675229
 20
-100.0271477552
 30
0.0
 40
3.949341311597454
100
AcDbArc
 50
156.9652587067
 51
0.3938540445
  0
ARC
  5
34C
330
1F
100
AcDbEntity
  8
0
  6
Continuous
 62
     7
370
    25
100
AcDbCircle
 10
312.981844887
 20
-377.0802227005
 30
0.0
 40
306.4702215537058
100
AcDbArc
 50
92.871465703
 51
122.9819167118
  0
ARC
  5
34D
330
1F
100
AcDbEntity
  8
0
  6
Continuous
 62
     7
370
    25
100
AcDbCircle
 10
156.6881169716
 20
-100.0339124733
 30
0.0
 40
3.966760255718841
100
AcDbArc
 50
179.5101631711
 51
268.3501493538
  0
ENDSEC
  0
SECTION
  2
OBJECTS
  0
DICTIONARY
  5
C
330
0
100
AcDbDictionary
281
     1
  3
ACAD_GROUP
350
D
  3
ACAD_LAYOUT
350
1A
  3
ACAD_MLINESTYLE
350
17
  3
ACAD_PLOTSETTINGS
350
19
  3
ACAD_PLOTSTYLENAME
350
E
  3
ACAD_SCALELIST
350
47
  3
DWGPROPS
350
34E
  0
DICTIONARY
  5
D
102
{ACAD_REACTORS
330
C
102
}
330
C
100
AcDbDictionary
281
     1
  0
DICTIONARY
  5
1A
102
{ACAD_REACTORS
330
C
102
}
330
C
100
AcDbDictionary
281
     1
  3
Layout1
350
1E
  3
Layout2
350
26
  3
Model
350
22
  0
DICTIONARY
  5
17
102
{ACAD_REACTORS
330
C
102
}
330
C
100
AcDbDictionary
281
     1
  3
Standard
350
18
  0
DICTIONARY
  5
19
102
{ACAD_REACTORS
330
C
102
}
330
C
100
AcDbDictionary
281
     1
  0
ACDBDICTIONARYWDFLT
  5
E
102
{ACAD_REACTORS
330
C
102
}
330
C
100
AcDbDictionary
281
     1
  3
Normal
350
F
100
AcDbDictionaryWithDefault
340
F
  0
DICTIONARY
  5
47
102
{ACAD_REACTORS
330
C
102
}
330
C
100
AcDbDictionary
281
     1
  3
A0
350
48
  3
A1
350
49
  3
A2
350
4A
  3
A3
350
4B
  3
A4
350
4C
  3
A5
350
4D
  3
A6
350
4E
  3
A7
350
4F
  3
A8
350
50
  3
A9
350
51
  3
B0
350
52
  3
B1
350
53
  3
B2
350
54
  3
B3
350
55
  3
B4
350
56
  3
B5
350
57
  3
B6
350
58
  0
XRECORD
  5
34E
102
{ACAD_REACTORS
330
C
102
}
330
C
100
AcDbXrecord
280
     1
  1
DWGPROPS COOKIE
  2

  3

  4

  6

  7

  8
momos
  9

300
=
301
=
302
=
303
=
304
=
305
=
306
=
307
=
308
=
309
=
 40
0.0
 41
2460701.830554942
 42
2460701.830758577
  1

 90
        0
  0
LAYOUT
  5
1E
102
{ACAD_REACTORS
330
1A
102
}
330
1A
100
AcDbPlotSettings
  1

  2
none_device
  4

  6

 40
0.0
 41
0.0
 42
0.0
 43
0.0
 44
0.0
 45
0.0
 46
0.0
 47
0.0
 48
0.0
 49
0.0
140
0.0
141
0.0
142
1.0
143
1.0
 70
   688
 72
     1
 73
     0
 74
     5
  7

 75
    16
147
1.0
148
0.0
149
0.0
100
AcDbLayout
  1
Layout1
 70
     1
 71
     1
 10
0.0
 20
0.0
 11
420.0
 21
297.0
 12
0.0
 22
0.0
 32
0.0
 14
1.0000000000E+20
 24
1.0000000000E+20
 34
1.0000000000E+20
 15
-1.0000000000E+20
 25
-1.0000000000E+20
 35
-1.0000000000E+20
146
0.0
 13
0.0
 23
0.0
 33
0.0
 16
1.0
 26
0.0
 36
0.0
 17
0.0
 27
1.0
 37
0.0
 76
     0
330
1B
  0
LAYOUT
  5
26
102
{ACAD_REACTORS
330
1A
102
}
330
1A
100
AcDbPlotSettings
  1

  2
none_device
  4

  6

 40
0.0
 41
0.0
 42
0.0
 43
0.0
 44
0.0
 45
0.0
 46
0.0
 47
0.0
 48
0.0
 49
0.0
140
0.0
141
0.0
142
1.0
143
1.0
 70
   688
 72
     1
 73
     0
 74
     5
  7

 75
    16
147
1.0
148
0.0
149
0.0
100
AcDbLayout
  1
Layout2
 70
     1
 71
     2
 10
0.0
 20
0.0
 11
0.0
 21
0.0
 12
0.0
 22
0.0
 32
0.0
 14
0.0
 24
0.0
 34
0.0
 15
0.0
 25
0.0
 35
0.0
146
0.0
 13
0.0
 23
0.0
 33
0.0
 16
1.0
 26
0.0
 36
0.0
 17
0.0
 27
1.0
 37
0.0
 76
     0
330
23
  0
LAYOUT
  5
22
102
{ACAD_REACTORS
330
1A
102
}
330
1A
100
AcDbPlotSettings
  1

  2
none_device
  4
ANSI_A_(11.00_x_8.50_Inches)
  6

 40
6.35
 41
19.05
 42
6.35000508
 43
19.05000254
 44
279.4
 45
215.9
 46
2.791528252
 47
115.413719454
 48
0.0
 49
0.0
140
0.0
141
0.0
142
0.0173974545
143
1.0
 70
  1696
 72
     0
 73
     0
 74
     0
  7

 75
     0
147
0.0179189148
148
-1300.4909072572
149
0.0
100
AcDbLayout
  1
Model
 70
     1
 71
     0
 10
0.0
 20
0.0
 11
420.0
 21
297.0
 12
0.0
 22
0.0
 32
0.0
 14
-17.5257125304
 24
-120.0
 34
0.0
 15
608.4279275788
 25
0.0
 35
0.0
146
0.0
 13
0.0
 23
0.0
 33
0.0
 16
1.0
 26
0.0
 36
0.0
 17
0.0
 27
1.0
 37
0.0
 76
     0
330
1F
331
29
  0
MLINESTYLE
  5
18
102
{ACAD_REACTORS
330
17
102
}
330
17
100
AcDbMlineStyle
  2
Standard
 70
     0
  3

 62
   256
 51
90.0
 52
90.0
 71
     2
 49
0.5
 62
   256
  6
BYLAYER
 49
-0.5
 62
   256
  6
BYLAYER
  0
ACDBPLACEHOLDER
  5
F
102
{ACAD_REACTORS
330
E
102
}
330
E
  0
SCALE
  5
48
102
{ACAD_REACTORS
330
47
102
}
330
47
100
AcDbScale
 70
     0
300
1:1
140
1.0
141
1.0
290
     1
  0
SCALE
  5
49
102
{ACAD_REACTORS
330
47
102
}
330
47
100
AcDbScale
 70
     0
300
1:2
140
1.0
141
2.0
290
     0
  0
SCALE
  5
4A
102
{ACAD_REACTORS
330
47
102
}
330
47
100
AcDbScale
 70
     0
300
1:4
140
1.0
141
4.0
290
     0
  0
SCALE
  5
4B
102
{ACAD_REACTORS
330
47
102
}
330
47
100
AcDbScale
 70
     0
300
1:5
140
1.0
141
5.0
290
     0
  0
SCALE
  5
4C
102
{ACAD_REACTORS
330
47
102
}
330
47
100
AcDbScale
 70
     0
300
1:8
140
1.0
141
8.0
290
     0
  0
SCALE
  5
4D
102
{ACAD_REACTORS
330
47
102
}
330
47
100
AcDbScale
 70
     0
300
1:10
140
1.0
141
10.0
290
     0
  0
SCALE
  5
4E
102
{ACAD_REACTORS
330
47
102
}
330
47
100
AcDbScale
 70
     0
300
1:16
140
1.0
141
16.0
290
     0
  0
SCALE
  5
4F
102
{ACAD_REACTORS
330
47
102
}
330
47
100
AcDbScale
 70
     0
300
1:20
140
1.0
141
20.0
290
     0
  0
SCALE
  5
50
102
{ACAD_REACTORS
330
47
102
}
330
47
100
AcDbScale
 70
     0
300
1:30
140
1.0
141
30.0
290
     0
  0
SCALE
  5
51
102
{ACAD_REACTORS
330
47
102
}
330
47
100
AcDbScale
 70
     0
300
1:40
140
1.0
141
40.0
290
     0
  0
SCALE
  5
52
102
{ACAD_REACTORS
330
47
102
}
330
47
100
AcDbScale
 70
     0
300
1:50
140
1.0
141
50.0
290
     0
  0
SCALE
  5
53
102
{ACAD_REACTORS
330
47
102
}
330
47
100
AcDbScale
 70
     0
300
1:100
140
1.0
141
100.0
290
     0
  0
SCALE
  5
54
102
{ACAD_REACTORS
330
47
102
}
330
47
100
AcDbScale
 70
     0
300
2:1
140
2.0
141
1.0
290
     0
  0
SCALE
  5
55
102
{ACAD_REACTORS
330
47
102
}
330
47
100
AcDbScale
 70
     0
300
4:1
140
4.0
141
1.0
290
     0
  0
SCALE
  5
56
102
{ACAD_REACTORS
330
47
102
}
330
47
100
AcDbScale
 70
     0
300
8:1
140
8.0
141
1.0
290
     0
  0
SCALE
  5
57
102
{ACAD_REACTORS
330
47
102
}
330
47
100
AcDbScale
 70
     0
300
10:1
140
10.0
141
1.0
290
     0
  0
SCALE
  5
58
102
{ACAD_REACTORS
330
47
102
}
330
47
100
AcDbScale
 70
     0
300
100:1
140
100.0
141
1.0
290
     0
  0
ENDSEC
  0
EOF
